<svg viewBox="0 0 1391 286" fill="none" xmlns="http://www.w3.org/2000/svg" class="logo">
    <path d="M185.162 1.35117C151.627 5.5783 122.826 20.0069 99.2107 44.5806C92.56 51.5131 87.882 57.3747 82.4713 65.6599C56.4885 105.282 51.8669 153.302 69.7335 198.223C71.7062 203.183 73.0025 205.719 73.5661 205.719C74.017 205.719 76.666 204.93 79.3714 204.028C82.1331 203.07 85.9093 202.168 87.8256 201.999C89.7419 201.886 92.6164 201.492 94.1382 201.21C95.7163 200.928 98.0271 200.703 99.2671 200.703L101.578 200.646L101.916 196.814C102.085 194.728 102.142 192.925 102.029 192.812C101.916 192.699 101.522 194.165 101.127 196.081C100.338 199.857 99.4362 200.815 99.8871 197.377L100.169 195.236L96.0545 195.405C89.3474 195.63 86.1912 195.912 85.4021 196.419C84.8948 196.701 84.7821 196.645 85.0639 196.25C85.2894 195.855 85.1766 195.574 84.8948 195.574C84.5567 195.574 84.2749 195.855 84.2749 196.137C84.2749 196.475 83.6549 196.306 82.8658 195.799C82.1331 195.348 81.2313 195.066 80.8932 195.292C80.6113 195.461 80.1604 195.236 79.9914 194.785C79.3714 193.094 78.526 193.826 78.9205 195.686C79.2587 197.546 79.2587 197.546 78.526 196.137C78.0751 195.348 76.8351 192.192 75.6515 189.092C69.339 171.845 66.9154 156.684 67.5918 137.521C68.2118 117.851 72.5516 101.224 81.5695 83.4139C93.6309 59.7983 111.723 40.4662 134.55 26.9394C165.718 8.50911 204.438 3.71836 239.833 13.8635C262.322 20.3451 282.443 31.9556 299.52 48.2441L303.747 52.2458L288.812 52.584C272.918 52.9785 261.758 53.8803 250.767 55.7402C246.991 56.4166 242.031 57.0929 239.72 57.262C233.577 57.8256 230.984 56.4729 222.587 48.5259C217.458 43.6225 215.09 41.8189 211.821 40.2408C206.185 37.5354 198.689 36.07 187.417 35.5064C181.217 35.2246 177.272 34.7737 175.637 34.1537C172.706 33.0828 169.043 32.9701 168.705 33.9282C168.085 35.5627 169.606 38.5499 172.65 41.7625C175.299 44.5806 177.103 45.7642 182.908 48.6387C190.799 52.584 191.982 53.7676 193.109 59.0656C193.955 63.18 193.504 68.0835 191.926 71.2397C190.179 74.9032 186.684 78.1722 178.963 83.4702C159.123 96.997 142.327 113.398 131.168 130.081C119.05 148.117 112.568 162.377 108.849 179.229C107.101 187.063 105.805 194.841 105.58 198.617L105.411 201.379L109.074 202.619C111.103 203.295 114.034 204.479 115.556 205.268C117.134 206.057 120.346 207.241 122.77 207.917C130.999 210.171 135.057 212.482 141.426 218.569C145.991 222.909 147.625 223.98 151.458 225.22C153.262 225.727 154.614 226.347 154.445 226.46C154.276 226.629 154.952 227.193 155.854 227.756C156.812 228.376 157.545 229.053 157.545 229.391C157.545 229.729 157.094 229.673 156.418 229.278C155.798 228.883 155.291 228.32 155.291 228.094C155.291 227.813 154.896 227.982 154.445 228.489C153.825 229.109 153.149 229.165 151.965 228.827C150.669 228.489 150.331 228.545 150.556 229.109C150.782 229.673 149.936 229.785 146.724 229.616C144.469 229.503 142.046 229.278 141.369 229.053C140.58 228.827 140.073 228.94 140.073 229.334C140.073 229.673 139.791 229.954 139.453 229.954C139.171 229.954 139.002 229.729 139.171 229.447C139.34 229.165 138.833 228.771 137.931 228.545C137.086 228.376 135.959 227.756 135.395 227.249C134.662 226.573 134.268 226.516 133.76 227.024C132.859 227.925 132.182 227.869 132.182 226.854C132.182 226.404 131.788 226.009 131.281 226.009C130.83 226.009 130.604 226.234 130.773 226.573C131.45 227.643 130.661 227.136 123.954 222.064C114.09 214.511 106.425 211.186 95.1527 209.382C88.8402 208.311 83.6549 208.931 78.0751 211.355C73.1152 213.497 71.0862 214.004 62.9701 214.962C55.9813 215.864 52.6559 216.54 49.7815 217.667C48.9361 217.949 47.7525 218.062 47.2452 217.837C46.6816 217.555 45.7798 217.442 45.2725 217.498C44.3708 217.611 44.3708 217.442 45.2162 214.906C45.7234 213.44 46.3998 212.031 46.7379 211.749C47.0761 211.524 46.8507 211.411 46.2307 211.468C45.6107 211.58 44.9907 211.355 44.8217 211.073C44.4835 210.397 47.9215 209.213 52.1487 208.537C55.0231 208.086 54.9104 208.03 50.4578 208.199C46.3434 208.311 44.9907 208.593 41.7218 210.171C38.1146 211.806 34.2256 214.455 30.8439 217.442C24.0805 223.416 15.0063 226.573 2.55036 227.305L0.0140839 227.418L2.26855 228.433C6.43932 230.349 17.4299 233.956 23.9678 235.59C34.0002 238.07 38.2273 238.634 47.0761 238.578C56.714 238.521 60.152 237.789 71.8189 233.054C76.3279 231.251 81.0059 229.785 83.1476 229.447L86.8111 228.94L90.1928 232.716C92.0528 234.745 96.2235 239.198 99.4925 242.579C122.432 266.251 150.951 280.567 184.599 285.245C192.658 286.372 213.118 286.203 221.516 284.963C239.946 282.202 257.925 276.284 272.185 268.168C286.501 260.051 297.04 251.71 309.947 238.296L318.74 229.165L322.741 228.94C328.321 228.602 332.605 229.616 340.777 233.111C351.88 237.901 355.093 238.578 366.083 238.578C376.003 238.578 381.527 237.845 391.446 235.252C397.59 233.674 412.864 228.433 413.709 227.643C413.991 227.362 412.638 227.136 410.327 227.136C399.111 227.08 391.559 224.093 381.696 215.808C379.61 214.06 376.341 211.806 374.481 210.791C370.761 208.819 365.576 207.691 364.674 208.65C364.28 209.1 364.336 209.157 364.843 208.875C365.858 208.255 366.985 209.1 366.027 209.777C365.463 210.115 365.633 210.171 366.591 209.946C367.38 209.72 367.774 209.777 367.605 210.059C367.38 210.397 367.774 211.13 368.338 211.806C368.958 212.482 369.465 213.779 369.465 214.68C369.465 216.089 369.183 216.484 367.943 216.766C367.042 216.991 366.083 217.386 365.745 217.611C365.407 217.893 363.434 217.611 361.236 216.991C359.095 216.371 354.135 215.413 350.189 214.793C345.85 214.117 340.213 212.764 335.817 211.299C329.223 209.1 328.152 208.875 323.249 208.931C311.638 209.044 298.506 214.737 284.359 225.671C281.034 228.32 276.694 231.082 274.439 232.04C269.987 234.012 267.112 234.576 267.281 233.449C267.507 232.603 266.774 232.547 265.872 233.449C264.745 234.576 264.407 233.392 265.478 232.209C266.041 231.589 266.38 230.912 266.154 230.743C265.591 230.123 269.085 225.107 271.903 222.458C275.454 219.133 279.906 216.315 285.373 213.835C291.235 211.186 295.011 209.27 300.591 206.001C306.227 202.732 311.92 201.21 318.852 201.21C323.587 201.21 324.432 200.928 324.714 199.237C324.77 198.899 324.996 198.223 325.221 197.659C325.447 197.095 325.39 196.701 324.996 196.701C324.658 196.701 324.432 196.87 324.432 197.095C324.601 198.223 324.319 198.448 323.587 197.885C323.023 197.377 322.741 197.434 322.516 198.054C322.29 198.617 322.459 198.786 323.023 198.561C323.53 198.392 323.812 198.617 323.812 199.294C323.812 200.083 323.699 200.195 323.305 199.632C323.079 199.181 322.629 198.843 322.347 198.786C322.065 198.73 321.896 198.392 321.896 197.997C321.952 197.603 321.445 197.152 320.769 196.926C320.149 196.701 319.416 196.25 319.191 195.912C318.909 195.517 318.74 195.63 318.74 196.194C318.74 196.983 318.345 197.039 315.809 196.588C314.174 196.363 310.905 196.137 308.595 196.137C298.9 196.137 297.548 196.081 296.646 195.799C296.082 195.63 295.349 195.686 294.955 195.968C294.56 196.194 288.135 196.419 280.695 196.419C257.474 196.419 241.524 196.814 241.862 197.321C242.031 197.603 241.862 197.828 241.58 197.828C241.242 197.828 240.96 197.603 240.96 197.377C240.96 197.095 240.453 196.25 239.777 195.517L238.65 194.221L236.959 196.025C235.381 197.715 234.197 198.335 234.197 197.49C234.197 197.265 234.761 196.645 235.437 196.081C236.057 195.461 236.508 194.897 236.395 194.785C236.226 194.616 234.648 195.968 232.788 197.715C225.348 204.817 220.67 208.199 212.272 212.369C205.114 215.977 201.564 215.357 200.605 210.453C199.985 207.128 200.662 205.324 204.833 199.068C206.693 196.25 206.749 195.968 205.847 195.292C205.34 194.897 204.889 194.334 204.889 193.939C204.889 193.601 204.607 193.319 204.269 193.319C203.931 193.319 203.818 193.826 204.044 194.446C204.269 195.066 204.156 195.574 203.818 195.574C203.48 195.574 203.198 195.968 203.198 196.475C203.198 197.208 203.029 197.265 202.409 196.757C201.902 196.363 201.451 196.306 201.282 196.645C201.113 196.926 201.282 197.265 201.62 197.434C202.014 197.546 202.184 197.828 202.014 198.054C201.789 198.279 201.225 197.997 200.718 197.49C199.816 196.645 199.647 196.645 198.52 197.885C197.844 198.617 197.336 199.406 197.449 199.688C197.506 199.97 197.336 200.026 197.055 199.801C196.716 199.632 195.533 200.534 194.349 201.886C193.166 203.183 191.813 204.648 191.362 205.155C190.911 205.662 189.277 207.579 187.755 209.382C186.177 211.242 184.43 213.271 183.866 213.835C182.626 215.075 180.09 220.204 180.09 221.5C180.09 222.007 179.808 222.684 179.413 223.078C178.399 224.093 180.259 223.924 187.811 222.345C200.436 219.753 200.549 219.753 214.47 224.656C222.023 227.362 222.136 227.362 229.406 227.418C233.464 227.474 238.03 227.531 239.551 227.643L242.369 227.813L240.115 228.545L237.861 229.278L239.833 229.334C242.2 229.391 250.767 227.587 254.487 226.291C258.714 224.769 262.885 222.176 268.465 217.442C274.496 212.369 279.286 209.833 283.683 209.439C286.895 209.157 287.515 209.777 285.092 210.735C280.019 212.708 270.099 220.598 266.83 225.164C265.083 227.587 259.842 231.645 258.433 231.645C258.038 231.645 256.967 232.04 256.009 232.491C251.951 234.294 246.597 236.041 246.315 235.59C246.033 235.14 248.457 232.66 251.669 230.011C253.811 228.263 252.289 228.602 247.048 231.082C237.184 235.703 229.35 237 207.425 237.62C189.784 238.127 180.033 237.112 171.466 233.9C167.747 232.491 156.474 226.967 156.418 226.516C156.418 226.347 158.503 226.178 161.096 226.234C167.352 226.234 173.552 225.614 173.777 224.938C173.89 224.656 174.341 224.544 174.792 224.713C175.243 224.882 175.75 224.544 175.975 223.98C176.201 223.416 176.088 222.909 175.694 222.74C175.299 222.627 175.017 222.289 175.017 222.007C175.017 221.669 175.299 221.613 175.581 221.782C176.088 222.12 177.103 220.204 177.554 218.062C177.948 216.202 182.57 207.015 184.711 203.859C185.951 202.055 186.797 200.421 186.571 200.195C186.402 199.97 185.951 200.195 185.67 200.646C185.162 201.323 185.106 201.323 185.388 200.477C185.557 199.914 185.726 199.181 185.726 198.843C185.726 198.504 186.064 198.561 186.571 198.955C187.755 199.97 188.206 199.294 187.417 197.715C186.853 196.532 186.853 196.532 187.586 197.434C188.093 197.997 188.544 198.279 188.713 197.997C190.179 195.574 191.926 192.192 191.7 192.192C191.531 192.192 190.742 192.868 189.897 193.714C188.431 195.292 188.431 195.292 189.164 193.883C189.897 192.417 194.18 186.556 194.518 186.556C194.631 186.556 194.518 187.007 194.349 187.514C194.124 188.134 194.857 187.683 195.984 186.612C197.224 185.429 197.9 184.358 197.675 183.794C197.449 183.23 197.618 183.061 198.295 183.343C198.971 183.569 199.084 183.456 198.858 182.78C198.576 182.103 198.689 181.991 199.253 182.329C199.816 182.667 199.929 182.498 199.704 181.596C199.478 180.751 199.591 180.356 200.155 180.356C200.605 180.356 200.944 180.581 200.944 180.92C200.944 181.201 201.169 181.483 201.451 181.483C201.733 181.483 201.958 180.863 201.958 180.074C201.958 178.722 203.593 176.749 205.058 176.242C205.565 176.073 205.509 175.734 204.889 174.945C204.044 173.931 204.1 173.931 205.734 174.945C206.918 175.734 207.2 175.791 206.693 175.171C205.791 174.043 207.087 172.804 208.552 173.367C209.398 173.705 209.454 173.536 209.116 172.409C208.891 171.676 208.44 170.887 208.158 170.718C207.707 170.436 208.045 170.042 215.485 163.504L219.599 159.897L220.727 161.137L221.91 162.377L223.996 160.517C225.179 159.502 226.025 158.488 225.912 158.206C225.461 157.473 224.672 157.811 224.334 158.939C224.165 159.559 223.657 160.066 223.206 160.066C222.812 160.066 222.361 160.348 222.248 160.629C222.136 161.024 221.628 160.911 220.952 160.404C220.332 159.953 219.938 159.502 220.107 159.389C223.714 156.402 230.59 151.048 234.761 148.004C237.691 145.863 241.017 143.439 242.088 142.65C248.344 138.028 261.363 130.25 270.55 125.572C281.71 119.936 289.544 116.555 289.995 117.231C290.277 117.625 291.911 117.175 294.842 115.878C297.266 114.807 300.309 113.567 301.549 113.004C303.353 112.271 303.635 111.989 302.958 111.538C302.338 111.144 302.564 111.087 303.804 111.369C305.1 111.595 305.269 111.538 304.649 111.087C303.973 110.637 304.198 110.467 305.664 110.467C306.678 110.467 307.411 110.242 307.242 109.96C307.016 109.678 307.355 109.566 307.918 109.735C309.102 110.017 316.485 107.198 316.485 106.466C316.485 106.184 317.105 105.959 317.894 105.959C318.683 105.959 319.303 105.789 319.303 105.508C319.303 105.169 320.881 104.493 324.094 103.479C324.432 103.366 325.447 103.028 326.348 102.633C327.307 102.295 328.828 101.731 329.73 101.393C330.688 101.055 331.928 100.548 332.548 100.322C334.746 99.4206 337.621 98.3497 337.903 98.2933C338.241 98.237 337.79 98.4061 350.302 93.3899C355.713 91.1918 362.025 88.43 364.336 87.2464C369.183 84.8793 369.972 85.0483 368.958 88.43C368.056 91.5299 363.491 96.377 357.967 99.9842C355.487 101.675 339.086 110.242 321.558 119.091C304.029 127.883 287.29 136.338 284.359 137.916C281.428 139.494 270.381 145.13 259.842 150.484C212.16 174.72 201.733 182.216 187.473 202.224C185.839 204.535 184.599 206.508 184.768 206.621C184.881 206.733 187.36 204.141 190.291 200.815C196.322 193.939 202.634 187.739 204.663 186.669C206.016 185.992 206.242 186.049 207.989 187.965C211.54 191.685 211.201 195.292 206.58 202.619C203.649 207.297 203.142 209.495 204.663 211.017C205.114 211.524 205.622 211.919 205.791 211.919C205.96 211.919 208.609 210.566 211.709 208.875C229.857 199.012 238.988 187.627 238.65 175.396C238.481 170.324 239.1 169.591 243.384 169.196C246.089 168.971 246.991 169.253 251.726 171.507C254.656 172.86 257.869 174.213 258.883 174.438C259.954 174.663 263.731 174.551 267.394 174.156C276.356 173.254 277.708 173.649 281.879 178.383C284.584 181.483 285.317 182.047 286.895 182.047C291.01 182.047 295.575 176.185 295.631 170.887C295.631 164.913 292.813 162.32 277.877 154.486L273.368 152.119L264.914 156.12C245.244 165.533 232.957 169.873 238.368 165.589C240.34 163.955 243.553 162.208 262.04 152.626C277.426 144.679 287.064 139.663 294.222 135.83C307.016 129.01 335.197 114.92 335.479 115.202C335.761 115.484 337.17 114.751 343.651 110.975C345.455 109.904 349.795 107.48 353.289 105.508C361.067 101.168 366.929 96.8279 369.183 93.6153C370.592 91.5863 370.874 90.6845 370.874 87.8101C370.874 84.7102 370.705 84.2593 369.296 83.2448C368.225 82.3993 367.492 82.2303 366.985 82.5684C361.011 87.0774 353.797 90.1773 331.139 98.0115C277.539 116.611 257.982 126.192 228.561 148.455C200.155 169.929 181.273 193.996 172.932 219.246C172.199 221.556 171.41 223.642 171.185 223.811C170.959 224.036 169.945 224.093 168.987 223.924C166.957 223.585 166.957 224.149 168.536 217.273C171.128 206.057 178.624 188.134 184.317 179.567C186.684 176.016 192.208 170.211 194.631 168.802C196.716 167.562 197.055 166.547 195.195 167.167C191.306 168.407 184.768 174.269 180.822 180.074C174.735 189.092 167.69 206.959 164.816 220.655C164.421 222.515 163.914 224.318 163.632 224.713C162.843 225.727 157.207 225.164 154.051 223.811C152.529 223.191 151.345 222.515 151.345 222.289C151.345 221.444 157.207 200.59 159.574 192.868C166.168 171.62 172.875 158.939 180.766 152.682C184.091 150.09 186.684 149.808 190.348 151.668C193.391 153.246 195.927 152.908 202.578 149.977C214.132 145.017 221.628 139.437 234.761 126.08C253.473 107.029 262.378 102.07 283.401 99.1388C297.717 97.1661 302 96.1516 308.256 93.0517C315.302 89.6136 318.571 88.8246 331.703 87.3592C348.386 85.5556 360.504 83.3011 365.294 81.1594C368.507 79.7503 370.029 77.2704 370.029 73.3815C370.029 70.6197 369.86 70.2252 367.605 68.0271C362.476 62.9545 345.117 57.6565 323.023 54.3312L316.26 53.373L308.651 45.7078C284.979 21.9232 257.644 7.60732 225.517 2.19659C216.725 0.73119 194.067 0.223935 185.162 1.35117ZM182.626 37.2536C185.444 37.479 190.517 37.9863 193.898 38.2681C200.155 38.8881 205.227 39.9589 203.874 40.4098C203.48 40.5789 200.267 40.4098 196.716 40.0153C193.166 39.6771 188.319 39.5644 185.67 39.7899C180.315 40.1844 177.328 39.3953 176.144 37.1409C175.524 36.0136 175.581 35.9573 176.483 36.2954C177.103 36.5209 179.864 36.9718 182.626 37.2536ZM307.58 55.7966C313.329 56.0784 320.825 56.7548 324.207 57.2057C331.872 58.2765 340.27 59.8547 339.932 60.1365C339.763 60.3055 336.663 60.0237 332.999 59.5165C318.401 57.6002 313.047 57.3184 295.969 57.6565C277.596 57.9947 270.269 58.7274 253.473 61.9964C244.793 63.6309 244.173 63.6872 242.82 62.8418C241.75 62.1091 241.58 61.771 242.088 61.151C242.933 60.0801 243.497 59.9674 251.106 58.6711C267.901 55.7966 288.079 54.7821 307.58 55.7966ZM342.242 60.6437C342.073 60.8128 341.566 60.8692 341.172 60.7001C340.721 60.531 340.89 60.3619 341.51 60.3619C342.13 60.3055 342.468 60.4746 342.242 60.6437ZM266.718 69.6616C266.549 69.8307 266.041 69.887 265.647 69.718C265.196 69.5489 265.365 69.3798 265.985 69.3798C266.605 69.3234 266.943 69.4925 266.718 69.6616ZM256.46 72.1415C233.69 77.8904 205.565 88.9373 184.091 100.548C180.259 102.633 177.046 104.211 176.877 104.099C176.652 103.817 185.613 97.9552 193.222 93.3899C206.918 85.0483 226.983 77.3268 245.188 73.2124C261.702 69.5489 269.761 68.7598 256.46 72.1415ZM187.36 83.9211C188.6 84.7102 187.699 86.0629 184.486 88.0919C182.852 89.1627 178.963 91.6427 175.863 93.6153C170.846 96.7716 163.858 101.844 158.954 105.846C156.192 108.1 147.005 117.118 143.229 121.402C141.257 123.6 138.946 126.136 138.1 127.094C137.255 127.996 137.818 127.151 139.284 125.122C140.806 123.093 142.271 121.176 142.609 120.838C142.891 120.444 144.075 119.091 145.146 117.738C147.907 114.244 158.785 103.422 163.463 99.4206C169.099 94.6298 175.637 89.7827 181.217 86.401C186.459 83.132 186.233 83.2448 187.36 83.9211ZM294.786 114.976C294.617 115.258 293.997 115.54 293.49 115.54C292.644 115.54 292.644 115.427 293.377 114.976C294.504 114.244 295.237 114.244 294.786 114.976ZM292.25 116.104C292.25 116.385 291.799 116.667 291.291 116.667C290.446 116.667 290.39 116.555 291.122 116.104C292.193 115.427 292.25 115.427 292.25 116.104ZM285.655 161.418C290.671 164.575 292.081 166.153 292.588 169.084L292.926 171.056L291.799 169.253C290.502 167.28 287.628 165.195 281.823 162.038C277.596 159.728 274.665 157.36 275.116 156.628C275.51 155.951 280.695 158.319 285.655 161.418ZM206.862 172.465C206.298 173.085 205.734 173.48 205.565 173.367C205.283 173.029 206.749 171.394 207.369 171.338C207.651 171.338 207.425 171.845 206.862 172.465ZM99.2107 196.081C99.3798 196.363 99.2671 196.757 98.9289 196.983C98.6471 197.152 98.3653 196.926 98.3653 196.475C98.3653 195.461 98.7035 195.292 99.2107 196.081ZM204.889 196.983C204.889 197.772 204.663 198.392 204.325 198.392C203.705 198.392 203.536 196.532 204.156 195.968C204.776 195.348 204.889 195.517 204.889 196.983ZM239.27 196.419C239.27 196.87 239.551 197.265 239.833 197.265C240.171 197.265 240.397 197.546 240.397 197.885C240.397 198.335 240.115 198.279 239.551 197.828C239.044 197.434 238.481 197.265 238.311 197.49C238.086 197.715 238.255 198.11 238.706 198.392C239.157 198.73 239.326 198.955 238.988 198.955C238.706 198.955 238.086 198.73 237.691 198.448C237.015 198.054 237.015 197.772 237.635 196.757C238.537 195.348 239.27 195.236 239.27 196.419ZM80.3295 198.73C80.3295 199.181 80.1041 199.406 79.7659 199.237C79.4841 199.068 79.2023 198.674 79.2023 198.335C79.2023 198.054 79.4841 197.828 79.7659 197.828C80.1041 197.828 80.3295 198.223 80.3295 198.73ZM200.944 198.617C200.944 198.786 200.718 199.068 200.38 199.237C200.098 199.406 199.816 199.294 199.816 199.012C199.816 198.674 200.098 198.392 200.38 198.392C200.718 198.392 200.944 198.504 200.944 198.617ZM233.295 199.237C233.07 199.688 232.675 199.914 232.393 199.744C232.055 199.519 232.112 199.181 232.563 198.899C233.633 198.223 233.633 198.279 233.295 199.237ZM95.2654 199.519C95.4345 199.857 95.0399 200.083 94.3072 200.083C93.2927 200.083 93.18 199.97 93.8563 199.519C94.9272 198.843 94.8709 198.843 95.2654 199.519ZM315.245 199.914C314.682 200.026 313.78 200.026 313.273 199.914C312.709 199.744 313.16 199.632 314.231 199.632C315.302 199.632 315.752 199.744 315.245 199.914ZM81.4568 200.308C81.4568 200.477 81.2313 200.759 80.8932 200.928C80.6113 201.097 80.3295 200.984 80.3295 200.703C80.3295 200.364 80.6113 200.083 80.8932 200.083C81.2313 200.083 81.4568 200.195 81.4568 200.308ZM231.379 201.435C231.379 201.604 231.153 201.886 230.815 202.055C230.534 202.224 230.252 202.112 230.252 201.83C230.252 201.492 230.534 201.21 230.815 201.21C231.153 201.21 231.379 201.323 231.379 201.435ZM369.296 210.904C369.127 211.355 368.958 211.186 368.958 210.566C368.902 209.946 369.071 209.608 369.24 209.833C369.409 210.002 369.465 210.51 369.296 210.904ZM97.4071 211.693C108.003 214.342 121.868 224.036 129.59 234.125C132.633 238.014 133.535 239.705 132.07 238.578C131.675 238.24 130.83 237.845 130.266 237.62C129.364 237.338 129.308 237.394 129.928 238.127C130.379 238.634 130.379 238.972 130.041 238.972C129.702 238.972 129.252 238.69 129.082 238.409C128.913 238.07 127.561 237.845 126.208 237.845C123.277 237.845 123.052 237.62 118.712 231.307C116.232 227.756 109.469 220.936 108.398 220.936C107.552 220.936 107.947 221.951 108.849 222.289C109.356 222.515 109.638 222.796 109.412 223.022C109.243 223.191 108.623 222.965 108.116 222.515C106.876 221.444 104.001 220.711 104.001 221.444C104.001 221.726 104.34 222.12 104.734 222.233C105.129 222.402 105.129 222.571 104.791 222.571C103.832 222.627 101.916 220.711 102.142 219.922C102.311 219.584 102.142 219.246 101.86 219.246C101.522 219.246 100.902 219.077 100.394 218.907C99.8871 218.738 99.4925 218.851 99.4925 219.189C99.4925 219.527 99.7743 219.753 100.169 219.64C100.507 219.584 100.958 219.978 101.071 220.542C101.24 221.387 101.071 221.444 99.7743 220.936C98.9289 220.598 98.0271 220.486 97.7453 220.655C97.5199 220.824 96.6744 220.598 95.8854 220.091C94.9836 219.471 94.42 219.358 94.1382 219.753C93.6873 220.542 90.4746 220.542 90.4746 219.809C90.4746 219.471 90.1928 219.246 89.8547 219.246C89.5729 219.246 89.4601 219.584 89.6856 219.922C90.0238 220.486 89.911 220.486 89.291 219.922C88.3893 219.133 86.1912 219.02 85.6839 219.809C85.1766 220.598 83.0349 220.486 83.2603 219.696C83.4294 219.302 84.1058 218.851 84.8948 218.682C86.1348 218.344 86.0784 218.287 84.3876 218.006C83.3731 217.893 82.4149 217.949 82.2458 218.231C81.7386 219.077 80.1604 218.738 80.4986 217.837C80.7804 217.217 80.555 217.16 79.4277 217.555C77.6242 218.287 76.2151 218.287 76.666 217.611C77.0042 217.047 74.2425 217.667 72.8898 218.457C70.2408 219.922 75.1443 216.258 78.3569 214.342C85.1766 210.228 89.3474 209.664 97.4071 211.693ZM328.603 211.13C332.436 212.088 340.89 216.822 340.383 217.667C340.157 218.006 339.819 218.006 339.424 217.611C338.748 216.935 337.114 216.766 337.564 217.442C337.677 217.667 337.17 218.175 336.381 218.513C335.254 219.077 335.028 219.02 335.254 218.457C335.592 217.611 330.97 217.667 329.899 218.513C329.054 219.189 322.065 219.809 322.403 219.189C322.572 219.02 321.107 218.907 319.134 219.077C317.218 219.189 315.02 219.302 314.231 219.302C313.442 219.302 312.202 219.246 311.413 219.246C310.285 219.246 310.567 218.964 312.822 217.837C316.598 215.92 313.723 216.709 309.158 218.795C304.255 221.049 299.182 224.713 296.139 228.263C290.784 234.576 288.53 236.887 286.275 238.465C284.641 239.592 283.795 239.874 283.626 239.367C283.457 238.859 283.119 238.859 282.217 239.367C281.541 239.761 280.977 239.818 280.865 239.536C280.752 239.198 279.963 239.649 279.117 240.438C276.525 242.861 276.919 241.734 280.245 237.281C291.348 222.515 309.327 211.524 324.376 210.284C324.883 210.284 326.799 210.622 328.603 211.13ZM309.722 219.471C309.722 219.584 309.327 219.978 308.876 220.373C308.144 220.993 308.087 220.936 308.369 220.147C308.651 219.358 309.722 218.851 309.722 219.471ZM96.1108 220.936C96.1108 221.218 95.9981 221.5 95.8854 221.5C95.7163 221.5 95.4345 221.218 95.2654 220.936C95.0963 220.598 95.209 220.373 95.4908 220.373C95.829 220.373 96.1108 220.598 96.1108 220.936ZM156.418 230.631C156.418 231.363 155.122 230.912 154.84 230.067C154.727 229.673 154.952 229.503 155.516 229.729C156.023 229.898 156.418 230.349 156.418 230.631ZM158.109 232.209C158.109 232.491 157.996 232.772 157.883 232.772C157.714 232.772 157.432 232.491 157.263 232.209C157.094 231.871 157.207 231.645 157.489 231.645C157.827 231.645 158.109 231.871 158.109 232.209ZM126.377 238.747C126.208 238.916 125.701 238.972 125.306 238.803C124.855 238.634 125.024 238.465 125.644 238.465C126.264 238.409 126.603 238.578 126.377 238.747Z" fill="var(--color-primary)" />
    <path d="M97.1253 216.822C97.5199 216.991 98.0271 216.935 98.1962 216.766C98.4217 216.597 98.0835 216.428 97.4635 216.484C96.8435 216.484 96.6744 216.653 97.1253 216.822Z" fill="var(--color-primary)" />
    <path d="M103.494 218.908C104.058 219.415 107.383 220.937 107.383 220.711C107.383 220.373 104.283 218.682 103.663 218.682C103.438 218.682 103.381 218.795 103.494 218.908Z" fill="var(--color-primary)" />
    <path d="M322.009 215.695C322.403 215.864 322.91 215.808 323.08 215.638C323.305 215.469 322.967 215.3 322.347 215.357C321.727 215.357 321.558 215.526 322.009 215.695Z" fill="var(--color-primary)" />
    <path d="M316.936 216.258C317.331 216.427 317.838 216.371 318.007 216.202C318.232 216.033 317.894 215.864 317.274 215.92C316.654 215.92 316.485 216.089 316.936 216.258Z" fill="var(--color-primary)" />
    <path d="M322.009 217.949C322.685 218.062 323.7 218.062 324.263 217.949C324.77 217.78 324.207 217.667 322.967 217.724C321.727 217.724 321.276 217.836 322.009 217.949Z" fill="var(--color-primary)" />
    <path d="M315.809 218.513C316.203 218.682 316.711 218.625 316.88 218.456C317.105 218.287 316.767 218.118 316.147 218.174C315.527 218.174 315.358 218.344 315.809 218.513Z" fill="var(--color-primary)" />
    <path d="M339.368 116.836L336.099 118.583L336.437 121.458C339.706 149.47 336.944 171.169 326.968 195.799C325.841 198.561 325.052 200.984 325.221 201.153C325.841 201.717 333.112 203.408 333.45 203.013C334.126 202.224 338.41 190.106 340.044 184.301C341.961 177.538 343.088 172.465 344.497 164.011C345.906 155.5 345.906 130.814 344.497 122.021C343.933 118.64 343.313 115.653 343.088 115.427C342.862 115.202 341.228 115.822 339.368 116.836Z" fill="var(--color-primary)" />
    <path d="M287.741 118.302C287.741 118.584 287.29 118.978 286.783 119.091C285.993 119.316 285.937 119.373 286.67 119.429C287.121 119.429 288.022 119.091 288.642 118.64C289.601 117.907 289.601 117.851 288.755 117.795C288.192 117.795 287.741 118.02 287.741 118.302Z" fill="var(--color-primary)" />
    <path d="M284.246 120.443C284.641 120.612 285.148 120.556 285.317 120.387C285.543 120.218 285.204 120.049 284.584 120.105C283.964 120.105 283.795 120.274 284.246 120.443Z" fill="var(--color-primary)" />
    <path d="M277.596 123.261C275.285 124.388 272.974 125.459 272.523 125.741C271.283 126.418 265.816 129.236 263.111 130.645C260.18 132.166 259.222 132.786 258.094 133.97C257.418 134.646 256.685 135.041 256.516 134.815C256.291 134.646 255.953 134.703 255.727 135.041C255.502 135.323 254.431 136.055 253.304 136.563C252.176 137.07 250.936 137.859 250.542 138.366C250.147 138.817 249.527 139.212 249.189 139.212C248.287 139.212 245.413 141.804 245.864 142.255C246.427 142.762 247.273 142.65 246.935 142.086C246.766 141.804 246.991 141.41 247.498 141.241C247.949 141.072 248.175 141.128 248.006 141.466C247.837 141.804 247.949 142.03 248.287 142.03C248.626 142.03 249.02 141.635 249.189 141.184C249.415 140.733 249.866 140.339 250.316 140.339C250.711 140.339 251.331 139.832 251.669 139.212C252.007 138.592 252.627 138.084 253.078 138.084C253.529 138.084 253.924 137.803 253.924 137.464C253.924 137.183 254.149 137.014 254.431 137.183C254.713 137.408 255.727 136.901 256.629 136.112C257.531 135.323 258.602 134.703 258.94 134.703C259.278 134.703 259.56 134.421 259.56 134.139C259.56 133.801 259.785 133.575 260.067 133.575C260.405 133.575 262.096 132.73 263.9 131.659C269.141 128.616 272.467 126.812 278.103 123.881C284.19 120.725 283.852 120.218 277.596 123.261Z" fill="var(--color-primary)" />
    <path d="M244.737 143.214C245.131 143.608 245.582 143.777 245.751 143.608C245.92 143.439 245.638 143.101 245.075 142.932C244.286 142.594 244.229 142.65 244.737 143.214Z" fill="var(--color-primary)" />
    <path d="M241.242 145.412C241.411 145.694 241.862 145.976 242.144 145.976C242.482 145.976 242.539 145.694 242.369 145.412C242.2 145.074 241.75 144.848 241.468 144.848C241.13 144.848 241.073 145.074 241.242 145.412Z" fill="var(--color-primary)" />
    <path d="M238.706 146.201C238.706 146.313 239.1 146.708 239.551 147.102C240.284 147.722 240.34 147.666 240.059 146.877C239.777 146.088 238.706 145.581 238.706 146.201Z" fill="var(--color-primary)" />
    <path d="M237.015 147.722C237.015 148.004 237.297 148.117 237.579 147.948C237.917 147.779 238.142 147.497 238.142 147.328C238.142 147.215 237.917 147.102 237.579 147.102C237.297 147.102 237.015 147.384 237.015 147.722Z" fill="var(--color-primary)" />
    <path d="M236.452 149.639C236.057 150.09 236.001 150.484 236.339 150.484C236.621 150.484 237.184 150.09 237.579 149.639C237.973 149.188 238.03 148.794 237.691 148.794C237.41 148.794 236.846 149.188 236.452 149.639Z" fill="var(--color-primary)" />
    <path d="M234.197 151.668C234.197 151.95 234.479 152.062 234.761 151.893C235.099 151.724 235.324 151.442 235.324 151.273C235.324 151.161 235.099 151.048 234.761 151.048C234.479 151.048 234.197 151.33 234.197 151.668Z" fill="var(--color-primary)" />
    <path d="M231.773 151.95C231.604 152.119 231.604 152.626 231.773 153.077C231.999 153.697 232.281 153.753 232.844 153.246C233.295 152.908 233.464 152.401 233.295 152.119C232.957 151.555 232.281 151.442 231.773 151.95Z" fill="var(--color-primary)" />
    <path d="M230.252 153.866C230.815 154.204 230.872 154.43 230.421 154.43C230.026 154.43 229.688 154.712 229.688 155.05C229.688 155.501 229.97 155.501 230.534 154.994C231.435 154.261 231.154 153.303 230.083 153.303C229.688 153.303 229.744 153.528 230.252 153.866Z" fill="var(--color-primary)" />
    <path d="M219.205 162.433C219.374 163.166 219.374 163.391 219.205 162.997C218.754 161.982 217.627 162.151 216.725 163.448C216.274 164.068 215.598 164.575 215.203 164.575C214.865 164.575 214.414 165.026 214.245 165.59C214.02 166.21 213.231 166.999 212.498 167.393C211.089 168.182 210.638 169.084 211.652 169.084C211.991 169.084 212.216 168.802 212.216 168.52C212.216 167.731 213.738 167.844 214.132 168.633C214.301 169.028 214.301 168.802 214.189 168.182C213.85 166.886 215.203 165.928 216.33 166.66C216.725 166.886 216.781 166.66 216.556 166.04C216.274 165.308 216.387 165.139 217.176 165.364C217.796 165.59 218.754 165.139 219.712 164.293C221.234 162.828 221.741 161.926 220.67 162.602C220.388 162.771 220.107 162.546 220.107 162.095C220.107 161.588 219.825 161.193 219.487 161.193C219.148 161.193 219.036 161.757 219.205 162.433Z" fill="var(--color-primary)" />
    <path d="M209.567 169.873C209.06 170.493 209.116 170.887 209.736 171.677C210.525 172.691 210.582 172.691 210.243 171.507C209.962 170.437 210.074 170.267 210.863 170.606C211.483 170.831 211.709 170.718 211.54 170.211C211.201 169.14 210.356 168.971 209.567 169.873Z" fill="var(--color-primary)" />
    <path d="M236.733 193.319C236.564 193.601 236.677 193.883 236.959 193.883C237.297 193.883 237.579 193.601 237.579 193.319C237.579 192.981 237.466 192.756 237.353 192.756C237.184 192.756 236.902 192.981 236.733 193.319Z" fill="var(--color-primary)" />
    <path d="M325.616 195.01C325.616 195.799 325.729 196.081 325.898 195.687C326.01 195.349 326.01 194.672 325.898 194.278C325.729 193.94 325.616 194.221 325.616 195.01Z" fill="var(--color-primary)" />
    <path d="M200.944 195.01C200.493 195.292 200.267 195.686 200.436 195.855C200.662 196.024 201.113 195.799 201.507 195.292C202.296 194.333 202.127 194.221 200.944 195.01Z" fill="var(--color-primary)" />
    <path d="M74.9752 210.791C73.9043 211.242 73.9043 211.298 75.0879 211.298C75.7642 211.355 76.497 211.073 76.666 210.791C77.0606 210.115 76.5533 210.115 74.9752 210.791Z" fill="var(--color-primary)" />
    <path d="M152.754 227.136C152.923 227.418 153.205 227.7 153.374 227.7C153.487 227.7 153.6 227.418 153.6 227.136C153.6 226.798 153.318 226.572 152.98 226.572C152.698 226.572 152.585 226.798 152.754 227.136Z" fill="var(--color-primary)" />
    <path d="M268.296 231.645C268.127 231.927 268.24 232.209 268.521 232.209C268.859 232.209 269.141 231.927 269.141 231.645C269.141 231.307 269.029 231.082 268.916 231.082C268.747 231.082 268.465 231.307 268.296 231.645Z" fill="var(--color-primary)" />
    <path d="M510.55 193.7C502.45 193.7 495 192.3 488.2 189.5C481.5 186.7 475.65 182.85 470.65 177.95C465.75 172.95 461.9 167.05 459.1 160.25C456.4 153.35 455.05 145.9 455.05 137.9C455.05 129.9 456.4 122.5 459.1 115.7C461.9 108.8 465.75 102.9 470.65 98C475.65 93 481.5 89.1 488.2 86.3C495 83.5 502.45 82.1 510.55 82.1C518.65 82.1 526.05 83.5 532.75 86.3C539.55 89.1 545.4 93 550.3 98C555.3 102.9 559.15 108.8 561.85 115.7C564.65 122.5 566.05 129.9 566.05 137.9C566.05 145.9 564.65 153.35 561.85 160.25C559.15 167.05 555.3 172.95 550.3 177.95C545.4 182.85 539.55 186.7 532.75 189.5C526.05 192.3 518.65 193.7 510.55 193.7ZM510.55 182C516.75 182 522.4 180.85 527.5 178.55C532.7 176.25 537.15 173.1 540.85 169.1C544.55 165.1 547.4 160.45 549.4 155.15C551.5 149.75 552.55 144 552.55 137.9C552.55 131.8 551.5 126.1 549.4 120.8C547.4 115.4 544.55 110.7 540.85 106.7C537.15 102.7 532.7 99.55 527.5 97.25C522.4 94.95 516.75 93.8 510.55 93.8C504.35 93.8 498.65 94.95 493.45 97.25C488.35 99.55 483.95 102.7 480.25 106.7C476.55 110.7 473.65 115.4 471.55 120.8C469.55 126.1 468.55 131.8 468.55 137.9C468.55 144 469.55 149.75 471.55 155.15C473.65 160.45 476.55 165.1 480.25 169.1C483.95 173.1 488.35 176.25 493.45 178.55C498.65 180.85 504.35 182 510.55 182ZM634.148 138.35C631.648 135.35 628.948 133.2 626.048 131.9C623.148 130.5 619.948 129.8 616.448 129.8C612.548 129.8 609.098 130.5 606.098 131.9C603.098 133.2 600.598 135.05 598.598 137.45C596.698 139.85 595.248 142.65 594.248 145.85C593.248 148.95 592.748 152.3 592.748 155.9C592.748 159.5 593.298 162.9 594.398 166.1C595.598 169.2 597.198 171.95 599.198 174.35C601.298 176.75 603.798 178.65 606.698 180.05C609.598 181.35 612.848 182 616.448 182C624.148 182 630.098 179.1 634.298 173.3L642.998 181.55C639.598 185.45 635.598 188.3 630.998 190.1C626.398 191.9 621.548 192.8 616.448 192.8C611.048 192.8 606.098 191.9 601.598 190.1C597.098 188.3 593.248 185.75 590.048 182.45C586.948 179.15 584.498 175.25 582.698 170.75C580.998 166.25 580.148 161.3 580.148 155.9C580.148 150.6 580.998 145.7 582.698 141.2C584.498 136.7 586.998 132.8 590.198 129.5C593.398 126.2 597.198 123.65 601.598 121.85C606.098 119.95 611.048 119 616.448 119C621.648 119 626.548 119.9 631.148 121.7C635.848 123.5 639.948 126.3 643.448 130.1L634.148 138.35ZM719.261 178.25C715.061 183.65 710.461 187.45 705.461 189.65C700.461 191.75 694.661 192.8 688.061 192.8C682.561 192.8 677.611 191.85 673.211 189.95C668.811 187.95 665.061 185.3 661.961 182C658.961 178.7 656.611 174.8 654.911 170.3C653.311 165.8 652.511 161 652.511 155.9C652.511 150.5 653.411 145.55 655.211 141.05C657.011 136.45 659.511 132.55 662.711 129.35C665.911 126.05 669.711 123.5 674.111 121.7C678.511 119.9 683.311 119 688.511 119C693.411 119 697.911 119.85 702.011 121.55C706.111 123.15 709.611 125.55 712.511 128.75C715.511 131.85 717.811 135.7 719.411 140.3C721.011 144.8 721.811 149.95 721.811 155.75V159.5H665.111C665.311 162.5 666.011 165.4 667.211 168.2C668.511 170.9 670.161 173.3 672.161 175.4C674.161 177.4 676.511 179 679.211 180.2C681.911 181.4 684.861 182 688.061 182C693.161 182 697.461 181.1 700.961 179.3C704.461 177.5 707.611 174.85 710.411 171.35L719.261 178.25ZM709.211 149.6C709.011 143.6 707.061 138.8 703.361 135.2C699.661 131.6 694.561 129.8 688.061 129.8C681.561 129.8 676.311 131.6 672.311 135.2C668.311 138.8 665.911 143.6 665.111 149.6H709.211ZM739.011 129.8C742.611 126.1 746.861 123.4 751.761 121.7C756.761 119.9 761.811 119 766.911 119C777.311 119 784.811 121.45 789.411 126.35C794.011 131.25 796.311 138.7 796.311 148.7V178.85C796.311 180.85 796.411 182.95 796.611 185.15C796.811 187.25 797.061 189.2 797.361 191H786.111C785.711 189.4 785.461 187.65 785.361 185.75C785.361 183.75 785.361 182 785.361 180.5H785.061C782.761 184.1 779.661 187.05 775.761 189.35C771.961 191.65 767.361 192.8 761.961 192.8C758.361 192.8 754.961 192.35 751.761 191.45C748.661 190.55 745.911 189.25 743.511 187.55C741.211 185.75 739.361 183.55 737.961 180.95C736.561 178.35 735.861 175.35 735.861 171.95C735.861 166.15 737.361 161.6 740.361 158.3C743.361 155 747.061 152.55 751.461 150.95C755.961 149.35 760.761 148.35 765.861 147.95C771.061 147.55 775.811 147.35 780.111 147.35H784.611V145.25C784.611 140.15 783.061 136.3 779.961 133.7C776.961 131.1 772.711 129.8 767.211 129.8C763.411 129.8 759.661 130.45 755.961 131.75C752.361 132.95 749.161 134.85 746.361 137.45L739.011 129.8ZM772.911 157.25C765.411 157.25 759.461 158.3 755.061 160.4C750.661 162.5 748.461 165.95 748.461 170.75C748.461 175.15 749.911 178.3 752.811 180.2C755.811 182 759.511 182.9 763.911 182.9C767.311 182.9 770.261 182.35 772.761 181.25C775.361 180.05 777.511 178.5 779.211 176.6C780.911 174.7 782.211 172.5 783.111 170C784.011 167.4 784.511 164.65 784.611 161.75V157.25H772.911ZM817.694 137.45C817.694 134.25 817.594 131.25 817.394 128.45C817.194 125.65 817.094 123.1 817.094 120.8H828.194C828.194 122.7 828.244 124.6 828.344 126.5C828.444 128.4 828.494 130.35 828.494 132.35H828.794C829.594 130.65 830.694 129 832.094 127.4C833.594 125.8 835.344 124.4 837.344 123.2C839.344 121.9 841.594 120.9 844.094 120.2C846.594 119.4 849.294 119 852.194 119C856.794 119 860.744 119.7 864.044 121.1C867.444 122.5 870.244 124.45 872.444 126.95C874.644 129.45 876.244 132.5 877.244 136.1C878.344 139.6 878.894 143.45 878.894 147.65V191H867.194V148.85C867.194 142.95 865.894 138.3 863.294 134.9C860.694 131.5 856.644 129.8 851.144 129.8C847.344 129.8 844.044 130.45 841.244 131.75C838.544 133.05 836.294 134.9 834.494 137.3C832.794 139.7 831.494 142.55 830.594 145.85C829.794 149.15 829.394 152.8 829.394 156.8V191H817.694V137.45ZM910.343 120.8H898.943L908.993 84.8H922.643L910.343 120.8ZM933.159 172.55C935.459 175.45 937.959 177.75 940.659 179.45C943.459 181.15 946.959 182 951.159 182C952.959 182 954.759 181.8 956.559 181.4C958.459 181 960.159 180.35 961.659 179.45C963.159 178.55 964.359 177.45 965.259 176.15C966.159 174.75 966.609 173.1 966.609 171.2C966.609 169.3 966.159 167.75 965.259 166.55C964.459 165.35 963.359 164.35 961.959 163.55C960.559 162.65 958.959 161.95 957.159 161.45C955.359 160.95 953.509 160.5 951.609 160.1C948.309 159.4 945.159 158.6 942.159 157.7C939.159 156.8 936.509 155.65 934.209 154.25C932.009 152.75 930.209 150.85 928.809 148.55C927.509 146.25 926.859 143.3 926.859 139.7C926.859 136.3 927.609 133.3 929.109 130.7C930.609 128.1 932.609 125.95 935.109 124.25C937.609 122.55 940.409 121.25 943.509 120.35C946.609 119.45 949.809 119 953.109 119C958.109 119 962.709 120 966.909 122C971.209 124 974.559 127.25 976.959 131.75L967.209 138.2C965.709 135.7 963.709 133.7 961.209 132.2C958.809 130.6 955.859 129.8 952.359 129.8C950.759 129.8 949.109 130 947.409 130.4C945.809 130.8 944.359 131.4 943.059 132.2C941.759 133 940.659 134.05 939.759 135.35C938.959 136.55 938.559 137.95 938.559 139.55C938.559 141.05 939.009 142.35 939.909 143.45C940.909 144.45 942.209 145.35 943.809 146.15C945.509 146.95 947.409 147.65 949.509 148.25C951.709 148.85 953.959 149.35 956.259 149.75C959.359 150.35 962.309 151.15 965.109 152.15C967.909 153.05 970.359 154.3 972.459 155.9C974.559 157.5 976.209 159.5 977.409 161.9C978.609 164.3 979.209 167.25 979.209 170.75C979.209 174.75 978.409 178.15 976.809 180.95C975.209 183.75 973.059 186.05 970.359 187.85C967.759 189.55 964.759 190.8 961.359 191.6C958.059 192.4 954.659 192.8 951.159 192.8C945.159 192.8 939.959 191.9 935.559 190.1C931.259 188.2 927.359 184.75 923.859 179.75L933.159 172.55ZM1024.82 84.8H1039.07L1071.77 172.1H1072.07L1105.82 84.8H1119.17L1077.62 191H1065.47L1024.82 84.8ZM1116.72 155.9C1116.72 150.4 1117.67 145.4 1119.57 140.9C1121.47 136.4 1124.07 132.55 1127.37 129.35C1130.67 126.05 1134.62 123.5 1139.22 121.7C1143.82 119.9 1148.82 119 1154.22 119C1159.62 119 1164.62 119.9 1169.22 121.7C1173.82 123.5 1177.77 126.05 1181.07 129.35C1184.37 132.55 1186.97 136.4 1188.87 140.9C1190.77 145.4 1191.72 150.4 1191.72 155.9C1191.72 161.4 1190.77 166.4 1188.87 170.9C1186.97 175.4 1184.37 179.3 1181.07 182.6C1177.77 185.8 1173.82 188.3 1169.22 190.1C1164.62 191.9 1159.62 192.8 1154.22 192.8C1148.82 192.8 1143.82 191.9 1139.22 190.1C1134.62 188.3 1130.67 185.8 1127.37 182.6C1124.07 179.3 1121.47 175.4 1119.57 170.9C1117.67 166.4 1116.72 161.4 1116.72 155.9ZM1129.32 155.9C1129.32 159.6 1129.87 163.05 1130.97 166.25C1132.17 169.35 1133.87 172.1 1136.07 174.5C1138.27 176.8 1140.87 178.65 1143.87 180.05C1146.97 181.35 1150.42 182 1154.22 182C1158.02 182 1161.42 181.35 1164.42 180.05C1167.52 178.65 1170.17 176.8 1172.37 174.5C1174.57 172.1 1176.22 169.35 1177.32 166.25C1178.52 163.05 1179.12 159.6 1179.12 155.9C1179.12 152.2 1178.52 148.8 1177.32 145.7C1176.22 142.5 1174.57 139.75 1172.37 137.45C1170.17 135.05 1167.52 133.2 1164.42 131.9C1161.42 130.5 1158.02 129.8 1154.22 129.8C1150.42 129.8 1146.97 130.5 1143.87 131.9C1140.87 133.2 1138.27 135.05 1136.07 137.45C1133.87 139.75 1132.17 142.5 1130.97 145.7C1129.87 148.8 1129.32 152.2 1129.32 155.9ZM1210.88 120.8H1222.58V191H1210.88V120.8ZM1208.18 93.35C1208.18 91.05 1208.98 89.05 1210.58 87.35C1212.28 85.65 1214.33 84.8 1216.73 84.8C1219.13 84.8 1221.13 85.65 1222.73 87.35C1224.43 89.05 1225.28 91.05 1225.28 93.35C1225.28 95.85 1224.48 97.9 1222.88 99.5C1221.28 101.1 1219.23 101.9 1216.73 101.9C1214.23 101.9 1212.18 101.1 1210.58 99.5C1208.98 97.9 1208.18 95.85 1208.18 93.35ZM1295.82 138.35C1293.32 135.35 1290.62 133.2 1287.72 131.9C1284.82 130.5 1281.62 129.8 1278.12 129.8C1274.22 129.8 1270.77 130.5 1267.77 131.9C1264.77 133.2 1262.27 135.05 1260.27 137.45C1258.37 139.85 1256.92 142.65 1255.92 145.85C1254.92 148.95 1254.42 152.3 1254.42 155.9C1254.42 159.5 1254.97 162.9 1256.07 166.1C1257.27 169.2 1258.87 171.95 1260.87 174.35C1262.97 176.75 1265.47 178.65 1268.37 180.05C1271.27 181.35 1274.52 182 1278.12 182C1285.82 182 1291.77 179.1 1295.97 173.3L1304.67 181.55C1301.27 185.45 1297.27 188.3 1292.67 190.1C1288.07 191.9 1283.22 192.8 1278.12 192.8C1272.72 192.8 1267.77 191.9 1263.27 190.1C1258.77 188.3 1254.92 185.75 1251.72 182.45C1248.62 179.15 1246.17 175.25 1244.37 170.75C1242.67 166.25 1241.82 161.3 1241.82 155.9C1241.82 150.6 1242.67 145.7 1244.37 141.2C1246.17 136.7 1248.67 132.8 1251.87 129.5C1255.07 126.2 1258.87 123.65 1263.27 121.85C1267.77 119.95 1272.72 119 1278.12 119C1283.32 119 1288.22 119.9 1292.82 121.7C1297.52 123.5 1301.62 126.3 1305.12 130.1L1295.82 138.35ZM1380.93 178.25C1376.73 183.65 1372.13 187.45 1367.13 189.65C1362.13 191.75 1356.33 192.8 1349.73 192.8C1344.23 192.8 1339.28 191.85 1334.88 189.95C1330.48 187.95 1326.73 185.3 1323.63 182C1320.63 178.7 1318.28 174.8 1316.58 170.3C1314.98 165.8 1314.18 161 1314.18 155.9C1314.18 150.5 1315.08 145.55 1316.88 141.05C1318.68 136.45 1321.18 132.55 1324.38 129.35C1327.58 126.05 1331.38 123.5 1335.78 121.7C1340.18 119.9 1344.98 119 1350.18 119C1355.08 119 1359.58 119.85 1363.68 121.55C1367.78 123.15 1371.28 125.55 1374.18 128.75C1377.18 131.85 1379.48 135.7 1381.08 140.3C1382.68 144.8 1383.48 149.95 1383.48 155.75V159.5H1326.78C1326.98 162.5 1327.68 165.4 1328.88 168.2C1330.18 170.9 1331.83 173.3 1333.83 175.4C1335.83 177.4 1338.18 179 1340.88 180.2C1343.58 181.4 1346.53 182 1349.73 182C1354.83 182 1359.13 181.1 1362.63 179.3C1366.13 177.5 1369.28 174.85 1372.08 171.35L1380.93 178.25ZM1370.88 149.6C1370.68 143.6 1368.73 138.8 1365.03 135.2C1361.33 131.6 1356.23 129.8 1349.73 129.8C1343.23 129.8 1337.98 131.6 1333.98 135.2C1329.98 138.8 1327.58 143.6 1326.78 149.6H1370.88Z" fill="var(--color-primary)" />
</svg>