<svg xmlns="http://www.w3.org/2000/svg" style="height: 0; width: 0; position: absolute;">
    <defs>
        <symbol id="logo-medium" viewBox="0 0 24 24">
            <title>Medium</title>
            <g fill="currentColor">
                <path d="M23,0H1A1,1,0,0,0,0,1V23a1,1,0,0,0,1,1H23a1,1,0,0,0,1-1V1A1,1,0,0,0,23,0ZM19.938,5.686,18.651,6.92a.376.376,0,0,0-.143.361v9.068a.376.376,0,0,0,.143.361l1.257,1.234v.271H13.586v-.271l1.3-1.264c.128-.128.128-.166.128-.361V8.99l-3.621,9.2h-.489L6.691,8.99v6.163a.85.85,0,0,0,.233.707l1.694,2.054v.271h-4.8v-.271L5.509,15.86a.82.82,0,0,0,.218-.707V8.027a.625.625,0,0,0-.2-.527L4.019,5.686V5.415H8.693l3.613,7.924,3.176-7.924h4.456Z"></path>
            </g>
        </symbol>
        <symbol id="logo-dribbble" viewBox="0 0 24 24">
            <title>Dribbble</title>
            <g fill="currentColor">
                <path fill-rule="evenodd" clip-rule="evenodd" d="M12,24C5.4,24,0,18.6,0,12S5.4,0,12,0s12,5.4,12,12S18.6,24,12,24z M22.1,13.6c-0.4-0.1-3.2-1-6.4-0.4c1.3,3.7,1.9,6.7,2,7.3C20,19,21.7,16.5,22.1,13.6z M16,21.5c-0.2-0.9-0.7-4-2.2-7.8 c0,0,0,0-0.1,0c-5.8,2-7.9,6-8,6.4c1.7,1.4,3.9,2.2,6.3,2.2C13.4,22.3,14.8,22,16,21.5z M4.4,18.9c0.2-0.4,3-5.1,8.3-6.8 c0.1,0,0.3-0.1,0.4-0.1c-0.3-0.6-0.5-1.2-0.8-1.7c-5.1,1.5-10.1,1.5-10.5,1.5c0,0.1,0,0.2,0,0.3C1.8,14.6,2.7,17.1,4.4,18.9z M2,9.9 c0.5,0,4.7,0,9.5-1.2c-1.7-3-3.5-5.6-3.8-5.9C4.8,4.1,2.6,6.7,2,9.9z M9.6,2.1c0.3,0.4,2.1,2.9,3.8,6c3.6-1.4,5.2-3.4,5.4-3.7 C17,2.7,14.6,1.8,12,1.8C11.2,1.8,10.4,1.9,9.6,2.1z M19.9,5.5c-0.2,0.3-1.9,2.5-5.7,4c0.2,0.5,0.5,1,0.7,1.5 c0.1,0.2,0.1,0.4,0.2,0.5c3.4-0.4,6.8,0.3,7.1,0.3C22.2,9.5,21.4,7.3,19.9,5.5z"></path>
            </g>
        </symbol>
        <symbol id="logo-behance" viewBox="0 0 24 24">
            <title>Behance</title>
            <g fill="currentColor">
                <path d="M9.68586,11.19554c0,0,2.27112-0.16872,2.27112-2.83211c0-2.66344-1.85819-3.96321-4.2119-3.96321H3.41265 H3.28537H0v14.88431h3.28537h0.12728h4.33242c0,0,4.72808,0.14903,4.72808-4.39321 C12.47315,14.89132,12.67959,11.19554,9.68586,11.19554z M3.41265,7.04557h3.77494h0.55749c0,0,1.05295,0,1.05295,1.54851 s-0.61941,1.77304-1.32137,1.77304H3.41265V7.04557z M7.54539,16.63918H3.41265v-3.97771h4.33242 c0,0,1.56913-0.02061,1.56913,2.04398C9.3142,16.42691,8.16648,16.62191,7.54539,16.63918z"></path>
                <path d="M18.77907,8.1871c-5.72379,0-5.71862,5.71865-5.71862,5.71865s-0.3928,5.68981,5.71878,5.68981 c0,0,5.09309,0.2909,5.09309-3.95808h-2.61935c0,0,0.08726,1.60046-2.38647,1.60046c0,0-2.61939,0.17519-2.61939-2.58985h7.71248 C23.95959,14.64808,24.80338,8.1871,18.77907,8.1871z M21.10728,12.66146h-4.88934c0,0,0.32016-2.29435,2.61935-2.29435 C21.13652,10.36712,21.10728,12.66146,21.10728,12.66146z"></path>
                <rect x="16" y="5" width="6" height="2"></rect>
            </g>
        </symbol>
        <symbol id="logo-twitter" viewBox="0 0 24 24">
            <title>Twitter</title>
            <g fill="currentColor">
                <path d="M24,4.6c-0.9,0.4-1.8,0.7-2.8,0.8c1-0.6,1.8-1.6,2.2-2.7c-1,0.6-2,1-3.1,1.2c-0.9-1-2.2-1.6-3.6-1.6 c-2.7,0-4.9,2.2-4.9,4.9c0,0.4,0,0.8,0.1,1.1C7.7,8.1,4.1,6.1,1.7,3.1C1.2,3.9,1,4.7,1,5.6c0,1.7,0.9,3.2,2.2,4.1 C2.4,9.7,1.6,9.5,1,9.1c0,0,0,0,0,0.1c0,2.4,1.7,4.4,3.9,4.8c-0.4,0.1-0.8,0.2-1.3,0.2c-0.3,0-0.6,0-0.9-0.1c0.6,2,2.4,3.4,4.6,3.4 c-1.7,1.3-3.8,2.1-6.1,2.1c-0.4,0-0.8,0-1.2-0.1c2.2,1.4,4.8,2.2,7.5,2.2c9.1,0,14-7.5,14-14c0-0.2,0-0.4,0-0.6 C22.5,6.4,23.3,5.5,24,4.6z"></path>
            </g>
        </symbol>
        <symbol id="logo-linkedin" viewBox="0 0 24 24">
            <title>Linkedin</title>
            <g class="nc-icon-wrapper">
                <path fill="currentColor" d="M23,0H1C0.4,0,0,0.4,0,1v22c0,0.6,0.4,1,1,1h22c0.6,0,1-0.4,1-1V1C24,0.4,23.6,0,23,0z M7.1,20.5H3.6V9h3.6 V20.5z M5.3,7.4c-1.1,0-2.1-0.9-2.1-2.1c0-1.1,0.9-2.1,2.1-2.1c1.1,0,2.1,0.9,2.1,2.1C7.4,6.5,6.5,7.4,5.3,7.4z M20.5,20.5h-3.6 v-5.6c0-1.3,0-3-1.8-3c-1.9,0-2.1,1.4-2.1,2.9v5.7H9.4V9h3.4v1.6h0c0.5-0.9,1.6-1.8,3.4-1.8c3.6,0,4.3,2.4,4.3,5.5V20.5z" stroke="none"></path>
            </g>
        </symbol>
        <svg id="remove" viewBox="0 0 24 24">
            <title>remove</title>
            <g fill="currentColor">
                <path d="M22.7,4.3l-3-3c-0.4-0.4-1-0.4-1.4,0L12,7.6L5.7,1.3c-0.4-0.4-1-0.4-1.4,0l-3,3c-0.4,0.4-0.4,1,0,1.4L7.6,12 l-6.3,6.3c-0.4,0.4-0.4,1,0,1.4l3,3c0.4,0.4,1,0.4,1.4,0l6.3-6.3l6.3,6.3c0.2,0.2,0.5,0.3,0.7,0.3s0.5-0.1,0.7-0.3l3-3 c0.4-0.4,0.4-1,0-1.4L16.4,12l6.3-6.3C23.1,5.3,23.1,4.7,22.7,4.3z"></path>
            </g>
        </svg>
        <svg id="branding" viewBox="0 0 24 24">
            <title>branding</title>
            <g fill="currentColor">
                <path d="M20.4,6.1c-1.1-0.5-2.2-0.8-3.4-0.8c-1.6,0-3,0.5-4.3,0.9c-0.8,0.3-1.6,0.5-2.2,0.5c-0.4,0-0.6-0.1-0.7-0.3 c0-0.1,0.1-0.6,0.2-0.9c0.3-0.9,0.6-2-0.2-3.1c-0.5-0.6-1.3-1-2.2-1c-0.9,0-1.7,0.3-2.5,0.8C1.9,4.4,0,8.1,0,12c0,6.6,5.4,12,12,12 c5.3,0,10.1-3.6,11.6-8.8C23.7,14.6,25.1,8.4,20.4,6.1z M3,12c0-1.1,0.9-2,2-2s2,0.9,2,2s-0.9,2-2,2S3,13.1,3,12z M7.5,19 c-1.1,0-2-0.9-2-2s0.9-2,2-2s2,0.9,2,2S8.6,19,7.5,19z M13,21c-1.1,0-2-0.9-2-2s0.9-2,2-2s2,0.9,2,2S14.1,21,13,21z M17,15 c-1.7,0-3-1.3-3-3s1.3-3,3-3s3,1.3,3,3S18.7,15,17,15z"></path>
            </g>
        </svg>
        <svg id="web-design" viewBox="0 0 24 24">
            <title>web-design</title>
            <g fill="currentColor">
                <path d="M4,4V1H1C0.448,1,0,1.447,0,2v2H4z"></path>
                <path d="M0,6v16c0,0.553,0.448,1,1,1h22c0.552,0,1-0.447,1-1V6H0z M11,18H3v-8h8V18z M18,16h-5v-2h5V16z M21,12h-8 v-2h8V12z"></path>
                <path d="M24,4V2c0-0.553-0.448-1-1-1H6v3H24z"></path>
            </g>
        </svg>
        <svg id="performance" viewBox="0 0 24 24">
            <title>performance</title>
            <g fill="currentColor">
                <path d="M19.882,7.528C19.708,7.203,19.369,7,19,7h-4.674l1.636-5.725c0.086-0.302,0.026-0.626-0.163-0.877 S15.314,0,15,0H8C7.549,0,7.154,0.302,7.035,0.737l-3,11c-0.082,0.301-0.019,0.623,0.17,0.87C4.395,12.854,4.688,13,5,13h4.802 l-1.786,9.821c-0.085,0.466,0.169,0.928,0.609,1.106C8.748,23.977,8.875,24,9,24c0.327,0,0.643-0.16,0.833-0.445l10-15 C20.037,8.248,20.056,7.854,19.882,7.528z"></path>
            </g>
        </svg>
    </defs>
</svg>