<svg width="112" height="112" viewBox="0 0 112 112" fill="none" xmlns="http://www.w3.org/2000/svg">
<path d="M96.6266 45.0035C95.2758 41.7987 88.5365 38.9933 86.0016 38.0349L82.7466 35.0629C82.6356 34.9608 82.5102 34.873 82.3758 34.8014C79.841 33.4596 74.3198 32.8236 72.6502 32.6552C71.6434 32.0515 68.9473 30.5002 67.2132 30.0666C65.1047 29.5382 60.3324 30.9856 58.3779 31.6305C58.0591 31.7362 57.776 31.9297 57.5593 32.1895C55.7445 34.384 49.8203 41.8309 49.8203 45.5463C49.8203 47.4076 51.6153 49.0969 53.6952 51.0531C54.641 51.9435 56.2229 53.4321 56.3895 53.9176C56.4378 54.5894 56.6205 55.4726 56.8355 56.4937C57.3031 58.7348 58.0841 62.486 57.1311 63.9639C54.6428 67.8208 53.9424 74.7554 55.6012 79.1086C56.6438 81.8405 58.3152 82.815 59.5334 83.1518C60.0099 83.2844 60.5044 83.3435 61.0149 83.3435C64.5333 83.3435 68.7592 80.436 72.5427 77.8331C74.2983 76.6239 75.9589 75.4827 76.9263 75.1048C80.21 73.8203 81.7811 69.5693 82.9312 66.4665C83.2339 65.6496 83.5761 64.7217 83.7713 64.4154C84.6133 63.0915 86.9027 60.8952 90.5823 59.0572C94.2494 57.2282 98.2818 48.941 96.6266 45.0035Z" fill="black"/>
<path d="M55.5839 0.870117C24.9631 0.870117 0.0498047 25.7834 0.0498047 56.4042C0.0498047 87.0249 24.9631 111.938 55.5839 111.938C86.2046 111.938 111.118 87.0249 111.118 56.4042C111.118 25.7834 86.2046 0.870117 55.5839 0.870117ZM55.5839 108.355C42.9633 108.355 31.3836 103.828 22.3727 96.3188L25.8803 91.0574C27.2991 90.5881 29.5903 89.6261 30.4305 88.1141C32.8901 83.6875 29.7766 77.1793 28.8487 75.4327C28.7699 74.3703 28.5173 71.6635 27.9315 70.1963C27.2239 68.43 24.2967 66.721 22.6522 65.8754C21.4501 63.8189 19.0514 59.1558 19.0514 56.4024C19.0514 52.515 22.2634 51.8755 23.3669 51.7554C27.4353 51.0532 29.8555 48.1404 30.7781 46.7914C32.4978 46.2683 36.3064 44.8889 37.5962 42.6353C38.9756 40.2223 37.4242 34.633 36.5214 31.8868C36.7578 30.674 37.1752 27.7379 36.3046 25.2729C35.4232 22.7756 33.2001 20.8427 32.2273 20.0885C31.6612 18.804 29.9576 15.2337 27.6502 12.6362C33.7894 8.704 40.8011 6.02762 48.3322 4.97068C47.4741 6.80689 46.7665 8.73446 47.3344 10.2984C47.9667 12.0343 50.4747 13.3169 52.5725 14.1105C52.3038 16.1599 52.259 19.5511 54.4642 21.3138C56.6229 23.0407 59.3297 22.2991 61.1194 21.8047C61.3469 21.742 61.6335 21.6631 61.8717 21.5969C62.1458 23.0013 62.2892 26.1596 62.1888 29.1674C62.1727 29.6332 62.3393 30.0864 62.6528 30.4304C62.8517 30.6507 67.5721 35.8046 72.5092 36.4979C72.7618 36.5337 73.0144 36.5499 73.2724 36.5499C77.7545 36.5499 82.9568 31.421 84.6873 29.5723C86.5701 29.1208 92.8078 27.5569 97.401 25.6204C103.764 34.2425 107.535 44.8907 107.535 56.4042C107.535 85.0508 84.2305 108.355 55.5839 108.355Z" fill="black"/>
</svg>
