<svg width="671" height="26" viewBox="0 0 671 26" fill="none" xmlns="http://www.w3.org/2000/svg">
<path d="M8.18 25.272C6.63867 25.272 5.27867 24.966 4.1 24.354C2.92133 23.742 2.00333 22.8693 1.346 21.736C0.711333 20.6027 0.394 19.288 0.394 17.792V8.34C0.394 6.86667 0.711333 5.57467 1.346 4.464C2.00333 3.33067 2.92133 2.458 4.1 1.846C5.27867 1.234 6.63867 0.928 8.18 0.928C9.72133 0.928 11.0813 1.234 12.26 1.846C13.4387 2.43533 14.3453 3.274 14.98 4.362C15.6373 5.45 15.966 6.71933 15.966 8.17V8.34C15.966 8.45333 15.9207 8.55533 15.83 8.646C15.762 8.73667 15.6713 8.782 15.558 8.782L11.58 8.952C11.308 8.952 11.172 8.82733 11.172 8.578V8.136C11.172 7.20667 10.9 6.45867 10.356 5.892C9.812 5.32533 9.08667 5.042 8.18 5.042C7.27333 5.042 6.548 5.32533 6.004 5.892C5.46 6.45867 5.188 7.20667 5.188 8.136V18.098C5.188 19.0273 5.46 19.7753 6.004 20.342C6.548 20.886 7.27333 21.158 8.18 21.158C9.08667 21.158 9.812 20.886 10.356 20.342C10.9 19.7753 11.172 19.0273 11.172 18.098V17.656C11.172 17.4067 11.308 17.282 11.58 17.282L15.558 17.452C15.6713 17.452 15.762 17.4973 15.83 17.588C15.9207 17.656 15.966 17.7467 15.966 17.86V17.962C15.966 19.4127 15.6373 20.6933 14.98 21.804C14.3453 22.9147 13.4387 23.776 12.26 24.388C11.0813 24.9773 9.72133 25.272 8.18 25.272ZM21.3882 25C21.2748 25 21.1728 24.966 21.0822 24.898C21.0142 24.8073 20.9802 24.7053 20.9802 24.592V1.608C20.9802 1.49467 21.0142 1.404 21.0822 1.336C21.1728 1.24533 21.2748 1.2 21.3882 1.2H25.3662C25.4795 1.2 25.5702 1.24533 25.6382 1.336C25.7288 1.404 25.7742 1.49467 25.7742 1.608V20.716C25.7742 20.8293 25.8308 20.886 25.9442 20.886H35.0562C35.1695 20.886 35.2602 20.9313 35.3282 21.022C35.4188 21.09 35.4642 21.1807 35.4642 21.294V24.592C35.4642 24.7053 35.4188 24.8073 35.3282 24.898C35.2602 24.966 35.1695 25 35.0562 25H21.3882ZM40.3046 25C40.1913 25 40.0893 24.966 39.9986 24.898C39.9306 24.8073 39.8966 24.7053 39.8966 24.592V1.608C39.8966 1.49467 39.9306 1.404 39.9986 1.336C40.0893 1.24533 40.1913 1.2 40.3046 1.2H44.2826C44.3959 1.2 44.4866 1.24533 44.5546 1.336C44.6453 1.404 44.6906 1.49467 44.6906 1.608V24.592C44.6906 24.7053 44.6453 24.8073 44.5546 24.898C44.4866 24.966 44.3959 25 44.2826 25H40.3046ZM63.3034 1.472C63.3941 1.29067 63.5528 1.2 63.7794 1.2H67.7234C67.8368 1.2 67.9274 1.24533 67.9954 1.336C68.0861 1.404 68.1314 1.49467 68.1314 1.608V24.592C68.1314 24.7053 68.0861 24.8073 67.9954 24.898C67.9274 24.966 67.8368 25 67.7234 25H63.7454C63.6321 25 63.5301 24.966 63.4394 24.898C63.3714 24.8073 63.3374 24.7053 63.3374 24.592V9.496C63.3374 9.40533 63.3148 9.36 63.2694 9.36C63.2241 9.33733 63.1788 9.36 63.1334 9.428L60.0054 14.596C59.9148 14.7773 59.7561 14.868 59.5294 14.868H58.7474C58.5208 14.868 58.3621 14.7773 58.2714 14.596L55.1434 9.428C55.0981 9.36 55.0528 9.33733 55.0074 9.36C54.9621 9.36 54.9394 9.40533 54.9394 9.496V24.592C54.9394 24.7053 54.8941 24.8073 54.8034 24.898C54.7354 24.966 54.6448 25 54.5314 25H50.5534C50.4401 25 50.3381 24.966 50.2474 24.898C50.1794 24.8073 50.1454 24.7053 50.1454 24.592V1.608C50.1454 1.49467 50.1794 1.404 50.2474 1.336C50.3381 1.24533 50.4401 1.2 50.5534 1.2H54.4974C54.7241 1.2 54.8828 1.29067 54.9734 1.472L59.0534 8.17C59.1214 8.306 59.1894 8.306 59.2574 8.17L63.3034 1.472ZM86.1923 25C85.943 25 85.7843 24.8867 85.7163 24.66L84.9343 21.328C84.9116 21.2373 84.855 21.192 84.7643 21.192H78.4063C78.3156 21.192 78.259 21.2373 78.2363 21.328L77.4543 24.66C77.3863 24.8867 77.239 25 77.0123 25H72.8983C72.6036 25 72.4903 24.8527 72.5583 24.558L78.6783 1.54C78.7463 1.31333 78.905 1.2 79.1543 1.2H84.0843C84.3336 1.2 84.4923 1.31333 84.5603 1.54L90.6803 24.558L90.7143 24.694C90.7143 24.898 90.5896 25 90.3403 25H86.1923ZM79.1543 17.282C79.1316 17.35 79.143 17.4067 79.1883 17.452C79.2336 17.4747 79.279 17.486 79.3243 17.486H83.8123C83.8576 17.486 83.903 17.4747 83.9483 17.452C83.9936 17.4067 84.005 17.35 83.9823 17.282L81.6363 7.422C81.6136 7.33133 81.5796 7.286 81.5343 7.286C81.489 7.286 81.455 7.33133 81.4323 7.422L79.1543 17.282ZM107.485 1.2C107.598 1.2 107.689 1.24533 107.757 1.336C107.847 1.404 107.893 1.49467 107.893 1.608V4.94C107.893 5.05333 107.847 5.15533 107.757 5.246C107.689 5.314 107.598 5.348 107.485 5.348H102.317C102.203 5.348 102.147 5.40467 102.147 5.518V24.592C102.147 24.7053 102.101 24.8073 102.011 24.898C101.943 24.966 101.852 25 101.739 25H97.7608C97.6474 25 97.5454 24.966 97.4548 24.898C97.3868 24.8073 97.3528 24.7053 97.3528 24.592V5.518C97.3528 5.40467 97.2961 5.348 97.1828 5.348H92.1848C92.0714 5.348 91.9694 5.314 91.8788 5.246C91.8108 5.15533 91.7768 5.05333 91.7768 4.94V1.608C91.7768 1.49467 91.8108 1.404 91.8788 1.336C91.9694 1.24533 92.0714 1.2 92.1848 1.2H107.485ZM127.025 4.906C127.025 5.01933 126.98 5.12133 126.889 5.212C126.821 5.28 126.73 5.314 126.617 5.314H117.505C117.392 5.314 117.335 5.37067 117.335 5.484V10.788C117.335 10.9013 117.392 10.958 117.505 10.958H123.183C123.296 10.958 123.387 11.0033 123.455 11.094C123.546 11.162 123.591 11.2527 123.591 11.366V14.664C123.591 14.7773 123.546 14.8793 123.455 14.97C123.387 15.038 123.296 15.072 123.183 15.072H117.505C117.392 15.072 117.335 15.1287 117.335 15.242V20.716C117.335 20.8293 117.392 20.886 117.505 20.886H126.617C126.73 20.886 126.821 20.9313 126.889 21.022C126.98 21.09 127.025 21.1807 127.025 21.294V24.592C127.025 24.7053 126.98 24.8073 126.889 24.898C126.821 24.966 126.73 25 126.617 25H112.949C112.836 25 112.734 24.966 112.643 24.898C112.575 24.8073 112.541 24.7053 112.541 24.592V1.608C112.541 1.49467 112.575 1.404 112.643 1.336C112.734 1.24533 112.836 1.2 112.949 1.2H126.617C126.73 1.2 126.821 1.24533 126.889 1.336C126.98 1.404 127.025 1.49467 127.025 1.608V4.906ZM147.752 25.272C146.188 25.272 144.817 25 143.638 24.456C142.459 23.8893 141.541 23.1073 140.884 22.11C140.249 21.09 139.932 19.9227 139.932 18.608V17.724C139.932 17.6107 139.966 17.52 140.034 17.452C140.125 17.3613 140.227 17.316 140.34 17.316H144.25C144.363 17.316 144.454 17.3613 144.522 17.452C144.613 17.52 144.658 17.6107 144.658 17.724V18.37C144.658 19.1633 144.953 19.832 145.542 20.376C146.131 20.8973 146.925 21.158 147.922 21.158C148.806 21.158 149.475 20.9313 149.928 20.478C150.404 20.0247 150.642 19.4467 150.642 18.744C150.642 18.2227 150.495 17.7807 150.2 17.418C149.905 17.0327 149.486 16.6813 148.942 16.364C148.421 16.024 147.605 15.5707 146.494 15.004C145.134 14.324 144.023 13.6893 143.162 13.1C142.301 12.5107 141.564 11.7513 140.952 10.822C140.34 9.89267 140.034 8.77067 140.034 7.456C140.034 6.14133 140.34 4.99667 140.952 4.022C141.587 3.02467 142.471 2.26533 143.604 1.744C144.737 1.2 146.029 0.928 147.48 0.928C148.999 0.928 150.347 1.22267 151.526 1.812C152.705 2.37867 153.623 3.18333 154.28 4.226C154.937 5.26867 155.266 6.47 155.266 7.83V8.51C155.266 8.62333 155.221 8.72533 155.13 8.816C155.062 8.884 154.971 8.918 154.858 8.918H150.948C150.835 8.918 150.733 8.884 150.642 8.816C150.574 8.72533 150.54 8.62333 150.54 8.51V7.898C150.54 7.082 150.257 6.402 149.69 5.858C149.123 5.314 148.353 5.042 147.378 5.042C146.562 5.042 145.916 5.25733 145.44 5.688C144.987 6.096 144.76 6.674 144.76 7.422C144.76 7.94333 144.896 8.39667 145.168 8.782C145.44 9.16733 145.859 9.54133 146.426 9.904C146.993 10.244 147.854 10.6973 149.01 11.264L149.724 11.672C151.039 12.3973 152.059 13.032 152.784 13.576C153.532 14.0973 154.155 14.766 154.654 15.582C155.153 16.398 155.402 17.384 155.402 18.54C155.402 20.6027 154.699 22.246 153.294 23.47C151.911 24.6713 150.064 25.272 147.752 25.272ZM174.783 1.2C174.897 1.2 174.987 1.24533 175.055 1.336C175.146 1.404 175.191 1.49467 175.191 1.608V4.94C175.191 5.05333 175.146 5.15533 175.055 5.246C174.987 5.314 174.897 5.348 174.783 5.348H169.615C169.502 5.348 169.445 5.40467 169.445 5.518V24.592C169.445 24.7053 169.4 24.8073 169.309 24.898C169.241 24.966 169.151 25 169.037 25H165.059C164.946 25 164.844 24.966 164.753 24.898C164.685 24.8073 164.651 24.7053 164.651 24.592V5.518C164.651 5.40467 164.595 5.348 164.481 5.348H159.483C159.37 5.348 159.268 5.314 159.177 5.246C159.109 5.15533 159.075 5.05333 159.075 4.94V1.608C159.075 1.49467 159.109 1.404 159.177 1.336C159.268 1.24533 159.37 1.2 159.483 1.2H174.783ZM191.025 25C190.776 25 190.617 24.8867 190.549 24.66L187.115 15.276C187.07 15.1853 187.013 15.14 186.945 15.14H184.803C184.69 15.14 184.633 15.1967 184.633 15.31V24.592C184.633 24.7053 184.588 24.8073 184.497 24.898C184.429 24.966 184.339 25 184.225 25H180.247C180.134 25 180.032 24.966 179.941 24.898C179.873 24.8073 179.839 24.7053 179.839 24.592V1.608C179.839 1.49467 179.873 1.404 179.941 1.336C180.032 1.24533 180.134 1.2 180.247 1.2H188.543C189.881 1.2 191.071 1.506 192.113 2.118C193.156 2.70733 193.961 3.546 194.527 4.634C195.094 5.722 195.377 6.96867 195.377 8.374C195.377 9.82467 195.06 11.0827 194.425 12.148C193.791 13.2133 192.895 14.0067 191.739 14.528C191.626 14.5733 191.592 14.6527 191.637 14.766L195.513 24.524C195.536 24.5693 195.547 24.626 195.547 24.694C195.547 24.898 195.423 25 195.173 25H191.025ZM184.803 5.314C184.69 5.314 184.633 5.37067 184.633 5.484V11.298C184.633 11.4113 184.69 11.468 184.803 11.468H187.761C188.6 11.468 189.28 11.196 189.801 10.652C190.323 10.0853 190.583 9.33733 190.583 8.408C190.583 7.456 190.323 6.708 189.801 6.164C189.28 5.59733 188.6 5.314 187.761 5.314H184.803ZM200.658 25C200.545 25 200.443 24.966 200.352 24.898C200.284 24.8073 200.25 24.7053 200.25 24.592V1.608C200.25 1.49467 200.284 1.404 200.352 1.336C200.443 1.24533 200.545 1.2 200.658 1.2H204.636C204.749 1.2 204.84 1.24533 204.908 1.336C204.999 1.404 205.044 1.49467 205.044 1.608V24.592C205.044 24.7053 204.999 24.8073 204.908 24.898C204.84 24.966 204.749 25 204.636 25H200.658ZM210.975 25C210.862 25 210.76 24.966 210.669 24.898C210.601 24.8073 210.567 24.7053 210.567 24.592V1.608C210.567 1.49467 210.601 1.404 210.669 1.336C210.76 1.24533 210.862 1.2 210.975 1.2H214.953C215.066 1.2 215.157 1.24533 215.225 1.336C215.316 1.404 215.361 1.49467 215.361 1.608V10.652C215.361 10.72 215.384 10.7653 215.429 10.788C215.497 10.8107 215.542 10.788 215.565 10.72L221.651 1.472C221.764 1.29067 221.923 1.2 222.127 1.2H226.513C226.672 1.2 226.774 1.24533 226.819 1.336C226.887 1.42667 226.876 1.54 226.785 1.676L220.495 11.434C220.472 11.502 220.472 11.5813 220.495 11.672L227.159 24.524C227.204 24.6147 227.227 24.6827 227.227 24.728C227.227 24.9093 227.102 25 226.853 25H222.501C222.297 25 222.138 24.898 222.025 24.694L217.197 15.378C217.174 15.31 217.14 15.276 217.095 15.276C217.05 15.276 217.004 15.31 216.959 15.378L215.429 17.588C215.384 17.6787 215.361 17.7467 215.361 17.792V24.592C215.361 24.7053 215.316 24.8073 215.225 24.898C215.157 24.966 215.066 25 214.953 25H210.975ZM245.96 4.906C245.96 5.01933 245.914 5.12133 245.824 5.212C245.756 5.28 245.665 5.314 245.552 5.314H236.44C236.326 5.314 236.27 5.37067 236.27 5.484V10.788C236.27 10.9013 236.326 10.958 236.44 10.958H242.118C242.231 10.958 242.322 11.0033 242.39 11.094C242.48 11.162 242.526 11.2527 242.526 11.366V14.664C242.526 14.7773 242.48 14.8793 242.39 14.97C242.322 15.038 242.231 15.072 242.118 15.072H236.44C236.326 15.072 236.27 15.1287 236.27 15.242V20.716C236.27 20.8293 236.326 20.886 236.44 20.886H245.552C245.665 20.886 245.756 20.9313 245.824 21.022C245.914 21.09 245.96 21.1807 245.96 21.294V24.592C245.96 24.7053 245.914 24.8073 245.824 24.898C245.756 24.966 245.665 25 245.552 25H231.884C231.77 25 231.668 24.966 231.578 24.898C231.51 24.8073 231.476 24.7053 231.476 24.592V1.608C231.476 1.49467 231.51 1.404 231.578 1.336C231.668 1.24533 231.77 1.2 231.884 1.2H245.552C245.665 1.2 245.756 1.24533 245.824 1.336C245.914 1.404 245.96 1.49467 245.96 1.608V4.906ZM267.027 25.306C265.463 25.306 264.08 24.9887 262.879 24.354C261.7 23.7193 260.782 22.824 260.125 21.668C259.467 20.512 259.139 19.1633 259.139 17.622V8.578C259.139 7.05933 259.467 5.722 260.125 4.566C260.782 3.41 261.7 2.51467 262.879 1.88C264.08 1.24533 265.463 0.928 267.027 0.928C268.591 0.928 269.973 1.24533 271.175 1.88C272.376 2.51467 273.305 3.41 273.963 4.566C274.62 5.722 274.949 7.05933 274.949 8.578V17.622C274.949 19.1633 274.62 20.512 273.963 21.668C273.305 22.824 272.376 23.7193 271.175 24.354C269.973 24.9887 268.591 25.306 267.027 25.306ZM267.027 21.192C267.979 21.192 268.738 20.886 269.305 20.274C269.871 19.6393 270.155 18.8233 270.155 17.826V8.442C270.155 7.422 269.871 6.606 269.305 5.994C268.738 5.35933 267.979 5.042 267.027 5.042C266.097 5.042 265.349 5.35933 264.783 5.994C264.216 6.606 263.933 7.422 263.933 8.442V17.826C263.933 18.8233 264.216 19.6393 264.783 20.274C265.349 20.886 266.097 21.192 267.027 21.192ZM291.276 25C291.027 25 290.868 24.8867 290.8 24.66L287.366 15.276C287.321 15.1853 287.264 15.14 287.196 15.14H285.054C284.941 15.14 284.884 15.1967 284.884 15.31V24.592C284.884 24.7053 284.839 24.8073 284.748 24.898C284.68 24.966 284.589 25 284.476 25H280.498C280.385 25 280.283 24.966 280.192 24.898C280.124 24.8073 280.09 24.7053 280.09 24.592V1.608C280.09 1.49467 280.124 1.404 280.192 1.336C280.283 1.24533 280.385 1.2 280.498 1.2H288.794C290.131 1.2 291.321 1.506 292.364 2.118C293.407 2.70733 294.211 3.546 294.778 4.634C295.345 5.722 295.628 6.96867 295.628 8.374C295.628 9.82467 295.311 11.0827 294.676 12.148C294.041 13.2133 293.146 14.0067 291.99 14.528C291.877 14.5733 291.843 14.6527 291.888 14.766L295.764 24.524C295.787 24.5693 295.798 24.626 295.798 24.694C295.798 24.898 295.673 25 295.424 25H291.276ZM285.054 5.314C284.941 5.314 284.884 5.37067 284.884 5.484V11.298C284.884 11.4113 284.941 11.468 285.054 11.468H288.012C288.851 11.468 289.531 11.196 290.052 10.652C290.573 10.0853 290.834 9.33733 290.834 8.408C290.834 7.456 290.573 6.708 290.052 6.164C289.531 5.59733 288.851 5.314 288.012 5.314H285.054ZM314.985 4.906C314.985 5.01933 314.939 5.12133 314.849 5.212C314.781 5.28 314.69 5.314 314.577 5.314H305.465C305.351 5.314 305.295 5.37067 305.295 5.484V10.788C305.295 10.9013 305.351 10.958 305.465 10.958H311.143C311.256 10.958 311.347 11.0033 311.415 11.094C311.505 11.162 311.551 11.2527 311.551 11.366V14.664C311.551 14.7773 311.505 14.8793 311.415 14.97C311.347 15.038 311.256 15.072 311.143 15.072H305.465C305.351 15.072 305.295 15.1287 305.295 15.242V20.716C305.295 20.8293 305.351 20.886 305.465 20.886H314.577C314.69 20.886 314.781 20.9313 314.849 21.022C314.939 21.09 314.985 21.1807 314.985 21.294V24.592C314.985 24.7053 314.939 24.8073 314.849 24.898C314.781 24.966 314.69 25 314.577 25H300.909C300.795 25 300.693 24.966 300.603 24.898C300.535 24.8073 300.501 24.7053 300.501 24.592V1.608C300.501 1.49467 300.535 1.404 300.603 1.336C300.693 1.24533 300.795 1.2 300.909 1.2H314.577C314.69 1.2 314.781 1.24533 314.849 1.336C314.939 1.404 314.985 1.49467 314.985 1.608V4.906ZM327.194 25.272C325.652 25.272 324.292 24.966 323.114 24.354C321.935 23.742 321.017 22.8807 320.36 21.77C319.725 20.6367 319.408 19.3333 319.408 17.86V8.306C319.408 6.83267 319.725 5.54067 320.36 4.43C321.017 3.31933 321.935 2.458 323.114 1.846C324.292 1.234 325.652 0.928 327.194 0.928C328.712 0.928 330.061 1.234 331.24 1.846C332.441 2.43533 333.359 3.274 333.994 4.362C334.651 5.42733 334.98 6.64 334.98 8V8.748C334.98 8.86133 334.934 8.96333 334.844 9.054C334.776 9.122 334.685 9.156 334.572 9.156H330.594C330.48 9.156 330.378 9.122 330.288 9.054C330.22 8.96333 330.186 8.86133 330.186 8.748V8.034C330.186 7.17267 329.914 6.45867 329.37 5.892C328.826 5.32533 328.1 5.042 327.194 5.042C326.287 5.042 325.55 5.33667 324.984 5.926C324.44 6.51533 324.168 7.286 324.168 8.238V17.962C324.168 18.914 324.451 19.6847 325.018 20.274C325.607 20.8633 326.366 21.158 327.296 21.158C328.18 21.158 328.882 20.8973 329.404 20.376C329.948 19.8547 330.22 19.1407 330.22 18.234V16.126C330.22 16.0127 330.163 15.956 330.05 15.956H327.398C327.284 15.956 327.182 15.922 327.092 15.854C327.024 15.7633 326.99 15.6613 326.99 15.548V12.454C326.99 12.3407 327.024 12.25 327.092 12.182C327.182 12.0913 327.284 12.046 327.398 12.046H334.572C334.685 12.046 334.776 12.0913 334.844 12.182C334.934 12.25 334.98 12.3407 334.98 12.454V17.86C334.98 20.1267 334.266 21.9287 332.838 23.266C331.432 24.6033 329.551 25.272 327.194 25.272ZM347.607 25.306C346.043 25.306 344.66 24.9887 343.459 24.354C342.28 23.7193 341.362 22.824 340.705 21.668C340.047 20.512 339.719 19.1633 339.719 17.622V8.578C339.719 7.05933 340.047 5.722 340.705 4.566C341.362 3.41 342.28 2.51467 343.459 1.88C344.66 1.24533 346.043 0.928 347.607 0.928C349.171 0.928 350.553 1.24533 351.755 1.88C352.956 2.51467 353.885 3.41 354.543 4.566C355.2 5.722 355.529 7.05933 355.529 8.578V17.622C355.529 19.1633 355.2 20.512 354.543 21.668C353.885 22.824 352.956 23.7193 351.755 24.354C350.553 24.9887 349.171 25.306 347.607 25.306ZM347.607 21.192C348.559 21.192 349.318 20.886 349.885 20.274C350.451 19.6393 350.735 18.8233 350.735 17.826V8.442C350.735 7.422 350.451 6.606 349.885 5.994C349.318 5.35933 348.559 5.042 347.607 5.042C346.677 5.042 345.929 5.35933 345.363 5.994C344.796 6.606 344.513 7.422 344.513 8.442V17.826C344.513 18.8233 344.796 19.6393 345.363 20.274C345.929 20.886 346.677 21.192 347.607 21.192ZM372.366 1.608C372.366 1.49467 372.4 1.404 372.468 1.336C372.559 1.24533 372.661 1.2 372.774 1.2H376.718C376.831 1.2 376.922 1.24533 376.99 1.336C377.081 1.404 377.126 1.49467 377.126 1.608V24.592C377.126 24.7053 377.081 24.8073 376.99 24.898C376.922 24.966 376.831 25 376.718 25H372.57C372.343 25 372.185 24.898 372.094 24.694L365.6 10.856C365.555 10.788 365.509 10.754 365.464 10.754C365.419 10.754 365.396 10.7993 365.396 10.89L365.43 24.592C365.43 24.7053 365.385 24.8073 365.294 24.898C365.226 24.966 365.135 25 365.022 25H361.078C360.965 25 360.863 24.966 360.772 24.898C360.704 24.8073 360.67 24.7053 360.67 24.592V1.608C360.67 1.49467 360.704 1.404 360.772 1.336C360.863 1.24533 360.965 1.2 361.078 1.2H365.192C365.419 1.2 365.577 1.302 365.668 1.506L372.162 15.344C372.207 15.412 372.253 15.446 372.298 15.446C372.343 15.446 372.366 15.4007 372.366 15.31V1.608ZM422.568 25C422.341 25 422.194 24.8867 422.126 24.66L416.788 1.642V1.506C416.788 1.302 416.912 1.2 417.162 1.2H421.344C421.616 1.2 421.763 1.32467 421.786 1.574L424.37 14.63C424.392 14.698 424.426 14.732 424.472 14.732C424.517 14.732 424.551 14.698 424.574 14.63L427.056 1.574C427.078 1.32467 427.226 1.2 427.498 1.2H431.272C431.521 1.2 431.668 1.32467 431.714 1.574L434.434 14.63C434.456 14.698 434.49 14.732 434.536 14.732C434.581 14.732 434.615 14.698 434.638 14.63L437.086 1.574C437.108 1.32467 437.256 1.2 437.528 1.2H441.54C441.834 1.2 441.948 1.34733 441.88 1.642L436.916 24.626C436.87 24.8753 436.723 25 436.474 25H432.632C432.382 25 432.235 24.8753 432.19 24.626L429.436 10.958C429.413 10.89 429.379 10.856 429.334 10.856C429.288 10.856 429.254 10.89 429.232 10.958L426.75 24.626C426.727 24.8753 426.58 25 426.308 25H422.568ZM460.804 4.906C460.804 5.01933 460.759 5.12133 460.668 5.212C460.6 5.28 460.51 5.314 460.396 5.314H451.284C451.171 5.314 451.114 5.37067 451.114 5.484V10.788C451.114 10.9013 451.171 10.958 451.284 10.958H456.962C457.076 10.958 457.166 11.0033 457.234 11.094C457.325 11.162 457.37 11.2527 457.37 11.366V14.664C457.37 14.7773 457.325 14.8793 457.234 14.97C457.166 15.038 457.076 15.072 456.962 15.072H451.284C451.171 15.072 451.114 15.1287 451.114 15.242V20.716C451.114 20.8293 451.171 20.886 451.284 20.886H460.396C460.51 20.886 460.6 20.9313 460.668 21.022C460.759 21.09 460.804 21.1807 460.804 21.294V24.592C460.804 24.7053 460.759 24.8073 460.668 24.898C460.6 24.966 460.51 25 460.396 25H446.728C446.615 25 446.513 24.966 446.422 24.898C446.354 24.8073 446.32 24.7053 446.32 24.592V1.608C446.32 1.49467 446.354 1.404 446.422 1.336C446.513 1.24533 446.615 1.2 446.728 1.2H460.396C460.51 1.2 460.6 1.24533 460.668 1.336C460.759 1.404 460.804 1.49467 460.804 1.608V4.906ZM480.119 4.906C480.119 5.01933 480.074 5.12133 479.983 5.212C479.915 5.28 479.825 5.314 479.711 5.314H470.599C470.486 5.314 470.429 5.37067 470.429 5.484V10.788C470.429 10.9013 470.486 10.958 470.599 10.958H476.277C476.391 10.958 476.481 11.0033 476.549 11.094C476.64 11.162 476.685 11.2527 476.685 11.366V14.664C476.685 14.7773 476.64 14.8793 476.549 14.97C476.481 15.038 476.391 15.072 476.277 15.072H470.599C470.486 15.072 470.429 15.1287 470.429 15.242V20.716C470.429 20.8293 470.486 20.886 470.599 20.886H479.711C479.825 20.886 479.915 20.9313 479.983 21.022C480.074 21.09 480.119 21.1807 480.119 21.294V24.592C480.119 24.7053 480.074 24.8073 479.983 24.898C479.915 24.966 479.825 25 479.711 25H466.043C465.93 25 465.828 24.966 465.737 24.898C465.669 24.8073 465.635 24.7053 465.635 24.592V1.608C465.635 1.49467 465.669 1.404 465.737 1.336C465.828 1.24533 465.93 1.2 466.043 1.2H479.711C479.825 1.2 479.915 1.24533 479.983 1.336C480.074 1.404 480.119 1.49467 480.119 1.608V4.906ZM485.358 25C485.245 25 485.143 24.966 485.052 24.898C484.984 24.8073 484.95 24.7053 484.95 24.592V1.608C484.95 1.49467 484.984 1.404 485.052 1.336C485.143 1.24533 485.245 1.2 485.358 1.2H489.336C489.45 1.2 489.54 1.24533 489.608 1.336C489.699 1.404 489.744 1.49467 489.744 1.608V10.652C489.744 10.72 489.767 10.7653 489.812 10.788C489.88 10.8107 489.926 10.788 489.948 10.72L496.034 1.472C496.148 1.29067 496.306 1.2 496.51 1.2H500.896C501.055 1.2 501.157 1.24533 501.202 1.336C501.27 1.42667 501.259 1.54 501.168 1.676L494.878 11.434C494.856 11.502 494.856 11.5813 494.878 11.672L501.542 24.524C501.588 24.6147 501.61 24.6827 501.61 24.728C501.61 24.9093 501.486 25 501.236 25H496.884C496.68 25 496.522 24.898 496.408 24.694L491.58 15.378C491.558 15.31 491.524 15.276 491.478 15.276C491.433 15.276 491.388 15.31 491.342 15.378L489.812 17.588C489.767 17.6787 489.744 17.7467 489.744 17.792V24.592C489.744 24.7053 489.699 24.8073 489.608 24.898C489.54 24.966 489.45 25 489.336 25H485.358ZM522.095 25.306C520.531 25.306 519.149 24.9887 517.947 24.354C516.769 23.7193 515.851 22.824 515.193 21.668C514.536 20.512 514.207 19.1633 514.207 17.622V8.578C514.207 7.05933 514.536 5.722 515.193 4.566C515.851 3.41 516.769 2.51467 517.947 1.88C519.149 1.24533 520.531 0.928 522.095 0.928C523.659 0.928 525.042 1.24533 526.243 1.88C527.445 2.51467 528.374 3.41 529.031 4.566C529.689 5.722 530.017 7.05933 530.017 8.578V17.622C530.017 19.1633 529.689 20.512 529.031 21.668C528.374 22.824 527.445 23.7193 526.243 24.354C525.042 24.9887 523.659 25.306 522.095 25.306ZM522.095 21.192C523.047 21.192 523.807 20.886 524.373 20.274C524.94 19.6393 525.223 18.8233 525.223 17.826V8.442C525.223 7.422 524.94 6.606 524.373 5.994C523.807 5.35933 523.047 5.042 522.095 5.042C521.166 5.042 520.418 5.35933 519.851 5.994C519.285 6.606 519.001 7.422 519.001 8.442V17.826C519.001 18.8233 519.285 19.6393 519.851 20.274C520.418 20.886 521.166 21.192 522.095 21.192ZM549.609 4.906C549.609 5.01933 549.563 5.12133 549.473 5.212C549.405 5.28 549.314 5.314 549.201 5.314H540.123C540.009 5.314 539.953 5.37067 539.953 5.484V10.788C539.953 10.9013 540.009 10.958 540.123 10.958H545.767C545.88 10.958 545.971 11.0033 546.039 11.094C546.129 11.162 546.175 11.2527 546.175 11.366V14.664C546.175 14.7773 546.129 14.8793 546.039 14.97C545.971 15.038 545.88 15.072 545.767 15.072H540.123C540.009 15.072 539.953 15.1287 539.953 15.242V24.592C539.953 24.7053 539.907 24.8073 539.817 24.898C539.749 24.966 539.658 25 539.545 25H535.567C535.453 25 535.351 24.966 535.261 24.898C535.193 24.8073 535.159 24.7053 535.159 24.592V1.608C535.159 1.49467 535.193 1.404 535.261 1.336C535.351 1.24533 535.453 1.2 535.567 1.2H549.201C549.314 1.2 549.405 1.24533 549.473 1.336C549.563 1.404 549.609 1.49467 549.609 1.608V4.906ZM575.112 25C574.863 25 574.704 24.8867 574.636 24.66L573.854 21.328C573.832 21.2373 573.775 21.192 573.684 21.192H567.326C567.236 21.192 567.179 21.2373 567.156 21.328L566.374 24.66C566.306 24.8867 566.159 25 565.932 25H561.818C561.524 25 561.41 24.8527 561.478 24.558L567.598 1.54C567.666 1.31333 567.825 1.2 568.074 1.2H573.004C573.254 1.2 573.412 1.31333 573.48 1.54L579.6 24.558L579.634 24.694C579.634 24.898 579.51 25 579.26 25H575.112ZM568.074 17.282C568.052 17.35 568.063 17.4067 568.108 17.452C568.154 17.4747 568.199 17.486 568.244 17.486H572.732C572.778 17.486 572.823 17.4747 572.868 17.452C572.914 17.4067 572.925 17.35 572.902 17.282L570.556 7.422C570.534 7.33133 570.5 7.286 570.454 7.286C570.409 7.286 570.375 7.33133 570.352 7.422L568.074 17.282ZM590.819 25.272C589.278 25.272 587.918 24.966 586.739 24.354C585.56 23.742 584.642 22.8693 583.985 21.736C583.35 20.6027 583.033 19.288 583.033 17.792V8.34C583.033 6.86667 583.35 5.57467 583.985 4.464C584.642 3.33067 585.56 2.458 586.739 1.846C587.918 1.234 589.278 0.928 590.819 0.928C592.36 0.928 593.72 1.234 594.899 1.846C596.078 2.43533 596.984 3.274 597.619 4.362C598.276 5.45 598.605 6.71933 598.605 8.17V8.34C598.605 8.45333 598.56 8.55533 598.469 8.646C598.401 8.73667 598.31 8.782 598.197 8.782L594.219 8.952C593.947 8.952 593.811 8.82733 593.811 8.578V8.136C593.811 7.20667 593.539 6.45867 592.995 5.892C592.451 5.32533 591.726 5.042 590.819 5.042C589.912 5.042 589.187 5.32533 588.643 5.892C588.099 6.45867 587.827 7.20667 587.827 8.136V18.098C587.827 19.0273 588.099 19.7753 588.643 20.342C589.187 20.886 589.912 21.158 590.819 21.158C591.726 21.158 592.451 20.886 592.995 20.342C593.539 19.7753 593.811 19.0273 593.811 18.098V17.656C593.811 17.4067 593.947 17.282 594.219 17.282L598.197 17.452C598.31 17.452 598.401 17.4973 598.469 17.588C598.56 17.656 598.605 17.7467 598.605 17.86V17.962C598.605 19.4127 598.276 20.6933 597.619 21.804C596.984 22.9147 596.078 23.776 594.899 24.388C593.72 24.9773 592.36 25.272 590.819 25.272ZM618.276 1.2C618.39 1.2 618.48 1.24533 618.548 1.336C618.639 1.404 618.684 1.49467 618.684 1.608V4.94C618.684 5.05333 618.639 5.15533 618.548 5.246C618.48 5.314 618.39 5.348 618.276 5.348H613.108C612.995 5.348 612.938 5.40467 612.938 5.518V24.592C612.938 24.7053 612.893 24.8073 612.802 24.898C612.734 24.966 612.644 25 612.53 25H608.552C608.439 25 608.337 24.966 608.246 24.898C608.178 24.8073 608.144 24.7053 608.144 24.592V5.518C608.144 5.40467 608.088 5.348 607.974 5.348H602.976C602.863 5.348 602.761 5.314 602.67 5.246C602.602 5.15533 602.568 5.05333 602.568 4.94V1.608C602.568 1.49467 602.602 1.404 602.67 1.336C602.761 1.24533 602.863 1.2 602.976 1.2H618.276ZM623.741 25C623.627 25 623.525 24.966 623.435 24.898C623.367 24.8073 623.333 24.7053 623.333 24.592V1.608C623.333 1.49467 623.367 1.404 623.435 1.336C623.525 1.24533 623.627 1.2 623.741 1.2H627.719C627.832 1.2 627.923 1.24533 627.991 1.336C628.081 1.404 628.127 1.49467 628.127 1.608V24.592C628.127 24.7053 628.081 24.8073 627.991 24.898C627.923 24.966 627.832 25 627.719 25H623.741ZM641.129 25.306C639.565 25.306 638.183 24.9887 636.981 24.354C635.803 23.7193 634.885 22.824 634.227 21.668C633.57 20.512 633.241 19.1633 633.241 17.622V8.578C633.241 7.05933 633.57 5.722 634.227 4.566C634.885 3.41 635.803 2.51467 636.981 1.88C638.183 1.24533 639.565 0.928 641.129 0.928C642.693 0.928 644.076 1.24533 645.277 1.88C646.479 2.51467 647.408 3.41 648.065 4.566C648.723 5.722 649.051 7.05933 649.051 8.578V17.622C649.051 19.1633 648.723 20.512 648.065 21.668C647.408 22.824 646.479 23.7193 645.277 24.354C644.076 24.9887 642.693 25.306 641.129 25.306ZM641.129 21.192C642.081 21.192 642.841 20.886 643.407 20.274C643.974 19.6393 644.257 18.8233 644.257 17.826V8.442C644.257 7.422 643.974 6.606 643.407 5.994C642.841 5.35933 642.081 5.042 641.129 5.042C640.2 5.042 639.452 5.35933 638.885 5.994C638.319 6.606 638.035 7.422 638.035 8.442V17.826C638.035 18.8233 638.319 19.6393 638.885 20.274C639.452 20.886 640.2 21.192 641.129 21.192ZM665.889 1.608C665.889 1.49467 665.923 1.404 665.991 1.336C666.081 1.24533 666.183 1.2 666.297 1.2H670.241C670.354 1.2 670.445 1.24533 670.513 1.336C670.603 1.404 670.649 1.49467 670.649 1.608V24.592C670.649 24.7053 670.603 24.8073 670.513 24.898C670.445 24.966 670.354 25 670.241 25H666.093C665.866 25 665.707 24.898 665.617 24.694L659.123 10.856C659.077 10.788 659.032 10.754 658.987 10.754C658.941 10.754 658.919 10.7993 658.919 10.89L658.953 24.592C658.953 24.7053 658.907 24.8073 658.817 24.898C658.749 24.966 658.658 25 658.545 25H654.601C654.487 25 654.385 24.966 654.295 24.898C654.227 24.8073 654.193 24.7053 654.193 24.592V1.608C654.193 1.49467 654.227 1.404 654.295 1.336C654.385 1.24533 654.487 1.2 654.601 1.2H658.715C658.941 1.2 659.1 1.302 659.191 1.506L665.685 15.344C665.73 15.412 665.775 15.446 665.821 15.446C665.866 15.446 665.889 15.4007 665.889 15.31V1.608Z" fill="black"/>
<path d="M404.045 12.692C404.158 12.692 404.249 12.7373 404.317 12.828C404.407 12.896 404.453 12.9867 404.453 13.1V16.126C404.453 16.2393 404.407 16.3413 404.317 16.432C404.249 16.5 404.158 16.534 404.045 16.534H399.591C399.477 16.534 399.421 16.5907 399.421 16.704V21.124C399.421 21.2373 399.375 21.3393 399.285 21.43C399.217 21.498 399.126 21.532 399.013 21.532H395.953C395.839 21.532 395.737 21.498 395.647 21.43C395.579 21.3393 395.545 21.2373 395.545 21.124V16.704C395.545 16.5907 395.488 16.534 395.375 16.534H390.921C390.807 16.534 390.705 16.5 390.615 16.432C390.547 16.3413 390.513 16.2393 390.513 16.126V13.1C390.513 12.9867 390.547 12.896 390.615 12.828C390.705 12.7373 390.807 12.692 390.921 12.692H395.375C395.488 12.692 395.545 12.6353 395.545 12.522V8.034C395.545 7.92067 395.579 7.83 395.647 7.762C395.737 7.67133 395.839 7.626 395.953 7.626H399.013C399.126 7.626 399.217 7.67133 399.285 7.762C399.375 7.83 399.421 7.92067 399.421 8.034V12.522C399.421 12.6353 399.477 12.692 399.591 12.692H404.045Z" fill="#E9A41E"/>
</svg>
