<svg width="113" height="112" viewBox="0 0 113 112" fill="none" xmlns="http://www.w3.org/2000/svg">
<path d="M100.902 26.132H12.0472C9.10153 26.132 6.27647 27.3022 4.19354 29.3851C2.11061 31.4681 0.94043 34.2931 0.94043 37.2388V83.5172C0.94043 84.0082 1.13546 84.479 1.48261 84.8262C1.82977 85.1733 2.30061 85.3683 2.79157 85.3683H17.6006V53.899C17.6006 53.4081 17.7957 52.9373 18.1428 52.5901C18.49 52.2429 18.9608 52.0479 19.4518 52.0479H93.4972C93.9882 52.0479 94.459 52.2429 94.8062 52.5901C95.1533 52.9373 95.3483 53.4081 95.3483 53.899V85.3683H110.157C110.648 85.3683 111.119 85.1733 111.466 84.8262C111.814 84.479 112.009 84.0082 112.009 83.5172V37.2388C112.009 34.2931 110.838 31.4681 108.755 29.3851C106.673 27.3022 103.847 26.132 100.902 26.132ZM87.9438 42.7922C87.2116 42.7922 86.4958 42.5751 85.8869 42.1683C85.2781 41.7615 84.8036 41.1833 84.5233 40.5068C84.2431 39.8303 84.1698 39.0859 84.3127 38.3677C84.4555 37.6495 84.8081 36.9898 85.3259 36.4721C85.8437 35.9543 86.5033 35.6017 87.2215 35.4588C87.9397 35.316 88.6841 35.3893 89.3606 35.6695C90.0371 35.9497 90.6153 36.4243 91.0221 37.0331C91.4289 37.6419 91.6461 38.3577 91.6461 39.09C91.6461 40.0719 91.256 41.0136 90.5617 41.7079C89.8674 42.4022 88.9257 42.7922 87.9438 42.7922Z" fill="black"/>
<path d="M89.7947 0.216125H23.1539C22.6629 0.216125 22.1921 0.411155 21.8449 0.75831C21.4978 1.10547 21.3027 1.57631 21.3027 2.06726V22.4298H91.6459V2.06726C91.6459 1.57631 91.4509 1.10547 91.1037 0.75831C90.7565 0.411155 90.2857 0.216125 89.7947 0.216125Z" fill="black"/>
<path d="M21.3027 55.7502V109.433C21.3027 109.924 21.4978 110.395 21.8449 110.742C22.1921 111.089 22.6629 111.284 23.1539 111.284H89.7947C90.2857 111.284 90.7565 111.089 91.1037 110.742C91.4509 110.395 91.6459 109.924 91.6459 109.433V55.7502H21.3027Z" fill="black"/>
</svg>
