<?xml version="1.0" standalone="no"?>
<!DOCTYPE svg PUBLIC "-//W3C//DTD SVG 20010904//EN"
 "http://www.w3.org/TR/2001/REC-SVG-20010904/DTD/svg10.dtd">
<svg version="1.0" xmlns="http://www.w3.org/2000/svg"
 width="1600.000000pt" height="1200.000000pt" viewBox="0 0 1600.000000 1200.000000"
 preserveAspectRatio="xMidYMid meet">

<g transform="translate(0.000000,1200.000000) scale(0.100000,-0.100000)"
fill="#CFF4EA" stroke="none">
<path d="M0 6000 l0 -6000 8000 0 8000 0 0 6000 0 6000 -8000 0 -8000 0 0
-6000z m13484 3960 c76 -29 139 -88 178 -168 l33 -67 0 -3672 0 -3673 650 0
c573 0 653 -2 673 -16 20 -14 22 -23 22 -118 l0 -103 -77 -36 c-43 -19 -103
-44 -133 -54 -53 -17 -309 -18 -6805 -21 -6737 -2 -6750 -2 -6830 18 -44 11
-114 37 -157 57 l-78 36 0 99 c0 154 -78 138 687 138 l648 0 0 3683 0 3682 24
45 c43 83 127 155 211 181 14 4 2472 8 5462 8 l5437 1 55 -20z"/>
<path d="M5496 9215 c-11 -11 -16 -34 -16 -75 0 -41 5 -64 16 -75 23 -22 73
-16 92 12 13 21 13 23 -3 29 -11 5 -21 1 -27 -9 -21 -38 -48 -13 -48 43 0 56
27 81 48 43 6 -10 16 -14 27 -9 16 6 16 8 3 29 -19 28 -69 34 -92 12z"/>
<path d="M5630 9140 l0 -90 55 0 c42 0 55 3 55 15 0 10 -11 15 -35 15 l-35 0
0 75 c0 68 -2 75 -20 75 -19 0 -20 -7 -20 -90z"/>
<path d="M5780 9140 c0 -73 3 -90 15 -90 12 0 15 17 15 90 0 73 -3 90 -15 90
-12 0 -15 -17 -15 -90z"/>
<path d="M5850 9140 c0 -83 1 -90 20 -90 18 0 20 7 20 57 0 52 1 55 15 37 15
-19 15 -19 30 0 14 18 15 15 15 -37 0 -50 2 -57 20 -57 19 0 20 7 20 90 0 81
-2 90 -19 90 -10 0 -26 -10 -35 -22 l-16 -23 -16 23 c-9 12 -25 22 -35 22 -17
0 -19 -9 -19 -90z"/>
<path d="M6065 9218 c-5 -15 -45 -161 -45 -165 0 -2 9 -3 20 -3 11 0 20 7 20
15 0 9 9 15 25 15 14 0 28 -7 31 -15 4 -8 14 -15 24 -15 18 0 18 3 -1 73 -11
39 -22 80 -25 90 -6 20 -42 23 -49 5z m35 -84 c0 -15 -6 -24 -16 -24 -11 0
-14 5 -10 16 3 9 6 22 6 30 0 9 5 12 10 9 6 -3 10 -17 10 -31z"/>
<path d="M6167 9223 c-14 -13 -6 -23 18 -23 24 0 25 -2 25 -75 0 -60 3 -75 15
-75 12 0 15 15 15 75 0 73 1 75 25 75 16 0 25 6 25 15 0 12 -13 15 -58 15 -32
0 -62 -3 -65 -7z"/>
<path d="M6320 9140 l0 -90 55 0 c42 0 55 3 55 15 0 10 -11 15 -35 15 -31 0
-35 3 -35 25 0 18 5 25 20 25 11 0 20 7 20 15 0 8 -9 15 -20 15 -13 0 -20 7
-20 20 0 16 7 20 35 20 24 0 35 5 35 15 0 12 -13 15 -55 15 l-55 0 0 -90z"/>
<path d="M6540 9216 c-19 -24 -7 -59 30 -84 42 -28 48 -40 24 -49 -10 -4 -22
0 -29 10 -18 24 -37 21 -33 -5 4 -30 48 -46 83 -30 37 17 35 66 -3 86 -16 8
-34 22 -41 30 -11 13 -10 17 4 23 11 4 22 0 30 -10 17 -23 35 -21 35 3 0 36
-75 55 -100 26z"/>
<path d="M6670 9215 c0 -8 9 -15 20 -15 18 0 20 -7 20 -75 0 -68 2 -75 20 -75
18 0 20 7 20 75 0 68 2 75 20 75 11 0 20 7 20 15 0 12 -13 15 -60 15 -47 0
-60 -3 -60 -15z"/>
<path d="M6830 9140 c0 -73 3 -90 15 -90 10 0 15 10 15 34 0 50 15 52 33 6 9
-23 22 -40 31 -40 19 0 20 10 4 45 -9 21 -9 31 0 46 18 29 15 67 -7 79 -11 5
-36 10 -55 10 l-36 0 0 -90z m75 50 c8 -13 -13 -40 -31 -40 -8 0 -14 10 -14
25 0 18 5 25 19 25 11 0 23 -5 26 -10z"/>
<path d="M6980 9140 c0 -83 1 -90 20 -90 19 0 20 7 20 90 0 83 -1 90 -20 90
-19 0 -20 -7 -20 -90z"/>
<path d="M7060 9140 c0 -73 3 -90 15 -90 10 0 15 10 15 29 0 44 18 47 37 7 10
-22 24 -36 35 -36 23 0 23 1 -6 58 -22 43 -23 49 -9 67 32 43 35 55 14 55 -11
0 -27 -13 -38 -30 -9 -16 -21 -30 -25 -30 -4 0 -8 14 -8 30 0 20 -5 30 -15 30
-12 0 -15 -17 -15 -90z"/>
<path d="M7214 9217 c-3 -8 -4 -47 -2 -88 l3 -74 53 -3 c42 -2 52 0 52 12 0
12 -10 16 -36 16 -31 0 -35 3 -32 23 2 14 11 23 26 25 28 4 24 26 -6 30 -14 2
-22 11 -22 23 0 15 7 19 35 19 24 0 35 5 35 15 0 20 -98 22 -106 2z"/>
<path d="M7436 9208 c-9 -12 -16 -43 -16 -68 0 -25 7 -56 16 -68 19 -27 64
-29 87 -4 23 25 23 124 1 146 -23 24 -70 20 -88 -6z m64 -69 c0 -52 -2 -60
-17 -57 -13 2 -19 15 -21 47 -4 52 2 71 23 71 12 0 15 -13 15 -61z"/>
<path d="M7580 9139 c0 -81 2 -90 18 -87 11 2 19 16 23 43 l5 40 18 -42 c12
-29 24 -43 37 -43 18 0 18 2 5 35 -13 31 -13 38 1 64 16 27 16 30 0 55 -15 22
-25 26 -62 26 l-45 0 0 -91z m75 36 c0 -11 -8 -21 -17 -23 -14 -3 -18 3 -18
23 0 20 4 26 18 23 9 -2 17 -12 17 -23z"/>
<path d="M7730 9140 l0 -90 55 0 c42 0 55 3 55 15 0 11 -11 15 -36 15 -31 0
-35 3 -32 23 2 14 11 23 26 25 28 4 24 26 -6 30 -14 2 -22 11 -22 23 0 15 7
19 35 19 24 0 35 5 35 15 0 12 -13 15 -55 15 l-55 0 0 -90z"/>
<path d="M7892 9218 c-7 -7 -12 -40 -12 -80 0 -56 3 -69 19 -78 49 -26 91 0
91 56 0 31 -2 34 -30 34 -20 0 -30 -5 -30 -15 0 -8 7 -15 16 -15 9 0 14 -7 12
-17 -2 -10 -12 -18 -23 -18 -17 0 -20 8 -23 53 -2 42 0 54 14 59 10 4 22 0 29
-10 17 -23 35 -21 35 3 0 34 -71 55 -98 28z"/>
<path d="M8046 9214 c-11 -10 -16 -34 -16 -74 0 -67 15 -90 60 -90 38 0 60 33
60 90 0 25 -7 56 -16 68 -18 26 -65 30 -88 6z m62 -72 c2 -41 0 -54 -13 -59
-21 -8 -35 13 -35 54 0 44 10 65 29 61 12 -2 17 -17 19 -56z"/>
<path d="M8184 9217 c-3 -8 -4 -47 -2 -88 2 -61 6 -74 21 -77 14 -3 17 5 18
50 l0 53 27 -52 c17 -34 32 -53 44 -53 16 0 18 10 18 90 0 83 -1 90 -20 90
-17 0 -20 -7 -20 -47 l-1 -48 -25 48 c-24 46 -49 60 -60 34z"/>
<path d="M8610 9218 c2 -38 38 -162 50 -166 16 -6 30 16 30 50 0 45 17 40 24
-7 6 -34 12 -45 25 -45 14 0 21 16 34 75 21 93 21 105 2 105 -10 0 -17 -14
-21 -40 -4 -22 -10 -40 -14 -40 -4 0 -10 18 -14 40 -5 30 -11 40 -25 40 -15 0
-20 -10 -26 -47 l-8 -48 -11 45 c-8 28 -18 46 -29 48 -9 2 -17 -2 -17 -10z"/>
<path d="M8830 9140 l0 -90 55 0 c41 0 55 4 55 14 0 10 -13 16 -37 18 -30 2
-38 7 -38 23 0 13 8 21 23 23 31 5 28 32 -4 32 -19 0 -25 5 -22 18 2 12 14 18
41 20 24 2 37 8 37 18 0 10 -14 14 -55 14 l-55 0 0 -90z"/>
<path d="M8970 9140 l0 -90 55 0 c42 0 55 3 55 15 0 10 -11 15 -35 15 -31 0
-35 3 -35 25 0 20 5 25 26 25 31 0 28 23 -4 28 -14 2 -22 11 -22 23 0 15 7 19
35 19 24 0 35 5 35 15 0 12 -13 15 -55 15 l-55 0 0 -90z"/>
<path d="M9120 9139 c0 -81 2 -90 18 -87 11 2 19 15 22 38 l5 35 22 -37 c12
-21 29 -38 38 -38 19 0 19 1 -7 55 l-23 46 23 40 c22 37 22 39 3 39 -11 0 -28
-14 -40 -32 l-21 -33 0 33 c0 25 -4 32 -20 32 -19 0 -20 -7 -20 -91z"/>
<path d="M9356 9214 c-11 -10 -16 -34 -16 -73 0 -65 18 -91 63 -91 35 0 57 34
57 90 0 25 -7 56 -16 68 -18 26 -65 30 -88 6z m59 -74 c0 -44 -3 -55 -17 -58
-16 -3 -18 5 -18 58 0 53 2 61 18 58 14 -3 17 -14 17 -58z"/>
<path d="M9500 9140 c0 -72 3 -90 14 -90 10 0 16 13 18 38 2 30 7 38 26 40 28
4 24 26 -6 30 -14 2 -22 11 -22 23 0 15 7 19 35 19 24 0 35 5 35 15 0 11 -12
15 -50 15 l-50 0 0 -90z"/>
<path d="M9736 9213 c-3 -10 -14 -51 -25 -90 -19 -70 -19 -73 -1 -73 10 0 20
7 24 15 3 8 17 15 31 15 16 0 25 -6 25 -15 0 -8 9 -15 20 -15 24 0 24 -3 -3
95 -18 65 -27 81 -44 83 -14 2 -23 -3 -27 -15z m38 -75 c5 -23 3 -28 -13 -28
-14 0 -19 5 -16 15 14 42 16 48 19 44 2 -2 6 -16 10 -31z"/>
<path d="M9872 9218 c-7 -7 -12 -40 -12 -80 0 -64 2 -69 25 -80 35 -16 79 0
83 30 4 26 -15 29 -33 5 -23 -31 -45 -9 -45 47 0 56 22 78 45 47 16 -22 35
-22 35 1 0 27 -20 42 -55 42 -17 0 -36 -5 -43 -12z"/>
<path d="M10000 9215 c0 -8 9 -15 20 -15 17 0 19 -8 22 -72 2 -60 6 -73 21
-76 15 -3 17 6 17 72 0 69 2 76 20 76 11 0 20 7 20 15 0 12 -13 15 -60 15 -47
0 -60 -3 -60 -15z"/>
<path d="M10160 9140 c0 -73 3 -90 15 -90 12 0 15 17 15 90 0 73 -3 90 -15 90
-12 0 -15 -17 -15 -90z"/>
<path d="M10246 9208 c-9 -12 -16 -43 -16 -68 0 -57 22 -90 60 -90 45 0 60 23
60 90 0 67 -15 90 -60 90 -18 0 -34 -8 -44 -22z m68 -24 c9 -23 7 -77 -3 -93
-19 -29 -41 -4 -41 47 0 27 3 52 7 55 11 12 31 7 37 -9z"/>
<path d="M10390 9140 c0 -83 1 -90 20 -90 17 0 20 7 20 48 l1 47 25 -47 c39
-76 54 -65 54 42 0 73 -3 90 -15 90 -11 0 -15 -13 -16 -52 l0 -53 -27 53 c-17
33 -32 52 -44 52 -16 0 -18 -10 -18 -90z"/>
<path d="M5541 8653 c1 -27 4 -38 6 -25 6 28 21 28 32 0 6 -16 8 -10 8 25 1
26 -2 47 -7 47 -4 0 -6 -9 -3 -20 4 -14 0 -20 -12 -20 -12 0 -16 6 -12 20 3
11 1 20 -4 20 -5 0 -8 -21 -8 -47z"/>
<path d="M6009 8683 c6 -12 11 -34 12 -50 l1 -28 8 30 c4 17 11 39 15 50 6 19
6 19 -5 2 -11 -18 -12 -18 -26 0 -14 17 -14 16 -5 -4z"/>
<path d="M6271 8658 c-1 -46 0 -48 27 -47 23 2 24 2 5 6 -24 5 -32 33 -10 33
8 0 9 2 1 8 -7 4 -14 16 -17 27 -2 11 -5 -1 -6 -27z"/>
<path d="M6702 8658 c-2 -46 -1 -48 26 -47 22 1 23 2 5 6 -18 3 -23 13 -26 46
l-4 42 -1 -47z"/>
<path d="M7031 8655 l1 -50 8 40 c5 22 4 44 -1 50 -5 5 -9 -11 -8 -40z"/>
<path d="M7077 8658 c8 -59 13 -61 13 -5 0 26 -4 47 -9 47 -5 0 -7 -19 -4 -42z"/>
<path d="M7414 8676 c-9 -38 4 -68 29 -64 28 4 38 48 10 47 -10 0 -13 -3 -5
-6 19 -7 15 -35 -5 -31 -22 4 -29 44 -13 64 9 10 9 14 1 14 -6 0 -13 -11 -17
-24z"/>
<path d="M7456 8687 c3 -10 9 -15 12 -12 3 3 0 11 -7 18 -10 9 -11 8 -5 -6z"/>
<path d="M7623 8655 c0 -27 2 -38 4 -22 2 15 2 37 0 50 -2 12 -4 0 -4 -28z"/>
<path d="M7843 8655 c0 -27 2 -38 4 -22 2 15 2 37 0 50 -2 12 -4 0 -4 -28z"/>
<path d="M8020 8690 c0 -5 -6 -10 -14 -10 -18 0 -29 -31 -20 -54 3 -9 15 -16
25 -16 16 0 19 8 19 45 0 25 -2 45 -5 45 -3 0 -5 -4 -5 -10z m0 -45 c0 -26
-14 -33 -25 -15 -9 14 1 40 15 40 5 0 10 -11 10 -25z"/>
<path d="M8184 8689 c-3 -6 6 -22 22 -34 32 -25 25 -47 -8 -26 -17 10 -19 10
-16 -1 6 -17 37 -23 51 -9 8 8 3 19 -16 39 -15 16 -24 31 -20 35 3 4 4 7 0 7
-3 0 -9 -5 -13 -11z"/>
<path d="M8530 8691 c0 -5 -9 -11 -20 -14 -15 -4 -20 -14 -20 -36 0 -26 4 -31
25 -31 23 0 25 4 25 45 0 25 -2 45 -5 45 -3 0 -5 -4 -5 -9z m-8 -33 c6 -17 -1
-38 -13 -38 -5 0 -9 11 -9 25 0 26 14 34 22 13z"/>
<path d="M8601 8653 c1 -53 6 -49 11 10 2 20 0 37 -4 37 -4 0 -8 -21 -7 -47z"/>
<path d="M8652 8655 c1 -35 2 -40 5 -17 5 38 24 38 34 1 4 -14 7 -17 8 -7 2
25 -10 48 -24 48 -7 0 -16 6 -18 13 -3 6 -5 -10 -5 -38z"/>
<path d="M8806 8670 c10 -57 21 -68 29 -29 l8 34 12 -35 12 -35 12 40 c15 54
13 68 -4 25 -9 -24 -14 -29 -14 -15 -1 11 -6 27 -11 35 -7 12 -11 7 -16 -20
l-7 -34 -14 34 -13 35 6 -35z"/>
<path d="M9026 8679 c-11 -10 -16 -22 -13 -26 4 -3 7 -1 7 5 0 7 5 12 10 12 6
0 10 -11 10 -25 0 -26 -15 -34 -23 -12 -3 7 -6 5 -6 -5 -1 -12 6 -18 19 -18
17 0 20 7 20 45 0 25 -1 45 -2 44 -2 0 -12 -9 -22 -20z"/>
<path d="M9251 8668 c-1 -42 -15 -56 -37 -37 -12 10 -13 9 -8 -5 3 -9 15 -16
25 -16 21 0 33 34 26 71 -3 17 -5 12 -6 -13z"/>
<path d="M9481 8653 c1 -53 6 -49 11 10 2 20 0 37 -4 37 -4 0 -8 -21 -7 -47z"/>
<path d="M9531 8655 c1 -40 3 -44 8 -21 8 39 24 39 32 1 l7 -30 1 33 c1 23 -4
35 -16 39 -10 4 -21 11 -25 17 -4 6 -7 -11 -7 -39z"/>
<path d="M9691 8654 c1 -40 3 -44 8 -19 3 17 12 30 21 30 9 0 18 -13 21 -30 5
-25 7 -21 8 19 1 42 -1 47 -14 36 -12 -10 -18 -10 -30 0 -13 11 -15 6 -14 -36z"/>
<path d="M10362 8658 c2 -35 7 -43 22 -43 11 0 20 6 22 13 1 7 0 8 -3 2 -2 -5
-12 -10 -20 -10 -12 0 -14 9 -11 40 2 22 0 40 -5 40 -4 0 -7 -19 -5 -42z"/>
<path d="M10395 8690 c3 -5 8 -10 11 -10 2 0 4 5 4 10 0 6 -5 10 -11 10 -5 0
-7 -4 -4 -10z"/>
<path d="M5829 8685 c-7 -6 2 -75 10 -75 3 0 6 16 5 35 -1 35 -6 49 -15 40z"/>
<path d="M6522 8653 c2 -20 9 -38 16 -39 7 -1 8 0 2 3 -14 7 -13 50 2 55 7 3
5 7 -6 11 -15 6 -17 2 -14 -30z"/>
<path d="M7552 8653 c2 -20 9 -38 16 -39 7 -1 8 0 2 3 -14 7 -13 50 2 55 7 3
5 7 -6 11 -15 6 -17 2 -14 -30z"/>
<path d="M10182 8653 c2 -20 9 -38 16 -39 7 -1 8 0 2 3 -14 7 -13 50 2 55 7 3
5 7 -6 11 -15 6 -17 2 -14 -30z"/>
<path d="M10562 8653 c2 -20 9 -38 16 -39 7 -1 8 0 2 3 -14 7 -13 50 2 55 7 3
5 7 -6 11 -15 6 -17 2 -14 -30z"/>
<path d="M10729 8685 c-7 -6 2 -75 10 -75 3 0 6 16 5 35 -1 35 -6 49 -15 40z"/>
<path d="M5614 8666 c-9 -23 0 -51 16 -52 9 0 10 1 3 3 -21 7 -15 23 8 23 15
0 19 4 15 16 -3 9 -6 18 -6 20 0 11 -31 2 -36 -10z m31 -6 c3 -5 -1 -10 -9
-10 -9 0 -16 5 -16 10 0 6 4 10 9 10 6 0 13 -4 16 -10z"/>
<path d="M5677 8673 c-16 -15 -7 -55 13 -60 16 -4 18 -8 9 -19 -10 -12 -9 -13
5 -8 11 4 16 19 16 50 0 36 -3 44 -18 44 -10 0 -22 -3 -25 -7z m33 -28 c0 -16
-6 -25 -15 -25 -15 0 -21 31 -8 43 13 14 23 6 23 -18z"/>
<path d="M5743 8645 c0 -22 2 -30 4 -17 2 12 2 30 0 40 -3 9 -5 -1 -4 -23z"/>
<path d="M5770 8660 c0 -11 7 -20 15 -20 8 0 15 -5 15 -11 0 -6 -7 -9 -15 -5
-8 3 -15 1 -15 -4 0 -6 9 -10 20 -10 23 0 27 28 5 36 -8 4 -15 11 -15 16 0 6
7 7 16 4 8 -3 12 -2 9 4 -11 18 -35 11 -35 -10z"/>
<path d="M5877 8673 c-4 -3 -7 -19 -7 -35 0 -21 5 -28 20 -28 11 0 20 4 20 10
0 5 -7 7 -15 4 -8 -4 -15 -1 -15 4 0 6 10 13 23 15 l22 4 -22 2 c-13 0 -23 6
-23 12 0 6 7 8 16 5 8 -3 12 -2 9 4 -7 12 -19 13 -28 3z"/>
<path d="M5931 8641 c1 -28 3 -30 6 -11 3 14 9 30 14 36 5 7 3 11 -6 11 -11 0
-15 -11 -14 -36z"/>
<path d="M6064 8666 c-10 -26 0 -51 21 -51 16 0 20 7 20 30 0 33 -30 49 -41
21z m36 -21 c0 -16 -6 -25 -15 -25 -15 0 -21 31 -8 43 13 14 23 6 23 -18z"/>
<path d="M6132 8648 c-2 -32 1 -38 18 -38 16 0 20 6 19 33 -2 30 -2 30 -6 5
-6 -38 -21 -35 -26 5 -4 31 -4 31 -5 -5z"/>
<path d="M6191 8641 c1 -28 3 -30 6 -11 3 14 9 30 14 36 5 7 3 11 -6 11 -11 0
-15 -11 -14 -36z"/>
<path d="M6337 8655 c9 -45 19 -50 32 -14 6 18 9 34 7 37 -3 2 -8 -8 -12 -23
l-7 -28 -13 29 -13 29 6 -30z"/>
<path d="M6397 8674 c-4 -4 -7 -18 -7 -31 0 -26 26 -41 42 -25 8 8 5 9 -11 5
-12 -3 -21 -1 -21 6 0 6 9 11 21 11 14 0 19 5 17 17 -3 19 -29 29 -41 17z m28
-14 c3 -5 -1 -10 -9 -10 -9 0 -16 5 -16 10 0 6 4 10 9 10 6 0 13 -4 16 -10z"/>
<path d="M6457 8674 c-4 -4 -6 -21 -6 -38 l1 -31 7 29 c9 42 29 44 34 4 l5
-33 -2 35 c-1 33 -22 51 -39 34z"/>
<path d="M6767 8674 c-4 -4 -7 -18 -7 -31 0 -26 26 -41 42 -25 8 8 5 9 -11 5
-12 -3 -21 -1 -21 6 0 6 9 11 21 11 14 0 19 5 17 17 -3 19 -29 29 -41 17z m33
-14 c0 -5 -7 -10 -16 -10 -8 0 -12 5 -9 10 3 6 10 10 16 10 5 0 9 -4 9 -10z"/>
<path d="M6830 8671 c0 -6 7 -8 15 -5 8 4 15 2 15 -4 0 -5 -9 -12 -21 -15 -27
-7 -20 -31 10 -35 20 -3 22 0 19 30 -2 22 -9 34 -20 36 -10 2 -18 -1 -18 -7z
m30 -41 c0 -5 -7 -10 -15 -10 -8 0 -15 5 -15 10 0 6 7 10 15 10 8 0 15 -4 15
-10z"/>
<path d="M6891 8643 c2 -35 2 -35 6 -8 3 16 10 33 16 37 8 5 6 8 -5 8 -14 0
-18 -8 -17 -37z"/>
<path d="M6931 8643 c1 -35 2 -36 8 -9 9 42 29 44 34 4 l5 -33 -2 35 c-1 28
-5 36 -23 38 -21 3 -23 -1 -22 -35z"/>
<path d="M7055 8670 c-3 -5 -1 -10 4 -10 6 0 11 5 11 10 0 6 -2 10 -4 10 -3 0
-8 -4 -11 -10z"/>
<path d="M7117 8673 c-4 -3 -7 -19 -7 -35 0 -21 5 -28 19 -28 26 0 34 15 27
46 -6 23 -25 32 -39 17z m28 -28 c0 -10 -6 -20 -12 -22 -8 -3 -13 5 -13 22 0
17 5 25 13 23 6 -3 12 -13 12 -23z"/>
<path d="M7171 8640 c1 -27 3 -29 6 -10 2 14 11 30 20 37 13 10 13 12 -6 10
-17 -1 -21 -7 -20 -37z"/>
<path d="M7227 8674 c-4 -4 -7 -20 -7 -36 0 -21 5 -28 20 -28 11 0 20 4 20 10
0 5 -7 7 -15 4 -8 -4 -15 -1 -15 5 0 6 7 11 16 11 9 0 14 7 12 17 -3 18 -20
27 -31 17z m23 -14 c0 -5 -4 -10 -10 -10 -5 0 -10 5 -10 10 0 6 5 10 10 10 6
0 10 -4 10 -10z"/>
<path d="M7497 8674 c-4 -4 -7 -20 -7 -36 0 -21 5 -28 20 -28 11 0 20 4 20 10
0 5 -7 7 -15 4 -8 -4 -15 -1 -15 5 0 6 7 11 16 11 9 0 14 7 12 17 -3 18 -20
27 -31 17z m23 -14 c0 -5 -4 -10 -10 -10 -5 0 -10 5 -10 10 0 6 5 10 10 10 6
0 10 -4 10 -10z"/>
<path d="M7651 8643 c1 -35 2 -36 8 -9 9 42 29 44 34 4 l5 -33 -2 35 c-1 28
-5 36 -23 38 -21 3 -23 -1 -22 -35z"/>
<path d="M7715 8659 c15 -50 23 -56 34 -26 16 40 12 58 -4 22 -12 -26 -14 -27
-15 -8 0 12 -5 25 -11 29 -8 4 -9 -1 -4 -17z"/>
<path d="M7774 8666 c-10 -26 0 -51 21 -51 16 0 20 7 20 30 0 33 -30 49 -41
21z m36 -21 c0 -16 -6 -25 -15 -25 -15 0 -21 31 -8 43 13 14 23 6 23 -18z"/>
<path d="M7867 8655 c9 -45 19 -50 32 -14 6 18 9 34 7 37 -3 2 -8 -8 -12 -23
l-7 -28 -13 29 -13 29 6 -30z"/>
<path d="M7927 8674 c-4 -4 -7 -18 -7 -31 0 -26 26 -41 42 -25 8 8 5 9 -11 5
-12 -3 -21 -1 -21 6 0 6 9 11 21 11 14 0 19 5 17 17 -3 19 -29 29 -41 17z m28
-14 c3 -5 -1 -10 -9 -10 -9 0 -16 5 -16 10 0 6 4 10 9 10 6 0 13 -4 16 -10z"/>
<path d="M8257 8674 c-4 -4 -7 -26 -7 -48 0 -23 4 -36 8 -30 4 6 15 13 25 17
13 5 17 15 15 34 -3 27 -26 42 -41 27z m33 -29 c0 -26 -14 -33 -25 -15 -9 14
1 40 15 40 5 0 10 -11 10 -25z"/>
<path d="M8321 8643 c1 -28 3 -31 6 -13 3 14 10 31 15 38 8 9 6 12 -6 12 -12
0 -16 -9 -15 -37z"/>
<path d="M8367 8674 c-4 -4 -7 -18 -7 -31 0 -26 26 -41 42 -25 8 8 5 9 -11 5
-12 -3 -21 -1 -21 6 0 6 9 11 21 11 14 0 19 5 17 17 -3 19 -29 29 -41 17z m33
-14 c0 -5 -7 -10 -16 -10 -8 0 -12 5 -9 10 3 6 10 10 16 10 5 0 9 -4 9 -10z"/>
<path d="M8430 8671 c0 -6 7 -8 15 -5 8 4 15 2 15 -4 0 -5 -9 -12 -21 -15 -27
-7 -20 -31 10 -35 20 -3 22 0 19 30 -2 22 -9 34 -20 36 -10 2 -18 -1 -18 -7z
m30 -41 c0 -5 -7 -10 -16 -10 -8 0 -12 5 -9 10 3 6 10 10 16 10 5 0 9 -4 9
-10z"/>
<path d="M8717 8674 c-4 -4 -7 -18 -7 -31 0 -26 26 -41 42 -25 8 8 5 9 -11 5
-12 -3 -21 -1 -21 6 0 6 9 11 21 11 14 0 19 5 17 17 -3 19 -29 29 -41 17z m33
-14 c0 -5 -7 -10 -16 -10 -8 0 -12 5 -9 10 3 6 10 10 16 10 5 0 9 -4 9 -10z"/>
<path d="M8907 8673 c-13 -12 -7 -54 9 -60 23 -8 38 12 30 41 -6 25 -25 34
-39 19z m28 -28 c0 -10 -6 -20 -12 -22 -8 -3 -13 5 -13 22 0 17 5 25 13 23 6
-3 12 -13 12 -23z"/>
<path d="M8973 8673 c-7 -2 -12 -19 -12 -36 2 -27 2 -28 6 -7 2 14 12 31 21
38 16 12 8 15 -15 5z"/>
<path d="M9285 8671 c-3 -7 0 -8 9 -5 12 5 16 -1 16 -21 0 -20 -4 -26 -15 -21
-8 3 -15 1 -15 -4 0 -6 9 -10 21 -10 17 0 20 5 17 32 -3 32 -21 48 -33 29z"/>
<path d="M9343 8645 c0 -22 2 -30 4 -17 2 12 2 30 0 40 -3 9 -5 -1 -4 -23z"/>
<path d="M9371 8643 c1 -35 2 -36 8 -9 9 42 29 44 34 4 l5 -33 -2 35 c-1 28
-5 36 -23 38 -21 3 -23 -1 -22 -35z"/>
<path d="M9600 8671 c0 -6 7 -8 15 -5 8 4 15 1 15 -4 0 -6 -10 -13 -22 -15
-19 -4 -18 -5 5 -6 22 -1 28 3 25 16 -3 19 -38 31 -38 14z"/>
<path d="M9774 8666 c-10 -26 0 -51 21 -51 16 0 20 7 20 30 0 33 -30 49 -41
21z m34 -24 c2 -15 -2 -22 -12 -22 -11 0 -16 9 -16 26 0 31 23 28 28 -4z"/>
<path d="M9830 8673 c0 -18 20 -66 26 -61 10 11 23 68 13 63 -5 -4 -9 -16 -10
-28 -1 -19 -2 -18 -14 8 -8 17 -14 25 -15 18z"/>
<path d="M9894 8666 c-9 -23 0 -51 16 -52 9 0 10 1 3 3 -21 7 -15 23 8 23 15
0 19 4 15 16 -3 9 -6 18 -6 20 0 11 -31 2 -36 -10z m31 -6 c3 -5 -1 -10 -9
-10 -9 0 -16 5 -16 10 0 6 4 10 9 10 6 0 13 -4 16 -10z"/>
<path d="M9951 8642 c1 -35 2 -36 8 -8 9 42 29 44 34 4 l4 -33 1 33 c2 41 24
39 33 -4 6 -27 7 -27 8 -4 1 37 -10 47 -51 48 -38 1 -38 1 -37 -36z"/>
<path d="M10057 8674 c-4 -4 -7 -18 -7 -31 0 -26 26 -41 42 -25 8 8 5 9 -11 5
-12 -3 -21 -1 -21 6 0 6 9 11 21 11 14 0 19 5 17 17 -3 19 -29 29 -41 17z m33
-14 c0 -5 -7 -10 -15 -10 -8 0 -15 5 -15 10 0 6 7 10 15 10 8 0 15 -4 15 -10z"/>
<path d="M10122 8643 c1 -37 1 -37 5 -5 2 17 8 32 13 32 5 0 11 -15 13 -32 l5
-33 -2 35 c-1 25 -6 36 -18 38 -15 3 -18 -3 -16 -35z"/>
<path d="M10437 8674 c-4 -4 -7 -20 -7 -36 0 -25 4 -29 23 -26 17 2 22 10 22
33 0 29 -22 45 -38 29z m28 -29 c0 -10 -6 -20 -12 -22 -8 -3 -13 5 -13 22 0
17 5 25 13 23 6 -3 12 -13 12 -23z"/>
<path d="M10500 8671 c0 -6 6 -8 14 -5 11 4 16 -4 19 -28 l5 -33 -2 35 c-1 25
-6 36 -18 38 -10 2 -18 -1 -18 -7z"/>
<path d="M10605 8671 c-3 -6 0 -8 8 -5 8 3 18 1 21 -4 3 -5 -3 -12 -14 -15
-30 -8 -25 -37 6 -37 23 0 25 3 22 32 -3 33 -29 50 -43 29z m35 -41 c0 -5 -7
-10 -15 -10 -8 0 -15 5 -15 10 0 6 7 10 15 10 8 0 15 -4 15 -10z"/>
<path d="M10664 8656 c-3 -14 -3 -30 1 -35 8 -13 45 -15 45 -2 0 5 -8 8 -17 7
-12 -1 -18 6 -18 19 0 13 6 20 17 19 10 -1 15 2 12 7 -10 18 -34 9 -40 -15z"/>
<path d="M9600 8618 c0 -4 9 -8 20 -8 11 0 20 4 20 8 0 4 -9 8 -20 8 -11 0
-20 -4 -20 -8z"/>
<path d="M2587 8193 c-2 -5 -2 -38 1 -75 l4 -68 54 0 c53 0 53 0 44 -26 -13
-33 -13 -47 0 -39 6 4 18 1 26 -6 10 -9 18 -9 25 -2 8 8 6 11 -7 10 -28 -3
-23 27 4 31 13 2 30 -2 39 -10 13 -10 17 -10 20 0 7 18 63 16 63 -3 0 -8 -8
-15 -17 -16 -15 0 -15 -2 2 -8 15 -6 22 -3 30 13 17 33 67 29 79 -6 20 -57
-28 -112 -69 -78 -9 7 -15 8 -20 1 -3 -6 -35 -9 -75 -8 -58 3 -72 7 -90 27
-18 21 -20 21 -20 4 0 -30 37 -82 72 -104 99 -60 230 27 215 144 -3 23 -8 49
-12 59 -7 17 1 18 166 12 96 -3 271 -10 389 -14 173 -6 927 -5 1278 1 88 1
111 -16 113 -84 l2 -43 6 35 c5 29 10 35 31 35 22 0 25 -5 28 -37 2 -22 -1
-38 -7 -38 -6 0 -11 14 -11 30 0 17 -4 30 -9 30 -10 0 -18 -52 -13 -90 3 -25
4 -25 60 -19 70 9 134 23 151 33 6 4 19 2 27 -5 12 -10 14 -9 9 5 -17 53 -14
51 -28 31 -8 -9 -22 -16 -33 -14 -25 5 -33 64 -10 72 23 9 46 -2 46 -22 0 -13
4 -11 18 6 12 16 23 21 40 17 18 -5 22 -13 22 -43 0 -20 -3 -41 -7 -46 -5 -6
-4 -7 1 -3 13 10 106 10 107 1 0 -5 2 -17 5 -28 13 -62 35 -313 34 -390 -2
-152 0 -185 9 -185 5 0 9 6 8 13 -2 57 4 77 22 77 19 0 20 -10 21 -247 5 -934
8 -1069 19 -1096 6 -16 11 -61 11 -102 0 -46 4 -77 12 -81 20 -13 486 -43 666
-44 l172 0 0 378 c0 245 4 391 11 417 16 58 46 95 96 117 35 15 44 24 41 41
-5 39 -32 28 -81 -33 -60 -73 -96 -80 -126 -23 -14 27 -4 77 39 187 17 43 29
81 26 83 -4 4 -20 -12 -124 -126 -18 -20 -66 -72 -107 -116 l-75 -80 -27 17
c-40 24 -41 74 -4 196 17 55 31 104 31 111 0 25 -26 6 -114 -84 -99 -102 -122
-113 -167 -76 l-24 19 18 103 c9 56 14 106 10 110 -5 4 -35 -17 -68 -47 -32
-30 -65 -54 -72 -54 -17 0 -53 59 -46 76 3 7 24 25 49 39 58 34 135 101 157
137 19 32 46 32 81 -3 18 -17 19 -23 8 -96 -7 -43 -12 -90 -12 -106 l0 -27 53
37 c28 20 81 63 117 95 36 32 73 58 82 58 24 0 52 -45 45 -73 -3 -12 -11 -44
-18 -72 -6 -27 -15 -54 -19 -60 -14 -17 -24 -88 -12 -84 6 2 71 63 146 135
123 120 136 135 142 175 9 58 58 109 104 109 64 0 120 -45 120 -95 0 -24 -48
-19 -55 6 -9 26 -48 41 -79 29 -32 -12 -36 -37 -14 -81 18 -35 18 -39 2 -78
-13 -33 -14 -44 -4 -56 19 -23 66 -19 84 7 26 37 20 56 -16 60 -28 2 -33 7
-33 28 0 24 3 25 55 25 l55 0 0 -67 c0 -60 -3 -71 -26 -94 -28 -28 -91 -38
-135 -21 -19 6 -24 2 -38 -33 -9 -22 -16 -43 -16 -45 0 -13 31 -2 66 25 21 16
44 30 50 30 5 0 23 -13 38 -29 26 -27 28 -33 21 -80 l-7 -51 30 0 c17 0 33 -4
37 -9 3 -5 31 -17 62 -26 68 -20 117 -65 132 -122 7 -25 9 -95 6 -179 l-4
-139 -33 -8 c-18 -4 -61 -5 -95 -1 l-62 6 -3 126 -3 127 -28 9 c-19 7 -34 7
-45 0 -15 -10 -17 -44 -20 -359 -2 -248 1 -352 9 -361 14 -17 61 -18 77 -2 8
8 12 56 12 149 l0 137 63 7 c34 4 78 3 97 -2 l35 -9 5 -94 5 -95 23 29 c12 16
22 38 23 50 0 11 2 177 4 368 2 191 6 352 9 357 6 9 148 13 178 5 14 -4 16
-24 16 -167 0 -89 0 -219 1 -289 l1 -127 115 2 115 2 0 287 c0 192 4 289 11
293 6 4 51 4 100 0 l89 -7 0 -443 c0 -396 2 -445 16 -460 9 -9 24 -15 33 -13
14 3 16 47 18 453 2 248 5 456 8 463 3 8 34 12 105 12 95 0 101 -1 110 -22 10
-24 36 -153 51 -248 14 -94 42 -211 50 -203 3 5 26 107 49 228 24 121 49 227
55 235 7 8 10 22 6 31 -8 22 -68 89 -80 89 -5 0 -15 -19 -23 -42 -9 -30 -19
-44 -34 -46 -38 -5 -45 18 -42 144 l3 119 28 10 c26 9 32 6 60 -26 18 -19 63
-69 101 -112 38 -42 72 -77 75 -77 3 0 5 60 3 132 -2 77 1 145 7 161 13 33 44
36 65 5 18 -26 18 -26 21 67 2 39 3 76 4 83 1 8 24 12 79 12 65 0 82 -3 100
-20 29 -27 38 -66 24 -104 -11 -27 -9 -33 13 -56 14 -14 25 -29 25 -33 0 -14
53 -84 96 -127 25 -25 63 -65 85 -90 l41 -45 -7 40 c-36 228 -36 218 22 240
39 15 51 16 80 6 19 -7 37 -10 41 -7 3 4 20 48 37 98 34 98 48 115 86 105 20
-5 31 -25 64 -119 l40 -112 6 90 c4 49 11 105 17 126 5 20 8 65 5 100 -3 34 0
90 7 123 23 117 22 135 -5 145 -14 5 -25 14 -25 20 0 8 -26 9 -84 4 -58 -4
-85 -3 -90 5 -4 6 -33 11 -66 11 -32 0 -94 7 -137 15 -93 18 -354 47 -361 40
-3 -3 -10 -1 -16 4 -6 4 -40 11 -76 15 -83 8 -192 27 -187 32 2 3 23 6 46 9
24 2 48 9 55 14 7 6 16 8 19 4 4 -3 7 1 7 11 0 13 -5 16 -19 11 -11 -3 -22 -1
-26 5 -3 5 -11 10 -16 10 -6 0 -7 -4 -4 -10 3 -5 0 -10 -8 -10 -8 0 -17 6 -20
14 -3 7 -27 16 -54 20 -375 52 -405 62 -331 111 l43 29 275 0 275 1 47 -28
c53 -32 64 -30 73 13 4 16 18 39 31 49 23 18 43 20 249 21 221 0 224 0 249
-23 18 -17 28 -42 37 -90 7 -37 17 -67 23 -68 15 -1 135 -2 216 0 36 0 83 0
105 -1 22 -1 146 2 275 7 195 6 250 5 325 -9 50 -8 158 -18 240 -22 83 -4 164
-7 180 -9 142 -9 228 -19 270 -31 61 -17 324 -28 358 -15 22 9 25 18 36 103
13 98 28 134 64 147 31 12 295 13 909 5 525 -7 527 -7 531 -28 3 -16 5 -15 6
7 2 38 34 67 76 67 32 0 75 -27 75 -47 0 -5 95 -9 211 -10 116 -1 214 -4 216
-7 8 -8 60 22 66 36 3 10 12 8 33 -7 26 -18 43 -20 142 -17 l112 3 0 79 0 80
-5404 0 c-2973 0 -5407 -3 -5409 -7z m2794 -217 c17 10 39 -17 39 -47 0 -16
-4 -29 -10 -29 -5 0 -10 14 -10 31 0 39 -22 34 -31 -7 -5 -19 -7 -9 -6 31 0
33 2 50 4 37 2 -12 9 -20 14 -16z m233 -13 c-3 -26 -8 -52 -12 -58 -10 -16
-21 68 -11 88 18 32 29 18 23 -30z m273 -35 c-2 -18 -4 -6 -4 27 0 33 2 48 4
33 2 -15 2 -42 0 -60z m-809 65 c-14 -3 -18 -15 -18 -49 0 -24 -4 -44 -10 -44
-5 0 -10 20 -10 44 0 34 -4 46 -17 49 -10 3 2 5 27 5 25 0 37 -2 28 -5z m777
-4 c4 -6 4 -13 0 -17 -3 -3 -10 0 -15 8 -7 11 -11 11 -24 1 -20 -17 -20 -45
-1 -61 13 -11 18 -10 31 6 14 19 15 19 12 -1 -4 -23 -33 -32 -53 -15 -15 13
-21 71 -8 83 10 11 51 8 58 -4z m67 -36 c-5 -65 -12 -68 -12 -5 0 29 4 52 8
52 5 0 7 -21 4 -47z m423 1 c9 -25 14 -48 11 -51 -3 -3 -8 2 -12 11 -8 21 -33
21 -50 -1 -8 -11 -13 -13 -14 -6 0 19 31 93 40 93 4 0 15 -21 25 -46z m152
-31 c-2 -16 -4 -3 -4 27 0 30 2 43 4 28 2 -16 2 -40 0 -55z m-1156 39 c-15 -5
-14 -35 1 -50 9 -9 8 -12 -4 -12 -11 0 -17 12 -21 38 -5 46 0 57 20 40 10 -8
11 -14 4 -16z m820 0 c-15 -5 -14 -35 1 -50 9 -9 8 -12 -5 -12 -12 0 -17 8
-17 30 0 17 -5 30 -11 30 -8 0 -8 5 1 15 10 12 16 13 27 3 10 -8 11 -14 4 -16z
m304 -20 c0 -48 -10 -55 -20 -14 -4 22 -11 28 -32 27 -29 0 -37 -12 -24 -34 8
-13 12 -13 27 0 15 12 17 12 12 -1 -2 -8 -16 -15 -29 -15 -19 0 -25 6 -27 29
-4 31 13 49 40 40 9 -2 19 0 23 6 14 22 30 2 30 -38z m-1181 32 c24 -9 20 -44
-5 -44 -11 0 -18 -4 -14 -10 3 -5 12 -7 20 -3 8 3 15 0 15 -7 0 -6 -11 -10
-27 -8 -31 3 -43 38 -23 64 14 16 13 16 34 8z m190 0 c24 -9 20 -44 -5 -44
-11 0 -18 -4 -14 -10 3 -5 13 -6 23 -3 14 5 15 4 4 -8 -27 -29 -67 26 -42 56
14 17 13 17 34 9z m66 -6 c0 -4 -4 -8 -10 -8 -5 0 -10 -14 -10 -31 0 -17 -4
-28 -10 -24 -10 6 -14 58 -5 67 8 8 35 5 35 -4z m144 -4 c19 -19 20 -25 3 -48
-18 -24 -51 -17 -55 12 -3 23 13 52 29 52 4 0 15 -7 23 -16z m65 7 c3 -1 -2
-7 -11 -13 -9 -7 -19 -24 -21 -38 -3 -16 -5 -10 -6 17 -1 34 2 41 17 38 9 -2
19 -4 21 -4z m287 -36 c1 -32 1 -34 -3 -7 -6 42 -33 44 -33 2 0 -16 -4 -30
-10 -30 -5 0 -10 14 -10 30 0 17 -4 30 -10 30 -5 0 -10 -13 -10 -30 0 -16 -4
-30 -10 -30 -5 0 -10 17 -10 38 l0 39 48 -1 47 -1 1 -40z m72 33 c7 -7 12 -25
12 -41 0 -25 -3 -28 -27 -25 -36 4 -43 34 -11 48 23 10 23 11 1 6 -24 -4 -32
9 -10 17 19 8 22 8 35 -5z m120 0 c20 -20 14 -38 -14 -38 -15 0 -23 -4 -19
-11 4 -6 13 -8 21 -5 8 3 14 1 14 -4 0 -18 -39 -10 -50 10 -20 38 19 77 48 48z
m340 3 c8 -5 12 -21 10 -37 -4 -35 -35 -45 -55 -18 -17 23 -16 29 3 48 18 18
24 19 42 7z m82 -11 c6 -12 6 -27 1 -42 -9 -21 -10 -21 -10 10 -1 43 -31 45
-31 2 0 -16 -4 -30 -10 -30 -10 0 -15 62 -5 71 12 12 46 6 55 -11z m1337 -165
c0 -8 -7 -15 -14 -15 -8 0 -12 4 -9 9 4 5 0 12 -6 14 -7 3 -4 6 8 6 12 1 21
-5 21 -14z m-2571 -318 c13 5 15 -3 12 -43 -2 -36 -7 -50 -19 -52 -12 -2 -18
6 -21 34 -5 42 4 113 10 77 2 -15 8 -20 18 -16z m1612 -210 c6 -7 11 -62 11
-132 -1 -66 0 -125 0 -132 1 -8 26 -13 74 -15 66 -3 72 -5 75 -26 3 -23 3 -23
-100 -20 l-103 3 -3 155 c-1 85 0 160 2 167 7 17 30 17 44 0z m721 -1 c15 -8
33 -27 40 -43 20 -42 25 -131 11 -196 -14 -70 -41 -92 -111 -92 -84 0 -119 55
-119 187 0 86 14 116 65 139 49 22 77 24 114 5z"/>
<path d="M6310 7956 c0 -9 5 -16 10 -16 6 0 10 4 10 9 0 6 -4 13 -10 16 -5 3
-10 -1 -10 -9z"/>
<path d="M5458 7953 c7 -3 16 -2 19 1 4 3 -2 6 -13 5 -11 0 -14 -3 -6 -6z"/>
<path d="M5646 7951 c-9 -14 5 -42 18 -38 18 6 20 47 2 47 -8 0 -17 -4 -20 -9z"/>
<path d="M6081 7931 c-8 -6 -9 -11 -3 -15 6 -3 14 -1 17 5 9 14 2 20 -14 10z"/>
<path d="M6198 7953 c7 -3 16 -2 19 1 4 3 -2 6 -13 5 -11 0 -14 -3 -6 -6z"/>
<path d="M6534 7945 c-9 -23 14 -45 26 -25 5 8 8 19 7 24 -6 17 -27 18 -33 1z"/>
<path d="M7660 7217 c-20 -10 -27 -23 -34 -70 -15 -101 8 -157 64 -157 45 0
60 31 60 121 0 72 -2 79 -26 98 -31 24 -31 25 -64 8z"/>
<path d="M12532 8035 c0 -16 2 -22 5 -12 2 9 2 23 0 30 -3 6 -5 -1 -5 -18z"/>
<path d="M3388 8003 c7 -3 16 -2 19 1 4 3 -2 6 -13 5 -11 0 -14 -3 -6 -6z"/>
<path d="M3458 8003 c7 -3 16 -2 19 1 4 3 -2 6 -13 5 -11 0 -14 -3 -6 -6z"/>
<path d="M4236 8001 c-4 -5 3 -7 14 -4 23 6 26 13 6 13 -8 0 -17 -4 -20 -9z"/>
<path d="M3552 7980 c0 -14 2 -19 5 -12 2 6 2 18 0 25 -3 6 -5 1 -5 -13z"/>
<path d="M2912 7960 c0 -19 2 -27 5 -17 2 9 2 25 0 35 -3 9 -5 1 -5 -18z"/>
<path d="M5105 7951 c-8 -15 3 -31 21 -31 9 0 14 7 12 17 -4 20 -24 28 -33 14z"/>
<path d="M5180 7940 c0 -11 7 -20 15 -20 8 0 15 9 15 20 0 11 -7 20 -15 20 -8
0 -15 -9 -15 -20z"/>
<path d="M2710 7946 c0 -2 9 -6 20 -9 11 -3 18 -1 14 4 -5 9 -34 13 -34 5z"/>
<path d="M2820 7940 c0 -5 5 -10 10 -10 6 0 10 5 10 10 0 6 -4 10 -10 10 -5 0
-10 -4 -10 -10z"/>
<path d="M5188 7893 c7 -3 16 -2 19 1 4 3 -2 6 -13 5 -11 0 -14 -3 -6 -6z"/>
<path d="M3562 7623 l3 -48 90 -18 c50 -9 101 -18 115 -18 14 0 84 -9 155 -20
72 -10 153 -19 180 -19 28 0 77 -7 110 -15 111 -27 191 -14 143 22 -15 11 -92
30 -158 39 -37 5 -43 4 -32 -7 36 -39 -9 -39 -47 0 -16 16 -49 35 -72 41 -24
7 -54 17 -65 22 -12 6 -30 7 -41 4 -10 -3 -92 10 -182 29 -213 46 -203 46
-199 -12z"/>
<path d="M9370 7644 c-47 -6 -93 -15 -103 -19 -37 -16 -50 -69 -52 -213 -2
-117 -5 -144 -23 -182 -16 -34 -22 -64 -22 -126 0 -83 9 -104 42 -104 20 0 23
-17 8 -40 -9 -13 -11 -13 -20 0 -8 13 -10 13 -10 -2 0 -9 -9 -23 -20 -31 -17
-12 -19 -25 -19 -105 l0 -91 37 -3 c29 -2 37 -8 42 -28 8 -32 34 -32 40 0 4
17 13 26 30 28 l25 3 0 134 -1 134 33 6 c18 3 34 7 34 8 1 1 5 58 8 127 6 117
7 125 27 128 19 3 22 -3 27 -65 4 -37 7 -86 7 -109 l0 -40 110 -18 c60 -9 114
-15 119 -11 5 3 12 1 15 -4 3 -4 19 -11 35 -14 23 -5 36 -17 52 -49 20 -40 21
-48 11 -115 -8 -50 -9 -81 -1 -99 31 -84 1 -134 -82 -134 l-48 0 -3 -47 -3
-48 -58 -5 c-58 -5 -58 -5 -39 -25 14 -16 34 -21 87 -23 56 -3 81 -10 134 -38
36 -19 69 -41 74 -49 4 -8 16 -15 26 -15 26 0 34 -48 10 -60 -10 -6 -26 -10
-37 -10 -40 0 -64 -44 -72 -130 -4 -45 -12 -86 -19 -93 -6 -6 -32 -14 -58 -17
-53 -6 -65 -24 -42 -66 10 -19 20 -24 54 -24 30 0 47 -6 63 -23 19 -20 21 -34
21 -140 0 -65 5 -126 11 -137 14 -27 12 -73 -5 -96 -45 -60 19 -191 88 -177
15 3 27 2 28 -3 3 -42 19 -85 42 -115 23 -31 20 -57 -28 -247 -3 -12 -17 -27
-30 -32 -29 -11 -43 -54 -25 -75 7 -9 16 -34 20 -56 6 -34 4 -45 -14 -66 -22
-25 -23 -25 -54 -9 -38 20 -87 20 -140 2 -76 -27 -61 26 18 65 57 28 98 79 77
94 -15 11 -39 76 -36 97 4 34 -1 39 -27 22 -21 -15 -31 -15 -58 -6 -18 7 -45
12 -60 12 -14 0 -38 7 -51 16 -21 13 -32 14 -78 4 -47 -11 -59 -10 -88 4 -21
10 -44 14 -65 10 -17 -3 -40 -1 -51 4 -14 8 -28 6 -51 -5 -27 -13 -32 -21 -32
-49 l0 -34 95 0 96 0 -3 -102 -3 -103 -97 -3 -98 -3 0 -119 0 -119 98 -3 97
-3 0 -100 0 -100 -192 -3 -193 -2 -1 237 c0 218 -5 322 -14 331 -2 2 -14 -3
-27 -12 -18 -12 -32 -13 -67 -5 -24 5 -53 14 -64 20 -15 8 -22 8 -28 -2 -11
-19 -2 -57 52 -212 44 -124 109 -335 109 -351 0 -4 -48 -5 -107 -4 l-106 3
-19 70 c-55 204 -102 355 -111 355 -5 0 -8 -82 -6 -212 l4 -213 -100 -3 -100
-3 4 236 c2 129 0 246 -3 260 -6 23 -9 24 -29 12 -12 -6 -25 -16 -29 -22 -4
-5 -8 -117 -8 -248 l0 -238 -102 3 -103 3 3 52 c4 61 -1 73 -29 66 -18 -5 -20
-12 -17 -67 3 -58 2 -61 -21 -62 -13 -1 -28 -8 -32 -15 -25 -41 -26 -41 -49
-29 -12 7 -19 17 -16 26 4 10 -3 14 -27 14 -37 0 -57 15 -57 43 0 11 -13 23
-34 32 -19 8 -37 19 -41 25 -14 22 -24 8 -27 -37 l-3 -48 -97 -3 -98 -3 -2 28
c-1 15 -2 60 -2 100 -1 39 -4 74 -8 78 -8 9 -72 9 -120 0 -43 -8 -54 -35 -43
-107 4 -24 2 -55 -4 -70 -10 -28 -12 -28 -100 -28 -49 0 -93 4 -96 10 -3 5 -5
101 -3 212 1 112 2 307 3 433 l0 230 -63 -1 c-34 -1 -64 -3 -67 -6 -2 -2 -8
-37 -11 -77 -8 -81 -15 -88 -82 -85 -20 1 -56 3 -79 3 l-43 1 0 58 c0 31 -3
74 -7 95 -6 37 -7 38 -42 35 l-36 -3 -3 -85 -3 -86 103 -89 c172 -151 188
-185 188 -388 0 -97 -3 -119 -24 -163 -19 -42 -32 -55 -71 -74 -98 -47 -285
-33 -347 27 -39 37 -46 70 -50 218 l-3 130 100 0 100 0 3 -107 c3 -104 3 -108
27 -114 13 -3 33 -3 44 1 19 6 21 14 21 103 0 53 -4 102 -8 109 -12 19 -184
153 -196 153 -48 0 -171 -163 -168 -221 2 -29 -36 -119 -61 -147 -23 -26 -77
-132 -77 -151 0 -36 74 -79 150 -88 56 -6 93 11 112 53 6 13 15 24 20 24 12 0
2 -30 -34 -107 -16 -35 -27 -66 -24 -71 3 -5 701 -9 1552 -10 850 -1 1548 -3
1550 -5 7 -6 6 -1226 -1 -1237 -4 -7 -267 -10 -831 -10 -702 0 -825 -2 -830
-14 -9 -22 58 -153 81 -160 11 -3 968 -6 2126 -6 l2106 0 34 23 c39 26 84 102
98 167 5 25 40 117 76 205 89 214 114 286 131 375 8 41 20 77 26 81 22 14 176
32 224 26 33 -3 54 -12 66 -27 15 -18 25 -21 50 -16 54 11 125 -32 222 -135
47 -50 95 -107 106 -127 l19 -37 1 176 0 176 -77 45 c-112 65 -118 68 -158 68
-32 0 -35 2 -25 19 5 11 24 23 42 26 38 9 108 51 108 66 0 19 49 59 73 59 19
0 26 7 31 31 10 50 7 3489 -3 3489 -5 0 -16 -11 -25 -25 -14 -21 -15 -48 -9
-202 7 -208 3 -223 -55 -223 -20 0 -51 -4 -67 -8 -34 -10 -55 -6 -55 11 0 11
-72 77 -83 77 -3 0 -7 -14 -11 -30 -4 -23 -15 -35 -41 -45 -47 -20 -69 -19
-91 6 -20 22 -28 72 -40 257 -4 64 -11 102 -18 102 -6 0 -42 -5 -81 -11 -38
-6 -83 -12 -100 -14 -16 -3 -52 -9 -79 -14 -36 -7 -57 -5 -82 5 -42 17 -44 21
-52 97 l-7 62 -40 5 c-46 6 -67 17 -83 45 -9 16 -11 17 -12 4 0 -22 -15 -27
-77 -24 -29 1 -53 -2 -53 -6 0 -4 -16 -5 -37 -2 -33 6 -36 4 -31 -14 5 -18 -3
-23 -53 -37 -97 -27 -300 -18 -529 22 -30 6 -96 13 -146 17 l-90 7 -38 -118
c-43 -137 -60 -197 -76 -274 -7 -30 -21 -75 -31 -99 l-19 -43 -67 7 c-74 7
-106 22 -124 57 -27 52 -38 56 -140 48 -117 -8 -263 -4 -764 21 -121 6 -247
12 -279 12 l-59 2 -22 43 c-17 34 -24 71 -30 160 -4 65 -8 133 -10 152 -2 40
-20 79 -44 97 -18 14 -124 66 -161 80 -16 5 -57 4 -110 -3z m3254 -380 c5 -12
0 -15 -21 -12 -14 2 -28 9 -31 16 -6 18 45 15 52 -4z m-9 -164 c3 -6 -1 -7 -9
-4 -18 7 -21 14 -7 14 6 0 13 -4 16 -10z m21 -81 c10 -17 -13 -36 -27 -22 -12
12 -4 33 11 33 5 0 12 -5 16 -11z m-1535 -216 c12 -32 2 -71 -23 -87 -39 -24
-80 68 -46 102 22 22 58 14 69 -15z m-976 -197 c36 -58 44 -80 39 -100 -3 -14
-10 -28 -14 -31 -5 -3 -16 -31 -25 -61 l-16 -56 -37 6 c-46 7 -65 32 -87 113
-17 61 -17 63 3 95 12 18 30 43 41 55 12 12 21 26 20 30 -3 17 1 23 15 23 8 0
35 -33 61 -74z m1455 13 c0 -24 -4 -30 -17 -27 -11 2 -19 14 -21 31 -3 22 1
27 17 27 17 0 21 -6 21 -31z m-400 -38 c0 -11 3 -27 6 -36 11 -27 -28 -14 -43
15 -14 28 -9 40 18 40 12 0 19 -7 19 -19z m252 -8 c14 -16 31 -45 38 -66 6
-20 29 -73 51 -117 44 -90 64 -159 56 -192 -13 -61 -67 -191 -91 -223 -30 -38
-73 -71 -82 -62 -21 21 -33 151 -34 358 0 211 -1 228 -20 252 -23 28 -26 63
-7 70 31 13 65 5 89 -20z m-820 -59 c46 -59 49 -99 13 -142 -19 -23 -24 -37
-19 -60 8 -38 -9 -49 -42 -27 -16 10 -23 22 -20 33 4 10 -8 35 -30 62 -29 37
-35 51 -31 77 6 36 65 115 81 110 6 -2 28 -26 48 -53z m1207 8 c15 -11 41 -23
57 -26 17 -4 45 -21 63 -38 29 -29 31 -34 32 -112 1 -44 3 -97 5 -116 1 -19 5
-66 8 -105 11 -130 15 -156 30 -170 21 -22 31 -19 66 19 22 22 38 32 51 29 20
-6 26 -37 9 -48 -14 -9 -10 -125 4 -126 6 -1 20 -1 31 0 13 1 26 -9 37 -28 14
-25 14 -35 4 -66 -7 -20 -19 -41 -27 -45 -13 -9 -49 5 -61 23 -8 13 -41 -19
-33 -33 3 -5 -1 -10 -9 -10 -8 0 -19 -6 -23 -13 -12 -20 -39 -27 -51 -15 -8 8
-15 8 -26 -1 -11 -9 -14 -31 -12 -84 2 -47 -2 -76 -10 -84 -8 -9 -11 -34 -9
-73 3 -34 0 -60 -5 -60 -6 0 -10 -11 -10 -25 0 -28 -7 -31 -35 -11 -31 21
-129 38 -260 45 -143 7 -144 8 -91 116 20 41 36 79 36 85 0 19 39 68 59 75 10
3 26 23 36 45 10 22 26 47 36 56 15 13 19 31 19 80 0 72 -6 94 -27 94 -26 0
-73 40 -73 63 0 12 12 91 26 176 24 139 26 160 14 220 -10 57 -10 70 4 96 9
17 16 42 16 56 0 14 3 29 8 33 12 13 83 -1 111 -22z m-1409 -51 c0 -22 -5 -52
-11 -68 -7 -15 -13 -56 -14 -91 -2 -71 -18 -98 -40 -69 -8 11 -23 17 -37 15
-31 -4 -35 -52 -8 -96 17 -28 23 -31 41 -22 11 6 24 21 28 33 l8 21 12 -21 c6
-12 11 -42 11 -66 0 -51 -17 -71 -64 -73 -17 -1 -36 -2 -42 -3 -16 -1 -25 -26
-31 -86 -3 -27 -7 -52 -10 -55 -11 -12 -38 21 -39 49 -1 28 1 32 17 28 11 -3
19 -1 19 3 0 10 -23 17 -63 19 -43 2 -87 37 -87 70 0 41 22 79 52 92 33 14 63
60 72 112 6 34 9 37 23 25 15 -11 16 -11 9 7 -13 35 -12 37 31 69 23 17 45 42
49 56 17 61 35 90 54 90 17 0 20 -7 20 -39z m511 -324 c10 -3 29 1 44 9 33 17
53 9 62 -25 10 -38 6 -62 -11 -79 -14 -14 -17 -14 -34 1 -22 20 -64 22 -91 5
-10 -6 -26 -8 -35 -5 -22 9 -22 94 0 126 l17 23 15 -25 c9 -14 24 -28 33 -30z
m-555 -357 c3 -20 14 -47 24 -61 16 -20 27 -24 72 -24 29 0 58 -3 63 -6 32
-19 67 -17 139 11 106 41 147 47 167 23 19 -21 50 -171 42 -201 -7 -27 -44
-37 -60 -15 -7 9 -13 29 -13 44 0 45 -21 53 -87 33 -67 -20 -107 -51 -97 -74
12 -27 3 -104 -13 -122 -10 -12 -31 -18 -57 -18 -23 0 -58 -5 -80 -9 -95 -22
-83 38 16 84 47 21 55 46 29 88 -38 61 -77 68 -161 30 -61 -28 -260 -30 -260
-2 0 11 28 24 85 39 23 6 49 23 62 39 21 27 22 31 7 60 -8 17 -18 45 -21 64
-4 29 -1 37 28 60 19 15 40 33 48 41 13 13 18 11 38 -17 13 -17 26 -48 29 -67z
m964 -105 c12 -22 12 -28 -1 -39 -17 -17 -76 -28 -83 -17 -5 8 53 79 65 80 3
1 12 -10 19 -24z m155 -375 c4 -6 -9 -10 -32 -9 -30 0 -34 2 -18 9 27 12 43
12 50 0z m281 -27 c15 -9 38 -28 53 -42 15 -14 40 -38 57 -52 16 -14 39 -37
50 -51 11 -14 29 -27 40 -30 10 -2 28 -22 40 -46 12 -24 24 -38 26 -31 3 9 9
9 23 2 18 -10 16 -13 -19 -34 -34 -20 -37 -24 -22 -35 9 -6 25 -10 34 -7 9 2
26 -2 36 -10 19 -14 19 -15 -4 -22 -13 -4 -30 -14 -38 -21 -15 -16 -42 -19
-42 -5 0 18 -33 21 -57 6 -13 -9 -32 -15 -42 -13 -9 2 -29 -5 -44 -15 -20 -13
-25 -14 -21 -3 5 12 0 13 -31 5 -58 -16 -137 -5 -181 25 -23 16 -53 26 -74 26
-54 0 -63 10 -46 51 33 74 48 83 181 111 98 21 121 28 140 43 14 10 16 17 9
22 -6 5 -13 15 -16 23 -2 8 -22 24 -44 35 -21 11 -39 28 -39 37 0 9 -4 20 -8
24 -10 11 -9 24 3 24 6 0 22 -8 36 -17z m-1310 -70 c-11 -11 -45 -13 -51 -3
-4 6 7 10 26 10 18 0 29 -3 25 -7z m1886 -131 c46 -20 47 -22 41 -54 -8 -42
-7 -42 -32 -29 -13 7 -22 8 -26 1 -10 -16 -49 16 -73 59 -12 21 -22 42 -22 45
0 12 65 -1 112 -22z m325 -127 c-5 -15 -48 -18 -61 -5 -18 19 21 42 45 27 11
-7 18 -16 16 -22z m-2641 -114 c-4 -5 -1 -12 4 -14 6 -3 5 -4 -2 -3 -15 3 -23
26 -8 26 6 0 9 -4 6 -9z m393 -40 c9 -6 10 -10 2 -16 -15 -8 -41 1 -41 15 0
12 20 13 39 1z m21 -50 c0 -7 -40 -19 -75 -22 -24 -2 -13 20 12 24 51 7 63 7
63 -2z m-110 -9 c0 -4 -9 -14 -20 -22 -11 -8 -20 -20 -20 -28 0 -13 -23 -42
-34 -42 -9 0 5 52 17 67 5 7 13 10 18 7 5 -3 9 2 9 10 0 9 7 16 15 16 8 0 15
-4 15 -8z m-360 -149 c6 -24 8 -48 5 -54 -9 -13 -92 -11 -133 3 -29 11 -35 10
-47 -5 -14 -19 -60 -23 -70 -6 -4 6 -13 8 -21 5 -8 -3 -17 1 -20 9 -3 8 -30
26 -58 39 -60 28 -81 49 -81 81 -1 17 4 21 20 17 11 -3 25 -9 31 -13 6 -5 13
-7 16 -4 2 3 31 0 63 -6 88 -16 138 -5 166 36 l23 34 48 -46 c32 -33 50 -60
58 -90z m260 -13 c0 -5 -4 -10 -10 -10 -5 0 -10 5 -10 10 0 6 5 10 10 10 6 0
10 -4 10 -10z m-2600 -250 c0 -5 -7 -10 -16 -10 -8 0 -12 5 -9 10 3 6 10 10
16 10 5 0 9 -4 9 -10z m27 -73 c-2 -7 -13 -11 -23 -9 -10 1 -41 5 -69 9 -63 8
-34 19 40 15 37 -3 55 -8 52 -15z m116 -13 c9 -10 -4 -34 -19 -34 -8 0 -14 9
-14 20 0 19 19 27 33 14z m2864 -91 c3 -7 -4 -9 -16 -6 -12 3 -18 9 -15 15 7
11 26 6 31 -9z m1483 -1 c0 -4 41 -50 90 -102 50 -52 90 -100 90 -106 0 -19
-27 -24 -82 -14 -29 6 -78 8 -108 6 -73 -4 -100 6 -93 36 3 13 11 28 18 33 15
13 45 101 45 132 0 16 6 23 20 23 11 0 20 -3 20 -8z m-153 -228 c-3 -3 -12 -4
-19 -1 -8 3 -5 6 6 6 11 1 17 -2 13 -5z m-1186 -196 c9 -14 -18 -58 -36 -58
-18 0 -48 49 -41 67 5 11 14 14 38 9 18 -3 35 -11 39 -18z m1432 -294 c9 -10
-4 -34 -18 -34 -17 0 -28 17 -20 30 7 11 28 13 38 4z"/>
<path d="M11963 5704 c-3 -8 -1 -25 4 -37 8 -18 10 -16 11 16 1 39 -5 48 -15
21z"/>
<path d="M13377 7554 c-8 -8 3 -34 14 -34 5 0 9 9 9 20 0 19 -11 26 -23 14z"/>
<path d="M12326 7541 c-4 -7 -5 -15 -2 -18 9 -9 19 4 14 18 -4 11 -6 11 -12 0z"/>
<path d="M2585 7421 c-5 -20 0 -30 24 -51 39 -31 42 -71 7 -89 -33 -18 -39
-65 -14 -120 22 -50 20 -138 -4 -152 -10 -7 -13 -218 -13 -1063 l0 -1054 25
-27 c20 -21 22 -29 13 -43 -6 -9 -15 -16 -21 -15 -18 4 -22 -197 -22 -1124 l0
-933 2570 0 2570 0 10 25 c5 14 12 54 16 90 l7 65 -734 2 -734 3 -5 552 c-3
303 -7 553 -10 555 -31 20 -49 25 -58 16 -6 -6 -23 -3 -51 12 -23 11 -46 18
-50 15 -5 -3 -23 17 -40 45 -17 27 -36 50 -41 50 -6 0 -19 -14 -28 -32 -9 -17
-29 -43 -43 -57 -15 -14 -32 -37 -39 -49 -6 -13 -14 -21 -17 -18 -3 2 2 19 11
37 9 18 14 34 12 36 -2 2 -25 -4 -52 -13 -59 -20 -113 -8 -134 30 -16 30 -4
65 47 140 41 59 42 71 6 60 -47 -14 -101 -9 -122 11 -26 23 -27 41 -2 54 12 7
20 26 24 62 4 29 11 57 16 62 5 5 30 12 55 14 l46 6 0 -46 c0 -59 34 -120 61
-112 44 14 107 57 117 80 12 26 78 65 110 65 11 0 30 -8 43 -19 19 -15 23 -27
20 -60 -3 -48 4 -50 42 -16 32 30 35 55 8 55 -26 0 -29 7 -37 73 -6 54 -6 56
19 62 28 8 63 -8 88 -39 l18 -21 35 34 c22 21 32 39 27 45 -4 6 -13 33 -20 59
-6 27 -19 60 -27 73 -11 17 -14 35 -9 63 6 37 4 41 -24 56 -61 31 -26 107 54
119 25 4 54 5 64 1 26 -8 49 -68 57 -147 3 -38 10 -68 13 -68 11 0 63 68 106
139 37 62 38 66 27 108 -7 24 -12 100 -12 169 0 117 2 130 26 175 33 59 67 77
172 89 58 6 96 5 143 -5 35 -7 65 -12 67 -10 7 6 -11 34 -19 29 -5 -3 -6 1 -3
9 3 9 -3 16 -16 20 -11 3 -25 19 -31 36 -8 21 -28 40 -67 63 -83 48 -109 56
-153 44 -34 -9 -37 -12 -42 -55 -6 -54 -37 -85 -79 -79 -19 3 -28 0 -28 -9 0
-7 -7 -13 -16 -13 -11 0 -14 -5 -10 -16 3 -9 6 -18 6 -20 0 -10 24 -2 47 16
14 11 39 20 54 20 23 0 29 -4 29 -23 0 -20 -4 -22 -40 -19 -35 4 -41 1 -51
-22 -7 -14 -16 -26 -20 -26 -9 0 -39 -58 -39 -75 0 -6 -18 -29 -40 -50 -37
-36 -40 -43 -40 -92 0 -58 -21 -120 -43 -129 -48 -18 -106 60 -107 143 0 32
-8 52 -35 87 -19 26 -35 50 -35 54 0 18 -50 54 -87 63 -21 6 -65 10 -99 9 -46
-1 -66 4 -86 20 -16 12 -41 20 -64 20 -42 0 -130 -41 -175 -82 -34 -31 -37
-32 -74 -18 -20 8 -24 13 -16 27 15 27 39 121 33 128 -3 3 -14 5 -25 5 -10 0
-30 9 -44 20 -14 11 -31 20 -37 20 -17 0 -89 -38 -97 -51 -11 -18 11 -60 45
-91 31 -28 31 -28 14 -55 -10 -16 -27 -47 -40 -70 -12 -24 -26 -43 -30 -43 -4
0 -8 -8 -8 -17 0 -14 -3 -13 -20 5 -12 12 -29 22 -38 22 -10 0 -27 7 -39 15
-14 10 -24 12 -28 5 -4 -6 -13 -7 -23 -1 -11 5 -35 2 -67 -8 l-50 -16 3 -42
c4 -46 5 -45 -80 -72 -28 -9 -43 -9 -58 -1 -50 27 -252 3 -300 -35 -21 -17
-102 -37 -130 -33 -27 4 -52 38 -32 45 6 3 12 9 12 15 0 25 44 97 62 101 10 3
51 3 91 1 55 -4 77 -1 91 10 18 15 18 17 1 78 -16 55 -21 138 -13 203 3 21
-20 28 -144 40 -51 6 -57 9 -69 38 -8 19 -14 73 -14 133 0 121 10 138 83 147
80 10 532 -19 614 -39 l28 -6 -16 31 c-26 52 -51 62 -186 71 -68 5 -148 11
-178 14 -30 3 -89 8 -130 11 -121 9 -180 20 -197 38 -14 13 -16 36 -14 137 3
128 -4 152 -39 143 -17 -5 -20 -15 -21 -77 -1 -119 -13 -176 -40 -197 -30 -23
-96 -24 -215 -3 -49 8 -138 19 -199 25 -150 12 -325 35 -333 44 -7 7 -8 109
-3 248 2 61 7 83 21 97 21 21 12 21 320 -10 102 -11 236 -24 298 -30 141 -13
172 -19 172 -34 0 -7 3 -6 9 2 9 15 2 16 216 -2 94 -8 211 -17 260 -19 124 -7
181 -15 242 -34 29 -10 55 -14 58 -11 3 3 1 25 -5 49 -13 53 -1 105 23 103 10
-1 17 6 17 17 0 23 -18 25 -27 3 -5 -15 -20 -16 -117 -10 -61 4 -153 10 -205
12 -52 3 -99 8 -105 11 -5 4 -62 10 -126 14 -63 4 -128 10 -145 14 -16 3 -61
9 -98 13 -75 9 -86 18 -89 72 -6 98 6 171 31 191 28 23 26 37 -5 49 -39 15
-144 13 -144 -3 0 -7 4 -17 10 -23 30 -30 14 -166 -28 -231 -18 -29 -34 -29
-222 -3 -295 40 -381 57 -405 80 -18 17 -30 20 -55 15 -63 -14 -84 44 -62 169
10 57 34 68 72 31 16 -16 31 -25 31 -19 1 5 3 20 5 34 3 14 6 39 8 56 4 45 12
52 64 60 26 3 53 11 60 17 8 6 50 10 98 8 53 -1 84 2 84 9 0 5 -9 10 -20 10
-21 0 -52 15 -81 38 -10 7 -34 15 -55 18 -55 6 -75 14 -69 25 4 5 1 9 -6 9 -7
0 -5 6 5 13 17 13 16 15 -17 30 -19 9 -40 17 -45 17 -6 0 -12 4 -14 9 -3 10
-41 15 -110 13 l-48 -2 22 -22 c22 -22 22 -23 3 -26 -11 -2 -30 -15 -43 -28
-20 -21 -48 -30 -77 -24 -5 1 -34 6 -65 11 -30 6 -64 12 -75 14 -11 3 -5 -2
14 -11 32 -14 146 -41 276 -65 74 -14 94 -34 64 -62 -19 -18 -29 -19 -98 -12
-42 5 -96 9 -119 9 l-44 1 -5 -95 c-3 -52 -5 -104 -4 -115 1 -27 -18 -73 -32
-78 -7 -2 -48 0 -92 5 -115 12 -123 24 -124 171 0 80 4 117 14 133 13 20 12
22 -28 38 -23 9 -80 22 -127 28 -99 13 -113 22 -104 66 6 28 11 32 38 32 17 0
60 -7 96 -14 85 -18 174 -24 180 -11 3 5 -32 21 -77 35 -45 14 -84 28 -88 32
-15 15 7 69 33 79 15 6 22 13 16 19 -5 5 -63 29 -129 54 -112 42 -122 44 -144
29 -21 -14 -26 -13 -50 5 -15 11 -61 28 -103 39 l-77 19 -6 -25z m740 -932
c83 -11 177 -24 211 -28 34 -4 73 -15 89 -25 25 -16 27 -22 21 -59 -4 -23 -11
-85 -16 -137 -4 -52 -13 -107 -19 -122 -18 -46 -19 -46 -356 3 -38 6 -77 12
-85 14 -8 2 -27 4 -42 4 -50 2 -60 54 -47 245 7 120 19 142 69 131 14 -3 93
-14 175 -26z m50 -499 c88 -12 169 -23 180 -27 42 -12 55 -34 55 -92 0 -76
-18 -191 -31 -208 -15 -17 -73 -17 -88 1 -8 10 -23 13 -47 9 -27 -4 -34 -2
-34 10 0 9 -6 20 -14 24 -8 4 -14 17 -13 28 2 16 -3 19 -23 17 -53 -5 -79 -5
-194 -2 -102 3 -121 1 -131 -13 -16 -22 -20 -21 -45 5 -24 26 -26 17 -5 -16
14 -22 14 -25 0 -40 -9 -9 -20 -14 -25 -11 -20 12 -19 -30 1 -51 20 -21 20
-26 9 -54 -7 -17 -13 -54 -14 -81 -1 -31 -6 -53 -15 -58 -9 -6 -14 -25 -13
-54 2 -51 -3 -57 -54 -63 -39 -5 -38 6 4 40 13 11 22 27 21 40 -2 11 1 36 5
54 4 18 5 51 1 73 l-7 41 -47 -4 c-41 -3 -46 -1 -49 20 -2 12 1 22 7 22 6 0
11 5 11 12 0 21 45 107 56 108 12 0 64 59 64 72 0 12 42 31 75 32 30 1 30 2
41 78 6 42 16 84 23 92 18 22 99 21 296 -4z m595 -60 c85 -6 164 -12 175 -15
11 -2 85 -9 165 -15 173 -13 190 -21 190 -85 0 -67 -20 -198 -33 -214 -7 -8
-12 -61 -12 -142 0 -100 -3 -131 -15 -143 -16 -16 -182 -25 -229 -13 -14 4
-35 4 -49 0 -24 -6 -24 -6 8 -19 18 -8 49 -14 70 -14 21 0 52 -8 69 -17 30
-17 32 -17 71 4 l40 22 15 -36 c8 -19 15 -42 15 -50 0 -20 -36 -30 -79 -23
-40 7 -131 -16 -173 -44 -14 -9 -38 -16 -53 -14 -29 3 -46 -20 -82 -117 -15
-41 -23 -51 -45 -53 -25 -3 -30 3 -58 65 -32 70 -48 86 -90 89 -105 8 -133 14
-146 31 -18 25 -13 36 22 44 44 9 83 38 90 68 10 38 33 61 64 61 15 0 37 8 49
18 19 15 20 21 11 54 -10 35 -7 124 6 195 8 40 7 40 -111 47 -81 5 -92 8 -112
31 -21 24 -23 36 -23 144 0 105 2 120 21 140 15 16 28 21 47 17 15 -3 97 -10
182 -16z m-402 -312 c5 -7 12 -26 14 -43 2 -24 -2 -32 -24 -43 -53 -25 -82 11
-58 72 10 28 49 36 68 14z m-470 -95 c-4 -22 -48 -31 -48 -10 0 19 10 27 32
27 13 0 18 -6 16 -17z m782 -40 c11 -10 20 -25 20 -35 0 -19 -35 -42 -50 -33
-17 11 -11 85 7 85 1 0 12 -8 23 -17z m860 -42 c20 -14 26 -28 28 -66 4 -66
-23 -95 -90 -95 -41 0 -53 5 -79 32 -28 28 -31 35 -25 76 9 67 28 83 90 76 28
-3 62 -14 76 -23z m-1479 9 c26 -15 24 -49 -3 -59 -37 -14 -105 25 -95 53 7
19 67 22 98 6z m-40 -138 c15 -2 15 -7 7 -39 -6 -21 -13 -64 -15 -95 -5 -56
-5 -58 -40 -64 -20 -4 -39 -2 -45 4 -6 6 -16 9 -22 8 -6 -2 -8 -1 -4 1 4 3 0
15 -8 28 -11 17 -13 29 -6 42 8 13 6 25 -4 43 -11 18 -13 32 -6 51 9 23 14 25
69 24 32 -1 65 -3 74 -3z m305 -183 c6 -5 14 -6 18 -2 4 4 -1 -12 -12 -37 -26
-61 -43 -70 -90 -45 -29 16 -38 27 -40 53 -3 26 1 34 20 41 25 10 86 4 104
-10z m1431 -125 c13 -8 46 -43 75 -79 28 -36 55 -65 60 -65 4 0 8 -10 8 -22 0
-29 36 -106 84 -181 32 -49 37 -67 37 -113 0 -61 -16 -120 -39 -147 -12 -14
-25 -17 -48 -12 -18 3 -35 2 -38 -3 -9 -15 -126 -25 -141 -12 -8 7 -18 9 -23
6 -5 -3 -18 4 -28 15 -29 32 -86 58 -116 52 -35 -7 -114 40 -134 79 -14 28
-14 32 17 94 18 35 36 64 40 64 5 0 13 -9 19 -20 18 -33 73 -87 107 -104 34
-17 103 -22 119 -8 5 5 35 17 67 27 31 11 57 22 57 25 0 16 -53 34 -115 38
-86 6 -104 23 -65 62 14 14 34 20 68 21 l47 1 -30 13 c-64 30 -233 8 -258 -32
-8 -14 -51 -9 -73 8 -20 16 -101 22 -138 9 -67 -22 -66 -12 13 124 42 72 164
158 251 177 48 10 150 0 177 -17z m701 -137 c2 -27 -1 -37 -11 -37 -23 0 -36
22 -30 51 8 41 37 31 41 -14z m-19 -53 c6 4 11 2 11 -3 0 -6 -4 -11 -10 -11
-5 0 -10 -8 -10 -19 0 -10 -6 -24 -13 -30 -11 -8 -17 -3 -30 25 -17 34 -17 35
6 43 13 5 25 5 28 -2 4 -5 12 -6 18 -3z m-22 -126 c5 -7 10 -27 11 -45 1 -18
7 -44 12 -59 14 -36 4 -64 -23 -64 -23 0 -87 40 -87 54 0 4 14 24 30 43 17 18
30 45 30 58 0 27 12 32 27 13z m-1079 -24 c21 -6 21 -7 5 -20 -20 -15 -93 -19
-93 -5 0 5 12 14 28 19 34 13 33 13 60 6z m-30 -167 c99 -50 181 -130 221
-218 19 -41 42 -90 52 -110 11 -20 19 -40 19 -43 0 -4 -22 -4 -49 0 -110 14
-191 -22 -191 -86 0 -49 30 -128 64 -169 19 -22 44 -57 56 -76 25 -41 55 -51
103 -36 39 13 80 48 72 62 -4 5 -2 9 4 9 5 0 17 -21 27 -47 9 -27 23 -63 31
-82 24 -61 13 -115 -19 -94 -28 17 -81 18 -161 5 -46 -8 -68 -7 -99 4 -37 13
-40 13 -45 -5 -9 -35 -100 -41 -143 -10 l-28 22 -69 -38 c-37 -21 -72 -45 -78
-52 -9 -12 -67 -24 -123 -25 -19 0 -89 28 -152 61 -8 5 -17 27 -20 52 -4 33
-10 46 -27 54 -14 6 -23 19 -23 31 0 18 8 22 47 28 40 5 51 3 80 -20 29 -22
44 -25 116 -27 71 -2 89 1 137 25 30 15 68 39 84 53 34 29 31 28 58 14 19 -10
20 -9 14 17 -4 16 -3 24 1 17 5 -7 14 -9 22 -4 10 6 12 35 9 116 -3 103 -4
108 -31 131 -24 21 -38 24 -105 24 -43 0 -105 -7 -137 -16 -33 -9 -79 -20
-101 -25 -23 -4 -60 -18 -83 -29 -45 -24 -71 -21 -71 9 0 11 -3 27 -6 36 -4 9
-3 15 2 14 24 -4 36 4 54 34 25 41 25 69 0 92 -11 10 -20 26 -20 36 0 22 -21
69 -30 69 -4 0 -10 8 -12 18 -12 43 77 104 175 122 28 6 61 14 72 19 11 5 36
12 55 16 19 3 60 19 90 35 62 32 69 31 158 -13z m1052 -122 c0 -8 -7 -15 -15
-15 -8 0 -15 7 -15 15 0 8 7 15 15 15 8 0 15 -7 15 -15z m-733 -63 c26 -35 19
-38 -36 -16 -28 11 -38 20 -34 31 7 18 51 9 70 -15z m-44 -316 c4 -10 1 -13
-8 -9 -8 3 -12 9 -9 14 7 12 11 11 17 -5z m1274 -28 c-3 -8 -6 -5 -6 6 -1 11
2 17 5 13 3 -3 4 -12 1 -19z m-1291 -536 c-9 -9 -37 8 -31 18 5 8 11 7 21 -1
8 -6 12 -14 10 -17z m-301 -22 c3 -5 4 -14 0 -20 -8 -13 -35 -1 -35 16 0 16
26 19 35 4z m163 -103 c3 -13 -3 -17 -27 -17 -33 0 -39 8 -19 28 17 17 42 11
46 -11z m52 3 c0 -5 -7 -10 -16 -10 -8 0 -12 5 -9 10 3 6 10 10 16 10 5 0 9
-4 9 -10z m136 -255 c-2 -36 -7 -70 -12 -74 -17 -17 -199 -50 -249 -46 -84 7
-95 10 -103 21 -4 7 -18 14 -31 15 -14 2 -26 10 -29 18 -4 11 6 12 43 8 26 -4
68 -2 94 3 25 5 60 12 76 15 17 2 65 17 108 32 61 21 79 31 83 50 12 45 22 22
20 -42z"/>
<path d="M4050 5300 c-11 -7 -3 -10 28 -10 26 0 41 4 37 10 -8 13 -45 13 -65
0z"/>
<path d="M4494 3791 c4 -5 2 -11 -2 -13 -5 -1 -20 -28 -34 -59 -18 -39 -23
-61 -16 -72 10 -19 38 -22 54 -8 5 5 25 11 44 13 45 4 46 26 3 47 -18 9 -31
22 -28 29 7 18 -6 72 -17 72 -5 0 -7 -4 -4 -9z"/>
<path d="M13032 7347 c-18 -19 -22 -35 -22 -91 0 -66 1 -68 42 -107 34 -32 44
-37 53 -26 5 7 18 16 28 20 30 11 35 46 15 99 -10 26 -18 62 -18 78 0 51 -60
67 -98 27z"/>
<path d="M5403 7215 c0 -22 2 -30 4 -17 2 12 2 30 0 40 -3 9 -5 -1 -4 -23z"/>
<path d="M8244 7206 c-12 -32 0 -61 28 -64 53 -6 88 34 56 66 -17 17 -77 15
-84 -2z"/>
<path d="M8876 7154 c-23 -69 -22 -74 23 -74 l40 0 -15 53 c-9 28 -19 56 -24
60 -4 5 -15 -13 -24 -39z"/>
<path d="M3898 7133 c7 -3 16 -2 19 1 4 3 -2 6 -13 5 -11 0 -14 -3 -6 -6z"/>
<path d="M3248 7123 c7 -3 16 -2 19 1 4 3 -2 6 -13 5 -11 0 -14 -3 -6 -6z"/>
<path d="M3920 7115 c-9 -11 -10 -19 -3 -26 7 -7 14 -5 23 6 7 8 23 15 36 15
13 0 24 5 24 10 0 16 -66 12 -80 -5z"/>
<path d="M8240 7051 c0 -46 10 -61 39 -61 37 0 46 10 47 53 l1 37 -44 0 c-41
0 -43 -1 -43 -29z"/>
<path d="M8840 7014 c0 -9 23 -48 37 -62 36 -37 -15 -86 -74 -70 -18 4 -35 13
-38 18 -9 15 -35 12 -30 -2 2 -7 11 -48 20 -90 l16 -78 114 0 113 0 1 84 c0
46 3 91 7 100 4 10 1 16 -9 16 -25 0 -47 29 -47 61 0 29 -1 29 -55 29 -30 0
-55 -3 -55 -6z"/>
<path d="M4353 6972 c-30 -19 24 -49 101 -58 47 -6 56 -4 56 9 0 22 -36 39
-84 41 -23 1 -46 4 -51 8 -6 4 -16 3 -22 0z"/>
<path d="M5390 6929 c-11 -8 -12 -12 -2 -16 6 -2 12 -11 12 -19 0 -8 5 -14 10
-14 6 0 10 14 10 30 0 32 -6 36 -30 19z"/>
<path d="M8293 6932 c-8 -5 -1 -19 22 -47 19 -21 36 -37 39 -34 2 2 -1 23 -7
47 -11 41 -27 51 -54 34z"/>
<path d="M5356 6864 c-4 -10 -2 -22 3 -27 7 -7 13 -5 17 7 4 10 2 22 -3 27 -7
7 -13 5 -17 -7z"/>
<path d="M8480 6824 c0 -3 5 -25 11 -50 l11 -44 46 0 46 0 -49 50 c-45 46 -65
59 -65 44z"/>
<path d="M8204 6807 c-3 -8 2 -34 10 -58 13 -37 16 -118 16 -516 0 -465 0
-473 20 -473 12 0 21 8 24 23 8 37 48 326 57 412 5 44 15 121 24 170 8 50 19
132 24 184 l10 94 -52 51 c-29 28 -66 68 -81 89 -30 39 -43 45 -52 24z"/>
<path d="M5357 6713 c-4 -3 -7 -18 -7 -32 l0 -25 16 23 c15 21 7 51 -9 34z"/>
<path d="M8745 6670 c-3 -5 -17 -10 -31 -10 -20 0 -23 -4 -19 -22 3 -13 14
-99 25 -193 18 -149 41 -320 82 -612 l11 -83 37 0 c31 0 39 4 44 23 3 12 6
185 6 385 l0 362 -65 0 -65 0 0 74 c0 70 -10 100 -25 76z"/>
<path d="M5410 6466 c0 -8 -3 -21 -6 -30 -4 -11 -1 -16 10 -16 18 0 23 45 6
55 -5 3 -10 0 -10 -9z"/>
<path d="M8531 6397 c-1 -5 -7 -63 -15 -130 -8 -67 -17 -159 -20 -204 l-6 -83
46 0 c44 0 45 1 40 28 -3 15 -13 106 -21 202 -14 155 -22 214 -24 187z"/>
<path d="M8016 6045 c-5 -27 -17 -95 -27 -150 -26 -136 -25 -145 7 -143 15 2
28 7 30 13 3 6 3 83 2 170 -2 129 -5 150 -12 110z"/>
<path d="M7752 5919 l3 -154 28 -3 c17 -2 27 1 27 10 -1 32 -48 289 -54 295
-4 4 -5 -63 -4 -148z"/>
<path d="M7074 6051 c-2 -2 -4 -21 -4 -42 l0 -38 46 14 c44 13 50 12 93 -9 78
-40 88 -40 94 -9 3 15 3 42 0 60 l-5 32 -110 -2 c-60 -1 -111 -4 -114 -6z"/>
<path d="M7115 5872 c-21 -15 -14 -32 13 -33 58 -3 162 -4 162 -1 0 1 -21 12
-46 22 -46 20 -110 26 -129 12z"/>
<path d="M8470 5776 c0 -23 4 -24 60 -28 60 -3 60 -3 60 25 0 26 -1 27 -60 27
-57 0 -60 -1 -60 -24z"/>
<path d="M5858 5753 c6 -2 18 -2 25 0 6 3 1 5 -13 5 -14 0 -19 -2 -12 -5z"/>
<path d="M7267 5724 c-16 -16 -7 -44 14 -44 15 0 20 5 17 22 -3 22 -19 33 -31
22z"/>
<path d="M7500 5706 c0 -23 16 -36 46 -36 19 0 18 46 -2 54 -30 12 -44 6 -44
-18z"/>
<path d="M8470 5669 c0 -5 5 -7 10 -4 6 3 10 8 10 11 0 2 -4 4 -10 4 -5 0 -10
-5 -10 -11z"/>
<path d="M7750 5649 c-10 -18 -17 -20 -82 -13 -67 6 -72 6 -89 -17 -18 -24
-18 -24 -47 -6 -34 19 -67 23 -56 6 3 -6 22 -18 41 -25 19 -8 33 -20 30 -27
-5 -15 -39 -14 -142 5 -68 12 -129 15 -200 9 -8 0 -15 -6 -15 -12 0 -6 -14
-24 -31 -40 -20 -19 -29 -36 -27 -51 3 -20 11 -24 68 -30 36 -4 124 -7 195 -7
72 1 136 1 143 0 10 -1 12 -24 10 -93 l-3 -93 -60 -5 -60 -5 0 -50 c0 -47 1
-50 25 -47 14 1 50 3 80 5 68 3 68 2 69 165 l1 122 108 1 c241 2 281 -6 336
-72 l29 -34 -142 -6 c-179 -7 -181 -9 -188 -132 -7 -110 2 -170 33 -206 13
-16 24 -36 24 -45 0 -12 10 -16 41 -16 32 0 42 4 46 20 3 11 10 20 17 21 19 2
181 -3 183 -5 8 -7 -22 -80 -43 -105 l-25 -31 15 -67 c8 -38 22 -102 31 -145
l16 -76 32 1 32 2 3 218 2 217 24 0 c51 0 68 45 67 181 0 117 -12 151 -56 159
-29 5 -30 6 -30 65 l0 60 81 3 81 3 -10 57 c-5 32 -17 63 -27 72 -9 8 -22 23
-27 33 -8 16 -26 19 -114 24 -75 3 -106 9 -112 19 -11 19 -76 18 -83 -1 -4
-10 -21 -15 -54 -15 -33 0 -50 5 -54 15 -9 24 -73 20 -86 -6z m317 -496 c2 -6
-81 -56 -119 -71 -4 -2 -8 31 -8 73 l0 76 62 -35 c35 -19 64 -39 65 -43z"/>
<path d="M7050 5386 c0 -11 28 -55 32 -51 10 11 -5 55 -18 55 -8 0 -14 -2 -14
-4z"/>
<path d="M8358 5164 c-10 -9 -10 -106 0 -119 4 -5 16 -17 26 -25 17 -13 19
-13 11 0 -5 8 -14 45 -19 83 -6 38 -14 65 -18 61z"/>
<path d="M7426 4873 c-10 -24 -7 -221 3 -228 31 -19 88 46 111 128 13 43 21
52 43 48 4 0 7 12 7 28 0 24 -4 28 -27 30 -16 1 -51 3 -80 5 -39 3 -53 0 -57
-11z"/>
<path d="M7797 4721 c-10 -47 3 -101 24 -101 33 0 52 30 45 73 -9 52 -12 57
-40 57 -18 0 -25 -7 -29 -29z"/>
<path d="M6141 4344 c-36 -26 -81 -104 -81 -142 0 -78 44 -99 54 -24 4 26 20
77 35 115 16 37 26 67 22 67 -3 0 -17 -7 -30 -16z"/>
<path d="M6442 4267 c-17 -20 93 -40 113 -21 7 7 15 10 19 7 3 -4 6 -1 6 5 0
8 -18 12 -49 12 -27 0 -56 2 -64 5 -7 3 -19 0 -25 -8z"/>
<path d="M6317 4210 c5 -18 13 -20 77 -19 61 1 66 2 31 9 -22 4 -53 12 -68 19
-39 15 -46 14 -40 -9z"/>
<path d="M6236 4182 c-3 -6 -1 -14 5 -17 15 -10 25 3 12 16 -7 7 -13 7 -17 1z"/>
<path d="M6574 3962 c-45 -29 -73 -121 -58 -198 6 -33 7 -34 55 -34 l49 0 0
49 c0 65 7 81 36 81 26 0 27 -1 26 -105 0 -52 -11 -90 -86 -278 -71 -180 -86
-227 -86 -272 0 -37 4 -55 13 -56 50 -5 153 -6 210 -2 l67 6 0 58 0 59 -74 0
c-41 0 -77 3 -79 8 -3 4 24 76 60 160 85 203 101 274 85 395 -15 118 -33 139
-124 145 -49 2 -70 -1 -94 -16z"/>
<path d="M6971 3970 c-58 -14 -81 -47 -92 -131 -13 -104 -11 -109 54 -94 l52
11 3 46 c5 78 62 74 62 -4 l0 -40 34 6 c40 8 46 1 62 -64 11 -42 12 -36 13 70
1 124 -7 151 -49 181 -30 21 -93 29 -139 19z"/>
<path d="M7491 3967 c-49 -25 -65 -60 -69 -157 l-4 -90 56 0 56 0 0 48 c0 70
9 92 35 92 20 0 23 -7 29 -54 7 -67 -5 -136 -39 -212 -80 -177 -135 -337 -135
-389 0 -53 0 -54 33 -57 17 -2 83 -2 145 0 l112 3 0 60 0 59 -74 0 c-41 0 -77
3 -80 8 -2 4 16 55 41 112 88 206 106 273 107 395 1 122 -10 152 -65 181 -34
17 -115 18 -148 1z"/>
<path d="M8259 3952 l-34 -30 -3 -115 c-5 -163 2 -178 108 -211 121 -39 124
-35 53 44 -44 49 -47 57 -51 116 -6 86 3 116 31 112 20 -3 22 -9 25 -85 l3
-83 55 0 56 0 -4 110 c-3 104 -4 111 -31 137 -24 24 -36 28 -101 31 -70 4 -75
3 -107 -26z"/>
<path d="M7780 3916 l0 -55 63 -3 c55 -3 62 -5 60 -23 -1 -11 -7 -63 -12 -115
-6 -52 -13 -121 -17 -152 -7 -58 -7 -58 20 -58 21 0 29 -7 37 -30 22 -61 33
-31 64 170 9 58 23 137 32 176 8 39 13 86 11 105 l-3 34 -127 3 -128 3 0 -55z"/>
<path d="M8581 3743 c0 -200 2 -235 19 -291 24 -77 25 -118 5 -126 -12 -4 -15
-24 -15 -91 l0 -85 105 0 105 0 0 59 0 60 -52 3 c-48 3 -53 5 -52 26 0 12 1
62 2 111 l2 90 53 3 52 3 3 63 c3 67 3 67 -63 63 -37 -2 -46 13 -50 90 -6 112
-2 119 56 119 l49 0 0 65 0 65 -109 0 -109 0 -1 -227z"/>
<path d="M8880 3561 c0 -461 -6 -429 75 -417 l45 7 0 150 0 149 33 0 c48 0
100 30 119 70 15 29 18 62 18 188 0 235 -14 255 -181 260 l-109 4 0 -411z
m165 149 c0 -143 0 -145 -22 -148 -23 -3 -23 -3 -23 148 0 151 0 151 23 148
22 -3 22 -5 22 -148z"/>
<path d="M9230 3911 l0 -60 33 -3 32 -3 3 -347 2 -348 55 0 c45 0 55 3 56 18
1 9 2 166 3 347 l1 330 33 3 c40 4 46 18 38 77 l-7 45 -125 0 -124 0 0 -59z"/>
<path d="M6881 3452 c-1 -241 5 -268 64 -296 39 -19 120 -21 154 -3 48 24 64
69 66 185 3 136 -8 294 -19 267 -20 -51 -30 -63 -57 -69 l-29 -5 -1 -98 c-1
-122 -6 -165 -22 -175 -35 -22 -57 26 -57 124 0 90 -18 177 -37 179 -7 1 -18
2 -25 3 -7 0 -17 24 -24 51 -10 44 -12 24 -13 -163z"/>
<path d="M6960 3593 c0 -22 2 -25 10 -13 13 20 13 40 0 40 -5 0 -10 -12 -10
-27z"/>
<path d="M7257 3593 c-14 -4 -17 -13 -15 -46 l3 -42 68 -3 67 -3 0 46 0 45
-39 0 c-22 0 -45 2 -53 4 -7 2 -21 2 -31 -1z"/>
<path d="M8221 3323 c-1 -119 7 -141 61 -169 22 -12 48 -15 91 -12 52 4 64 9
88 36 31 34 39 88 18 109 -17 17 -38 5 -31 -19 4 -15 1 -19 -14 -16 -10 2 -21
14 -25 28 -6 22 -7 23 -8 4 -1 -32 -25 -48 -50 -34 -18 9 -21 20 -21 75 0 67
-7 98 -20 90 -5 -3 -11 -1 -15 5 -3 5 -21 10 -40 10 l-33 0 -1 -107z"/>
<path d="M8397 3366 c-12 -30 17 -35 33 -6 9 17 8 20 -9 20 -10 0 -21 -6 -24
-14z"/>
<path d="M7921 3314 c0 -11 3 -14 6 -6 3 7 2 16 -1 19 -3 4 -6 -2 -5 -13z"/>
<path d="M13014 2951 c11 -11 24 -21 29 -21 10 0 81 -69 82 -80 0 -3 19 -24
43 -47 38 -39 47 -43 92 -43 62 0 66 19 14 64 -20 17 -50 43 -66 58 -46 40
-119 76 -169 84 l-44 7 19 -22z"/>
<path d="M12775 2786 c26 -22 85 -36 85 -20 0 6 -51 28 -90 39 -24 6 -24 6 5
-19z"/>
</g>
</svg>
