<?xml version="1.0" standalone="no"?>
<!DOCTYPE svg PUBLIC "-//W3C//DTD SVG 20010904//EN"
 "http://www.w3.org/TR/2001/REC-SVG-20010904/DTD/svg10.dtd">
<svg version="1.0" xmlns="http://www.w3.org/2000/svg"
 width="960.000000pt" height="640.000000pt" viewBox="0 0 960.000000 640.000000"
 preserveAspectRatio="xMidYMid meet">

<g transform="translate(0.000000,640.000000) scale(0.100000,-0.100000)"
fill="#000000" stroke="none">
<path d="M6855 6377 c-4 -12 -16 -46 -27 -75 -19 -48 -22 -51 -37 -38 -14 13
-21 10 -67 -33 -28 -26 -58 -50 -67 -54 -12 -4 -17 -18 -17 -45 0 -32 5 -41
25 -50 26 -12 34 -52 16 -81 -8 -13 -12 -13 -26 -1 -15 12 -18 12 -26 -3 -11
-18 -39 -23 -39 -7 0 17 -26 11 -45 -10 -13 -15 -15 -23 -7 -33 9 -11 5 -14
-21 -14 -17 0 -38 4 -44 10 -9 6 -13 6 -13 -2 0 -6 6 -14 14 -17 7 -3 28 -27
45 -55 36 -54 34 -53 62 -38 15 7 24 7 34 -1 10 -8 15 -8 20 1 6 8 10 7 16 -2
6 -9 3 -18 -8 -26 -15 -12 -15 -13 2 -13 10 0 29 -10 42 -22 21 -20 27 -21 56
-10 41 15 67 15 67 2 0 -5 9 -10 19 -10 13 0 19 -6 19 -17 -1 -10 2 -28 6 -40
9 -27 -8 -31 -24 -5 -9 16 -11 16 -21 -1 -10 -17 -12 -17 -40 0 -26 16 -31 16
-39 3 -15 -24 -11 -62 8 -77 9 -8 11 -12 4 -8 -7 4 -19 1 -27 -5 -8 -7 -22 -9
-31 -6 -9 4 -22 2 -28 -2 -18 -15 -56 -21 -56 -10 0 6 -9 8 -20 5 -11 -3 -20
-1 -20 3 0 5 -9 7 -20 5 -15 -3 -24 3 -30 18 l-9 22 0 -22 c-1 -12 7 -26 17
-32 15 -9 14 -10 -8 -10 -53 -1 -58 -3 -63 -27 -2 -13 2 -29 10 -36 10 -8 11
-14 3 -22 -14 -14 -12 -26 5 -26 18 0 20 -19 3 -21 -18 -2 -21 -1 -39 6 -13 5
-21 -5 -35 -39 -19 -47 -41 -64 -29 -23 l7 22 -17 -23 c-9 -13 -23 -21 -30
-18 -7 2 -15 -4 -18 -15 -4 -13 -11 -17 -24 -13 -13 4 -14 3 -5 -3 10 -8 10
-12 -3 -23 -8 -7 -15 -20 -15 -30 0 -19 -30 -50 -48 -50 -7 0 -12 -9 -12 -20
0 -11 -6 -20 -14 -20 -7 0 -25 -11 -41 -26 -21 -19 -26 -32 -23 -54 3 -19 -1
-31 -9 -35 -8 -2 -11 0 -8 5 3 6 1 10 -4 10 -6 0 -11 -6 -11 -12 0 -10 -3 -9
-9 1 -13 20 -22 -15 -16 -62 3 -23 1 -36 -4 -33 -5 4 -21 2 -34 -3 -20 -8 -25
-16 -23 -39 2 -27 29 -65 48 -68 4 -1 13 -2 19 -3 6 0 8 -8 5 -17 -5 -13 -2
-15 14 -11 11 3 20 1 20 -4 0 -4 6 -6 13 -4 17 7 77 -50 77 -72 0 -11 -6 -25
-12 -31 -7 -7 -14 -17 -14 -22 -1 -6 -2 -14 -3 -20 0 -5 -8 -10 -16 -10 -10 0
-15 -10 -15 -29 0 -22 -6 -32 -22 -37 -20 -6 -20 -8 -5 -19 9 -7 17 -16 17
-20 0 -5 7 -16 16 -26 15 -16 15 -21 0 -51 -16 -32 -16 -34 5 -51 12 -10 30
-15 40 -12 12 4 19 1 19 -7 0 -7 9 -19 21 -26 25 -16 21 -47 -6 -47 -11 0 -19
-6 -17 -12 1 -7 3 -19 5 -25 1 -8 -9 -13 -25 -13 -22 1 -28 -4 -28 -21 0 -16
7 -24 23 -26 17 -2 22 -9 22 -30 -1 -33 -2 -32 35 -13 l29 15 7 -35 c3 -19 10
-35 15 -35 5 0 9 -7 9 -15 0 -13 3 -14 23 -2 13 9 47 14 87 13 61 -1 65 -2 63
-23 -2 -16 2 -21 12 -17 9 4 14 -1 13 -13 0 -10 3 -30 7 -45 6 -22 4 -28 -9
-29 -9 -1 -21 -2 -27 -3 -7 0 -21 -14 -33 -29 -20 -27 -20 -29 -3 -42 15 -10
16 -17 7 -41 -9 -23 -9 -27 1 -16 18 17 30 15 23 -3 -4 -8 -1 -15 4 -15 6 0
12 -6 15 -12 2 -7 3 -5 2 5 -2 9 3 17 11 17 8 0 14 6 14 13 0 6 5 4 11 -6 7
-12 17 -16 30 -12 15 5 19 2 19 -14 0 -12 6 -21 15 -21 13 0 14 -4 5 -21 -11
-19 -10 -20 10 -9 11 6 29 8 40 5 10 -3 21 -1 24 4 4 6 13 8 21 5 8 -4 17 1
21 9 3 9 12 18 21 21 12 5 14 1 10 -20 -3 -20 0 -28 13 -31 10 -3 20 -13 23
-24 3 -10 12 -19 21 -19 9 0 16 -4 16 -10 0 -5 9 -10 19 -10 11 0 23 -4 26
-10 3 -5 1 -10 -5 -10 -21 0 -39 -27 -33 -49 3 -12 13 -21 24 -21 11 0 19 -5
19 -11 0 -6 7 -9 15 -5 8 3 15 1 15 -4 0 -6 7 -10 15 -10 11 0 14 -7 9 -24 -4
-19 0 -27 18 -37 12 -7 26 -14 31 -15 4 -1 8 -2 10 -4 8 -6 49 -5 53 2 3 4 18
8 34 8 17 0 34 8 42 19 11 16 21 18 53 12 54 -9 73 -4 77 22 2 12 10 22 18 22
9 0 14 -7 12 -19 -2 -10 2 -23 10 -27 9 -6 4 -9 -14 -9 -30 0 -93 -54 -83 -70
4 -6 -10 -10 -34 -10 -43 0 -51 -9 -27 -29 8 -7 17 -23 20 -36 4 -14 13 -25
20 -25 16 0 29 -27 20 -41 -3 -5 0 -9 6 -9 7 0 14 9 17 20 l6 21 14 -21 c8
-11 11 -24 8 -30 -3 -6 1 -7 9 -4 9 3 16 2 16 -4 0 -5 8 -12 19 -15 18 -4 42
15 54 44 4 10 8 7 13 -9 4 -14 12 -21 20 -18 8 3 14 1 14 -5 0 -6 7 -17 15
-25 13 -14 15 -14 15 0 0 9 3 15 8 14 4 -1 19 4 34 10 15 6 35 9 44 5 9 -3 20
0 24 8 5 7 13 10 17 5 4 -4 0 -13 -10 -21 -16 -11 -14 -13 18 -19 22 -5 35
-13 35 -23 0 -12 3 -13 14 -4 8 7 20 11 28 10 7 -1 20 1 28 4 8 3 26 7 40 9
16 2 25 9 25 21 0 19 21 37 43 37 8 0 11 -7 7 -19 -3 -10 -3 -26 1 -35 6 -15
9 -15 23 -3 10 9 38 14 78 13 55 -1 63 1 72 22 6 12 15 22 20 22 20 0 29 -98
10 -117 -8 -8 -5 -15 8 -24 11 -8 22 -22 26 -33 6 -15 10 -16 22 -6 12 10 16
9 21 -4 8 -20 24 -21 24 -1 0 19 14 19 30 0 16 -19 31 -19 24 -1 -4 11 4 16
28 18 24 2 36 10 46 31 14 28 32 36 32 15 0 -7 5 -5 11 6 9 14 13 15 19 5 7
-10 11 -10 24 0 14 12 16 11 15 -5 -1 -11 -1 -32 -1 -48 l2 -29 24 23 c23 21
26 21 41 6 9 -9 13 -21 9 -28 -5 -7 9 0 30 16 31 23 40 26 47 15 5 -8 9 -20 9
-28 0 -9 7 -11 23 -7 53 13 71 -8 117 -131 17 -46 44 -67 75 -59 19 5 24 10
17 19 -15 19 -42 117 -42 154 0 43 24 44 38 1 10 -31 11 -32 17 -10 4 12 11
22 16 22 5 0 6 -7 3 -15 -10 -25 12 -17 26 10 8 16 22 25 37 25 14 0 23 6 23
15 0 10 10 15 28 15 32 0 80 34 63 44 -16 11 -13 24 8 36 40 21 67 -12 35 -44
-8 -9 -11 -16 -5 -16 6 0 7 -8 4 -17 -7 -17 -6 -17 20 0 32 21 47 22 47 2 0
-9 9 -15 23 -16 12 0 36 -2 54 -3 27 -3 33 0 42 25 6 19 17 29 30 29 11 0 23
5 26 11 19 30 31 -6 41 -122 9 -114 4 -362 -10 -443 -5 -24 -4 -27 3 -11 5 11
11 38 12 60 2 34 3 35 6 10 2 -16 -6 -88 -17 -160 -53 -330 -59 -353 -103
-441 -26 -52 -70 -200 -82 -274 -4 -25 -20 -70 -35 -100 -41 -83 -51 -142 -15
-93 11 15 13 15 20 -6 12 -39 -5 -109 -46 -187 -22 -41 -37 -79 -34 -84 4 -6
-3 -23 -14 -39 -11 -15 -18 -31 -15 -34 3 -3 -15 -17 -40 -32 -48 -28 -61 -47
-26 -38 17 5 18 2 11 -23 -20 -66 -33 -85 -81 -120 -40 -28 -57 -50 -79 -99
-27 -59 -89 -133 -140 -168 -13 -9 -20 -20 -16 -27 5 -8 16 -3 36 16 39 38 47
25 9 -16 -32 -35 -39 -56 -15 -46 10 3 15 -1 15 -12 0 -10 9 -25 20 -35 11 -9
20 -24 20 -34 0 -13 6 -11 29 11 28 27 29 27 36 7 5 -16 12 -20 31 -15 17 4
24 2 24 -8 0 -21 -39 -54 -60 -50 -11 2 -20 -5 -23 -18 -3 -11 -1 -20 3 -20
16 0 79 45 80 57 0 6 15 24 33 40 20 16 43 52 56 85 22 54 41 75 41 45 0 -7 6
-22 14 -32 12 -17 16 -14 47 40 36 61 59 80 59 48 1 -18 22 -53 33 -53 3 0 10
14 16 30 5 17 14 30 19 30 15 0 22 -40 11 -67 -9 -23 -8 -24 32 -18 43 7 44 2
12 -36 -7 -9 -11 -24 -7 -33 6 -15 9 -15 30 5 l24 22 0 -26 c0 -25 2 -26 25
-15 14 6 27 9 30 6 10 -9 -7 -38 -22 -38 -12 0 -12 -3 1 -22 9 -12 16 -34 15
-48 0 -23 -1 -23 -8 -5 -5 11 -6 25 -4 30 2 6 -2 2 -11 -9 -8 -10 -20 -15 -26
-11 -8 5 -8 11 1 21 6 8 9 17 6 20 -3 3 -15 -8 -28 -25 -12 -17 -26 -28 -31
-25 -5 3 -4 12 3 20 21 26 -9 15 -41 -15 -20 -18 -28 -31 -21 -35 6 -4 16 -4
21 -1 6 3 10 1 10 -5 0 -10 -56 -27 -72 -22 -5 1 -8 -3 -8 -8 0 -6 -7 -10 -15
-10 -8 0 -15 5 -15 11 0 5 -4 7 -10 4 -5 -3 -10 2 -10 12 -1 24 -30 64 -30 41
0 -9 6 -18 13 -21 9 -3 9 -9 1 -23 -14 -24 -27 -21 -36 8 -3 13 -6 17 -7 10
-1 -7 -6 -10 -12 -6 -6 3 -3 -9 6 -27 l17 -34 -26 27 c-31 32 -30 32 -59 16
-12 -6 -31 -12 -43 -14 -17 -1 -20 2 -17 17 4 13 0 19 -11 19 -9 0 -16 5 -16
10 0 6 -4 10 -10 10 -5 0 -10 -7 -10 -15 0 -8 5 -15 10 -15 6 0 10 -7 10 -15
0 -7 8 -19 18 -24 15 -10 15 -10 -4 -8 -12 2 -29 11 -38 20 -23 22 -37 22 -43
-3 -3 -11 -9 -20 -15 -20 -17 0 -58 32 -58 47 0 10 -5 11 -17 4 -10 -5 -31 -7
-47 -6 -39 5 -53 -2 -60 -31 -7 -28 -26 -32 -26 -5 0 10 -6 21 -13 24 -20 8
-41 -8 -32 -24 6 -9 4 -11 -7 -6 -9 3 -25 -1 -37 -9 -19 -13 -21 -13 -21 0 0
8 -5 18 -12 22 -8 5 -9 2 -5 -10 9 -24 19 -75 11 -58 -9 19 -22 14 -27 -10 -4
-23 -4 -23 -14 2 -9 20 -8 27 5 37 8 7 12 16 8 20 -4 5 -13 0 -20 -9 -7 -10
-17 -14 -21 -10 -5 4 -5 -1 -2 -10 4 -12 2 -15 -7 -12 -8 3 -17 1 -21 -5 -9
-16 -25 -13 -25 4 0 16 -16 20 -24 6 -3 -4 -20 -11 -37 -15 -18 -3 -38 -14
-45 -24 -13 -16 -13 -16 -14 1 0 24 -25 21 -51 -5 -14 -15 -20 -17 -16 -7 4
13 -2 15 -40 11 -31 -2 -49 1 -54 10 -6 9 -9 6 -9 -11 0 -19 -4 -23 -25 -19
-14 3 -25 1 -25 -5 0 -5 -5 -5 -13 2 -11 9 -13 0 -10 -47 3 -39 1 -53 -5 -43
-6 8 -8 19 -6 26 3 6 -2 25 -11 41 -11 21 -15 24 -15 10 0 -12 -5 -16 -14 -13
-8 3 -20 -1 -27 -9 -10 -13 -10 -20 0 -36 8 -13 9 -24 3 -30 -6 -6 -14 2 -22
21 -13 33 -24 39 -36 20 -4 -7 -24 -9 -51 -6 -52 6 -105 -16 -96 -38 3 -8 0
-15 -7 -15 -6 0 -9 3 -7 8 3 4 -1 13 -9 19 -9 9 -15 9 -19 2 -4 -6 -13 -8 -21
-5 -8 3 -14 -1 -14 -10 0 -8 -4 -13 -9 -10 -5 4 -12 0 -15 -6 -5 -10 -7 -10
-12 0 -7 14 -44 16 -44 2 0 -5 5 -10 10 -10 6 0 10 -4 10 -10 0 -5 -7 -10 -15
-10 -8 0 -15 -8 -15 -17 0 -15 -2 -16 -10 -3 -5 8 -10 11 -10 5 0 -5 -5 -3
-10 5 -8 13 -10 13 -10 -2 0 -13 -9 -16 -43 -15 -38 2 -43 5 -40 22 2 11 1 14
-3 8 -3 -7 -11 -13 -19 -13 -7 0 -18 -7 -25 -15 -11 -14 -15 -14 -33 2 -11 10
-17 13 -14 6 12 -20 -14 -26 -28 -7 -13 18 -14 18 -15 2 0 -13 -8 -18 -26 -18
-14 0 -22 -4 -19 -10 3 -6 -1 -7 -10 -4 -9 4 -25 -2 -35 -11 -11 -10 -20 -15
-20 -11 0 4 -8 2 -19 -3 -10 -6 -21 -7 -25 -4 -11 11 -56 12 -56 1 0 -7 -5 -7
-14 1 -10 8 -21 8 -40 1 -15 -5 -29 -10 -31 -10 -2 0 -7 19 -11 42 l-8 43 -6
-35 c-3 -21 -11 -34 -18 -32 -8 1 -25 -7 -39 -18 -26 -20 -43 -19 -43 5 0 7
-7 15 -15 19 -9 3 -15 0 -15 -10 0 -10 -7 -13 -24 -10 -14 2 -26 0 -28 -6 -7
-21 -40 -17 -46 5 -5 19 -6 19 -12 3 -5 -14 -18 -19 -51 -21 -53 -2 -119 12
-119 25 0 6 -4 10 -10 10 -5 0 -10 -7 -10 -15 0 -8 -4 -15 -10 -15 -5 0 -10
-7 -10 -16 0 -15 -2 -15 -25 0 -14 9 -25 12 -25 6 0 -5 5 -10 12 -10 9 0 9 -3
1 -11 -14 -14 -36 -2 -27 13 5 8 1 9 -10 5 -14 -6 -17 -3 -12 10 6 15 5 15
-13 -1 -16 -14 -22 -15 -39 -5 -17 10 -23 10 -37 -4 -23 -23 -28 -21 -14 6 11
20 11 21 -4 8 -15 -12 -17 -11 -18 5 0 11 -3 14 -6 6 -2 -6 -9 -10 -14 -6 -5
3 -9 -5 -9 -17 0 -21 0 -21 -20 2 -14 18 -19 20 -20 9 0 -17 -42 -22 -56 -8
-12 13 -22 9 -26 -8 -3 -13 -6 -12 -24 5 -17 15 -24 17 -34 8 -10 -9 -11 -9
-6 1 8 13 -19 13 -41 -1 -8 -5 -13 -3 -13 3 0 6 -11 3 -25 -7 -17 -12 -24 -25
-22 -40 3 -13 1 -23 -3 -23 -13 0 -32 29 -25 39 3 6 -3 16 -15 23 -11 7 -20
18 -20 24 0 6 -7 11 -15 11 -10 0 -14 -6 -10 -16 3 -11 0 -10 -10 3 -11 14
-15 16 -15 5 -1 -12 -3 -11 -13 1 -7 9 -20 14 -29 12 -10 -2 -18 1 -18 6 0 5
-7 9 -15 9 -8 0 -15 -5 -15 -11 0 -6 -5 -4 -10 4 -7 10 -10 11 -10 2 0 -8 -8
-10 -25 -6 -14 3 -25 2 -24 -2 4 -22 -3 -32 -25 -36 -20 -4 -26 0 -31 19 -3
13 -10 21 -15 18 -6 -4 -17 9 -25 27 -8 18 -14 28 -15 22 0 -16 -36 -24 -49
-11 -8 8 -11 6 -11 -7 0 -12 -6 -16 -22 -14 -15 2 -22 9 -22 21 2 15 -1 16
-13 5 -19 -15 -123 -14 -153 2 -33 18 -110 23 -110 8 -1 -7 -16 5 -35 27 -19
22 -35 34 -35 28 0 -9 -7 -10 -25 -3 -20 8 -25 6 -25 -6 0 -9 -7 -14 -17 -12
-10 2 -18 10 -18 18 0 10 -11 15 -30 16 -17 1 -38 5 -47 9 -10 4 -24 5 -32 2
-8 -3 -16 -1 -18 4 -4 12 -37 14 -60 4 -13 -5 -18 -3 -18 10 0 9 -4 13 -10 10
-6 -3 -10 1 -10 9 0 9 -4 16 -10 16 -5 0 -10 -4 -10 -10 0 -16 -18 -12 -40 10
-10 10 -22 15 -25 10 -3 -4 -1 -10 5 -12 6 -2 6 -9 0 -18 -8 -12 -13 -11 -33
9 -18 16 -27 19 -32 10 -5 -8 -28 -10 -70 -6 -50 3 -67 1 -79 -12 -15 -14 -18
-14 -26 -1 -6 8 -8 23 -6 33 5 22 -21 23 -46 1 -14 -13 -21 -14 -32 -5 -9 8
-36 10 -81 6 -37 -4 -65 -2 -62 2 3 5 -15 8 -40 6 -25 -2 -51 1 -58 7 -7 6
-17 10 -21 9 -11 -3 -45 11 -62 24 -7 5 -33 12 -57 14 -37 3 -45 1 -45 -13 0
-11 -6 -15 -17 -11 -53 16 -90 34 -105 52 -13 16 -19 18 -29 7 -14 -13 -59
-17 -59 -4 0 4 -27 8 -61 9 -33 1 -66 6 -74 13 -8 7 -15 7 -19 1 -4 -5 -21 -8
-39 -6 -17 3 -58 7 -89 10 -45 5 -58 10 -58 23 -1 15 -2 15 -11 -1 -6 -9 -15
-15 -20 -11 -5 3 -17 0 -26 -8 -10 -8 -18 -9 -20 -3 -1 6 -25 8 -53 7 -35 -3
-50 0 -50 8 0 9 -4 9 -12 3 -7 -6 -23 -9 -36 -8 -21 2 -21 1 -5 -17 19 -21 4
-24 -30 -6 -12 6 -35 12 -51 14 -16 1 -31 6 -35 12 -3 5 -15 8 -26 6 -10 -2
-24 1 -30 5 -5 5 -30 12 -55 16 -25 4 -55 13 -67 21 -12 8 -40 14 -62 14 -22
0 -42 4 -45 9 -10 15 -199 9 -212 -7 -8 -11 -15 -9 -35 12 -13 14 -31 26 -39
26 -8 0 -24 11 -34 25 -21 28 -38 32 -55 11 -14 -17 -54 -29 -45 -14 5 7 -2 9
-19 4 -15 -3 -29 -1 -32 5 -4 6 -14 8 -22 5 -8 -3 -26 0 -41 8 -15 8 -53 16
-84 19 -32 2 -64 9 -71 15 -7 6 -18 7 -26 3 -7 -4 -28 -6 -48 -4 -34 4 -35 3
-29 -23 l7 -27 -30 26 c-23 19 -47 27 -98 33 -37 4 -82 15 -99 25 -21 11 -46
16 -73 13 -23 -2 -41 1 -41 6 0 6 -9 10 -20 10 -11 0 -20 4 -20 10 0 10 -50 8
-68 -3 -5 -4 -12 -1 -15 7 -3 7 -24 16 -47 20 -23 4 -55 13 -71 22 -16 8 -29
10 -29 5 0 -5 6 -12 13 -15 6 -4 1 -4 -13 0 -14 3 -34 7 -45 10 -11 2 -32 7
-47 10 -20 4 -28 2 -28 -7 0 -7 -7 -3 -16 9 -9 13 -21 21 -28 19 -6 -3 -20 1
-31 9 -10 8 -27 14 -37 14 -10 0 -27 6 -38 13 -21 12 -31 5 -43 -28 -2 -5 -19
1 -37 14 -18 13 -30 19 -26 13 5 -8 -4 -9 -26 -5 -18 3 -49 6 -68 6 -19 0 -38
5 -42 11 -4 6 -42 12 -85 14 -43 2 -82 8 -88 13 -5 5 -17 9 -28 9 -10 0 -15 5
-12 10 4 7 -2 9 -19 4 -17 -4 -26 -2 -26 6 0 6 -10 11 -22 10 -13 -1 -25 -1
-28 0 -3 1 -41 3 -86 4 -44 2 -86 6 -93 10 -7 5 -37 10 -68 12 -31 2 -59 6
-62 9 -9 10 21 24 37 18 12 -5 12 -2 3 15 -7 12 -14 22 -17 22 -3 0 -2 -4 1
-10 3 -5 0 -10 -9 -10 -8 0 -16 6 -19 13 -3 9 -7 9 -18 0 -15 -12 -62 -2 -96
20 -10 7 -13 -105 -13 -547 l0 -556 2083 0 c1146 0 2087 3 2090 7 4 3 2 12 -4
20 -17 20 -1 16 23 -7 21 -19 36 -20 544 -20 408 0 524 3 528 13 5 9 7 9 12 0
4 -10 95 -13 404 -13 309 0 399 3 403 13 4 9 6 9 6 0 1 -10 232 -13 1121 -13
l1119 0 8 30 c10 37 29 35 25 -2 l-2 -28 620 0 620 0 0 3200 0 3200 -1369 0
-1370 0 -6 -23z m-295 -486 c0 -12 -26 -32 -33 -25 -6 7 14 33 26 34 4 0 7 -4
7 -9z m420 -131 c0 -10 8 -24 18 -29 17 -10 15 -12 -25 -16 -24 -2 -30 16 -17
49 9 22 24 20 24 -4z m-40 -60 c0 -5 -10 -10 -22 -9 -22 0 -22 1 -3 9 11 5 21
9 23 9 1 1 2 -3 2 -9z m-59 -66 c12 -33 7 -39 -19 -25 -17 9 -20 23 -13 49 4
12 24 -3 32 -24z m320 -75 c8 -17 8 -24 -3 -36 -19 -19 -48 -6 -48 21 0 41 32
50 51 15z m-221 -271 c22 -4 20 -5 -12 -12 -40 -9 -68 -3 -68 13 0 12 32 20
45 10 6 -4 21 -9 35 -11z m-780 -415 c0 -5 -4 -14 -9 -22 -8 -12 -12 -12 -25
-2 -23 19 -20 31 9 31 14 0 25 -3 25 -7z m-30 -223 c0 -5 -4 -10 -10 -10 -5 0
-10 5 -10 10 0 6 5 10 10 10 6 0 10 -4 10 -10z m700 -540 c0 -5 -4 -10 -10
-10 -5 0 -10 5 -10 10 0 6 5 10 10 10 6 0 10 -4 10 -10z m35 -70 c3 -5 1 -10
-4 -10 -6 0 -11 5 -11 10 0 6 2 10 4 10 3 0 8 -4 11 -10z m-275 -170 c0 -5 -7
-10 -15 -10 -8 0 -15 5 -15 10 0 6 7 10 15 10 8 0 15 -4 15 -10z m1620 -91 c0
-4 -9 -13 -19 -19 -24 -12 -38 4 -21 25 12 14 40 10 40 -6z m-878 -114 c0 -5
-5 -11 -11 -13 -6 -2 -11 4 -11 13 0 9 5 15 11 13 6 -2 11 -8 11 -13z m998
-34 c0 -22 -16 -36 -24 -22 -8 12 3 41 15 41 5 0 9 -9 9 -19z m710 -100 c0
-22 -15 -35 -30 -26 -7 4 -7 13 0 26 14 25 30 25 30 0z m-559 -61 c31 -17 23
-37 -16 -42 -28 -3 -36 0 -41 15 -10 31 22 45 57 27z m-403 -62 c18 -18 14
-38 -7 -38 -23 0 -35 15 -27 35 7 18 18 19 34 3z m-58 -42 c0 -3 -4 -8 -10
-11 -5 -3 -10 -1 -10 4 0 6 5 11 10 11 6 0 10 -2 10 -4z m450 -145 c-12 -23
-29 -35 -36 -28 -10 9 16 47 32 47 11 0 12 -4 4 -19z m734 -58 c21 -190 23
-233 15 -300 -4 -41 -5 -81 -2 -90 4 -11 3 -14 -5 -9 -8 5 -12 52 -13 149 0
78 -4 183 -7 234 -8 105 1 117 12 16z m22 -478 c-5 -77 -16 -82 -16 -7 0 35 4
62 10 62 6 0 9 -22 6 -55z m14 -150 c12 8 2 -97 -11 -109 -5 -6 -8 21 -8 75 1
46 4 72 6 56 2 -15 8 -25 13 -22z m-53 -182 c-3 -55 -15 -126 -27 -162 -11
-36 -23 -83 -26 -105 -13 -95 -28 -146 -72 -238 -43 -89 -62 -116 -62 -87 0 5
-6 7 -12 4 -7 -4 -3 2 8 12 22 18 60 107 74 173 18 77 52 208 70 266 10 34 21
95 25 135 7 81 11 99 21 99 4 0 4 -44 1 -97z m-7 -280 c-18 -82 -18 -83 -19
-31 -1 48 15 106 26 94 3 -3 0 -32 -7 -63z m-14 -111 c-3 -5 -7 -30 -11 -56
-3 -27 -10 -56 -16 -65 -8 -14 -9 -13 -5 4 2 11 8 44 11 73 4 28 11 52 17 52
5 0 7 -4 4 -8z m-159 -264 c-3 -8 -6 -5 -6 6 -1 11 2 17 5 13 3 -3 4 -12 1
-19z m-137 -338 c0 -5 -5 -10 -11 -10 -5 0 -7 5 -4 10 3 6 8 10 11 10 2 0 4
-4 4 -10z m-70 -275 c-7 -8 -17 -15 -23 -15 -5 0 -2 9 8 20 21 23 35 19 15 -5z
m-120 -95 c-25 -34 -40 -46 -40 -29 0 13 41 59 53 59 5 0 -1 -13 -13 -30z
m-100 -95 c-7 -9 -15 -13 -19 -10 -3 3 1 10 9 15 21 14 24 12 10 -5z m-7580
-26 c0 -5 4 -8 9 -4 13 8 22 -10 15 -29 -7 -19 -38 -22 -31 -3 2 6 0 20 -5 30
-5 11 -5 17 2 17 5 0 10 -5 10 -11z m117 -45 c-3 -3 -12 -4 -19 -1 -8 3 -5 6
6 6 11 1 17 -2 13 -5z m77 -35 c-6 -11 -24 -2 -24 11 0 5 7 7 15 4 8 -4 12
-10 9 -15z m616 -109 c0 -5 -2 -10 -4 -10 -3 0 -8 5 -11 10 -3 6 -1 10 4 10 6
0 11 -4 11 -10z m7380 -10 c0 -5 -4 -10 -10 -10 -5 0 -10 5 -10 10 0 6 5 10
10 10 6 0 10 -4 10 -10z m210 0 c0 -5 -4 -10 -10 -10 -5 0 -10 5 -10 10 0 6 5
10 10 10 6 0 10 -4 10 -10z m-895 -139 c-7 -23 -25 -29 -25 -8 0 14 21 39 28
33 2 -3 1 -14 -3 -25z m272 3 c-9 -9 -28 6 -21 18 4 6 10 6 17 -1 6 -6 8 -13
4 -17z m543 -15 c0 -18 4 -19 38 -13 20 4 42 14 49 23 10 14 14 13 32 -9 12
-14 19 -32 17 -41 -2 -9 1 -23 5 -30 8 -11 15 -7 34 16 20 24 22 31 10 33 -19
4 -19 16 -2 31 11 8 18 6 32 -8 16 -19 15 -22 -31 -85 -26 -35 -52 -62 -56
-60 -4 3 -3 14 2 25 9 16 7 19 -15 19 -16 0 -25 6 -25 16 0 9 -9 18 -19 21
-11 3 -22 15 -25 26 -5 19 -8 20 -16 7 -14 -21 -12 -40 3 -40 7 0 23 -11 35
-24 l21 -25 -21 -26 c-11 -14 -17 -32 -14 -40 3 -9 0 -12 -10 -8 -7 3 -14 16
-14 29 0 24 -20 35 -20 12 0 -7 -16 -24 -35 -38 -20 -14 -45 -40 -56 -58 -12
-18 -23 -31 -26 -28 -3 2 10 26 29 51 18 26 39 58 46 71 7 13 17 24 23 24 5 0
9 9 9 20 0 24 -8 25 -32 3 -17 -15 -18 -15 -18 11 0 19 7 29 25 36 14 5 25 14
25 20 0 12 -34 -3 -63 -28 -22 -19 -30 -12 -22 21 4 15 16 28 30 31 13 3 27
15 30 26 8 24 25 17 25 -11z m-752 -34 c0 -14 -4 -28 -9 -31 -10 -6 -12 17 -3
40 9 22 12 20 12 -9z m-167 -18 c-13 -13 -26 -3 -16 12 3 6 11 8 17 5 6 -4 6
-10 -1 -17z m49 8 c0 -8 -4 -15 -10 -15 -5 0 -10 7 -10 15 0 8 5 15 10 15 6 0
10 -7 10 -15z m204 -1 c4 -10 1 -14 -6 -12 -15 5 -23 28 -10 28 5 0 13 -7 16
-16z m-347 -11 c-9 -9 -20 -13 -24 -9 -4 4 -1 11 7 16 25 16 35 11 17 -7z
m433 -9 c0 -8 -4 -12 -10 -9 -5 3 -10 10 -10 16 0 5 5 9 10 9 6 0 10 -7 10
-16z m-500 -14 c0 -5 -4 -10 -10 -10 -5 0 -10 5 -10 10 0 6 5 10 10 10 6 0 10
-4 10 -10z m-123 -22 c-3 -8 -6 -5 -6 6 -1 11 2 17 5 13 3 -3 4 -12 1 -19z
m713 12 c0 -5 -5 -10 -11 -10 -5 0 -7 5 -4 10 3 6 8 10 11 10 2 0 4 -4 4 -10z
m355 -19 c-3 -11 3 -36 15 -58 24 -46 25 -53 4 -53 -10 0 -14 5 -10 15 10 26
-23 29 -49 5 -34 -32 -41 -20 -10 14 17 18 25 39 25 62 0 24 4 34 16 34 11 0
13 -6 9 -19z m-1473 -23 c-7 -7 -12 -8 -12 -2 0 14 12 26 19 19 2 -3 -1 -11
-7 -17z m1814 -46 c-12 -11 -18 7 -10 30 l8 23 4 -23 c2 -13 1 -26 -2 -30z
m-1351 28 c-3 -5 -15 -10 -26 -10 -11 0 -17 5 -14 10 3 6 15 10 26 10 11 0 17
-4 14 -10z m1275 -41 c0 -11 -11 -11 -29 0 -7 5 -10 14 -6 20 5 9 10 9 21 0 8
-6 14 -15 14 -20z m-1360 11 c0 -5 -8 -10 -17 -10 -15 0 -16 2 -3 10 19 12 20
12 20 0z m-130 -4 c0 -11 -19 -15 -25 -6 -3 5 1 10 9 10 9 0 16 -2 16 -4z
m295 -66 c-6 -9 -9 -9 -16 1 -10 17 0 34 13 21 6 -6 7 -16 3 -22z m205 8 c0
-16 -3 -19 -11 -11 -6 6 -8 16 -5 22 11 17 16 13 16 -11z m-1093 -30 c-3 -7
-5 -2 -5 12 0 14 2 19 5 13 2 -7 2 -19 0 -25z m1648 -17 c-3 -12 -11 -21 -16
-21 -10 0 -12 43 -2 54 12 12 25 -11 18 -33z m105 -11 c0 -5 -4 -10 -10 -10
-5 0 -10 5 -10 10 0 6 5 10 10 10 6 0 10 -4 10 -10z m-4392 -11 c-2 -6 -8 -10
-13 -10 -5 0 -11 4 -13 10 -2 6 4 11 13 11 9 0 15 -5 13 -11z m882 -11 c0 -6
-6 -5 -15 2 -8 7 -15 14 -15 16 0 2 7 1 15 -2 8 -4 15 -11 15 -16z m3330 -4
c0 -8 -4 -12 -10 -9 -5 3 -10 10 -10 16 0 5 5 9 10 9 6 0 10 -7 10 -16z
m-3290 -8 c0 -3 -4 -8 -10 -11 -5 -3 -10 -1 -10 4 0 6 5 11 10 11 6 0 10 -2
10 -4z m3560 -103 c-9 -14 -10 -10 -6 22 3 22 7 49 8 60 1 11 3 1 5 -22 2 -24
-1 -51 -7 -60z m-3890 73 c0 -8 -4 -17 -9 -21 -12 -7 -24 12 -16 25 9 15 25
12 25 -4z m310 -7 c0 -5 -7 -9 -15 -9 -15 0 -20 12 -9 23 8 8 24 -1 24 -14z
m210 5 c0 -17 -27 -25 -33 -9 -7 16 -2 22 18 22 8 0 15 -6 15 -13z m-140 -16
c0 -19 -2 -20 -10 -8 -13 19 -13 30 0 30 6 0 10 -10 10 -22z m2520 -58 c0 -10
-7 -7 -20 10 -11 14 -20 32 -20 40 0 10 7 7 20 -10 11 -14 20 -32 20 -40z
m-2439 3 c-8 -15 -10 -15 -11 -2 0 17 10 32 18 25 2 -3 -1 -13 -7 -23z m-136
7 c3 -5 1 -10 -4 -10 -6 0 -11 5 -11 10 0 6 2 10 4 10 3 0 8 -4 11 -10z"/>
<path d="M6420 6177 c0 -22 24 -67 36 -67 16 0 40 30 25 31 -6 1 -17 2 -23 3
-7 0 -14 11 -16 24 -4 23 -22 31 -22 9z"/>
<path d="M6507 6140 c-23 -27 -24 -33 -14 -66 10 -34 12 -35 21 -15 5 11 15
21 21 21 16 0 28 45 20 71 -9 26 -19 24 -48 -11z"/>
<path d="M6385 5440 c3 -5 8 -10 11 -10 2 0 4 5 4 10 0 6 -5 10 -11 10 -5 0
-7 -4 -4 -10z"/>
<path d="M6174 5333 c-4 -10 -8 -22 -9 -28 0 -5 -3 -15 -7 -20 -4 -6 1 -16 10
-22 15 -9 17 -4 18 38 0 27 -1 49 -2 49 -1 0 -5 -8 -10 -17z"/>
<path d="M6063 5134 c-9 -23 13 -40 32 -24 20 17 19 27 -6 33 -13 3 -22 0 -26
-9z"/>
<path d="M2 4782 c-2 -20 3 -39 10 -43 10 -7 10 -9 1 -9 -10 0 -13 -124 -13
-584 0 -530 2 -584 16 -590 9 -4 22 -2 28 3 15 12 68 17 84 8 6 -5 12 -6 12
-2 0 3 9 1 20 -5 11 -6 18 -15 15 -21 -13 -19 6 -27 42 -17 25 7 49 6 82 -2
99 -26 111 -31 111 -50 0 -10 5 -22 10 -25 6 -3 10 -15 10 -27 0 -13 5 -18 14
-15 10 4 16 -2 18 -20 2 -15 9 -29 17 -31 8 -3 11 0 7 7 -7 11 -2 10 104 -37
47 -20 136 -103 146 -134 3 -10 10 -18 15 -18 5 0 9 -8 9 -19 0 -24 37 -71 57
-71 11 0 14 -6 10 -21 -9 -32 3 -79 20 -79 8 0 13 -6 11 -12 -3 -7 1 -19 9
-26 19 -19 16 -29 -13 -48 -14 -9 -31 -29 -39 -44 -13 -26 -13 -28 24 -48 21
-12 50 -22 64 -22 32 0 86 21 70 27 -9 3 -9 13 1 41 7 20 11 43 9 50 -3 8 5
12 24 12 15 1 39 7 52 14 13 7 33 11 43 8 18 -4 19 -3 7 16 -11 17 -11 24 -1
34 13 13 16 48 4 48 -4 0 -12 -4 -18 -10 -11 -11 -54 -2 -54 11 0 5 5 9 10 9
21 0 51 37 44 53 -7 20 -18 21 -45 7 -12 -7 -19 -7 -19 -1 0 10 39 27 54 23 8
-3 6 4 -10 44 -3 6 9 17 25 24 31 12 33 16 34 58 0 26 37 31 57 7 7 -8 17 -12
22 -9 6 4 5 9 -2 14 -17 11 -5 40 16 40 9 0 22 7 29 16 10 15 13 15 28 -1 15
-15 18 -15 23 -1 3 9 12 16 20 16 21 0 17 41 -5 47 -10 2 -23 15 -29 27 -9 21
-109 79 -129 75 -4 -1 -18 -1 -30 0 -25 1 -32 21 -8 21 17 0 21 45 5 55 -5 3
-10 11 -10 16 0 6 5 7 11 3 7 -4 9 0 5 14 -5 13 -1 22 10 26 29 11 9 16 -24 7
-25 -8 -32 -7 -32 5 0 8 -5 14 -10 14 -7 0 -7 -7 1 -21 9 -17 8 -23 -2 -30 -8
-5 -20 -7 -27 -4 -8 3 -21 5 -29 5 -11 0 -14 7 -9 26 7 26 6 26 -29 20 -20 -4
-43 -10 -51 -13 -8 -3 -14 0 -14 6 0 6 -6 11 -13 11 -18 0 -15 42 4 49 24 10
16 45 -18 75 -18 15 -33 33 -33 40 0 6 -7 19 -14 29 -11 15 -19 16 -34 8 -23
-12 -42 3 -42 35 0 14 -8 25 -20 29 -11 4 -18 10 -15 15 3 5 -4 15 -16 24 -19
13 -26 13 -49 1 -15 -8 -35 -12 -46 -11 -10 2 -23 -2 -27 -8 -9 -11 -6 1 8 36
5 12 2 20 -9 24 -25 9 -44 -12 -38 -44 l5 -27 -21 20 c-12 11 -28 25 -36 32
-7 7 -16 17 -18 24 -3 9 -12 7 -31 -6 -25 -16 -30 -16 -59 -2 -18 8 -50 20
-70 25 -20 6 -43 16 -51 23 -12 12 -11 17 6 41 18 24 25 27 59 22 34 -6 38 -4
38 15 0 17 5 21 18 17 60 -18 72 -18 66 -2 -6 14 -2 15 37 0 24 -8 60 -17 79
-20 46 -8 79 -26 135 -74 25 -22 53 -40 62 -40 8 0 30 -7 49 -16 31 -15 49
-41 68 -98 10 -31 39 1 32 36 -4 21 -2 28 10 28 8 0 22 6 29 13 39 34 48 39
70 35 14 -3 26 0 29 7 3 8 -2 11 -15 8 -17 -5 -22 4 -18 33 0 4 -5 11 -13 16
-10 7 -10 11 -1 15 19 7 16 23 -4 24 -12 0 -13 2 -5 6 7 3 19 0 26 -7 11 -8
16 -8 21 0 11 17 5 19 -91 26 -77 5 -100 11 -171 46 -46 22 -83 43 -83 48 0
13 42 19 88 14 38 -4 43 -3 40 12 -2 12 -18 22 -46 29 -24 5 -49 18 -56 28 -7
9 -17 17 -22 17 -5 0 -38 27 -74 60 -35 33 -80 65 -100 71 -19 6 -39 15 -44
19 -5 5 -14 6 -21 3 -17 -6 -65 25 -65 42 0 23 -35 43 -93 54 -31 6 -66 15
-76 21 -14 7 -21 6 -24 -3 -3 -9 -9 -7 -24 6 -11 9 -27 17 -36 17 -18 0 -94
49 -119 77 -22 24 -14 95 9 86 13 -5 13 -2 -1 20 -27 40 -42 40 -44 -1z m28 8
c0 -5 -2 -10 -4 -10 -3 0 -8 5 -11 10 -3 6 -1 10 4 10 6 0 11 -4 11 -10z m135
-412 c14 -6 25 -15 25 -20 0 -4 0 -11 0 -15 0 -9 -90 -12 -90 -4 0 3 -3 16 -6
29 -5 19 -2 22 19 22 14 0 38 -5 52 -12z m-114 -51 c-13 -13 -26 -3 -16 12 3
6 11 8 17 5 6 -4 6 -10 -1 -17z m1179 -917 c0 -5 -4 -10 -10 -10 -5 0 -10 5
-10 10 0 6 5 10 10 10 6 0 10 -4 10 -10z m47 -46 c-3 -3 -12 -4 -19 -1 -8 3
-5 6 6 6 11 1 17 -2 13 -5z m-247 -304 c0 -5 -4 -10 -10 -10 -5 0 -10 5 -10
10 0 6 5 10 10 10 6 0 10 -4 10 -10z"/>
<path d="M585 4010 c3 -5 11 -10 16 -10 6 0 7 5 4 10 -3 6 -11 10 -16 10 -6 0
-7 -4 -4 -10z"/>
<path d="M1125 3990 c-19 -8 -19 -9 3 -9 12 -1 22 4 22 9 0 6 -1 10 -2 9 -2 0
-12 -4 -23 -9z"/>
<path d="M0 3355 c0 -73 1 -75 24 -75 14 0 28 5 31 10 7 12 -18 40 -37 41 -7
0 0 7 17 14 19 9 24 14 13 15 -21 0 -23 11 -5 29 10 10 8 15 -7 27 -11 8 -23
14 -28 14 -4 0 -8 -34 -8 -75z"/>
<path d="M108 3393 c-34 -9 -20 -33 18 -33 28 0 35 3 32 17 -3 19 -21 24 -50
16z"/>
<path d="M0 2545 l0 -651 22 -1 c28 -2 39 -22 26 -46 -6 -12 -17 -17 -29 -14
-18 5 -19 -3 -19 -180 0 -170 1 -184 17 -181 22 3 78 -18 115 -44 l28 -19 0
23 c0 13 4 19 8 13 12 -17 51 -35 56 -27 3 4 1 14 -5 22 -5 8 -9 24 -9 35 1
17 2 18 13 5 7 -8 23 -14 36 -12 15 2 21 0 17 -7 -5 -7 2 -11 18 -11 13 0 27
6 29 13 3 7 6 5 6 -5 1 -19 21 -25 21 -7 0 8 5 7 16 -2 11 -9 14 -23 10 -48
-6 -41 16 -84 51 -100 32 -15 80 -14 87 2 5 10 7 10 12 0 7 -16 50 -17 60 -1
5 8 2 9 -9 5 -9 -3 -19 -1 -23 5 -4 7 -3 8 4 4 7 -4 12 -3 12 3 0 5 -4 13 -10
16 -20 13 -10 54 19 76 l28 21 -17 46 c-14 37 -24 48 -46 53 -48 11 -76 10
-68 -2 4 -8 0 -8 -15 0 -25 14 -26 24 -6 41 8 7 15 17 15 22 0 5 -10 0 -22
-12 -31 -29 -68 -27 -68 4 0 14 -4 28 -10 31 -5 3 -10 11 -10 16 0 6 5 7 10 4
18 -11 11 32 -9 56 l-19 24 5 -26 c4 -21 0 -27 -19 -32 -36 -10 -37 -9 -27 26
5 17 7 43 4 57 -4 20 2 33 31 60 33 31 45 35 133 47 53 7 104 13 114 14 9 0
17 3 17 7 0 15 60 33 82 26 13 -4 28 -7 34 -6 6 1 16 -9 22 -22 11 -25 21 -27
106 -27 15 0 34 5 41 11 7 6 23 9 36 8 18 -2 25 2 27 19 3 17 -6 28 -32 44
-20 12 -36 24 -36 29 0 4 18 20 40 35 50 35 52 68 5 73 -16 2 -38 12 -48 23
-10 10 -24 19 -32 19 -21 0 -65 22 -65 32 0 5 28 7 63 4 34 -3 52 -3 40 0 -13
3 -22 12 -21 22 5 65 -21 78 -103 52 -34 -11 -70 -18 -80 -15 -23 8 -84 58
-85 70 -3 54 -36 84 -87 76 -24 -3 -22 34 3 59 11 11 32 20 48 20 50 0 212 24
212 32 0 4 -16 14 -35 22 -29 13 -35 20 -35 46 0 37 -35 71 -96 95 -33 13 -43
22 -48 46 -3 17 -3 41 0 54 8 31 -33 57 -48 31 -11 -20 -25 -20 -62 -1 -18 10
-43 13 -65 10 -24 -3 -30 -2 -17 3 18 8 18 9 2 15 -9 4 -22 20 -27 37 -8 22
-17 30 -34 30 -13 0 -27 -4 -30 -10 -3 -5 -12 -10 -19 -10 -14 0 -56 37 -56
49 0 8 96 24 135 22 11 -1 45 0 75 1 30 0 100 2 155 2 93 1 125 9 125 32 0 17
-52 52 -86 59 -19 3 -38 13 -41 21 -3 7 -16 14 -30 14 -14 0 -43 10 -65 22
-34 19 -43 21 -70 10 -27 -10 -36 -9 -56 4 -18 12 -21 18 -12 24 7 5 9 16 5
30 -5 17 -13 21 -33 17 -16 -3 -45 4 -74 18 -26 13 -57 21 -68 18 -11 -3 -34
0 -52 6 -23 8 -34 8 -36 1 -3 -7 -9 -7 -20 2 -12 11 -16 11 -20 0 -3 -10 -8
-8 -18 5 -11 15 -13 -80 -14 -632z m173 -95 c15 -12 40 -20 64 -20 47 0 63
-14 63 -55 0 -40 -31 -60 -92 -60 -27 0 -48 3 -48 7 0 4 -15 14 -32 23 -18 8
-46 27 -63 41 -23 19 -27 27 -15 31 8 3 23 17 35 29 25 29 54 30 88 4z m275
-60 c-19 -26 -38 -39 -38 -26 0 24 23 56 40 56 20 0 20 0 -2 -30z m-128 -566
c0 -3 -12 -25 -26 -49 -14 -25 -23 -49 -19 -55 7 -12 -59 -93 -79 -96 -9 -1
-16 12 -19 38 -3 22 -12 47 -21 57 -9 10 -16 25 -16 34 0 20 -16 22 -27 4 -12
-21 -43 -29 -43 -12 0 8 17 22 38 32 20 9 40 21 44 27 10 15 168 34 168 20z
m-154 -311 c-11 -11 -19 6 -11 24 8 17 8 17 12 0 3 -10 2 -21 -1 -24z m308
-58 c-8 -19 -46 -43 -61 -38 -10 4 -10 10 -2 25 6 12 7 18 1 14 -5 -3 -12 1
-15 8 -7 19 20 25 55 13 17 -5 25 -14 22 -22z"/>
<path d="M9191 2644 c0 -11 3 -14 6 -6 3 7 2 16 -1 19 -3 4 -6 -2 -5 -13z"/>
<path d="M9076 2465 c-21 -7 -45 -11 -53 -8 -8 3 -27 -4 -42 -15 -38 -27 -101
-53 -113 -46 -5 3 -15 -1 -21 -10 -7 -9 -39 -23 -72 -31 -33 -9 -63 -21 -66
-27 -10 -16 -69 -19 -69 -5 0 7 -5 5 -10 -3 -6 -10 -10 -11 -10 -2 0 17 -35
15 -51 -4 -7 -8 -21 -13 -31 -11 -19 5 -46 -29 -33 -41 4 -4 34 -12 68 -19 73
-13 94 -18 126 -31 l25 -9 -27 -17 c-29 -20 -49 -14 -41 12 3 9 -1 7 -8 -6 -8
-12 -17 -20 -20 -17 -7 8 -58 -16 -58 -27 0 -4 -5 -8 -12 -8 -11 0 -87 -47
-98 -61 -3 -4 -26 -16 -52 -28 -26 -11 -53 -30 -61 -41 -13 -19 -16 -20 -30
-5 -9 8 -18 11 -21 6 -4 -5 -21 -13 -39 -16 -46 -10 -137 -53 -137 -65 0 -5
21 -10 48 -10 69 -1 185 -42 189 -68 2 -17 -4 -22 -30 -27 -17 -3 -45 -2 -61
3 -21 6 -51 0 -115 -21 -128 -42 -143 -49 -137 -70 4 -18 -32 -34 -57 -24 -7
3 -24 -4 -38 -14 -13 -10 -34 -19 -46 -19 -12 0 -32 -10 -45 -21 -13 -12 -41
-23 -63 -25 -27 -2 -45 -11 -59 -29 -19 -23 -26 -25 -70 -21 -27 3 -56 0 -66
-6 -16 -10 -16 -14 -3 -46 8 -19 13 -36 11 -38 -2 -2 -29 -10 -61 -18 -149
-39 -160 -73 -30 -95 104 -17 155 -30 149 -40 -3 -4 -30 -14 -61 -21 -32 -8
-66 -24 -80 -38 -19 -19 -30 -22 -53 -17 -21 4 -40 0 -63 -14 l-34 -21 40 -1
c39 -1 39 -1 11 -9 -16 -5 -33 -7 -38 -4 -4 3 -18 -2 -30 -10 -31 -22 -45 -20
-23 4 32 35 6 22 -40 -21 -25 -23 -45 -50 -45 -60 0 -10 -4 -21 -10 -24 -5 -3
-10 -13 -10 -22 0 -11 6 -14 25 -9 16 4 25 2 25 -5 0 -8 17 -9 58 -4 31 5 85
9 119 10 61 1 62 1 69 -28 8 -37 30 -45 55 -18 16 17 24 20 35 10 8 -6 14 -20
14 -30 0 -11 5 -19 10 -19 6 0 10 11 10 25 0 18 7 28 24 35 14 5 29 18 35 28
7 14 22 19 55 19 57 1 101 27 113 67 10 37 67 70 95 55 9 -5 33 -9 53 -9 46 0
135 -70 135 -106 0 -13 6 -27 14 -31 20 -12 26 -103 6 -103 -6 0 -6 9 0 26 10
25 9 26 -15 22 -16 -3 -29 0 -33 9 -7 11 -14 12 -36 3 -36 -13 -36 -13 -29 7
6 17 5 17 -14 0 -16 -14 -26 -16 -47 -7 -34 13 -39 13 -31 0 9 -15 -15 -42
-32 -36 -8 3 -13 -2 -13 -13 0 -20 -27 -48 -36 -38 -13 12 19 79 42 89 13 6
24 15 24 19 0 12 -32 -2 -52 -22 -9 -9 -31 -20 -48 -24 -21 -5 -30 -13 -32
-28 0 -12 -1 -29 -2 -37 -1 -8 -18 -26 -39 -39 -34 -22 -37 -28 -31 -55 8 -38
9 -40 26 -30 23 14 48 11 53 -7 5 -16 9 -17 28 -6 12 7 27 18 33 26 8 10 13
11 18 2 5 -8 13 -8 28 0 18 10 19 8 13 -13 -3 -12 -3 -18 2 -13 4 6 21 16 38
23 25 12 31 11 41 -2 15 -22 23 -20 57 12 20 18 31 23 34 15 3 -7 13 -13 23
-13 10 0 20 -6 23 -12 5 -17 200 81 256 128 33 29 39 39 30 50 -6 8 -16 11
-22 7 -5 -3 -7 -1 -3 5 11 18 -14 25 -46 11 -23 -9 -32 -10 -37 0 -6 9 -11 8
-21 -4 -7 -8 -17 -15 -23 -15 -6 0 -19 -8 -30 -17 -20 -18 -20 -17 -14 25 4
31 2 42 -8 42 -7 0 -21 20 -31 45 -13 36 -15 51 -6 70 11 23 17 25 74 23 44
-1 71 -7 91 -20 20 -15 31 -17 41 -9 15 13 36 -4 36 -29 0 -8 9 -23 20 -33 11
-9 23 -31 27 -47 3 -17 10 -30 15 -30 5 0 7 12 4 27 -16 83 -17 101 -6 108 7
4 21 -2 34 -14 21 -21 21 -22 3 -54 -24 -43 159 149 227 238 29 39 61 85 70
104 l18 33 -23 -16 c-13 -9 -30 -16 -37 -16 -7 0 -19 -6 -26 -12 -50 -49 -67
-58 -85 -48 -13 7 -17 16 -14 31 4 14 2 20 -4 16 -7 -4 -11 13 -12 48 -1 50 1
56 33 80 19 15 58 30 92 36 32 6 63 15 68 20 22 20 38 10 31 -21 -4 -16 -4
-30 0 -30 16 0 126 316 140 400 4 25 31 106 60 180 54 138 75 220 75 297 0 48
-4 50 -64 28z m-466 -165 c0 -5 -7 -10 -15 -10 -8 0 -15 5 -15 10 0 6 7 10 15
10 8 0 15 -4 15 -10z m414 -74 c42 -1 45 -17 7 -38 -24 -14 -31 -15 -31 -4 0
7 -6 19 -13 25 -10 8 -20 4 -42 -19 -22 -23 -32 -27 -46 -20 -11 7 -20 7 -24
0 -3 -5 -24 -10 -46 -10 -21 0 -39 -4 -39 -10 0 -15 -27 -12 -33 4 -6 15 27
33 47 27 6 -1 19 2 30 8 35 18 140 48 150 43 5 -3 23 -5 40 -6z m-963 -676
c16 0 29 -4 29 -10 0 -5 -6 -7 -14 -4 -8 3 -17 0 -21 -6 -5 -7 4 -10 27 -9 58
4 90 0 86 -13 -2 -6 -13 -12 -24 -14 -10 -1 -39 -5 -64 -9 -25 -4 -64 -8 -87
-8 -28 -1 -43 -6 -43 -15 0 -7 -8 -15 -17 -18 -44 -14 -82 -40 -92 -61 -14
-31 -27 -29 -39 6 -21 60 60 140 162 161 23 4 47 6 54 4 8 -2 27 -4 43 -4z
m627 -261 c-2 -6 -8 -10 -13 -10 -5 0 -11 4 -13 10 -2 6 4 11 13 11 9 0 15 -5
13 -11z m-550 -64 c-3 -3 -9 2 -12 12 -6 14 -5 15 5 6 7 -7 10 -15 7 -18z
m207 -235 c3 -5 -1 -10 -10 -10 -9 0 -13 5 -10 10 3 6 8 10 10 10 2 0 7 -4 10
-10z m-375 -30 c0 -5 -4 -10 -10 -10 -5 0 -10 5 -10 10 0 6 5 10 10 10 6 0 10
-4 10 -10z m-130 -15 c-7 -9 -15 -13 -17 -11 -7 7 7 26 19 26 6 0 6 -6 -2 -15z"/>
<path d="M8825 2410 c-3 -6 1 -7 9 -4 18 7 21 14 7 14 -6 0 -13 -4 -16 -10z"/>
<path d="M4002 2288 c-7 -7 -27 -11 -46 -10 -19 1 -37 -2 -41 -8 -12 -19 -106
-61 -124 -55 -11 3 -26 -4 -41 -20 -13 -14 -30 -25 -38 -25 -11 0 -13 -9 -9
-39 6 -44 -13 -71 -50 -71 -11 0 -26 -7 -33 -15 -7 -8 -21 -15 -31 -15 -14 0
-19 -7 -19 -27 -1 -24 -2 -25 -11 -11 -15 26 -79 54 -88 39 -12 -19 0 -73 14
-67 23 8 75 -17 75 -36 0 -20 38 -33 69 -23 17 5 23 1 31 -21 13 -32 12 -33
-34 -41 -29 -4 -40 -2 -51 13 -13 16 -14 17 -9 2 6 -18 -6 -24 -20 -11 -13 13
-51 10 -62 -5 -7 -10 -18 -13 -30 -8 -10 4 -20 6 -20 4 -1 -2 -12 6 -24 17
-14 12 -24 15 -28 9 -4 -6 -29 -14 -57 -17 -27 -3 -58 -9 -67 -12 -25 -10 -37
24 -13 37 9 6 26 19 37 30 17 17 24 18 45 9 19 -9 27 -8 40 4 9 10 23 13 36 9
20 -6 19 -6 -2 25 -12 17 -27 31 -32 31 -5 0 -9 7 -9 15 0 44 -126 36 -157
-11 -11 -17 -25 -24 -47 -24 -41 0 -56 -16 -56 -60 0 -20 -5 -41 -12 -48 -9
-9 -7 -12 11 -12 12 0 19 -4 16 -10 -3 -5 -14 -10 -24 -10 -9 0 -27 -9 -39
-20 -12 -11 -28 -20 -36 -20 -16 0 -52 -41 -62 -72 -4 -13 1 -30 13 -47 11
-14 22 -45 25 -68 5 -38 3 -45 -27 -75 -18 -18 -48 -44 -66 -58 -18 -14 -38
-29 -45 -35 -13 -10 -84 -113 -84 -122 0 -3 15 -2 33 1 25 5 38 1 54 -13 15
-14 23 -17 32 -8 8 8 11 8 11 -2 0 -7 4 -10 9 -7 4 3 17 -4 27 -15 15 -16 20
-18 29 -7 6 7 30 13 58 13 48 1 55 -3 37 -21 -7 -7 2 -20 29 -42 38 -31 39
-31 45 -10 3 12 1 27 -5 34 -7 8 -7 14 1 19 13 8 30 -3 30 -21 0 -16 16 -19
25 -4 4 7 13 7 26 0 25 -14 44 -3 28 16 -6 8 -18 14 -25 14 -8 0 -14 4 -14 8
0 5 13 9 30 9 16 0 27 -3 25 -7 -3 -4 35 -5 83 -3 121 6 139 9 202 28 91 28
100 29 119 11 14 -13 31 -16 69 -12 44 4 53 1 65 -17 12 -19 12 -24 1 -35 -8
-7 -14 -17 -14 -23 0 -16 31 -23 40 -9 5 9 9 9 14 1 4 -6 19 -17 34 -25 25
-13 27 -12 29 8 3 46 21 73 54 80 18 3 34 4 37 2 2 -3 -9 -23 -26 -44 -29 -35
-30 -42 -21 -75 8 -30 15 -37 35 -37 38 0 42 -28 8 -55 -29 -24 -72 -40 -81
-31 -3 2 -11 22 -18 43 l-13 38 -7 -27 c-8 -31 -20 -36 -29 -12 -5 14 -8 14
-28 0 -43 -30 -51 -22 -45 45 l7 60 -28 -3 c-15 -1 -46 4 -70 11 -33 11 -48
12 -68 3 -45 -21 -134 -8 -160 24 -10 12 -24 13 -89 5 -5 -1 -3 -6 5 -11 13
-8 12 -10 -5 -12 -11 -1 -29 -2 -40 -3 -11 -1 -38 -3 -61 -4 -30 -1 -49 -9
-74 -31 -18 -16 -37 -30 -42 -30 -5 0 -14 -11 -20 -25 -6 -13 -19 -27 -28 -30
-23 -7 -37 -85 -18 -96 7 -5 35 -8 63 -8 27 0 74 -5 104 -10 29 -6 75 -11 101
-11 43 0 48 2 43 20 -7 28 31 27 51 -1 12 -18 19 -20 43 -11 21 7 35 6 56 -6
15 -9 27 -19 27 -23 0 -4 21 -17 47 -30 42 -20 52 -21 102 -11 94 18 115 24
141 42 24 17 40 18 167 8 18 -2 38 -9 44 -16 7 -6 19 -12 26 -12 7 0 13 -4 13
-8 0 -11 59 -34 97 -38 31 -3 59 16 35 24 -7 2 -12 13 -12 24 0 10 -11 34 -25
52 -14 18 -25 38 -25 45 0 19 -65 76 -83 73 -22 -4 -5 64 22 89 22 21 41 25
41 9 0 -12 27 -14 33 -2 3 4 3 20 0 35 -5 24 -7 26 -18 11 -9 -13 -16 -14 -33
-5 -16 8 -28 9 -42 1 -18 -10 -20 -8 -20 23 0 33 3 35 46 46 25 7 54 9 65 6
13 -4 19 -2 19 8 0 14 50 31 60 20 8 -8 -52 -54 -65 -50 -6 3 -18 2 -25 -3 -9
-5 -4 -12 16 -22 16 -7 30 -20 30 -28 1 -8 2 -19 3 -23 0 -5 11 -1 22 7 19 13
25 13 50 1 15 -8 29 -20 31 -26 2 -6 21 -12 41 -14 38 -4 67 -19 67 -36 0 -5
-7 -6 -15 -3 -21 8 -19 -9 3 -29 22 -20 42 -6 42 30 0 28 23 30 69 7 23 -12
36 -13 43 -6 14 14 49 -3 43 -21 -3 -6 5 -23 16 -37 20 -24 21 -24 16 -2 -9
39 10 24 27 -23 10 -25 22 -43 26 -40 10 6 34 -34 26 -42 -3 -4 -14 1 -25 11
-18 16 -19 16 -25 -9 -4 -14 -23 -35 -44 -49 -20 -13 -45 -32 -54 -42 -15 -17
-15 -21 -2 -39 31 -42 256 -12 240 32 -4 9 -4 47 0 84 6 58 9 68 27 71 30 4
34 28 4 28 -21 0 -24 4 -20 23 8 31 23 47 44 47 24 0 35 -20 18 -32 -10 -7 -9
-8 6 -3 11 4 57 8 103 10 76 4 89 1 165 -31 45 -19 86 -39 90 -43 12 -12 -123
-140 -175 -164 -26 -12 -47 -24 -48 -27 0 -3 24 -7 54 -8 37 -2 59 2 69 13 12
11 17 12 20 2 4 -9 6 -9 6 1 1 11 36 62 98 141 8 10 14 -11 25 -90 7 -51 19
-93 30 -108 11 -14 18 -18 18 -10 0 10 3 10 8 3 4 -6 16 -14 28 -18 20 -6 21
-3 17 36 -5 48 -23 114 -48 172 -19 46 -7 91 29 102 11 3 28 12 36 19 8 7 32
18 53 25 21 7 54 25 72 42 26 22 38 27 52 20 71 -37 103 -45 142 -34 21 7 50
12 65 12 15 0 29 7 32 15 5 11 16 13 46 9 34 -6 43 -3 69 22 34 33 36 51 9
101 -11 21 -20 48 -20 62 0 13 -5 41 -11 62 -10 31 -9 40 4 53 9 9 20 16 25
16 17 0 22 44 7 53 -8 4 -15 15 -15 23 0 8 -7 17 -15 20 -8 4 -15 15 -15 25 0
11 -6 22 -14 25 -8 3 -18 19 -21 36 -4 16 -13 32 -21 35 -8 3 -14 12 -14 19 0
8 -20 27 -45 42 -24 15 -45 33 -45 40 0 6 -6 12 -14 12 -8 0 -21 9 -29 21 -14
19 -86 52 -157 71 -19 5 -93 11 -165 13 -114 4 -134 2 -167 -15 -21 -11 -38
-16 -38 -12 0 4 -4 2 -8 -4 -4 -6 -20 -14 -37 -18 -27 -6 -26 -4 15 24 25 17
54 36 65 41 11 5 31 16 45 24 l24 14 -26 10 c-36 14 -259 13 -276 -1 -7 -7
-34 -11 -59 -9 -24 1 -51 -3 -59 -10 -10 -8 -14 -8 -14 0 0 15 56 42 120 56
65 14 332 12 372 -3 15 -6 38 -7 55 -3 26 7 42 4 98 -20 11 -5 42 -8 68 -6 40
2 47 5 45 21 -2 10 -28 39 -60 63 -47 38 -66 46 -120 53 -34 5 -85 16 -112 24
-27 9 -79 16 -116 16 -66 0 -68 -1 -116 -45 -26 -25 -53 -45 -59 -45 -6 0 -26
11 -45 25 -40 30 -95 33 -146 9 -27 -13 -37 -14 -49 -4 -12 10 -19 10 -32 -1
-58 -43 -58 -119 -1 -119 31 0 77 -41 84 -74 3 -17 11 -40 17 -51 6 -11 11
-40 12 -63 0 -40 3 -46 38 -65 36 -21 38 -21 48 -4 23 39 80 7 59 -33 -13 -24
1 -50 26 -50 8 0 14 -6 14 -14 0 -20 39 -46 68 -46 21 0 23 -2 12 -15 -10 -13
-10 -19 2 -33 16 -18 38 -96 38 -135 0 -14 10 -31 23 -40 19 -14 19 -16 4 -16
-21 -1 -126 74 -134 95 -3 8 -11 14 -18 14 -8 0 -17 4 -20 10 -3 6 1 7 9 4 9
-3 16 -1 16 5 0 6 7 11 16 11 8 0 12 5 8 11 -3 6 -17 8 -30 5 -17 -5 -31 0
-45 13 -12 11 -27 17 -34 15 -7 -3 -24 7 -38 21 -20 23 -28 25 -45 16 -25 -13
-49 -5 -55 17 -4 15 -5 15 -6 0 -1 -24 -18 -23 -31 2 -7 12 -16 17 -28 13 -13
-5 -14 -3 -5 7 8 9 7 17 -5 31 -12 14 -18 15 -24 6 -6 -9 -10 -9 -20 1 -6 6
-36 12 -65 12 -29 0 -53 3 -52 8 0 9 169 92 187 92 17 0 15 15 -3 30 -11 9
-36 11 -86 7 -65 -5 -69 -5 -57 10 11 14 11 16 -4 10 -17 -6 -111 22 -126 38
-4 4 -1 5 6 1 6 -4 12 -3 12 3 0 6 -11 13 -25 17 -14 3 -25 12 -25 19 0 20
-52 29 -65 12 -6 -8 -36 -18 -68 -22 -46 -6 -62 -4 -83 10 -19 12 -29 14 -37
6 -6 -6 -27 -11 -47 -11 -25 0 -39 -6 -49 -21 -12 -20 -19 -21 -77 -16 -36 4
-69 9 -74 12 -15 9 49 63 82 70 23 5 27 10 18 20 -16 19 3 27 36 15 22 -9 35
-7 60 6 37 20 47 45 33 81 -6 18 -6 30 2 39 9 11 8 18 -1 29 -9 10 -9 15 -1
15 6 0 11 -4 11 -8 0 -9 62 -38 110 -52 23 -7 30 -5 30 6 0 8 -10 14 -22 14
-36 0 -68 11 -62 21 3 5 13 9 22 9 9 0 22 12 29 25 10 22 9 27 -10 39 -12 7
-37 16 -54 20 -31 5 -33 3 -34 -22 0 -18 -3 -22 -7 -12 -4 8 -20 17 -37 18
-16 2 -37 10 -46 18 -8 7 -29 16 -46 20 -22 4 -33 15 -43 40 -14 36 -28 42
-48 22z m161 -153 c32 -22 36 -29 27 -45 -11 -20 -30 -27 -30 -12 0 18 -48 28
-126 26 -70 -1 -81 1 -79 15 1 13 17 17 71 19 38 2 73 7 79 13 13 13 16 12 58
-16z m-353 -325 c-6 -11 -17 -20 -25 -20 -20 0 -19 10 3 26 25 19 34 17 22 -6z
m1270 -30 c13 -9 12 -12 -5 -25 -18 -14 -20 -14 -26 2 -11 31 3 41 31 23z
m780 -110 c0 -5 -2 -10 -4 -10 -3 0 -8 5 -11 10 -3 6 -1 10 4 10 6 0 11 -4 11
-10z m-924 -227 c23 -17 40 -45 58 -94 41 -111 33 -130 -25 -53 -36 50 -83 76
-116 68 -14 -4 -31 5 -55 30 -19 20 -40 36 -47 36 -27 0 -7 18 32 28 88 23
105 22 153 -15z m-1000 -110 c-10 -10 -19 5 -10 18 6 11 8 11 12 0 2 -7 1 -15
-2 -18z m-24 -18 c9 -34 1 -48 -13 -22 -6 9 -19 17 -29 17 -25 0 -26 16 -2 29
24 15 35 9 44 -24z m1658 -55 c0 -5 -5 -10 -11 -10 -5 0 -7 5 -4 10 3 6 8 10
11 10 2 0 4 -4 4 -10z m-230 -20 c0 -5 -4 -10 -10 -10 -5 0 -10 5 -10 10 0 6
5 10 10 10 6 0 10 -4 10 -10z m-370 -10 c0 -5 -2 -10 -4 -10 -3 0 -8 5 -11 10
-3 6 -1 10 4 10 6 0 11 -4 11 -10z m105 -9 c3 -5 19 -12 35 -16 30 -7 40 -20
19 -27 -14 -5 -98 34 -99 45 0 10 38 9 45 -2z m403 -56 c9 -9 -14 -28 -68 -55
-33 -17 -62 -30 -65 -30 -8 0 -6 63 3 77 12 18 114 25 130 8z m-578 -3 c0 -9
66 -32 89 -32 22 0 0 20 -22 21 -13 0 -16 3 -9 6 8 3 24 0 37 -7 20 -11 22
-15 10 -26 -19 -19 -41 -17 -96 9 -51 23 -62 37 -29 37 11 0 20 -4 20 -8z
m-106 -59 c-3 -21 -11 -42 -16 -48 -13 -14 -59 40 -52 60 8 20 21 19 27 -2 4
-15 6 -15 12 5 4 12 14 22 22 22 11 0 12 -9 7 -37z m331 17 c3 -5 -3 -10 -14
-10 -12 0 -21 5 -21 10 0 6 6 10 14 10 8 0 18 -4 21 -10z m135 -6 c0 -10 6
-14 15 -10 16 6 21 -21 7 -39 -10 -14 -39 -12 -54 3 -6 6 -17 12 -24 12 -6 0
-17 6 -23 14 -10 11 -5 16 26 24 53 14 53 14 53 -4z m-1280 -114 c0 -5 -7 -10
-16 -10 -8 0 -12 5 -9 10 3 6 10 10 16 10 5 0 9 -4 9 -10z"/>
<path d="M8517 2183 c-3 -5 6 -9 20 -10 19 -1 22 1 12 8 -17 11 -26 11 -32 2z"/>
<path d="M4356 2152 c-8 -13 51 -65 63 -57 7 4 0 17 -20 36 -34 32 -36 33 -43
21z"/>
<path d="M8405 2100 c4 -6 11 -8 16 -5 14 9 11 15 -7 15 -8 0 -12 -5 -9 -10z"/>
<path d="M3530 2058 c0 -9 5 -20 11 -23 17 -11 20 0 4 21 -13 17 -14 17 -15 2z"/>
<path d="M6736 2031 c-10 -4 -32 -6 -50 -4 -17 1 -52 -3 -78 -9 -38 -9 -45
-14 -36 -25 12 -15 12 -16 -28 -4 -28 8 -37 4 -83 -30 -28 -21 -55 -39 -60
-39 -13 0 -41 -29 -41 -42 0 -7 17 -8 50 -4 57 8 67 -6 18 -23 -18 -7 -56 -24
-85 -37 -28 -14 -60 -23 -70 -20 -14 5 -22 -3 -35 -32 -8 -20 -16 -40 -16 -45
-1 -4 -9 -21 -19 -37 -9 -16 -14 -32 -11 -36 4 -3 40 2 81 11 71 16 78 16 111
0 20 -10 33 -22 30 -27 -4 -7 -10 -5 -15 5 -5 8 -19 14 -32 12 -12 -2 -44 -6
-72 -11 -27 -4 -63 -14 -80 -22 -29 -15 -30 -16 -7 -21 23 -6 23 -6 -9 -30
-18 -13 -39 -24 -46 -24 -7 0 -13 -6 -13 -14 0 -12 -11 -17 -35 -14 -12 1 -40
-58 -55 -114 -13 -50 -13 -68 0 -60 5 3 20 -6 32 -21 27 -31 68 -53 86 -47 8
3 12 -1 11 -8 -4 -16 24 -71 43 -87 9 -7 26 -8 52 -2 25 5 45 5 56 -2 14 -9
24 -6 50 12 32 23 33 23 46 5 8 -10 14 -33 14 -51 0 -40 4 -43 79 -50 59 -7
61 -8 78 -45 9 -22 20 -39 24 -39 15 0 30 -69 36 -162 l6 -98 44 0 c24 0 42 4
39 9 -3 4 -8 33 -11 62 -3 30 -11 90 -17 133 -11 77 -10 80 12 98 12 10 26 18
30 18 7 0 23 -84 37 -190 5 -32 25 -60 45 -60 12 0 10 38 -2 45 -14 9 -12 42
3 49 8 3 7 8 -5 16 -20 13 -25 45 -5 34 10 -6 10 -4 0 7 -34 35 7 105 77 133
22 9 40 21 40 27 0 5 5 7 10 4 6 -3 13 1 16 9 3 9 11 16 18 16 6 0 37 18 70
40 32 22 69 40 82 40 12 0 36 11 52 25 17 14 34 25 40 25 13 0 33 25 26 33 -4
3 -16 1 -27 -4 -16 -9 -15 -6 7 23 33 44 34 70 4 67 -36 -3 -80 12 -108 38
l-25 23 41 0 c23 0 61 -7 85 -15 l44 -16 27 33 c15 18 28 38 28 44 0 12 54 54
70 54 5 0 10 5 10 10 0 6 16 18 35 27 33 16 46 33 25 33 -13 0 -13 27 0 35 6
4 17 2 24 -4 11 -9 18 -3 32 26 10 21 17 45 16 53 -2 12 -1 12 6 1 7 -10 21
-11 52 -6 25 4 38 10 30 15 -6 4 -11 10 -11 14 3 19 -2 27 -30 55 -40 40 -74
40 -123 -1 -28 -23 -49 -32 -79 -32 l-41 -1 0 -54 c-1 -50 1 -54 23 -58 29 -4
37 -10 27 -20 -3 -4 -22 -1 -41 6 -19 7 -39 9 -45 6 -5 -3 -10 -1 -10 5 0 5
-14 9 -32 8 -18 -1 -33 3 -36 10 -6 19 -30 14 -37 -9 l-7 -21 -19 21 c-11 12
-32 21 -48 21 -24 0 -28 3 -24 21 4 14 -1 25 -16 35 -12 9 -21 26 -21 40 0 56
-65 129 -152 171 -24 11 -68 32 -97 47 -60 28 -58 28 -85 17z m-446 -301 c0
-5 -4 -10 -10 -10 -5 0 -10 5 -10 10 0 6 5 10 10 10 6 0 10 -4 10 -10z m-30
-15 c0 -8 -4 -15 -10 -15 -5 0 -7 7 -4 15 4 8 8 15 10 15 2 0 4 -7 4 -15z m28
-122 c-10 -2 -26 -2 -35 0 -10 3 -2 5 17 5 19 0 27 -2 18 -5z m-11 -169 c-3
-3 -12 -4 -19 -1 -8 3 -5 6 6 6 11 1 17 -2 13 -5z m340 -166 c-3 -8 -6 -5 -6
6 -1 11 2 17 5 13 3 -3 4 -12 1 -19z m213 -52 c0 -3 -4 -8 -10 -11 -5 -3 -10
-1 -10 4 0 6 5 11 10 11 6 0 10 -2 10 -4z m-66 -68 c-9 -14 -24 2 -24 25 1 21
1 21 15 3 8 -10 12 -23 9 -28z m210 28 c-6 -16 -34 -30 -42 -21 -8 7 19 35 34
35 7 0 11 -6 8 -14z m-292 -48 c6 -17 -1 -38 -13 -38 -5 0 -9 11 -9 25 0 26
14 34 22 13z m148 -17 c0 -5 -7 -14 -15 -21 -16 -14 -18 -10 -9 14 6 17 24 22
24 7z m20 -21 c0 -5 -5 -10 -11 -10 -5 0 -7 5 -4 10 3 6 8 10 11 10 2 0 4 -4
4 -10z"/>
<path d="M7280 1908 c0 -3 -3 -14 -7 -24 -5 -15 -1 -16 43 -9 58 8 61 10 44
30 -12 14 -80 18 -80 3z"/>
<path d="M7225 1850 c3 -5 8 -10 11 -10 2 0 4 5 4 10 0 6 -5 10 -11 10 -5 0
-7 -4 -4 -10z"/>
<path d="M7872 1719 c2 -7 10 -15 17 -17 8 -3 12 1 9 9 -2 7 -10 15 -17 17 -8
3 -12 -1 -9 -9z"/>
<path d="M947 1651 c4 -3 10 -10 14 -14 3 -4 11 -2 18 6 9 12 7 15 -14 15 -14
0 -22 -3 -18 -7z"/>
<path d="M1001 1648 c-1 -9 -7 -19 -13 -21 -7 -3 1 -6 17 -6 17 0 25 3 19 7
-6 4 -14 14 -17 22 -4 12 -6 12 -6 -2z"/>
<path d="M1518 1604 c-14 -14 -20 -15 -32 -5 -20 16 -39 4 -33 -20 3 -11 -1
-43 -9 -72 l-14 -52 44 -41 c26 -25 47 -55 51 -74 4 -20 15 -34 26 -37 13 -4
18 -11 14 -23 -3 -10 -1 -21 5 -25 6 -4 9 -12 7 -19 -3 -7 4 -13 14 -13 11 -1
17 2 14 8 -4 5 -1 9 5 9 7 0 9 7 6 15 -4 10 2 19 17 25 12 5 16 9 10 9 -7 1
-13 12 -13 25 0 13 -6 29 -14 35 -11 9 -13 27 -10 63 3 39 -1 57 -16 78 -11
16 -20 34 -20 42 0 7 -8 30 -18 51 -16 36 -18 37 -34 21z m53 -147 c-1 -12
-15 -9 -19 4 -3 6 1 10 8 8 6 -3 11 -8 11 -12z"/>
<path d="M485 1580 c3 -5 11 -10 16 -10 6 0 7 5 4 10 -3 6 -11 10 -16 10 -6 0
-7 -4 -4 -10z"/>
<path d="M1800 1448 c0 -17 18 -44 24 -37 8 7 -5 49 -15 49 -5 0 -9 -6 -9 -12z"/>
<path d="M975 1403 c-58 -41 -72 -72 -44 -102 18 -19 26 -23 45 -20 4 0 11 -5
16 -13 8 -11 10 -11 15 1 5 11 7 11 15 0 6 -10 7 -7 3 9 -5 16 -2 22 8 22 17
0 27 87 15 121 -9 25 -13 24 -73 -18z"/>
<path d="M1383 1417 c3 -10 2 -17 -3 -17 -6 0 -10 -7 -10 -16 0 -8 4 -13 9
-10 5 4 11 0 14 -6 2 -7 4 2 5 19 0 18 -4 36 -10 39 -7 5 -9 1 -5 -9z"/>
<path d="M1787 1380 c-5 -24 -20 -63 -34 -86 -24 -38 -28 -41 -40 -26 -11 15
-12 15 -13 -5 0 -14 6 -23 15 -23 7 0 18 -6 22 -13 4 -8 31 -17 58 -21 34 -4
56 -13 68 -29 l18 -22 -11 23 c-11 22 -10 23 9 12 18 -9 25 -7 45 15 17 19 37
27 65 29 38 3 42 1 53 -30 6 -18 15 -31 20 -28 4 3 8 0 8 -5 0 -6 -6 -11 -12
-12 -21 -2 35 -17 62 -17 24 -1 24 0 3 8 -42 17 -74 53 -69 76 10 37 -22 62
-93 73 -35 6 -67 8 -72 6 -4 -3 -10 -1 -14 4 -3 6 -12 8 -20 4 -16 -5 -18 3
-15 50 1 21 -3 27 -19 27 -11 0 -21 8 -23 18 -2 9 -7 -3 -11 -28z"/>
<path d="M1196 1384 c-24 -13 -27 -20 -22 -45 4 -24 2 -29 -13 -29 -13 0 -18
-7 -18 -26 0 -15 -7 -31 -14 -36 -10 -7 -9 -8 6 -4 11 3 25 2 30 -2 14 -10 35
-49 35 -64 0 -10 68 -58 82 -58 2 0 1 19 -2 43 -7 51 -39 108 -60 104 -11 -1
-14 6 -12 33 2 19 8 37 12 40 5 3 7 17 7 33 -1 15 -2 27 -2 27 0 -1 -13 -8
-29 -16z"/>
<path d="M1371 1282 c-13 -57 -12 -64 4 -82 18 -20 17 -20 -13 -20 -30 0 -51
-14 -35 -23 48 -27 102 -4 107 45 2 15 0 25 -4 23 -11 -7 -20 20 -20 56 0 16
-4 29 -9 29 -5 0 -11 8 -13 18 -2 9 -10 -11 -17 -46z"/>
<path d="M2087 1303 c-4 -3 -7 -13 -7 -22 1 -13 3 -13 11 2 11 19 8 33 -4 20z"/>
<path d="M2120 1289 c0 -5 4 -8 10 -4 5 3 3 -7 -5 -22 -19 -35 -19 -49 -2 -34
8 6 17 8 20 4 4 -3 7 3 7 15 0 11 5 24 10 27 6 4 8 11 5 16 -8 13 -45 11 -45
-2z"/>
<path d="M3290 1206 c0 -2 7 -7 16 -10 8 -3 12 -2 9 4 -6 10 -25 14 -25 6z"/>
<path d="M843 1183 c-13 -13 -28 -17 -53 -13 -19 3 -42 3 -50 -1 -8 -4 -31
-14 -50 -23 l-35 -16 36 5 c27 4 38 1 42 -9 5 -12 12 -13 39 -4 18 6 41 15 51
20 14 7 22 5 33 -9 7 -10 14 -21 14 -25 0 -14 30 4 30 18 0 10 7 13 24 8 13
-3 27 -1 30 5 8 12 -24 30 -41 24 -6 -2 -17 5 -23 16 -13 26 -25 26 -47 4z"/>
<path d="M1512 1191 c2 -9 -15 -21 -47 -33 -54 -21 -103 -57 -55 -42 14 4 42
8 63 8 20 0 37 4 37 9 0 5 11 7 26 4 l25 -4 -23 24 c-13 14 -21 27 -20 30 2 2
1 8 -3 11 -4 4 -5 1 -3 -7z"/>
<path d="M2147 1179 c7 -7 15 -10 18 -7 3 3 -2 9 -12 12 -14 6 -15 5 -6 -5z"/>
<path d="M7998 1183 c-26 -7 -22 -23 4 -18 12 3 28 -1 36 -7 12 -10 14 -9 11
7 -4 20 -21 26 -51 18z"/>
<path d="M1970 1160 c0 -5 -14 -10 -31 -10 -18 0 -28 -4 -24 -10 4 -6 16 -8
26 -5 11 4 27 1 35 -6 19 -15 25 -9 17 19 -5 22 -23 31 -23 12z"/>
<path d="M6400 1154 c0 -8 5 -12 10 -9 6 3 10 10 10 16 0 5 -4 9 -10 9 -5 0
-10 -7 -10 -16z"/>
<path d="M483 1153 c9 -2 25 -2 35 0 9 3 1 5 -18 5 -19 0 -27 -2 -17 -5z"/>
<path d="M2308 1133 c6 -2 18 -2 25 0 6 3 1 5 -13 5 -14 0 -19 -2 -12 -5z"/>
<path d="M7020 1130 c-11 -7 -6 -10 20 -10 19 0 46 -3 60 -7 23 -6 24 -6 8 10
-18 19 -64 22 -88 7z"/>
<path d="M1338 1123 c6 -2 18 -2 25 0 6 3 1 5 -13 5 -14 0 -19 -2 -12 -5z"/>
<path d="M1601 1112 c-8 -16 -5 -18 25 -19 34 -1 35 0 18 18 -21 24 -31 24
-43 1z"/>
<path d="M4253 1115 c-17 -19 -16 -25 5 -25 10 0 23 -5 30 -12 19 -19 15 7 -5
30 -15 18 -20 19 -30 7z"/>
<path d="M2258 1093 c7 -3 16 -2 19 1 4 3 -2 6 -13 5 -11 0 -14 -3 -6 -6z"/>
<path d="M4545 1090 c-4 -7 3 -8 22 -4 38 9 42 14 10 14 -14 0 -29 -5 -32 -10z"/>
<path d="M8619 1053 c-24 -27 -44 -58 -44 -70 -1 -31 6 -29 41 10 31 34 69
107 56 107 -5 0 -28 -21 -53 -47z"/>
<path d="M1378 1073 c7 -3 16 -2 19 1 4 3 -2 6 -13 5 -11 0 -14 -3 -6 -6z"/>
<path d="M1468 1063 c7 -3 16 -2 19 1 4 3 -2 6 -13 5 -11 0 -14 -3 -6 -6z"/>
<path d="M5080 1060 c-13 -8 -12 -10 3 -10 9 0 17 5 17 10 0 12 -1 12 -20 0z"/>
<path d="M1767 1025 c-5 -27 0 -30 22 -16 12 8 12 11 -1 25 -14 14 -16 13 -21
-9z"/>
<path d="M1865 1041 c-7 -12 12 -24 25 -16 11 7 4 25 -10 25 -5 0 -11 -4 -15
-9z"/>
<path d="M4895 1040 c-13 -6 -5 -7 25 -3 25 3 47 7 49 9 9 8 -55 2 -74 -6z"/>
<path d="M5655 1039 c7 -11 35 -12 35 -1 0 4 -9 8 -20 9 -11 1 -18 -2 -15 -8z"/>
<path d="M2010 1029 c0 -5 5 -7 10 -4 6 3 10 8 10 11 0 2 -4 4 -10 4 -5 0 -10
-5 -10 -11z"/>
<path d="M2657 993 c6 -15 4 -16 -8 -6 -11 9 -34 10 -80 5 -61 -7 -64 -8 -61
-32 2 -14 5 -26 7 -28 2 -2 21 6 44 17 41 22 66 27 57 13 -12 -19 41 -9 56 11
15 18 18 19 18 5 0 -11 6 -16 20 -13 11 2 20 0 20 -4 0 -12 55 -23 122 -25 31
0 60 -4 64 -9 11 -11 44 -9 44 3 0 6 17 11 38 11 29 1 25 3 -23 10 -33 5 -68
14 -77 19 -17 9 -190 40 -228 40 -14 0 -18 -5 -13 -17z"/>
<path d="M630 991 c-22 -7 -21 -8 15 -13 49 -6 78 2 49 13 -23 9 -32 9 -64 0z"/>
<path d="M2115 991 c-7 -12 31 -25 46 -15 8 4 7 9 -2 15 -18 11 -36 11 -44 0z"/>
<path d="M742 982 c-9 -3 -9 -6 1 -16 23 -23 45 -26 50 -6 5 18 -24 31 -51 22z"/>
<path d="M7640 975 c-8 -9 -8 -15 -2 -15 12 0 26 19 19 26 -2 2 -10 -2 -17
-11z"/>
<path d="M8501 955 c-24 -19 -39 -35 -33 -35 5 0 -5 -15 -24 -34 -20 -20 -34
-44 -34 -57 1 -21 10 -15 66 44 36 38 63 74 61 80 -2 7 3 17 12 24 9 7 12 12
6 13 -5 0 -30 -16 -54 -35z"/>
<path d="M805 959 c-4 -5 3 -10 14 -10 12 -1 26 -2 31 -3 6 -1 11 3 13 9 3 12
-51 17 -58 4z"/>
<path d="M7322 914 c-26 -34 -38 -43 -53 -39 -10 4 -19 3 -19 -2 0 -4 -17 -8
-38 -8 -20 0 -45 -6 -55 -14 -15 -13 -20 -12 -42 9 -21 19 -25 21 -25 7 0 -9
6 -17 14 -17 23 0 31 -22 13 -35 -25 -18 -21 -24 14 -20 21 3 29 1 26 -8 -3
-9 7 -11 37 -9 65 5 86 11 86 27 0 8 4 15 9 15 15 0 23 -18 11 -25 -6 -4 -8
-10 -5 -15 8 -12 45 11 45 27 0 7 5 13 11 13 6 0 9 -7 5 -15 -3 -8 2 -22 12
-31 15 -16 17 -16 22 7 5 19 12 24 36 22 16 0 23 1 17 4 -15 6 -17 33 -3 33
19 0 10 17 -15 28 -15 7 -27 8 -30 2 -8 -14 -35 -13 -35 1 0 6 9 13 19 16 29
7 33 40 8 58 -12 8 -24 15 -27 15 -3 -1 -20 -21 -38 -46z m-112 -104 c0 -5 -5
-10 -11 -10 -5 0 -7 5 -4 10 3 6 8 10 11 10 2 0 4 -4 4 -10z"/>
<path d="M7564 932 c-8 -5 -3 -13 14 -26 23 -18 25 -18 19 -2 -4 10 -7 22 -7
27 0 11 -11 11 -26 1z"/>
<path d="M5505 920 c4 -6 11 -8 16 -5 14 9 11 15 -7 15 -8 0 -12 -5 -9 -10z"/>
<path d="M5574 915 c16 -43 15 -43 -44 -34 -17 3 -25 -1 -25 -11 0 -10 12 -16
33 -18 24 -2 32 -7 28 -18 -9 -23 66 -19 81 5 10 17 9 20 -14 26 -19 4 -23 9
-14 18 16 16 14 27 -7 27 -10 0 -24 6 -31 13 -12 10 -13 8 -7 -8z m46 -70 c0
-8 -4 -15 -10 -15 -5 0 -10 7 -10 15 0 8 5 15 10 15 6 0 10 -7 10 -15z"/>
<path d="M7270 920 c0 -13 18 -22 24 -11 3 5 -1 11 -9 15 -8 3 -15 1 -15 -4z"/>
<path d="M7118 903 c7 -3 16 -2 19 1 4 3 -2 6 -13 5 -11 0 -14 -3 -6 -6z"/>
<path d="M5440 860 c0 -5 9 -10 20 -10 11 0 20 5 20 10 0 6 -9 10 -20 10 -11
0 -20 -4 -20 -10z"/>
<path d="M5227 853 c-9 -9 -9 -41 1 -46 4 -2 17 9 30 24 l24 29 -25 0 c-13 0
-27 -3 -30 -7z"/>
<path d="M1475 840 c-3 -5 1 -10 10 -10 9 0 13 5 10 10 -3 6 -8 10 -10 10 -2
0 -7 -4 -10 -10z"/>
<path d="M5700 841 c0 -6 4 -13 10 -16 6 -3 7 1 4 9 -7 18 -14 21 -14 7z"/>
<path d="M7701 836 c-9 -10 -8 -15 4 -20 10 -4 15 1 15 14 0 24 -4 25 -19 6z"/>
<path d="M3385 829 c-7 -10 3 -14 45 -22 14 -2 33 -8 43 -12 9 -4 17 -3 17 3
0 5 -8 12 -17 15 -10 3 -33 10 -50 15 -20 7 -35 7 -38 1z"/>
<path d="M5470 830 c0 -5 7 -10 15 -10 8 0 15 5 15 10 0 6 -7 10 -15 10 -8 0
-15 -4 -15 -10z"/>
<path d="M7057 834 c-9 -10 2 -24 19 -24 8 0 14 7 14 15 0 15 -21 21 -33 9z"/>
<path d="M8478 823 c-22 -26 -13 -43 16 -30 15 7 21 17 18 29 -6 23 -15 23
-34 1z"/>
<path d="M3831 821 c-19 -12 17 -31 58 -31 35 0 39 7 14 26 -21 15 -52 18 -72
5z"/>
<path d="M3506 805 c-3 -8 -1 -15 4 -15 6 0 10 7 10 15 0 8 -2 15 -4 15 -2 0
-6 -7 -10 -15z"/>
<path d="M3950 797 c0 -17 5 -19 31 -13 17 3 40 6 51 6 42 0 9 24 -35 25 -41
2 -47 0 -47 -18z"/>
<path d="M6870 800 c0 -11 7 -20 15 -20 13 0 14 4 5 20 -6 11 -13 20 -15 20
-3 0 -5 -9 -5 -20z"/>
<path d="M8179 792 c-29 -15 -54 -34 -57 -42 -4 -12 -2 -13 9 -2 7 6 20 12 29
12 14 1 92 60 78 60 -3 0 -29 -12 -59 -28z"/>
<path d="M8375 790 c-3 -5 -2 -10 4 -10 5 0 13 5 16 10 3 6 2 10 -4 10 -5 0
-13 -4 -16 -10z"/>
<path d="M4475 780 c-3 -5 -1 -10 4 -10 6 0 11 5 11 10 0 6 -2 10 -4 10 -3 0
-8 -4 -11 -10z"/>
<path d="M4374 768 c-2 -4 -1 -9 3 -11 11 -7 63 3 63 12 0 8 -61 8 -66 -1z"/>
<path d="M4250 760 c0 -11 21 -11 65 0 27 7 25 8 -17 9 -27 0 -48 -3 -48 -9z"/>
<path d="M8537 726 c-4 -10 -1 -13 9 -9 15 6 19 23 5 23 -5 0 -11 -7 -14 -14z"/>
<path d="M8930 684 c0 -8 5 -12 10 -9 6 4 8 11 5 16 -9 14 -15 11 -15 -7z"/>
<path d="M7360 650 c8 -5 20 -10 25 -10 6 0 3 5 -5 10 -8 5 -19 10 -25 10 -5
0 -3 -5 5 -10z"/>
<path d="M8947 628 c-7 -25 11 -42 29 -28 6 6 14 7 17 3 4 -3 7 -2 7 4 0 10
-32 43 -42 43 -3 0 -8 -10 -11 -22z"/>
<path d="M8615 580 c3 -5 8 -10 11 -10 2 0 4 5 4 10 0 6 -5 10 -11 10 -5 0 -7
-4 -4 -10z"/>
<path d="M3765 510 c3 -5 14 -10 23 -10 15 0 15 2 2 10 -20 13 -33 13 -25 0z"/>
<path d="M7640 410 c-12 -8 -11 -10 8 -10 12 0 22 5 22 10 0 13 -11 13 -30 0z"/>
<path d="M5791 201 c-10 -6 -10 -10 -1 -16 13 -8 24 -1 19 14 -3 6 -10 7 -18
2z"/>
</g>
</svg>
