<svg width="165" height="71" viewBox="0 0 165 71" fill="none" xmlns="http://www.w3.org/2000/svg">
<path d="M36.8 23.728C36.8 11.056 27.872 1.84 13.952 1.84H0.0320003V70H11.456V45.232H14.24C27.872 45.232 36.8 36.304 36.8 23.728ZM11.456 13.264H13.952C21.44 13.264 25.76 17.392 25.76 23.728C25.76 29.488 21.824 34.096 13.952 34.096H11.456V13.264ZM79.2823 1.84H66.4183L59.1223 27.184L51.5383 1.84H38.5783L52.7863 44.848V70H65.0743V44.848L79.2823 1.84ZM102.272 70.864C112.832 70.864 121.184 62.416 121.184 52.144V50.224H109.376V52.144C109.376 55.984 106.112 59.248 102.272 59.248C98.144 59.248 94.88 55.984 94.88 52.144V19.6C94.88 15.76 98.144 12.496 102.272 12.496C106.112 12.496 109.376 15.76 109.376 19.6V21.424H121.184V19.6C121.184 9.328 112.832 0.975996 102.272 0.975996C91.712 0.975996 83.072 9.328 83.072 19.6V52.144C83.072 62.416 91.712 70.864 102.272 70.864ZM145.585 70.864C156.145 70.864 164.497 62.416 164.497 52.144V50.224H152.689V52.144C152.689 55.984 149.425 59.248 145.585 59.248C141.457 59.248 138.193 55.984 138.193 52.144V19.6C138.193 15.76 141.457 12.496 145.585 12.496C149.425 12.496 152.689 15.76 152.689 19.6V21.424H164.497V19.6C164.497 9.328 156.145 0.975996 145.585 0.975996C135.025 0.975996 126.385 9.328 126.385 19.6V52.144C126.385 62.416 135.025 70.864 145.585 70.864Z" fill="black"/>
</svg>
