<svg width="512" height="512" viewBox="0 0 512 512" fill="none" xmlns="http://www.w3.org/2000/svg">
<circle cx="256" cy="256" r="256" fill="#F8FDFF"/>
<path d="M232.798 103.779C196.972 108.295 166.203 123.71 140.974 149.962C133.869 157.369 128.871 163.631 123.091 172.482C95.333 214.811 90.3956 266.113 109.483 314.102C111.59 319.401 112.975 322.11 113.577 322.11C114.059 322.11 116.889 321.267 119.779 320.304C122.73 319.28 126.764 318.317 128.811 318.136C130.858 318.016 133.929 317.594 135.555 317.293C137.241 316.992 139.71 316.751 141.034 316.751L143.503 316.691L143.864 312.597C144.045 310.369 144.105 308.442 143.985 308.322C143.864 308.201 143.443 309.767 143.021 311.814C142.178 315.848 141.215 316.872 141.697 313.199L141.998 310.911L137.602 311.091C130.437 311.332 127.065 311.633 126.222 312.175C125.68 312.476 125.56 312.416 125.861 311.995C126.102 311.573 125.981 311.272 125.68 311.272C125.319 311.272 125.018 311.573 125.018 311.874C125.018 312.235 124.356 312.055 123.513 311.513C122.73 311.031 121.766 310.73 121.405 310.971C121.104 311.152 120.622 310.911 120.442 310.429C119.779 308.623 118.876 309.405 119.298 311.392C119.659 313.379 119.659 313.379 118.876 311.874C118.394 311.031 117.07 307.659 115.805 304.348C109.062 285.923 106.472 269.725 107.195 249.253C107.857 228.239 112.494 210.476 122.128 191.449C135.013 166.22 154.341 145.567 178.728 131.116C212.025 111.426 253.391 106.308 291.205 117.147C315.23 124.071 336.725 136.475 354.97 153.876L359.486 158.151L343.529 158.513C326.549 158.934 314.627 159.898 302.886 161.885C298.852 162.607 293.553 163.33 291.084 163.51C284.521 164.112 281.751 162.667 272.78 154.177C267.3 148.939 264.771 147.012 261.279 145.326C255.258 142.436 247.249 140.87 235.207 140.268C228.584 139.967 224.369 139.485 222.623 138.823C219.491 137.679 215.578 137.559 215.216 138.582C214.554 140.328 216.18 143.52 219.431 146.952C222.261 149.962 224.188 151.227 230.39 154.298C238.82 158.513 240.084 159.777 241.288 165.437C242.192 169.833 241.71 175.071 240.024 178.443C238.157 182.357 234.424 185.849 226.175 191.509C204.98 205.96 187.037 223.482 175.115 241.305C162.169 260.573 155.245 275.807 151.271 293.81C149.404 302.18 148.019 310.489 147.778 314.524L147.598 317.474L151.511 318.799C153.679 319.521 156.81 320.786 158.436 321.629C160.122 322.472 163.554 323.736 166.143 324.459C174.934 326.867 179.269 329.336 186.073 335.839C190.951 340.475 192.697 341.619 196.791 342.944C198.718 343.486 200.163 344.148 199.983 344.269C199.802 344.449 200.524 345.051 201.488 345.653C202.511 346.316 203.294 347.038 203.294 347.4C203.294 347.761 202.813 347.701 202.09 347.279C201.428 346.858 200.886 346.256 200.886 346.015C200.886 345.714 200.464 345.894 199.983 346.436C199.32 347.099 198.598 347.159 197.333 346.797C195.948 346.436 195.587 346.496 195.828 347.099C196.069 347.701 195.166 347.821 191.733 347.64C189.325 347.52 186.736 347.279 186.013 347.038C185.17 346.797 184.628 346.918 184.628 347.339C184.628 347.701 184.327 348.002 183.966 348.002C183.665 348.002 183.484 347.761 183.665 347.46C183.846 347.159 183.304 346.737 182.34 346.496C181.437 346.316 180.233 345.653 179.631 345.112C178.848 344.389 178.426 344.329 177.885 344.871C176.921 345.834 176.199 345.774 176.199 344.69C176.199 344.208 175.777 343.787 175.235 343.787C174.753 343.787 174.513 344.028 174.693 344.389C175.416 345.533 174.573 344.991 167.408 339.572C156.87 331.503 148.681 327.951 136.639 326.024C129.895 324.88 124.356 325.542 118.394 328.132C113.096 330.42 110.928 330.962 102.257 331.985C94.7911 332.949 91.2386 333.671 88.1677 334.875C87.2646 335.176 86.0001 335.297 85.4582 335.056C84.856 334.755 83.8926 334.635 83.3507 334.695C82.3873 334.815 82.3873 334.635 83.2905 331.925C83.8324 330.359 84.555 328.854 84.9163 328.553C85.2775 328.312 85.0367 328.192 84.3743 328.252C83.712 328.372 83.0497 328.132 82.869 327.831C82.5078 327.108 86.1807 325.843 90.6967 325.121C93.7675 324.639 93.6471 324.579 88.8903 324.76C84.4948 324.88 83.0497 325.181 79.5573 326.867C75.7037 328.613 71.5491 331.443 67.9363 334.635C60.7108 341.017 51.0166 344.389 37.7096 345.172L35 345.292L37.4085 346.376C41.8642 348.423 53.6057 352.277 60.5904 354.023C71.3082 356.672 75.8242 357.274 85.2775 357.214C95.5739 357.154 99.2469 356.371 111.711 351.313C116.528 349.387 121.526 347.821 123.814 347.46L127.727 346.918L131.34 350.952C133.327 353.12 137.783 357.877 141.275 361.489C165.782 386.779 196.249 402.073 232.196 407.07C240.807 408.275 262.664 408.094 271.636 406.769C291.325 403.819 310.533 397.497 325.767 388.826C341.061 380.155 352.32 371.244 366.109 356.913L375.502 347.159L379.777 346.918C385.738 346.557 390.315 347.64 399.045 351.374C410.907 356.492 414.339 357.214 426.081 357.214C436.678 357.214 442.579 356.431 453.177 353.662C459.74 351.976 476.057 346.376 476.961 345.533C477.262 345.232 475.817 344.991 473.348 344.991C461.366 344.931 453.297 341.74 442.76 332.888C440.532 331.022 437.04 328.613 435.053 327.529C431.079 325.422 425.539 324.218 424.576 325.241C424.154 325.723 424.214 325.783 424.756 325.482C425.84 324.82 427.044 325.723 426.021 326.446C425.419 326.807 425.599 326.867 426.623 326.626C427.466 326.385 427.887 326.446 427.707 326.747C427.466 327.108 427.887 327.891 428.489 328.613C429.152 329.336 429.694 330.721 429.694 331.684C429.694 333.189 429.393 333.611 428.068 333.912C427.105 334.153 426.081 334.574 425.72 334.815C425.358 335.116 423.251 334.815 420.903 334.153C418.615 333.49 413.316 332.467 409.101 331.805C404.465 331.082 398.443 329.637 393.747 328.071C386.702 325.723 385.558 325.482 380.319 325.542C367.916 325.663 353.886 331.744 338.773 343.426C335.22 346.256 330.584 349.206 328.175 350.23C323.418 352.337 320.348 352.939 320.528 351.735C320.769 350.832 319.986 350.772 319.023 351.735C317.819 352.939 317.457 351.675 318.601 350.41C319.204 349.748 319.565 349.025 319.324 348.845C318.722 348.182 322.455 342.823 325.466 339.993C329.259 336.441 334.016 333.43 339.856 330.781C346.119 327.951 350.153 325.904 356.114 322.411C362.135 318.919 368.217 317.293 375.623 317.293C380.681 317.293 381.584 316.992 381.885 315.186C381.945 314.825 382.186 314.102 382.427 313.5C382.668 312.898 382.607 312.476 382.186 312.476C381.825 312.476 381.584 312.657 381.584 312.898C381.764 314.102 381.463 314.343 380.681 313.741C380.079 313.199 379.777 313.259 379.537 313.921C379.296 314.524 379.476 314.704 380.079 314.463C380.62 314.283 380.921 314.524 380.921 315.246C380.921 316.089 380.801 316.209 380.38 315.607C380.139 315.126 379.657 314.764 379.356 314.704C379.055 314.644 378.874 314.283 378.874 313.861C378.934 313.44 378.393 312.958 377.67 312.717C377.008 312.476 376.225 311.995 375.984 311.633C375.683 311.212 375.502 311.332 375.502 311.934C375.502 312.777 375.081 312.838 372.371 312.356C370.625 312.115 367.133 311.874 364.664 311.874C354.308 311.874 352.862 311.814 351.899 311.513C351.297 311.332 350.514 311.392 350.093 311.694C349.671 311.934 342.807 312.175 334.859 312.175C310.051 312.175 293.011 312.597 293.372 313.139C293.553 313.44 293.372 313.681 293.071 313.681C292.71 313.681 292.409 313.44 292.409 313.199C292.409 312.898 291.867 311.995 291.144 311.212L289.94 309.827L288.134 311.754C286.448 313.56 285.183 314.222 285.183 313.319C285.183 313.078 285.786 312.416 286.508 311.814C287.17 311.152 287.652 310.549 287.532 310.429C287.351 310.248 285.665 311.694 283.678 313.56C275.73 321.147 270.732 324.76 261.761 329.215C254.114 333.069 250.32 332.407 249.297 327.168C248.634 323.616 249.357 321.689 253.813 315.005C255.8 311.995 255.86 311.694 254.896 310.971C254.355 310.549 253.873 309.947 253.873 309.526C253.873 309.165 253.572 308.864 253.211 308.864C252.849 308.864 252.729 309.405 252.97 310.068C253.211 310.73 253.09 311.272 252.729 311.272C252.368 311.272 252.066 311.694 252.066 312.235C252.066 313.018 251.886 313.078 251.224 312.536C250.682 312.115 250.2 312.055 250.019 312.416C249.839 312.717 250.019 313.078 250.381 313.259C250.802 313.379 250.983 313.681 250.802 313.921C250.561 314.162 249.959 313.861 249.417 313.319C248.454 312.416 248.273 312.416 247.069 313.741C246.346 314.524 245.804 315.366 245.925 315.668C245.985 315.969 245.804 316.029 245.503 315.788C245.142 315.607 243.878 316.571 242.613 318.016C241.349 319.401 239.904 320.966 239.422 321.508C238.94 322.05 237.194 324.097 235.568 326.024C233.882 328.011 232.016 330.179 231.414 330.781C230.089 332.106 227.379 337.585 227.379 338.97C227.379 339.512 227.078 340.234 226.657 340.656C225.573 341.74 227.56 341.559 235.628 339.873C249.116 337.103 249.236 337.103 264.109 342.342C272.177 345.232 272.298 345.232 280.065 345.292C284.401 345.352 289.278 345.413 290.904 345.533L293.914 345.714L291.506 346.496L289.097 347.279L291.205 347.339C293.734 347.4 302.886 345.473 306.86 344.088C311.376 342.462 315.832 339.692 321.793 334.635C328.235 329.215 333.354 326.506 338.05 326.084C341.482 325.783 342.145 326.446 339.555 327.469C334.136 329.577 323.539 338.006 320.047 342.884C318.18 345.473 312.58 349.808 311.075 349.808C310.653 349.808 309.509 350.23 308.486 350.711C304.15 352.638 298.43 354.505 298.129 354.023C297.828 353.541 300.417 350.892 303.849 348.062C306.137 346.195 304.512 346.557 298.912 349.206C288.375 354.143 280.005 355.528 256.582 356.191C237.736 356.733 227.319 355.649 218.167 352.217C214.193 350.711 202.15 344.81 202.09 344.329C202.09 344.148 204.318 343.967 207.088 344.028C213.771 344.028 220.395 343.365 220.635 342.643C220.756 342.342 221.238 342.221 221.719 342.402C222.201 342.583 222.743 342.221 222.984 341.619C223.225 341.017 223.104 340.475 222.683 340.295C222.261 340.174 221.96 339.813 221.96 339.512C221.96 339.15 222.261 339.09 222.562 339.271C223.104 339.632 224.188 337.585 224.67 335.297C225.091 333.31 230.029 323.495 232.317 320.123C233.641 318.196 234.545 316.45 234.304 316.209C234.123 315.969 233.641 316.209 233.34 316.691C232.798 317.414 232.738 317.414 233.039 316.511C233.22 315.908 233.401 315.126 233.401 314.764C233.401 314.403 233.762 314.463 234.304 314.885C235.568 315.969 236.05 315.246 235.207 313.56C234.605 312.296 234.605 312.296 235.388 313.259C235.929 313.861 236.411 314.162 236.592 313.861C238.157 311.272 240.024 307.659 239.783 307.659C239.602 307.659 238.759 308.382 237.856 309.285C236.291 310.971 236.291 310.971 237.074 309.466C237.856 307.9 242.432 301.638 242.794 301.638C242.914 301.638 242.794 302.12 242.613 302.662C242.372 303.324 243.155 302.842 244.359 301.698C245.684 300.434 246.406 299.29 246.166 298.688C245.925 298.085 246.105 297.905 246.828 298.206C247.551 298.447 247.671 298.326 247.43 297.604C247.129 296.881 247.249 296.761 247.852 297.122C248.454 297.483 248.574 297.303 248.333 296.339C248.092 295.436 248.213 295.015 248.815 295.015C249.297 295.015 249.658 295.255 249.658 295.617C249.658 295.918 249.899 296.219 250.2 296.219C250.501 296.219 250.742 295.557 250.742 294.714C250.742 293.268 252.488 291.161 254.053 290.619C254.595 290.438 254.535 290.077 253.873 289.234C252.97 288.15 253.03 288.15 254.776 289.234C256.041 290.077 256.342 290.137 255.8 289.475C254.836 288.271 256.221 286.946 257.787 287.548C258.69 287.91 258.75 287.729 258.389 286.525C258.148 285.742 257.666 284.899 257.365 284.718C256.883 284.417 257.245 283.996 265.193 277.011L269.588 273.157L270.793 274.482L272.057 275.807L274.285 273.82C275.549 272.736 276.453 271.652 276.332 271.351C275.85 270.568 275.007 270.93 274.646 272.134C274.466 272.796 273.924 273.338 273.442 273.338C273.02 273.338 272.539 273.639 272.418 273.94C272.298 274.362 271.756 274.241 271.033 273.699C270.371 273.218 269.95 272.736 270.13 272.616C273.984 269.424 281.33 263.704 285.786 260.453C288.917 258.165 292.469 255.575 293.613 254.732C300.297 249.795 314.206 241.486 324.021 236.488C335.943 230.467 344.312 226.854 344.794 227.576C345.095 227.998 346.841 227.516 349.972 226.131C352.561 224.987 355.813 223.663 357.137 223.061C359.064 222.278 359.365 221.977 358.643 221.495C357.98 221.074 358.221 221.013 359.546 221.314C360.931 221.555 361.112 221.495 360.449 221.013C359.727 220.532 359.967 220.351 361.533 220.351C362.617 220.351 363.4 220.11 363.219 219.809C362.978 219.508 363.339 219.388 363.942 219.568C365.206 219.869 373.094 216.859 373.094 216.076C373.094 215.775 373.756 215.534 374.599 215.534C375.442 215.534 376.104 215.353 376.104 215.052C376.104 214.691 377.79 213.968 381.223 212.885C381.584 212.764 382.668 212.403 383.631 211.981C384.655 211.62 386.28 211.018 387.244 210.657C388.267 210.295 389.592 209.754 390.254 209.513C392.603 208.549 395.674 207.405 395.975 207.345C396.336 207.285 395.854 207.465 409.221 202.107C415.002 199.758 421.746 196.808 424.214 195.543C429.393 193.014 430.236 193.195 429.152 196.808C428.188 200.12 423.311 205.298 417.41 209.151C414.761 210.958 397.239 220.11 378.513 229.564C359.787 238.957 341.904 247.989 338.773 249.675C335.642 251.36 323.84 257.382 312.58 263.102C261.64 288.993 250.501 297.002 235.267 318.377C233.521 320.846 232.196 322.953 232.377 323.074C232.497 323.194 235.147 320.424 238.278 316.872C244.721 309.526 251.464 302.902 253.632 301.758C255.077 301.036 255.318 301.096 257.185 303.143C260.978 307.117 260.617 310.971 255.679 318.799C252.548 323.796 252.006 326.145 253.632 327.77C254.114 328.312 254.656 328.734 254.836 328.734C255.017 328.734 257.847 327.289 261.159 325.482C280.547 314.945 290.301 302.782 289.94 289.716C289.76 284.297 290.422 283.514 294.998 283.093C297.888 282.852 298.852 283.153 303.91 285.561C307.041 287.006 310.473 288.451 311.557 288.692C312.701 288.933 316.735 288.813 320.649 288.391C330.222 287.428 331.668 287.849 336.123 292.907C339.013 296.219 339.796 296.821 341.482 296.821C345.878 296.821 350.755 290.559 350.815 284.899C350.815 278.516 347.805 275.747 331.848 267.377L327.031 264.848L317.999 269.123C296.985 279.179 283.859 283.815 289.639 279.239C291.747 277.493 295.179 275.626 314.928 265.39C331.366 256.9 341.663 251.541 349.31 247.447C362.978 240.161 393.084 225.108 393.385 225.409C393.687 225.71 395.192 224.927 402.116 220.893C404.043 219.749 408.679 217.16 412.413 215.052C420.722 210.416 426.984 205.78 429.393 202.347C430.898 200.18 431.199 199.216 431.199 196.146C431.199 192.834 431.018 192.352 429.513 191.268C428.369 190.365 427.586 190.184 427.044 190.546C420.662 195.363 412.955 198.674 388.749 207.044C331.487 226.914 310.593 237.15 279.162 260.934C248.815 283.875 228.644 309.586 219.732 336.561C218.95 339.03 218.107 341.258 217.866 341.439C217.625 341.679 216.541 341.74 215.517 341.559C213.35 341.198 213.35 341.8 215.036 334.454C217.806 322.472 225.814 303.324 231.895 294.172C234.424 290.378 240.325 284.176 242.914 282.671C245.142 281.346 245.503 280.263 243.516 280.925C239.362 282.25 232.377 288.512 228.162 294.714C221.659 304.348 214.133 323.435 211.062 338.067C210.64 340.054 210.098 341.98 209.797 342.402C208.954 343.486 202.933 342.884 199.561 341.439C197.935 340.776 196.671 340.054 196.671 339.813C196.671 338.91 202.933 316.631 205.462 308.382C212.507 285.682 219.672 272.134 228.102 265.45C231.654 262.68 234.424 262.379 238.338 264.366C241.589 266.052 244.299 265.691 251.404 262.56C263.748 257.261 271.756 251.3 285.786 237.03C305.776 216.678 315.29 211.379 337.749 208.248C353.043 206.141 357.619 205.057 364.303 201.745C371.829 198.072 375.322 197.229 389.351 195.664C407.174 193.737 420.12 191.328 425.238 189.04C428.67 187.535 430.296 184.886 430.296 180.731C430.296 177.781 430.115 177.359 427.707 175.011C422.227 169.592 403.682 163.932 380.079 160.379L372.853 159.356L364.724 151.167C339.435 125.757 310.232 110.463 275.911 104.683C266.518 103.117 242.312 102.575 232.798 103.779ZM230.089 142.135C233.1 142.376 238.519 142.918 242.131 143.219C248.815 143.881 254.234 145.025 252.789 145.507C252.368 145.687 248.935 145.507 245.142 145.085C241.349 144.724 236.17 144.603 233.34 144.844C227.62 145.266 224.429 144.423 223.164 142.014C222.502 140.81 222.562 140.75 223.526 141.111C224.188 141.352 227.138 141.834 230.089 142.135ZM363.58 161.945C369.722 162.246 377.73 162.968 381.343 163.45C389.532 164.594 398.504 166.28 398.142 166.581C397.962 166.762 394.65 166.461 390.736 165.919C375.141 163.872 369.421 163.57 351.176 163.932C331.547 164.293 323.719 165.076 305.776 168.568C296.503 170.314 295.841 170.374 294.396 169.471C293.252 168.689 293.071 168.327 293.613 167.665C294.516 166.521 295.119 166.4 303.247 165.016C321.191 161.945 342.747 160.861 363.58 161.945ZM400.611 167.123C400.43 167.304 399.888 167.364 399.467 167.183C398.985 167.003 399.166 166.822 399.828 166.822C400.491 166.762 400.852 166.942 400.611 167.123ZM319.926 176.757C319.745 176.938 319.204 176.998 318.782 176.817C318.3 176.637 318.481 176.456 319.143 176.456C319.806 176.396 320.167 176.576 319.926 176.757ZM308.967 179.406C284.642 185.548 254.595 197.35 231.654 209.754C227.56 211.981 224.128 213.667 223.947 213.547C223.706 213.246 233.28 206.984 241.409 202.107C256.041 193.195 277.476 184.946 296.925 180.55C314.567 176.637 323.178 175.794 308.967 179.406ZM235.147 191.991C236.471 192.834 235.508 194.279 232.076 196.447C230.33 197.591 226.175 200.24 222.863 202.347C217.504 205.719 210.038 211.138 204.8 215.414C201.849 217.822 192.035 227.456 188 232.032C185.893 234.381 183.424 237.09 182.521 238.114C181.618 239.077 182.22 238.174 183.785 236.006C185.411 233.839 186.977 231.791 187.338 231.43C187.639 231.009 188.903 229.564 190.047 228.118C192.998 224.385 204.619 212.824 209.617 208.549C215.638 203.431 222.623 198.253 228.584 194.64C234.183 191.148 233.942 191.268 235.147 191.991ZM349.912 225.168C349.731 225.469 349.069 225.77 348.527 225.77C347.624 225.77 347.624 225.65 348.407 225.168C349.611 224.385 350.394 224.385 349.912 225.168ZM347.202 226.372C347.202 226.673 346.721 226.974 346.179 226.974C345.276 226.974 345.215 226.854 345.998 226.372C347.142 225.65 347.202 225.65 347.202 226.372ZM340.158 274.783C345.516 278.155 347.022 279.841 347.564 282.972L347.925 285.08L346.721 283.153C345.336 281.045 342.265 278.817 336.063 275.446C331.547 272.977 328.416 270.448 328.898 269.665C329.319 268.943 334.859 271.471 340.158 274.783ZM255.98 286.585C255.378 287.247 254.776 287.669 254.595 287.548C254.294 287.187 255.86 285.441 256.522 285.381C256.823 285.381 256.582 285.923 255.98 286.585ZM140.974 311.814C141.155 312.115 141.034 312.536 140.673 312.777C140.372 312.958 140.071 312.717 140.071 312.235C140.071 311.152 140.432 310.971 140.974 311.814ZM253.873 312.777C253.873 313.62 253.632 314.283 253.271 314.283C252.608 314.283 252.428 312.296 253.09 311.694C253.752 311.031 253.873 311.212 253.873 312.777ZM290.603 312.175C290.603 312.657 290.904 313.078 291.205 313.078C291.566 313.078 291.807 313.379 291.807 313.741C291.807 314.222 291.506 314.162 290.904 313.681C290.362 313.259 289.76 313.078 289.579 313.319C289.338 313.56 289.519 313.982 290 314.283C290.482 314.644 290.663 314.885 290.301 314.885C290 314.885 289.338 314.644 288.917 314.343C288.194 313.921 288.194 313.62 288.856 312.536C289.82 311.031 290.603 310.911 290.603 312.175ZM120.803 314.644C120.803 315.126 120.562 315.366 120.201 315.186C119.9 315.005 119.599 314.584 119.599 314.222C119.599 313.921 119.9 313.681 120.201 313.681C120.562 313.681 120.803 314.102 120.803 314.644ZM249.658 314.524C249.658 314.704 249.417 315.005 249.056 315.186C248.755 315.366 248.454 315.246 248.454 314.945C248.454 314.584 248.755 314.283 249.056 314.283C249.417 314.283 249.658 314.403 249.658 314.524ZM284.22 315.186C283.979 315.668 283.558 315.908 283.257 315.728C282.895 315.487 282.956 315.126 283.437 314.825C284.581 314.102 284.581 314.162 284.22 315.186ZM136.759 315.487C136.94 315.848 136.518 316.089 135.736 316.089C134.652 316.089 134.531 315.969 135.254 315.487C136.398 314.764 136.338 314.764 136.759 315.487ZM371.769 315.908C371.167 316.029 370.204 316.029 369.662 315.908C369.06 315.728 369.541 315.607 370.685 315.607C371.829 315.607 372.311 315.728 371.769 315.908ZM122.007 316.33C122.007 316.511 121.766 316.812 121.405 316.992C121.104 317.173 120.803 317.052 120.803 316.751C120.803 316.39 121.104 316.089 121.405 316.089C121.766 316.089 122.007 316.209 122.007 316.33ZM282.173 317.534C282.173 317.715 281.932 318.016 281.571 318.196C281.27 318.377 280.969 318.257 280.969 317.956C280.969 317.594 281.27 317.293 281.571 317.293C281.932 317.293 282.173 317.414 282.173 317.534ZM429.513 327.65C429.332 328.132 429.152 327.951 429.152 327.289C429.092 326.626 429.272 326.265 429.453 326.506C429.633 326.686 429.694 327.228 429.513 327.65ZM139.047 328.493C150.367 331.323 165.18 341.679 173.429 352.457C176.68 356.612 177.644 358.419 176.078 357.214C175.657 356.853 174.753 356.431 174.151 356.191C173.188 355.89 173.128 355.95 173.79 356.733C174.272 357.274 174.272 357.636 173.911 357.636C173.549 357.636 173.068 357.335 172.887 357.034C172.706 356.672 171.261 356.431 169.816 356.431C166.685 356.431 166.444 356.191 161.808 349.447C159.158 345.653 151.933 338.368 150.789 338.368C149.886 338.368 150.307 339.452 151.271 339.813C151.812 340.054 152.114 340.355 151.873 340.596C151.692 340.776 151.03 340.535 150.488 340.054C149.163 338.91 146.092 338.127 146.092 338.91C146.092 339.211 146.454 339.632 146.875 339.753C147.297 339.933 147.297 340.114 146.935 340.114C145.912 340.174 143.864 338.127 144.105 337.284C144.286 336.923 144.105 336.561 143.804 336.561C143.443 336.561 142.781 336.381 142.239 336.2C141.697 336.019 141.275 336.14 141.275 336.501C141.275 336.862 141.576 337.103 141.998 336.983C142.359 336.923 142.841 337.344 142.961 337.946C143.142 338.849 142.961 338.91 141.576 338.368C140.673 338.006 139.71 337.886 139.409 338.067C139.168 338.247 138.265 338.006 137.422 337.465C136.458 336.802 135.856 336.682 135.555 337.103C135.073 337.946 131.641 337.946 131.641 337.163C131.641 336.802 131.34 336.561 130.979 336.561C130.678 336.561 130.557 336.923 130.798 337.284C131.16 337.886 131.039 337.886 130.377 337.284C129.413 336.441 127.065 336.32 126.523 337.163C125.981 338.006 123.693 337.886 123.934 337.043C124.115 336.622 124.837 336.14 125.68 335.959C127.005 335.598 126.945 335.538 125.138 335.237C124.054 335.116 123.031 335.176 122.85 335.478C122.308 336.381 120.622 336.019 120.984 335.056C121.285 334.394 121.044 334.333 119.84 334.755C117.913 335.538 116.407 335.538 116.889 334.815C117.25 334.213 114.3 334.875 112.855 335.718C110.025 337.284 115.263 333.37 118.696 331.323C125.981 326.927 130.437 326.325 139.047 328.493ZM386.04 327.891C390.134 328.914 399.166 333.972 398.624 334.875C398.383 335.237 398.022 335.237 397.6 334.815C396.878 334.093 395.132 333.912 395.613 334.635C395.734 334.875 395.192 335.417 394.349 335.779C393.145 336.381 392.904 336.32 393.145 335.718C393.506 334.815 388.568 334.875 387.424 335.779C386.521 336.501 379.055 337.163 379.416 336.501C379.597 336.32 378.031 336.2 375.924 336.381C373.877 336.501 371.528 336.622 370.685 336.622C369.842 336.622 368.518 336.561 367.675 336.561C366.47 336.561 366.772 336.26 369.18 335.056C373.214 333.009 370.143 333.852 365.266 336.08C360.028 338.488 354.609 342.402 351.357 346.195C345.637 352.939 343.228 355.408 340.82 357.094C339.074 358.298 338.171 358.599 337.99 358.057C337.809 357.515 337.448 357.515 336.485 358.057C335.762 358.479 335.16 358.539 335.039 358.238C334.919 357.877 334.076 358.358 333.173 359.201C330.403 361.79 330.825 360.586 334.377 355.829C346.239 340.054 365.447 328.312 381.524 326.988C382.066 326.988 384.113 327.349 386.04 327.891ZM365.868 336.802C365.868 336.923 365.447 337.344 364.965 337.766C364.182 338.428 364.122 338.368 364.423 337.525C364.724 336.682 365.868 336.14 365.868 336.802ZM137.663 338.368C137.663 338.669 137.542 338.97 137.422 338.97C137.241 338.97 136.94 338.669 136.759 338.368C136.579 338.006 136.699 337.766 137 337.766C137.361 337.766 137.663 338.006 137.663 338.368ZM202.09 348.724C202.09 349.507 200.705 349.025 200.404 348.122C200.284 347.701 200.524 347.52 201.127 347.761C201.669 347.942 202.09 348.423 202.09 348.724ZM203.896 350.41C203.896 350.711 203.776 351.012 203.656 351.012C203.475 351.012 203.174 350.711 202.993 350.41C202.813 350.049 202.933 349.808 203.234 349.808C203.595 349.808 203.896 350.049 203.896 350.41ZM169.997 357.395C169.816 357.576 169.274 357.636 168.853 357.455C168.371 357.274 168.552 357.094 169.214 357.094C169.876 357.034 170.238 357.214 169.997 357.395Z" fill="#016397"/>
<path d="M138.747 333.972C139.168 334.153 139.71 334.093 139.891 333.912C140.132 333.732 139.77 333.551 139.108 333.611C138.446 333.611 138.265 333.792 138.747 333.972Z" fill="#016397"/>
<path d="M145.55 336.2C146.152 336.742 149.705 338.367 149.705 338.126C149.705 337.765 146.393 335.959 145.731 335.959C145.49 335.959 145.43 336.079 145.55 336.2Z" fill="#016397"/>
<path d="M378.995 332.768C379.417 332.948 379.958 332.888 380.139 332.707C380.38 332.527 380.019 332.346 379.356 332.406C378.694 332.406 378.513 332.587 378.995 332.768Z" fill="#016397"/>
<path d="M373.576 333.37C373.997 333.551 374.539 333.49 374.72 333.31C374.961 333.129 374.599 332.948 373.937 333.009C373.275 333.009 373.094 333.189 373.576 333.37Z" fill="#016397"/>
<path d="M378.995 335.177C379.717 335.297 380.801 335.297 381.403 335.177C381.945 334.996 381.343 334.875 380.019 334.936C378.694 334.936 378.212 335.056 378.995 335.177Z" fill="#016397"/>
<path d="M372.372 335.779C372.793 335.96 373.335 335.899 373.516 335.719C373.756 335.538 373.395 335.357 372.733 335.418C372.07 335.418 371.89 335.598 372.372 335.779Z" fill="#016397"/>
<path d="M397.54 227.155L394.048 229.022L394.409 232.092C397.901 262.018 394.951 285.2 384.293 311.513C383.089 314.463 382.246 317.052 382.426 317.233C383.089 317.835 390.856 319.642 391.218 319.22C391.94 318.377 396.516 305.431 398.262 299.23C400.31 292.004 401.514 286.585 403.019 277.553C404.525 268.461 404.525 242.088 403.019 232.695C402.417 229.082 401.755 225.891 401.514 225.65C401.273 225.409 399.527 226.071 397.54 227.155Z" fill="#016397"/>
<path d="M342.386 228.72C342.386 229.021 341.904 229.443 341.362 229.563C340.519 229.804 340.459 229.864 341.242 229.925C341.723 229.925 342.687 229.563 343.349 229.082C344.373 228.299 344.373 228.239 343.47 228.178C342.867 228.178 342.386 228.419 342.386 228.72Z" fill="#016397"/>
<path d="M338.652 231.009C339.074 231.189 339.615 231.129 339.796 230.949C340.037 230.768 339.676 230.587 339.013 230.648C338.351 230.648 338.17 230.828 338.652 231.009Z" fill="#016397"/>
<path d="M331.547 234.019C329.078 235.223 326.61 236.367 326.128 236.668C324.803 237.391 318.963 240.402 316.072 241.907C312.941 243.533 311.918 244.195 310.713 245.459C309.991 246.182 309.208 246.603 309.028 246.363C308.787 246.182 308.425 246.242 308.185 246.603C307.944 246.905 306.8 247.687 305.595 248.229C304.391 248.771 303.066 249.614 302.645 250.156C302.224 250.638 301.561 251.059 301.2 251.059C300.236 251.059 297.166 253.829 297.647 254.311C298.249 254.853 299.153 254.732 298.791 254.13C298.611 253.829 298.852 253.407 299.394 253.227C299.875 253.046 300.116 253.106 299.935 253.468C299.755 253.829 299.875 254.07 300.236 254.07C300.598 254.07 301.019 253.648 301.2 253.167C301.441 252.685 301.922 252.263 302.404 252.263C302.826 252.263 303.488 251.722 303.849 251.059C304.211 250.397 304.873 249.855 305.355 249.855C305.836 249.855 306.258 249.554 306.258 249.193C306.258 248.892 306.499 248.711 306.8 248.892C307.101 249.132 308.185 248.59 309.148 247.747C310.111 246.905 311.255 246.242 311.617 246.242C311.978 246.242 312.279 245.941 312.279 245.64C312.279 245.279 312.52 245.038 312.821 245.038C313.182 245.038 314.989 244.135 316.915 242.991C322.515 239.739 326.068 237.812 332.089 234.681C338.592 231.309 338.231 230.768 331.547 234.019Z" fill="#016397"/>
<path d="M296.443 255.334C296.864 255.756 297.346 255.937 297.527 255.756C297.707 255.575 297.406 255.214 296.804 255.033C295.961 254.672 295.901 254.732 296.443 255.334Z" fill="#016397"/>
<path d="M292.71 257.683C292.891 257.984 293.372 258.285 293.673 258.285C294.035 258.285 294.095 257.984 293.914 257.683C293.734 257.322 293.252 257.081 292.951 257.081C292.59 257.081 292.529 257.322 292.71 257.683Z" fill="#016397"/>
<path d="M290.001 258.526C290.001 258.646 290.422 259.068 290.904 259.489C291.687 260.152 291.747 260.091 291.446 259.248C291.145 258.405 290.001 257.864 290.001 258.526Z" fill="#016397"/>
<path d="M288.194 260.151C288.194 260.452 288.495 260.573 288.796 260.392C289.158 260.212 289.399 259.91 289.399 259.73C289.399 259.609 289.158 259.489 288.796 259.489C288.495 259.489 288.194 259.79 288.194 260.151Z" fill="#016397"/>
<path d="M287.592 262.199C287.171 262.68 287.11 263.102 287.472 263.102C287.773 263.102 288.375 262.68 288.796 262.199C289.218 261.717 289.278 261.295 288.917 261.295C288.616 261.295 288.014 261.717 287.592 262.199Z" fill="#016397"/>
<path d="M285.183 264.366C285.183 264.667 285.484 264.788 285.785 264.607C286.147 264.426 286.387 264.125 286.387 263.945C286.387 263.824 286.147 263.704 285.785 263.704C285.484 263.704 285.183 264.005 285.183 264.366Z" fill="#016397"/>
<path d="M282.594 264.668C282.413 264.848 282.413 265.39 282.594 265.872C282.835 266.534 283.136 266.594 283.738 266.052C284.22 265.691 284.4 265.149 284.22 264.848C283.858 264.246 283.136 264.126 282.594 264.668Z" fill="#016397"/>
<path d="M280.969 266.715C281.571 267.076 281.631 267.317 281.149 267.317C280.728 267.317 280.366 267.618 280.366 267.979C280.366 268.461 280.668 268.461 281.27 267.919C282.233 267.136 281.932 266.113 280.788 266.113C280.366 266.113 280.427 266.353 280.969 266.715Z" fill="#016397"/>
<path d="M269.167 275.867C269.347 276.65 269.347 276.891 269.167 276.469C268.685 275.385 267.481 275.566 266.517 276.951C266.036 277.613 265.313 278.155 264.892 278.155C264.53 278.155 264.049 278.637 263.868 279.239C263.627 279.901 262.784 280.744 262.001 281.166C260.496 282.009 260.014 282.972 261.098 282.972C261.46 282.972 261.7 282.671 261.7 282.37C261.7 281.527 263.326 281.647 263.748 282.49C263.928 282.912 263.928 282.671 263.808 282.009C263.447 280.624 264.892 279.6 266.096 280.383C266.517 280.624 266.578 280.383 266.337 279.721C266.036 278.938 266.156 278.757 266.999 278.998C267.661 279.239 268.685 278.757 269.709 277.854C271.334 276.289 271.876 275.325 270.732 276.048C270.431 276.228 270.13 275.988 270.13 275.506C270.13 274.964 269.829 274.542 269.468 274.542C269.107 274.542 268.986 275.145 269.167 275.867Z" fill="#016397"/>
<path d="M258.87 283.815C258.329 284.478 258.389 284.899 259.051 285.742C259.894 286.826 259.954 286.826 259.593 285.561C259.292 284.417 259.412 284.237 260.255 284.598C260.918 284.839 261.159 284.718 260.978 284.177C260.617 283.033 259.713 282.852 258.87 283.815Z" fill="#016397"/>
<path d="M287.893 308.864C287.712 309.165 287.833 309.466 288.134 309.466C288.495 309.466 288.796 309.165 288.796 308.864C288.796 308.502 288.676 308.262 288.555 308.262C288.375 308.262 288.074 308.502 287.893 308.864Z" fill="#016397"/>
<path d="M382.848 310.67C382.848 311.513 382.969 311.814 383.149 311.393C383.27 311.031 383.27 310.309 383.149 309.887C382.969 309.526 382.848 309.827 382.848 310.67Z" fill="#016397"/>
<path d="M249.658 310.67C249.176 310.971 248.935 311.392 249.116 311.573C249.356 311.753 249.838 311.513 250.26 310.971C251.103 309.947 250.922 309.827 249.658 310.67Z" fill="#016397"/>
<path d="M115.083 327.53C113.939 328.011 113.939 328.072 115.203 328.072C115.926 328.132 116.709 327.831 116.889 327.53C117.311 326.807 116.769 326.807 115.083 327.53Z" fill="#016397"/>
<path d="M198.176 344.991C198.357 345.292 198.658 345.593 198.839 345.593C198.959 345.593 199.079 345.292 199.079 344.991C199.079 344.63 198.778 344.389 198.417 344.389C198.116 344.389 197.996 344.63 198.176 344.991Z" fill="#016397"/>
<path d="M321.612 349.808C321.431 350.109 321.552 350.41 321.853 350.41C322.214 350.41 322.515 350.109 322.515 349.808C322.515 349.447 322.395 349.206 322.274 349.206C322.094 349.206 321.793 349.447 321.612 349.808Z" fill="#016397"/>
</svg>
