<svg xmlns="http://www.w3.org/2000/svg" style="display: none;"><symbol id="camera-flash" viewBox="0 0 24 24"><title>camera flash</title><g class="nc-icon-wrapper"><path fill="currentColor" d="M19.882,7.528C19.708,7.203,19.369,7,19,7h-4.674l1.636-5.725c0.086-0.302,0.026-0.626-0.163-0.877 S15.314,0,15,0H8C7.549,0,7.154,0.302,7.035,0.737l-3,11c-0.082,0.301-0.019,0.623,0.17,0.87C4.395,12.854,4.688,13,5,13h4.802 l-1.786,9.821c-0.085,0.466,0.169,0.928,0.609,1.106C8.748,23.977,8.875,24,9,24c0.327,0,0.643-0.16,0.833-0.445l10-15 C20.037,8.248,20.056,7.854,19.882,7.528z" stroke="none"></path></g></symbol><symbol id="comment" viewBox="0 0 24 24"><title>comment</title><g class="nc-icon-wrapper"><path fill="currentColor" d="M12,1C5.4,1,0,5.5,0,11s5.4,10,12,10c1,0,2-0.1,3-0.3l5.6,2.2c0.1,0,0.2,0.1,0.4,0.1c0.2,0,0.4-0.1,0.6-0.2 c0.3-0.2,0.4-0.6,0.4-0.9l-0.5-4.7c1.6-1.8,2.5-3.9,2.5-6.1C24,5.5,18.6,1,12,1z" stroke="none"></path></g></symbol><symbol id="magnifier" viewBox="0 0 24 24"><title>magnifier</title><g class="nc-icon-wrapper"><path d="M22.707,19.293l-4.875-4.875a9.022,9.022,0,1,0-3.414,3.414l4.875,4.875a1,1,0,0,0,1.414,0l2-2A1,1,0,0,0,22.707,19.293ZM3,10a7,7,0,1,1,7,7A7.008,7.008,0,0,1,3,10Z" fill="currentColor" stroke="none"></path></g></symbol><symbol id="energy" viewBox="0 0 24 24"><title>energy</title><g class="nc-icon-wrapper"><path d="M14.586,9.439S15.7,2.858,11.138,0A8.055,8.055,0,0,1,8.1,5.831C6.149,7.546,2.481,11.4,2.52,15.51A9.435,9.435,0,0,0,7.7,24a5.975,5.975,0,0,1,2.091-4.132,4.877,4.877,0,0,0,1.869-3.278,8.786,8.786,0,0,1,4.652,7.322v.02a8.827,8.827,0,0,0,5.137-7.659c.324-3.863-1.792-9.112-3.668-10.828A10.192,10.192,0,0,1,14.586,9.439Z" fill="currentColor" stroke="none"></path></g></symbol><symbol id="plant-leaf" viewBox="0 0 24 24"><title>plant leaf</title><g class="nc-icon-wrapper"><path fill="currentColor" d="M22.7,1.3C22.5,1.1,22.2,1,21.8,1C21.4,1.1,10.7,2.9,6.3,7.3c-3.1,3.1-3.3,6.5-2.8,8.9L7.2,14 c0.5-0.3,1,0.4,0.6,0.8l-3.7,3.7l-0.7,0.7l-2.2,2.2c-0.4,0.4-0.4,1,0,1.4C1.5,22.9,1.7,23,2,23s0.5-0.1,0.7-0.3l2.8-2.8 c0.8,0.4,2.3,0.9,4.2,0.9c2.6,0,5-1,7-3C21.5,13,22.9,2.6,23,2.1C23,1.8,22.9,1.5,22.7,1.3z" stroke="none"></path></g></symbol><symbol id="accessibility" viewBox="0 0 24 24"><title>accessibility new</title><g class="nc-icon-wrapper"><path d="M20.5 6c-2.61.7-5.67 1-8.5 1s-5.89-.3-8.5-1L3 8c1.86.5 4 .83 6 1v13h2v-6h2v6h2V9c2-.17 4.14-.5 6-1l-.5-2zM12 6c1.1 0 2-.9 2-2s-.9-2-2-2-2 .9-2 2 .9 2 2 2z" fill="currentColor" stroke="none"></path></g></symbol><symbol id="logo-behance" viewBox="0 0 32 32"><title>logo behance</title><g class="nc-icon-wrapper"><path fill="currentColor" d="M12.91448,14.92739c0,0,3.02816-0.22496,3.02816-3.77614c0-3.55126-2.47759-5.28428-5.61587-5.28428H4.5502 H4.38049H0v19.84575h4.38049H4.5502h5.77656c0,0,6.3041,0.19871,6.3041-5.85762 C16.63087,19.85509,16.90612,14.92739,12.91448,14.92739z M4.5502,9.39409h5.03325h0.74332c0,0,1.40394,0,1.40394,2.06468 s-0.82588,2.36405-1.76182,2.36405H4.5502V9.39409z M10.06052,22.18557H4.5502v-5.30362h5.77656 c0,0,2.09217-0.02748,2.09217,2.72531C12.41894,21.90255,10.88864,22.16254,10.06052,22.18557z" stroke="none"></path> <path fill="currentColor" d="M25.03876,10.91613c-7.63172,0-7.62482,7.62486-7.62482,7.62486s-0.52373,7.58641,7.62504,7.58641 c0,0,6.79079,0.38787,6.79079-5.27744H28.3373c0,0,0.11635,2.13395-3.18196,2.13395c0,0-3.49252,0.23359-3.49252-3.45314h10.28331 C31.94613,19.53078,33.07117,10.91613,25.03876,10.91613z M28.14303,16.88195h-6.51911c0,0,0.42687-3.05913,3.49247-3.05913 C28.18203,13.82282,28.14303,16.88195,28.14303,16.88195z" stroke="none"></path> <rect x="20.76946" y="7" width="8.18766" height="2" stroke="none"></rect></g></symbol><symbol id="logo-github" viewBox="0 0 32 32"><title>logo github</title><g class="nc-icon-wrapper"><path fill-rule="evenodd" clip-rule="evenodd" fill="currentColor" d="M16,0.4c-8.8,0-16,7.2-16,16c0,7.1,4.6,13.1,10.9,15.2 c0.8,0.1,1.1-0.3,1.1-0.8c0-0.4,0-1.4,0-2.7c-4.5,1-5.4-2.1-5.4-2.1c-0.7-1.8-1.8-2.3-1.8-2.3c-1.5-1,0.1-1,0.1-1 c1.6,0.1,2.5,1.6,2.5,1.6c1.4,2.4,3.7,1.7,4.7,1.3c0.1-1,0.6-1.7,1-2.1c-3.6-0.4-7.3-1.8-7.3-7.9c0-1.7,0.6-3.2,1.6-4.3 c-0.2-0.4-0.7-2,0.2-4.2c0,0,1.3-0.4,4.4,1.6c1.3-0.4,2.6-0.5,4-0.5c1.4,0,2.7,0.2,4,0.5C23.1,6.6,24.4,7,24.4,7 c0.9,2.2,0.3,3.8,0.2,4.2c1,1.1,1.6,2.5,1.6,4.3c0,6.1-3.7,7.5-7.3,7.9c0.6,0.5,1.1,1.5,1.1,3c0,2.1,0,3.9,0,4.4 c0,0.4,0.3,0.9,1.1,0.8C27.4,29.5,32,23.5,32,16.4C32,7.6,24.8,0.4,16,0.4z" stroke="none"></path></g></symbol><symbol id="logo-product-hunt" viewBox="0 0 32 32"><title>logo product hunt</title><g class="nc-icon-wrapper"><path fill="currentColor" d="M18.1,11.2L18.1,11.2l-4.5,0V16h4.5v0c1.3,0,2.4-1.1,2.4-2.4C20.5,12.3,19.5,11.2,18.1,11.2z" stroke="none"></path> <path fill="currentColor" d="M16,0C7.2,0,0,7.2,0,16s7.2,16,16,16s16-7.2,16-16S24.8,0,16,0z M18.1,19.2L18.1,19.2l-4.5,0V24h-3.2V8 l7.7,0v0c3.1,0,5.6,2.5,5.6,5.6C23.7,16.7,21.2,19.2,18.1,19.2z" stroke="none"></path></g></symbol><symbol id="logo-youtube" viewBox="0 0 32 32"><title>logo youtube</title><g class="nc-icon-wrapper"><path fill="currentColor" d="M31.7,9.6c0,0-0.3-2.2-1.3-3.2c-1.2-1.3-2.6-1.3-3.2-1.4C22.7,4.7,16,4.7,16,4.7h0c0,0-6.7,0-11.2,0.3 c-0.6,0.1-2,0.1-3.2,1.4c-1,1-1.3,3.2-1.3,3.2S0,12.2,0,14.8v2.4c0,2.6,0.3,5.2,0.3,5.2s0.3,2.2,1.3,3.2c1.2,1.3,2.8,1.2,3.5,1.4 C7.7,27.2,16,27.3,16,27.3s6.7,0,11.2-0.3c0.6-0.1,2-0.1,3.2-1.4c1-1,1.3-3.2,1.3-3.2s0.3-2.6,0.3-5.2v-2.4 C32,12.2,31.7,9.6,31.7,9.6z M12.7,20.2l0-9l8.6,4.5L12.7,20.2z" stroke="none"></path></g></symbol><symbol id="logo-dribbble" viewBox="0 0 32 32"><title>logo dribbble</title><g class="nc-icon-wrapper"><path fill-rule="evenodd" clip-rule="evenodd" fill="currentColor" d="M16,32C7.2,32,0,24.8,0,16S7.2,0,16,0s16,7.2,16,16S24.8,32,16,32z M29.5,18.2C29,18,25.3,16.9,21,17.6c1.8,4.9,2.5,8.9,2.7,9.7C26.7,25.3,28.9,22,29.5,18.2z M21.3,28.6c-0.2-1.2-1-5.4-2.9-10.4 c0,0-0.1,0-0.1,0c-7.7,2.7-10.5,8-10.7,8.5c2.3,1.8,5.2,2.9,8.4,2.9C17.9,29.7,19.7,29.3,21.3,28.6z M5.8,25.2 c0.3-0.5,4.1-6.7,11.1-9c0.2-0.1,0.4-0.1,0.5-0.2c-0.3-0.8-0.7-1.6-1.1-2.3c-6.8,2-13.4,2-14,1.9c0,0.1,0,0.3,0,0.4 C2.3,19.5,3.7,22.7,5.8,25.2z M2.6,13.2c0.6,0,6.2,0,12.6-1.7c-2.3-4-4.7-7.4-5.1-7.9C6.4,5.5,3.5,9,2.6,13.2z M12.8,2.7 c0.4,0.5,2.9,3.9,5.1,8c4.9-1.8,6.9-4.6,7.2-4.9c-2.4-2.1-5.6-3.4-9.1-3.4C14.9,2.4,13.8,2.5,12.8,2.7z M26.6,7.4 c-0.3,0.4-2.6,3.3-7.6,5.4c0.3,0.7,0.6,1.3,0.9,2c0.1,0.2,0.2,0.5,0.3,0.7c4.5-0.6,9.1,0.3,9.5,0.4C29.6,12.7,28.5,9.7,26.6,7.4z" stroke="none"></path></g></symbol><symbol id="tiktok" viewBox="0 0 32 32"><title>tiktok</title><g class="nc-icon-wrapper"><path d="M13.586,11.917v5.5a4.784,4.784,0,0,0-6,4.431,4.324,4.324,0,0,0,4.623,4.589c3.416,0,4.623-2.4,4.623-4.651V0h5.438c.925,5.753,3.8,7.088,7.654,7.705v5.512s-4.572-.325-7.5-2.533V21.573C22.421,26.5,19.5,32,12.25,32,5.522,32,2.08,26.3,2.08,21.522A10.02,10.02,0,0,1,13.586,11.917Z" fill="currentColor" stroke="none"></path></g></symbol><symbol id="logo-linkedin" viewBox="0 0 32 32"><title>logo linkedin</title><g class="nc-icon-wrapper"><path d="M29,1H3A2,2,0,0,0,1,3V29a2,2,0,0,0,2,2H29a2,2,0,0,0,2-2V3A2,2,0,0,0,29,1ZM9.887,26.594H5.374V12.25H9.887ZM7.63,10.281a2.625,2.625,0,1,1,2.633-2.625A2.624,2.624,0,0,1,7.63,10.281ZM26.621,26.594H22.2V19.656c0-1.687,0-3.75-2.35-3.75s-2.633,1.782-2.633,3.656v7.126H12.8V12.25h4.136v1.969h.094a4.7,4.7,0,0,1,4.231-2.344c4.513,0,5.359,3,5.359,6.844Z" fill="currentColor" stroke="none"></path></g></symbol><symbol id="logo-facebook" viewBox="0 0 32 32"><title>logo facebook</title><g class="nc-icon-wrapper"><path d="M32,16A16,16,0,1,0,13.5,31.806V20.625H9.438V16H13.5V12.475c0-4.01,2.389-6.225,6.043-6.225a24.644,24.644,0,0,1,3.582.312V10.5H21.107A2.312,2.312,0,0,0,18.5,13v3h4.438l-.71,4.625H18.5V31.806A16,16,0,0,0,32,16Z" fill="currentColor" stroke="none"></path></g></symbol><symbol id="logo-twitter" viewBox="0 0 32 32"><title>logo twitter</title><g class="nc-icon-wrapper"><path fill="currentColor" d="M32,6.1c-1.2,0.5-2.4,0.9-3.8,1c1.4-0.8,2.4-2.1,2.9-3.6c-1.3,0.8-2.7,1.3-4.2,1.6C25.7,3.8,24,3,22.2,3 c-3.6,0-6.6,2.9-6.6,6.6c0,0.5,0.1,1,0.2,1.5C10.3,10.8,5.5,8.2,2.2,4.2c-0.6,1-0.9,2.1-0.9,3.3c0,2.3,1.2,4.3,2.9,5.5 c-1.1,0-2.1-0.3-3-0.8c0,0,0,0.1,0,0.1c0,3.2,2.3,5.8,5.3,6.4c-0.6,0.1-1.1,0.2-1.7,0.2c-0.4,0-0.8,0-1.2-0.1 c0.8,2.6,3.3,4.5,6.1,4.6c-2.2,1.8-5.1,2.8-8.2,2.8c-0.5,0-1.1,0-1.6-0.1C2.9,27.9,6.4,29,10.1,29c12.1,0,18.7-10,18.7-18.7 c0-0.3,0-0.6,0-0.8C30,8.5,31.1,7.4,32,6.1z" stroke="none"></path></g></symbol></svg>