<svg width="543" height="547" viewBox="0 0 543 547" fill="none" xmlns="http://www.w3.org/2000/svg">
<path d="M20.5418 379.479C6.1363 343.961 -0.342785 307.356 0.181538 269.461C1.9664 140.462 96.6586 27.9852 222.692 5.16675C348.361 -17.5856 472.435 49.4043 522.174 167.069C533.864 194.723 540.029 223.731 542.177 253.688C545.621 301.724 537.458 347.752 516.494 390.928C479.022 468.103 418.159 517.667 334.946 538.496C217.105 567.992 93.0602 513.748 34.3928 408.066C29.3091 398.908 24.6249 389.551 20.5418 379.479Z" fill="#42493F"/>
<path d="M214.671 428.722C208.301 431.495 204.61 436.409 199.972 441.162C198.36 422.218 205.259 407.317 217.433 394.136C230.503 379.983 247.389 373.526 265.414 369.063C275.944 366.456 286.151 363.024 295.753 357.146C298.952 352.244 304.108 350.122 308.018 346.529C316.695 338.555 323.874 329.456 329.966 319.483C353.511 280.932 366.639 238.731 373.432 194.352C374.436 187.791 375.26 181.204 376.656 174.709C376.816 174.06 375.535 174.744 376.198 174.673C376.279 174.665 376.318 174.759 376.289 174.951C373.938 190.621 369.426 205.738 364.191 220.625C353.435 251.215 339.891 280.458 321.361 307.218C320.042 309.122 318.981 311.257 316.507 312.577C315.22 313.373 312.186 311.333 313.46 315.165C312.445 320.772 308.204 323.931 304.832 327.379C299.267 333.07 293.023 338.131 286.149 342.298C284.265 343.439 282.316 344.306 279.701 344.243C277.437 344.13 275.072 343.009 274.562 346.658C272.712 349.127 270.439 350.055 267.385 350.06C266.691 349.947 266.378 349.843 266.063 349.749C261.463 348.393 247.926 351.884 244.25 355.555C242.6 356.262 241.206 356.718 239.445 357.217C236.618 355.942 234.14 356.468 232.025 357.785C228.741 359.83 225.466 361.946 222.627 364.971C219.323 367.811 216.02 370.31 212.4 372.92C208.49 373.538 208.874 371.263 210.471 369.893C213.186 367.563 213.067 365.472 212.244 362.242C211.348 358.727 211.061 354.54 216.062 352.883C217.662 352.353 218.339 350.555 219.668 349.088C219.844 348.786 219.923 348.902 219.861 348.869C224.081 347.658 228.143 346.021 231.725 342.822C237.321 339.824 243.13 338.109 249.446 336.667C250.435 336.831 251.004 336.831 251.772 336.289C271.474 331.077 287.18 320.07 300.793 305.193C301.764 303.555 301.992 301.71 304.312 301.366C307.161 302.004 306.517 299.932 306.968 298.408C308.698 292.561 313.617 289.218 316.375 284.026C316.661 283.535 316.77 283.336 317.065 282.851C317.381 282.38 317.511 282.193 318.033 281.438C318.787 280.256 319.165 279.652 319.687 278.692C341.468 246.055 354.701 210.331 362.812 172.575C365.859 158.39 367.451 143.854 367.126 129.444C366.559 104.305 362.038 79.8008 350.094 57.1999C349.86 56.7571 349.764 56.2599 349.67 55.367C353.632 51.9328 357.698 49.0328 361.498 45.8179C363.539 44.0917 364.272 44.9545 365.029 46.8072C367.414 52.6471 370.034 58.4045 372.104 64.3539C373.219 67.5593 374.878 69.5004 377.936 71.1287C427.163 97.3402 463.601 135.302 484.325 187.585C487.885 196.565 490.461 205.847 492.856 215.576C492.568 216.332 492.168 216.492 491.423 216.166C466.827 166.659 428.55 132.286 378.385 110.133C378.589 114.47 378.857 118.427 378.925 122.388C378.956 124.202 380.151 125.002 381.301 125.939C427.636 163.682 455.862 212.365 468.473 270.439C472.913 290.886 474.913 311.687 473.538 332.487C472.455 348.846 466.417 364.31 459.222 378.965C428.568 441.413 378.325 478.916 310.88 493.921C285.187 499.637 259.288 498.942 233.405 494.921C231.54 494.631 229.968 493.933 228.537 492.644C220.923 485.788 214.533 478.028 209.637 468.954C205.726 461.707 205.263 454.836 210.207 447.586C213.444 441.538 218.984 440.243 224.702 439.632C231.894 438.864 238.547 440.807 244.791 444.376C251.737 448.345 258.242 453.005 265.123 457.091C282.698 467.525 301.344 470.448 321.377 466.706C347.327 461.858 369.643 449.89 389.479 432.908C419.339 407.345 436.678 374.414 445.715 336.658C445.831 336.171 445.887 335.677 445.755 335.138C444.997 334.297 444.278 334.965 443.625 335.316C427.437 344.011 410.326 346.209 392.282 343.174C379.4 341.007 366.845 337.82 354.885 332.588C350.84 330.818 348.474 331.776 346.207 335.345C339.759 345.494 332.479 354.939 323.368 362.968C308.052 376.465 289.824 383.745 270.42 388.723C264.617 390.212 258.811 391.613 253.257 394.014C240.142 399.683 230.163 408.966 221.944 420.392C220.195 422.824 218.748 425.473 216.397 427.94C215.884 428.341 215.662 428.48 214.671 428.722Z" fill="#F1DEC1"/>
<path d="M57.0009 342.473C67.1368 354.881 78.4874 365.239 93.9303 369.865C112.005 375.279 129.113 371.225 145.707 363.659C153.294 360.2 155.191 356.839 154.54 348.663C154.322 345.928 152.035 346.461 150.5 346.057C125.816 339.557 103.598 328.371 84.6908 311.09C64.5675 292.697 50.0015 270.872 44.6004 243.709C42.516 233.227 41.7603 222.615 43.0187 211.507C45.6385 211.067 45.141 213.233 45.4725 214.667C55.7507 259.141 81.0413 292.177 121.139 313.871C130.979 319.195 141.29 323.452 152.141 326.324C157.721 327.801 158.374 327.495 160.18 322.192C162.68 314.845 162.719 314.779 155.922 310.811C143.456 303.533 132.102 294.926 123.006 283.593C120.508 280.481 117.429 278.685 113.478 277.741C103.081 275.259 93.0867 271.522 83.4938 266.801C81.1947 265.669 77.4052 264.292 78.2677 261.621C79.3019 258.418 82.8666 260.571 85.2677 261.04C93.269 262.603 101.183 264.606 109.627 265.971C109.788 264.008 108.579 262.78 107.819 261.443C104.109 254.912 100.177 248.341 98.462 241.062C96.171 231.34 90.3936 224.613 82.848 218.74C74.3734 212.144 67.5394 203.943 61.1925 195.341C59.8195 193.48 58.338 191.609 58.403 188.727C58.6365 188.148 58.7835 187.94 59.2818 187.576C62.5321 187.254 64.0273 189.474 65.836 191.116C73.4518 198.029 81.1976 204.781 90.2283 211.458C87.303 191.823 88.0241 173.141 92.4064 154.683C94.3195 146.625 95.9689 138.416 100.877 131.047C101.478 130.831 101.742 130.823 102.295 131.088C103.925 133.811 103.023 136.243 102.486 138.658C95.0395 172.158 98.3804 204.524 112.712 235.723C113.652 237.768 114.337 240.034 116.154 241.631C118.07 240.37 118.233 238.424 118.852 236.778C122.661 226.642 127.016 216.72 130.682 206.529C131.02 205.587 131.416 204.666 132.032 203.865C132.552 203.19 133.16 202.599 134.094 202.722C135.336 202.887 135.694 203.881 135.719 204.893C135.807 208.393 135.599 211.881 135.076 215.35C133.283 227.249 130.21 238.845 126.336 250.204C124.879 254.474 125.421 257.687 128.292 261.172C138.684 273.788 151.032 283.944 165.743 292.349C165.924 289.514 164.359 288.161 163.256 286.72C147.693 266.388 141.393 242.829 139.419 217.835C136.023 174.832 146.692 134.271 161.119 94.3751C165.149 83.2303 170.405 72.6342 175.318 61.8833C176.564 59.1548 178.033 56.521 180.823 54.4053C184.38 52.3384 188.015 52.1762 192.129 51.2149C182.844 70.7787 175.424 90.313 169.569 110.436C160.025 143.236 154.003 176.545 156.031 210.864C157.225 231.078 162.387 250.223 173.696 267.354C175.7 270.389 177.708 273.434 180.002 275.53C189.576 268.479 189.582 260.237 186.384 249.187C175.711 212.31 179.484 175.642 192.27 139.852C203.3 108.976 218.709 80.4361 242.227 57.2094C260.658 39.0054 256.737 41.6429 281.314 42.7719C303.574 43.7944 325.064 48.9919 346.536 55.9815C347.266 59.2443 344.524 59.7391 342.659 60.8365C326.81 70.1616 309.707 76.7723 292.762 83.7105C276.869 90.218 261.076 96.9873 246.829 106.685C215.611 127.934 200.089 157.684 199.508 195.383C199.275 210.514 201.583 225.243 206.031 239.656C207.553 244.59 208.312 244.74 212.54 241.974C214.687 240.57 216.328 238.761 217.53 236.506C231.11 211.026 248.253 188.221 269.142 168.29C272.566 165.024 273.763 161.161 274.308 156.78C275.959 143.522 278.892 130.544 282.977 117.828C283.995 114.656 285.19 111.542 286.694 108.564C287.294 107.376 288.116 105.815 289.492 106.068C291.296 106.399 291.285 108.305 291.144 109.784C290.637 115.085 290.068 120.382 289.381 125.663C288.246 134.395 287.523 143.178 285.916 152.558C303.066 134.793 319.65 117.393 332.801 97.0614C334.053 95.1271 335.004 92.9148 337.5 91.565C338.131 91.5024 338.387 91.536 338.967 91.7839C340.484 94.4261 339.259 96.5789 338.372 98.674C332.95 111.472 325.512 123.105 317.428 134.34C309.447 145.431 300.75 155.95 291.644 166.135C290.671 167.224 289.415 168.162 289.087 170.303C296.465 170.482 303.663 169.392 310.875 168.875C314.035 168.648 317.179 168.297 320.337 168.583C321.769 168.712 323.671 168.694 323.906 170.57C324.125 172.328 322.471 173.085 321.088 173.632C314.727 176.146 308.184 178.115 301.508 179.562C294.841 181.006 288.158 182.416 281.295 182.69C278.418 182.805 275.746 183.571 273.651 185.822C261.145 199.266 249.707 213.529 240.181 229.267C239.925 229.689 239.762 230.162 239.817 231.047C241.696 231.76 243.555 230.811 245.348 230.401C269.254 224.94 292.638 227.039 315.634 235.092C318.154 235.974 320.613 236.998 322.947 238.292C323.937 238.841 325.326 239.421 324.884 240.81C324.502 242.009 323.115 242.24 321.926 242.259C318.759 242.308 315.655 241.603 312.479 241.527C279.445 240.73 250.976 252.326 225.722 273.024C214.403 282.301 204.907 293.103 196.95 305.336C195.603 307.407 194.558 309.754 192.009 311.314C182.94 324.902 177.762 339.805 174.64 355.349C165.577 400.467 172.265 442.689 198.774 481.035C200.523 483.565 202.396 486.009 203.763 488.899C130.61 464.885 81.2798 416.665 56.1486 343.369C56.2633 342.814 56.4391 342.624 57.0009 342.473Z" fill="#F1DEC1"/>
<path d="M191.96 311.713C197.357 300 205.263 290.147 214.292 281.241C232.513 263.267 253.582 249.971 278.616 243.632C293.419 239.883 308.436 238.635 323.697 240.706C310.386 233.474 295.855 230.681 281.055 229.305C266.024 227.908 251.228 230.096 236.831 234.086C235.72 232.351 236.939 231.568 237.454 230.684C247.481 213.46 260.115 198.209 273.364 183.434C275.595 180.947 278.819 181.281 281.74 181.058C295.451 180.013 308.598 176.573 321.464 171.897C322.055 171.682 322.577 171.274 323.014 169.872C310.61 170.669 298.205 171.465 284.252 172.36C306.09 147.14 327.164 122.924 339.438 92.3033C339.363 91.26 338.943 91.173 338.135 91.7322C325.288 113.87 296.58 145.171 284.163 155.43C286.114 139.182 288.04 123.139 289.967 107.096C284.818 115.495 282.332 124.744 280.042 134.041C277.815 143.085 276.365 152.284 275.231 161.521C274.971 163.638 274.312 165.192 272.766 166.692C250.875 187.939 232.078 211.541 218.208 238.857C216.162 242.886 211.883 244.182 208.491 246.375C206.033 247.963 205.987 244.525 205.515 243.135C199.29 224.787 196.577 205.873 198.213 186.591C200.7 157.292 212.568 132.468 235.298 113.325C250.388 100.616 268.049 92.3909 286.041 84.8244C305.514 76.635 325.38 69.3193 343.677 58.555C344.675 57.9675 345.63 57.3043 346.75 56.3789C347.618 55.7004 348.34 55.3192 349.37 54.951C354.624 59.4041 356.173 65.7135 358.268 71.5482C367.803 98.1007 370.766 125.409 367.188 153.459C361.376 199.026 345.99 241.052 320.833 279.804C319.834 280.216 319.499 280.765 319.203 281.781C319.018 282.07 319.014 282.003 319.047 282.01C318.799 282.201 318.548 282.419 318.183 282.877C318.039 283.08 318.015 283.008 318.047 283.028C312.075 289.38 306.315 295.993 298.087 300.205C290.614 303.753 284.042 308.289 276.606 311.265C248.561 322.49 220.479 323.122 191.96 311.713Z" fill="#566500"/>
<path d="M58.7585 187.98C64.4281 199.19 73.0915 207.709 81.94 216.042C85.4474 219.346 89.2672 222.317 92.9436 225.44C94.2138 226.52 95.5005 227.57 95.9814 229.292C99.6322 242.363 105.385 254.517 112.118 266.244C112.34 266.632 112.326 267.156 112.567 268.31C101.067 265.878 89.9178 263.52 78.7689 261.161C84.7623 266.636 92.2418 269.154 99.5405 271.944C103.723 273.542 108.016 275.161 112.403 275.837C118.081 276.712 121.896 279.651 125.411 283.928C134.95 295.534 146.78 304.423 160.077 311.26C163.706 313.126 164.219 315.048 162.969 318.596C158.483 331.329 161.881 331.221 148.212 326.749C94.5381 309.186 59.4753 273.471 44.6724 218.558C44.071 216.326 43.8898 213.982 43.2835 211.386C43.3632 195.059 47.3944 179.744 53.5405 165.195C77.8001 107.765 120.917 71.5677 180.739 54.1541C170.793 73.9452 161.932 94.3618 155.358 115.707C146.369 144.894 139.837 174.616 140.306 205.306C140.719 232.247 145.803 258.221 161.265 281.15C163.217 284.044 165.367 286.806 167.46 289.604C168.488 290.979 169.62 292.394 168.233 294.052C166.798 295.767 165.455 294.164 164.311 293.513C148.635 284.602 135.283 273.008 124.177 258.786C122.539 256.689 123.082 254.98 123.806 252.814C129.135 236.885 133.676 220.774 133.668 203.573C128.161 217.606 122.653 231.639 117.167 245.617C115.38 245.433 115.159 244.126 114.673 243.197C101.02 217.052 94.9493 189.414 97.6828 159.861C98.5587 150.39 100.539 141.16 102.048 131.438C95.5172 144.162 92.8177 158.286 90.9967 172.649C89.2467 186.453 90.3871 200.194 92.1349 214.848C80.2915 206.376 70.0061 197.347 59.7924 187.726C59.4959 187.582 59.0674 187.647 59.0674 187.647C59.0674 187.647 58.7151 187.409 58.6282 187.429C58.5414 187.45 58.7095 187.794 58.7585 187.98Z" fill="#566500"/>
<path d="M214.874 427.872C218.591 422.617 221.933 417.421 225.848 412.7C236.523 399.826 250.216 391.791 266.498 387.994C284.282 383.847 301.376 378.029 316.172 366.81C328.569 357.408 338.296 345.664 346.259 332.424C348.2 329.197 349.979 328.68 353.427 330.269C368.836 337.37 385.14 341.365 402.002 342.719C418.228 344.021 433.377 340.202 447.271 331.27C448.413 332.624 447.983 333.935 447.712 335.109C439.369 371.312 423.45 403.465 396.105 429.137C374.68 449.253 349.846 463.06 320.552 468.476C297.749 472.692 277.385 467.278 258.343 454.883C250.971 450.085 244.015 444.455 235.298 442.101C226.409 439.702 218.146 440.724 210.67 447.141C210.218 441.067 213.003 435.514 214.053 429.219C213.902 428.823 213.977 428.889 213.941 428.923C214.251 428.752 214.533 428.479 214.874 427.872Z" fill="#566500"/>
<path d="M314.993 312.775C329.18 294.898 339.668 275.104 348.962 254.658C357.629 235.591 364.761 215.935 370.315 195.727C372.397 188.152 374.366 180.547 376.734 173.011C377.006 182.592 375.47 192.011 373.85 201.351C366.527 243.573 353.753 283.881 331.014 320.585C322.069 335.024 311.448 347.876 296.332 356.838C295.018 351.595 291.234 355.093 289.671 355.584C285.253 356.971 281.366 356.364 277.718 354.134C275.663 352.878 273.65 353.165 271.564 352.991C269.365 352.806 266.853 353.762 265.057 350.961C265.035 349.425 265.937 349.382 267.131 349.252C269.785 348.447 272.118 347.685 274.769 346.713C275.428 343.862 277.777 344.045 279.687 343.688C293.476 337.59 303.72 327.203 313.211 315.456C313.183 314.034 313.757 313.34 314.993 312.775Z" fill="#42493F"/>
<path d="M219.509 348.872C219.86 351.123 218.832 352.995 216.986 354.285C212.646 357.318 212.143 360.985 215.827 365.113C216.933 366.352 216.147 366.742 215.355 367.349C214.045 368.352 212.717 369.333 211.433 370.369C210.408 371.196 209.675 372.086 211.771 372.974C201.735 382.974 192.54 393.779 186.718 407.433C183.861 389.214 198.848 362.432 219.509 348.872Z" fill="#F1DEC1"/>
<path d="M297.871 300.602C304.288 294.49 310.833 288.738 317.729 283.017C315.857 288.482 311.451 292.379 308.091 297.39C307.305 299.034 306.954 300.617 305.014 301.29C303.638 302.421 302.591 303.532 301.246 304.77C299.966 303.585 298.983 302.274 297.871 300.602Z" fill="#42493F"/>
<path d="M267.118 349.004C266.748 349.539 266.043 349.868 265.109 350.391C258.168 352.325 251.455 354.065 244.369 355.805C243.419 351.933 246.368 350.469 249.008 350.352C253.743 350.141 258.026 348.577 262.432 347.31C264.342 346.761 265.62 347.465 267.118 349.004Z" fill="#F1DEC1"/>
<path d="M222.943 365.212C221.581 364.654 220.474 363.064 221.727 362.738C226.266 361.556 228.333 356.793 232.756 355.658C234.917 355.103 237.164 353.923 238.989 356.877C233.805 359.877 228.532 362.494 222.943 365.212Z" fill="#F1DEC1"/>
<path d="M231.466 342.577C230.54 346.689 226.597 348.971 220.228 348.882C223.142 346 227.187 344.457 231.466 342.577Z" fill="#F1DEC1"/>
<path d="M491.214 216.273C491.552 215.948 491.934 215.97 492.602 215.975C493.443 217.46 494.431 218.884 493.743 220.666C492.103 219.779 492.084 217.95 491.214 216.273Z" fill="#F1DEC1"/>
<path d="M57.3239 342.225C57.171 342.596 56.9551 342.68 56.4134 342.883C55.3879 342.09 54.9558 341.116 55.3215 339.413C56.1547 340.498 56.7078 341.218 57.3239 342.225Z" fill="#F1DEC1"/>
<path d="M251.714 336.061C251.745 337.092 251.531 338.163 249.996 336.883C250.374 336.424 250.901 336.223 251.714 336.061Z" fill="#F1DEC1"/>
<path d="M494.532 222.587C494.566 222.665 494.459 222.896 494.459 222.896C494.459 222.896 494.499 222.509 494.532 222.587Z" fill="#F1DEC1"/>
<path d="M423.227 303.86C432.01 305.299 440.208 307.295 448.33 310.004C429.701 334.755 388.424 333.037 361.675 306.625C370.806 301.657 403.025 299.424 423.227 303.86Z" fill="#42493F"/>
<path d="M279.532 343.694C278.468 344.795 277.07 345.571 275.38 346.425C273.866 345.895 272.522 345.067 273.677 343.621C275.258 341.642 277.278 341.806 279.532 343.694Z" fill="#F1DEC1"/>
<path d="M315.149 312.393C314.841 313.456 314.333 314.177 313.586 315.018C312.272 314.286 309.605 314.357 310.88 312.089C311.777 310.494 313.566 310.731 315.149 312.393Z" fill="#F1DEC1"/>
<path d="M304.834 301.666C305.597 300.2 306.507 299.091 307.7 297.837C307.987 299.006 308.04 300.323 307.979 301.635C307.937 302.556 308.341 303.906 307.176 304.191C305.655 304.564 305.663 302.823 304.834 301.666Z" fill="#F1DEC1"/>
<path d="M319.317 281.915C319.325 281.481 319.632 280.891 320.256 280.143C320.254 280.576 319.935 281.168 319.317 281.915Z" fill="#42493F"/>
<path d="M214.704 427.752C214.844 428.011 214.701 428.426 214.231 428.9C214.076 428.608 214.248 428.258 214.704 427.752Z" fill="#42493F"/>
<path d="M318.329 283.065C318.191 282.745 318.343 282.409 318.787 282.045C318.927 282.362 318.773 282.706 318.329 283.065Z" fill="#42493F"/>
<path d="M338.32 91.9397C338.044 91.4475 338.083 90.9016 338.358 90.5302C338.962 89.7156 339.139 87.7898 340.506 88.5705C341.708 89.257 340.572 90.5832 339.799 91.7439C339.307 91.9513 339.025 91.9583 338.32 91.9397Z" fill="#566500"/>
<path d="M341.788 86.0638C341.6 86.1932 341.419 86.1331 341.238 86.073C341.423 86.0067 341.608 85.9405 341.788 86.0638Z" fill="#566500"/>
<path d="M102.027 131.033C102.147 130.598 102.251 130.146 102.356 129.693C103.006 130.027 102.71 130.422 102.2 130.902C101.971 130.987 102.01 131.016 102.027 131.033Z" fill="#F1DEC1"/>
<path d="M58.9805 188.02C58.4951 187.636 58.1828 187.107 57.9272 186.299C58.3985 186.378 58.813 186.735 59.3617 187.337C59.4959 187.582 59.1535 187.875 58.9805 188.02Z" fill="#F1DEC1"/>
<path d="M58.022 185.978C57.8061 185.887 57.375 185.794 57.3796 185.735C57.4139 185.297 57.6172 185.263 57.9299 185.822C57.9841 186.021 58.0086 185.992 58.022 185.978Z" fill="#F1DEC1"/>
<path d="M226.808 428.087C240.109 419.342 255.108 415.56 270.191 412.105C280.725 409.693 291.411 408.06 302.163 406.943C305.1 406.638 306.845 405.254 308.343 402.69C315.062 391.195 322.366 380.081 331.576 370.009C327.88 381.681 321.531 392.267 316.064 403.65C327.42 403.718 337.926 399.504 348.66 396.27C350.213 395.803 350.807 394.286 351.677 393.089C359.572 382.226 367.771 371.601 376.687 361.146C375.994 367.573 371.912 372.772 368.953 378.455C366.66 382.86 363.881 387.011 361.286 391.326C362.951 392.768 364.181 391.408 365.369 390.904C381.225 384.18 396.175 375.976 408.842 364.073C409.435 363.516 410.217 363.159 411.244 362.629C411.743 362.593 411.91 362.636 412.137 362.929C405.516 372.271 396.849 379.259 387.901 385.907C374.879 395.581 360.737 403.273 345.667 409.27C344.912 409.57 344.209 410.002 342.821 410.71C357.495 415.877 372.039 418.772 386.694 421.336C371.089 422.873 355.631 422.151 340.464 418.44C332.92 416.593 325.757 415.734 318.005 417.761C307.685 420.458 296.897 420.352 286.292 420.699C266.631 421.342 247.19 423.226 227.743 428.356C227.162 428.385 226.976 428.375 226.808 428.087Z" fill="#F1DEC1"/>
<path d="M414.767 359.258C415.139 358.167 415.539 356.929 416.29 357.442C417.463 358.243 416.156 359.04 415.342 359.903C414.892 359.887 414.713 359.717 414.767 359.258Z" fill="#566500"/>
<path d="M227.219 428.247C226.783 428.511 225.938 428.911 225.709 428.685C225.188 428.173 225.979 428.114 226.555 427.857C226.826 427.808 227.089 428.1 227.219 428.247Z" fill="#F1DEC1"/>
<path d="M331.804 369.839C331.947 369.353 332.184 368.942 332.421 368.531C333.001 368.91 332.786 369.348 332.298 369.928C332.085 370.067 331.899 369.914 331.804 369.839Z" fill="#F1DEC1"/>
<path d="M414.746 359.029C415.005 359.151 415.009 359.333 415.043 359.786C415.072 360.057 414.682 360.25 414.297 360.087C414.105 359.646 414.299 359.367 414.746 359.029Z" fill="#F1DEC1"/>
<path d="M377.003 361.016C377.093 361.001 377.171 360.968 377.104 360.953C376.959 360.97 376.991 360.998 377.003 361.016Z" fill="#F1DEC1"/>
<path d="M414.164 360.164C414.042 360.454 413.836 360.662 413.631 360.871C413.589 360.625 413.547 360.38 413.708 360.029C413.912 359.924 414.08 360.084 414.164 360.164Z" fill="#F1DEC1"/>
<path d="M411.728 362.711C411.9 362.417 412.224 362.283 412.547 362.15C412.565 362.389 412.584 362.629 412.4 363.024C412.198 363.18 411.88 362.872 411.728 362.711Z" fill="#F1DEC1"/>
<path d="M417.439 355.607C417.384 355.523 417.598 355.486 417.598 355.486C417.598 355.486 417.494 355.69 417.439 355.607Z" fill="#566500"/>
<path d="M315.991 403.992C315.862 403.982 316.208 404.919 315.85 404.068C316.007 404.005 315.998 403.998 315.991 403.992Z" fill="#566500"/>
</svg>
