<svg focusable="false" xmlns="http://www.w3.org/2000/svg" style="height: 0; width: 0; position: absolute;">
    <defs>
        <symbol id="home-outline" viewBox="0 0 24 24">
            <title>home-outline</title>
            <g stroke-linecap="round" stroke-linejoin="round" stroke-width="2" fill="none" stroke="currentColor">
                <polyline points="1 11 12 2 23 11"></polyline>
                <polyline points="10 23 10 17 14 17 14 23"></polyline>
                <path d="M4,13v8c0,1.105,.895,2,2,2h12c1.105,0,2-.895,2-2V13"></path>
            </g>
        </symbol>
        <symbol id="home" viewBox="0 0 24 24">
            <title>home</title>
            <g fill="currentColor">
                <path d="M12,5.876L3,13.24v8.76c0,.552,.448,1,1,1h6v-5.5c0-.276,.224-.5,.5-.5h3c.276,0,.5,.224,.5,.5v5.5h6c.552,0,1-.448,1-1V13.24L12,5.876Z"></path>
                <path d="M23,12c-.223,0-.447-.074-.633-.226L12,3.292,1.633,11.774c-.428,.349-1.057,.287-1.407-.141-.35-.428-.287-1.058,.141-1.407L11.367,1.226c.368-.302,.898-.302,1.267,0l11,9c.427,.35,.49,.979,.141,1.407-.198,.242-.485,.367-.774,.367Z"></path>
            </g>
        </symbol>
        <symbol id="about" viewBox="0 0 24 24">
            <title>about</title>
            <g fill="currentColor">
                <path d="M12,11c-3.033,0-5.5-2.467-5.5-5.5S8.967,0,12,0s5.5,2.467,5.5,5.5-2.467,5.5-5.5,5.5Z"></path>
                <path d="M21,24H3c-.552,0-1-.448-1-1,0-5.514,4.486-10,10-10s10,4.486,10,10c0,.552-.448,1-1,1Z"></path>
            </g>
        </symbol>
        <symbol id="about-outline" viewBox="0 0 24 24">
            <title>about-outline</title>
            <g stroke-linecap="round" stroke-linejoin="round" stroke-width="2" fill="none" stroke="currentColor">
                <circle cx="12" cy="5.5" r="4.5"></circle>
                <path d="M12,14c-4.971,0-9,4.029-9,9H21c0-4.971-4.029-9-9-9Z"></path>
            </g>
        </symbol>
        <symbol id="hamburger" viewBox="0 0 24 24">
            <title>hamburger</title>
            <g fill="currentColor">
                <path d="M23,10H1c-0.6,0-1,0.4-1,1v2c0,0.6,0.4,1,1,1h22c0.6,0,1-0.4,1-1v-2C24,10.4,23.6,10,23,10z"></path>
                <path d="M23,2H1C0.4,2,0,2.4,0,3v2c0,0.6,0.4,1,1,1h22c0.6,0,1-0.4,1-1V3C24,2.4,23.6,2,23,2z"></path>
                <path d="M23,18H1c-0.6,0-1,0.4-1,1v2c0,0.6,0.4,1,1,1h22c0.6,0,1-0.4,1-1v-2C24,18.4,23.6,18,23,18z"></path>
            </g>
        </symbol>
        <symbol id="performance-l" viewBox="0 0 48 48">
            <title>Performance</title>
            <g>
                <path fill="#EFD358" d="M19.99951,45c-0.16113,0-0.32373-0.03906-0.47314-0.11914c-0.40283-0.2168-0.60742-0.67969-0.49658-1.12354 L22.71924,29H6c-0.39648,0-0.75586-0.23438-0.91553-0.59717C4.9248,28.03955,4.99512,27.6167,5.2627,27.32422l22-24 c0.30957-0.3374,0.80811-0.42188,1.21094-0.20508s0.60742,0.67969,0.49658,1.12354L25.28076,19H42 c0.39648,0,0.75586,0.23438,0.91553,0.59717c0.15967,0.36328,0.08936,0.78613-0.17822,1.07861l-22,24 C20.54248,44.8877,20.27295,45,19.99951,45z"></path>
            </g>
        </symbol>
        <symbol id="pwa-l" viewBox="0 0 48 48">
            <title>Progressive Web App</title>
            <g>
                <path fill="#444444" d="M35,47H13c-2.209,0-4-1.791-4-4V5c0-2.209,1.791-4,4-4h22c2.209,0,4,1.791,4,4v38C39,45.209,37.209,47,35,47 z"></path>
                <circle fill="#595959" cx="24" cy="42" r="2"></circle>
                <path fill="#43A6DD" d="M35,37H13c-0.552,0-1-0.448-1-1V8c0-0.552,0.448-1,1-1h22c0.552,0,1,0.448,1,1v28C36,36.552,35.552,37,35,37 z"></path>
                <path fill="#FFFFFF" d="M20,27.414l-4.707-4.707c-0.391-0.391-0.391-1.023,0-1.414L20,16.586L21.414,18l-4,4l4,4L20,27.414z"></path>
                <path fill="#FFFFFF" d="M28,27.414L26.586,26l4-4l-4-4L28,16.586l4.707,4.707c0.391,0.391,0.391,1.023,0,1.414L28,27.414z"></path>
            </g>
        </symbol>
        <symbol id="ux-design" viewBox="0 0 24 24">
            <title>User Experience Design</title>
            <g fill="currentColor">
                <path d="M4,5H2V1c0-0.553,0.448-1,1-1h4v2H4V5z"></path>
                <path d="M20,5h-2V2h-3V0h4c0.552,0,1,0.447,1,1V5z"></path>
                <path d="M21,24l0-11c0-1.105-0.895-2-2-2h-6l0-5.999C13,3.896,12.104,3,11,3h0C9.895,3,9,3.895,9,5v11l-4.228-3.382 c-0.482-0.385-1.126-0.5-1.711-0.305l0,0c-1.074,0.358-1.563,1.601-1.021,2.595L7,24H21z"></path>
            </g>
        </symbol>
        <symbol id="ui-design" viewBox="0 0 24 24">
            <title>User Interface Design</title>
            <g fill="currentColor">
                <path d="M10,14H2c-0.552,0-1-0.448-1-1V1c0-0.552,0.448-1,1-1h8c0.552,0,1,0.448,1,1v12C11,13.552,10.552,14,10,14z"></path>
                <path d="M10,24H2c-0.552,0-1-0.448-1-1v-6c0-0.552,0.448-1,1-1h8c0.552,0,1,0.448,1,1v6 C11,23.552,10.552,24,10,24z"></path>
                <path d="M22,8h-8c-0.552,0-1-0.448-1-1V1c0-0.552,0.448-1,1-1h8c0.552,0,1,0.448,1,1v6 C23,7.552,22.552,8,22,8z"></path>
                <path d="M22,24h-8c-0.552,0-1-0.448-1-1V11c0-0.552,0.448-1,1-1h8c0.552,0,1,0.448,1,1v12C23,23.552,22.552,24,22,24 z"></path>
            </g>
        </symbol>
        <symbol id="html" viewBox="0 0 24 24">
            <title>HTML5</title>
            <g fill="currentColor">
                <path d="M21.745,1.333C21.556,1.121,21.285,1,21,1H3C2.715,1,2.444,1.121,2.255,1.333 c-0.19,0.212-0.28,0.495-0.249,0.777l2,18c0.044,0.403,0.329,0.739,0.719,0.852l7,2C11.815,22.987,11.908,23,12,23 s0.185-0.013,0.275-0.038l7-2c0.39-0.112,0.674-0.448,0.719-0.852l2-18C22.025,1.828,21.935,1.545,21.745,1.333z M18,7H8.087 l0.333,4h9.185l-0.68,6.8L12,19.031l-5-1.25V15h2v1.219l3,0.75l3.075-0.769l0.32-3.2H6.58L5.913,5H18V7z"></path>
            </g>
        </symbol>
        <symbol id="css" viewBox="0 0 24 24">
            <title>CSS3</title>
            <g fill="currentColor">
                <path d="M21.745,1.333C21.556,1.121,21.285,1,21,1H3C2.715,1,2.444,1.121,2.255,1.333 c-0.19,0.212-0.28,0.495-0.249,0.777l2,18c0.044,0.403,0.329,0.739,0.719,0.852l7,2C11.815,22.987,11.908,23,12,23 s0.185-0.013,0.275-0.038l7-2c0.39-0.112,0.674-0.448,0.719-0.852l2-18C22.025,1.828,21.935,1.545,21.745,1.333z M18,7.641 L10.702,11h6.903l-0.68,6.8L12,19.031l-5-1.25V15h2v1.219l3,0.75l3.075-0.769l0.32-3.2H7v-2.498L14.608,7H6V5h12V7.641z"></path>
            </g>
        </symbol>
        <symbol id="javascript-l" viewBox="0 0 128 128">
            <path fill="#F0DB4F" d="M1.408 1.408h125.184v125.185H1.408z"></path>
            <path fill="#323330" d="M116.347 96.736c-.917-5.711-4.641-10.508-15.672-14.981-3.832-1.761-8.104-3.022-9.377-5.926-.452-1.69-.512-2.642-.226-3.665.821-3.32 4.784-4.355 7.925-3.403 2.023.678 3.938 2.237 5.093 4.724 5.402-3.498 5.391-3.475 9.163-5.879-1.381-2.141-2.118-3.129-3.022-4.045-3.249-3.629-7.676-5.498-14.756-5.355l-3.688.477c-3.534.893-6.902 2.748-8.877 5.235-5.926 6.724-4.236 18.492 2.975 23.335 7.104 5.332 17.54 6.545 18.873 11.531 1.297 6.104-4.486 8.08-10.234 7.378-4.236-.881-6.592-3.034-9.139-6.949-4.688 2.713-4.688 2.713-9.508 5.485 1.143 2.499 2.344 3.63 4.26 5.795 9.068 9.198 31.76 8.746 35.83-5.176.165-.478 1.261-3.666.38-8.581zM69.462 58.943H57.753l-.048 30.272c0 6.438.333 12.34-.714 14.149-1.713 3.558-6.152 3.117-8.175 2.427-2.059-1.012-3.106-2.451-4.319-4.485-.333-.584-.583-1.036-.667-1.071l-9.52 5.83c1.583 3.249 3.915 6.069 6.902 7.901 4.462 2.678 10.459 3.499 16.731 2.059 4.082-1.189 7.604-3.652 9.448-7.401 2.666-4.915 2.094-10.864 2.07-17.444.06-10.735.001-21.468.001-32.237z"></path>
        </symbol>
        <symbol id="design-system-l" viewBox="0 0 48 48">
            <title>Design System</title>
            <g>
                <path d="M47,7H1.932A.932.932,0,0,0,1,7.932H1V42.068A.932.932,0,0,0,1.932,43H41a6,6,0,0,0,6-6Z" fill="#3aace9"></path>
                <path d="M41,31a6,6,0,0,1,6,6V7a6,6,0,0,0-6-6H40a1,1,0,0,0-1,1V30a1,1,0,0,0,1,1Z" fill="#a0d9f8"></path>
                <path d="M32,13H8a1,1,0,0,0-1,1V36a1,1,0,0,0,2,0V15H20v8H16a1,1,0,0,0,0,2h5a1,1,0,0,0,1-1V15h9V35H17V32a1,1,0,0,0-2,0v4a1,1,0,0,0,1,1H32a1,1,0,0,0,1-1V14A1,1,0,0,0,32,13Z" fill="#fff"></path>
            </g>
        </symbol>
        <symbol id="css-l" viewBox="0 0 48 48">
            <title>CSS3</title>
            <g>
                <path fill="#43A6DD" d="M44.486,1.662C44.107,1.24,43.567,1,43,1H5C4.433,1,3.893,1.24,3.514,1.662 C3.134,2.083,2.952,2.646,3.011,3.209l4,38c0.086,0.824,0.673,1.51,1.474,1.724l15,4C23.653,46.978,23.827,47,24,47 s0.347-0.022,0.515-0.067l15-4c0.801-0.214,1.387-0.899,1.474-1.724l4-38C45.048,2.646,44.866,2.083,44.486,1.662z"></path>
                <path fill="#FFFFFF" d="M36,15.3L23.174,21H35.19l-1.327,14.596L24,38.062l-10-2.5V30h4v2.438l6,1.5l6.137-1.534L30.81,25H14v-4.3 L29.076,14H12v-4h24V15.3z"></path>
            </g>
        </symbol>
        <symbol id="html-l" viewBox="0 0 48 48">
            <title>HTML5</title>
            <g>
                <path fill="#EA9860" d="M44.486,1.662C44.107,1.24,43.567,1,43,1H5C4.433,1,3.893,1.24,3.514,1.662 C3.134,2.083,2.952,2.646,3.011,3.209l4,38c0.086,0.824,0.673,1.51,1.474,1.724l15,4C23.653,46.978,23.827,47,24,47 s0.347-0.022,0.515-0.067l15-4c0.801-0.214,1.387-0.899,1.474-1.724l4-38C45.048,2.646,44.866,2.083,44.486,1.662z"></path>
                <path fill="#FFFFFF" d="M36,14H16.19l0.637,7H35.19l-1.327,14.596L24,38.062l-10-2.5V29h4v3.438l6,1.5l6.137-1.534L30.81,25H13.173 L11.81,10H36V14z"></path>
            </g>
        </symbol>
        <symbol id="ui-design-l" viewBox="0 0 48 48">
            <title>User Interface Design</title>
            <g>
                <path fill="#B3B3B3" d="M20,27H5c-0.552,0-1-0.448-1-1V2c0-0.552,0.448-1,1-1h15c0.552,0,1,0.448,1,1v24C21,26.552,20.552,27,20,27z "></path>
                <path fill="#8680D8" d="M20,47H5c-0.552,0-1-0.448-1-1V34c0-0.552,0.448-1,1-1h15c0.552,0,1,0.448,1,1v12C21,46.552,20.552,47,20,47 z"></path>
                <path fill="#8680D8" d="M43,15H28c-0.552,0-1-0.448-1-1V2c0-0.552,0.448-1,1-1h15c0.552,0,1,0.448,1,1v12C44,14.552,43.552,15,43,15 z"></path>
                <path fill="#B3B3B3" d="M43,47H28c-0.552,0-1-0.448-1-1V22c0-0.552,0.448-1,1-1h15c0.552,0,1,0.448,1,1v24 C44,46.552,43.552,47,43,47z"></path>
            </g>
        </symbol>
        <symbol id="ux-design-l" viewBox="0 0 48 48">
            <title>User Experience Design</title>
            <g>
                <path fill="#BADEFC" d="M19.5,25C12.60742,25,7,19.39258,7,12.5S12.60742,0,19.5,0S32,5.60742,32,12.5S26.39258,25,19.5,25z M19.5,2 C13.71045,2,9,6.71045,9,12.5S13.71045,23,19.5,23S30,18.28955,30,12.5S25.28955,2,19.5,2z"></path>
                <path fill="#43A6DD" d="M19.5,20c-4.13574,0-7.5-3.36426-7.5-7.5S15.36426,5,19.5,5S27,8.36426,27,12.5S23.63574,20,19.5,20z M19.5,7C16.46729,7,14,9.46729,14,12.5s2.46729,5.5,5.5,5.5s5.5-2.46729,5.5-5.5S22.53271,7,19.5,7z"></path>
                <path fill="#EEBC99" d="M35.00476,48C35.73767,44.71313,38,34.07611,38,28c0-1.03125-0.96173-2-2.14813-2 c-0.99066,0-1.81622,0.62775-2.06427,1.47687C33.74982,26.10382,32.54846,25,31.06451,25h-0.09198 c-1.17682,0-2.17084,0.69696-2.55457,1.66876c0,0-0.10547-2.66876-2.72717-2.66876h-0.08527C24.3222,24,23.20245,24.69879,23,26 V13.5c0-1.93298-1.56702-3.5-3.5-3.5S16,11.56702,16,13.5V29h-4.85187C9.96173,29,9,29.89539,9,31v8 c0,3.19385,4.45959,5.61029,5.24194,9H35.00476z"></path>
                <path fill="#CE9C7A" d="M15,35L15,35c-0.55229,0-1-0.44772-1-1v-5h2v5C16,34.55228,15.55229,35,15,35z"></path>
            </g>
        </symbol>
        <symbol id="accessibility-l" viewBox="0 0 48 48">
            <title>Accessibility</title>
            <g>
                <circle cx="24" cy="6" r="5" fill="#4d8b9d"></circle>
                <path d="M43,13H5a2,2,0,0,0,0,4H18V44.5a2.5,2.5,0,0,0,5,0V30h2V44.5a2.5,2.5,0,0,0,5,0V17H43a2,2,0,0,0,0-4Z" fill="#4d8b9d"></path>
            </g>
        </symbol>
        <symbol id="accessibility" viewBox="0 0 24 24">
            <title>Accessibility</title>
            <g fill="currentColor">
                <circle cx="12" cy="3" r="3"></circle>
                <path d="M22,7H2c-.552,0-1,.448-1,1h0c0,.552,.448,1,1,1h7v14.263c0,.407,.33,.737,.737,.737h.525c.407,0,.737-.33,.737-.737v-7.263h2v7.263c0,.407,.33,.737,.737,.737h.525c.407,0,.737-.33,.737-.737V9h7c.552,0,1-.448,1-1h0c0-.552-.448-1-1-1Z"></path>
            </g>
        </symbol>
        <symbol id="design-system" viewBox="0 0 24 24">
            <title>Design System</title>
            <g fill="currentColor">
                <rect x="1" y="1" width="10" height="10" rx="2"></rect>
                <path d="M23.428,4.618,19.381.572h0a1.957,1.957,0,0,0-2.762,0L12.572,4.618a1.959,1.959,0,0,0,0,2.764l4.047,4.047a1.957,1.957,0,0,0,2.762,0l4.047-4.046A1.959,1.959,0,0,0,23.428,4.618Z"></path>
                <rect x="13" y="13" width="10" height="10" rx="2"></rect>
                <rect x="1" y="13" width="10" height="10" rx="2"></rect>
            </g>
        </symbol>
        <symbol id="pwa" viewBox="0 0 24 24">
            <title>Progressive Web App</title>
            <g fill="currentColor">
                <path d="M18,0H6A3,3,0,0,0,3,3V21a3,3,0,0,0,3,3H18a3,3,0,0,0,3-3V3A3,3,0,0,0,18,0Zm1,18a1,1,0,0,1-1,1H6a1,1,0,0,1-1-1V4A1,1,0,0,1,6,3H18a1,1,0,0,1,1,1Z"></path>
            </g>
        </symbol>
        <symbol id="logo-medium" viewBox="0 0 24 24">
            <title>Medium</title>
            <g fill="currentColor">
                <path d="M23,0H1A1,1,0,0,0,0,1V23a1,1,0,0,0,1,1H23a1,1,0,0,0,1-1V1A1,1,0,0,0,23,0ZM19.938,5.686,18.651,6.92a.376.376,0,0,0-.143.361v9.068a.376.376,0,0,0,.143.361l1.257,1.234v.271H13.586v-.271l1.3-1.264c.128-.128.128-.166.128-.361V8.99l-3.621,9.2h-.489L6.691,8.99v6.163a.85.85,0,0,0,.233.707l1.694,2.054v.271h-4.8v-.271L5.509,15.86a.82.82,0,0,0,.218-.707V8.027a.625.625,0,0,0-.2-.527L4.019,5.686V5.415H8.693l3.613,7.924,3.176-7.924h4.456Z"></path>
            </g>
        </symbol>
        <symbol id="logo-dribbble" viewBox="0 0 24 24">
            <title>Dribbble</title>
            <g fill="currentColor">
                <path fill-rule="evenodd" clip-rule="evenodd" d="M12,24C5.4,24,0,18.6,0,12S5.4,0,12,0s12,5.4,12,12S18.6,24,12,24z M22.1,13.6c-0.4-0.1-3.2-1-6.4-0.4c1.3,3.7,1.9,6.7,2,7.3C20,19,21.7,16.5,22.1,13.6z M16,21.5c-0.2-0.9-0.7-4-2.2-7.8 c0,0,0,0-0.1,0c-5.8,2-7.9,6-8,6.4c1.7,1.4,3.9,2.2,6.3,2.2C13.4,22.3,14.8,22,16,21.5z M4.4,18.9c0.2-0.4,3-5.1,8.3-6.8 c0.1,0,0.3-0.1,0.4-0.1c-0.3-0.6-0.5-1.2-0.8-1.7c-5.1,1.5-10.1,1.5-10.5,1.5c0,0.1,0,0.2,0,0.3C1.8,14.6,2.7,17.1,4.4,18.9z M2,9.9 c0.5,0,4.7,0,9.5-1.2c-1.7-3-3.5-5.6-3.8-5.9C4.8,4.1,2.6,6.7,2,9.9z M9.6,2.1c0.3,0.4,2.1,2.9,3.8,6c3.6-1.4,5.2-3.4,5.4-3.7 C17,2.7,14.6,1.8,12,1.8C11.2,1.8,10.4,1.9,9.6,2.1z M19.9,5.5c-0.2,0.3-1.9,2.5-5.7,4c0.2,0.5,0.5,1,0.7,1.5 c0.1,0.2,0.1,0.4,0.2,0.5c3.4-0.4,6.8,0.3,7.1,0.3C22.2,9.5,21.4,7.3,19.9,5.5z"></path>
            </g>
        </symbol>
        <symbol id="logo-behance" viewBox="0 0 24 24">
            <title>Behance</title>
            <g fill="currentColor">
                <path d="M9.68586,11.19554c0,0,2.27112-0.16872,2.27112-2.83211c0-2.66344-1.85819-3.96321-4.2119-3.96321H3.41265 H3.28537H0v14.88431h3.28537h0.12728h4.33242c0,0,4.72808,0.14903,4.72808-4.39321 C12.47315,14.89132,12.67959,11.19554,9.68586,11.19554z M3.41265,7.04557h3.77494h0.55749c0,0,1.05295,0,1.05295,1.54851 s-0.61941,1.77304-1.32137,1.77304H3.41265V7.04557z M7.54539,16.63918H3.41265v-3.97771h4.33242 c0,0,1.56913-0.02061,1.56913,2.04398C9.3142,16.42691,8.16648,16.62191,7.54539,16.63918z"></path>
                <path d="M18.77907,8.1871c-5.72379,0-5.71862,5.71865-5.71862,5.71865s-0.3928,5.68981,5.71878,5.68981 c0,0,5.09309,0.2909,5.09309-3.95808h-2.61935c0,0,0.08726,1.60046-2.38647,1.60046c0,0-2.61939,0.17519-2.61939-2.58985h7.71248 C23.95959,14.64808,24.80338,8.1871,18.77907,8.1871z M21.10728,12.66146h-4.88934c0,0,0.32016-2.29435,2.61935-2.29435 C21.13652,10.36712,21.10728,12.66146,21.10728,12.66146z"></path>
                <rect x="16" y="5" width="6" height="2"></rect>
            </g>
        </symbol>
        <symbol id="logo-twitter" viewBox="0 0 24 24">
            <title>Twitter</title>
            <g fill="currentColor">
                <path d="M24,4.6c-0.9,0.4-1.8,0.7-2.8,0.8c1-0.6,1.8-1.6,2.2-2.7c-1,0.6-2,1-3.1,1.2c-0.9-1-2.2-1.6-3.6-1.6 c-2.7,0-4.9,2.2-4.9,4.9c0,0.4,0,0.8,0.1,1.1C7.7,8.1,4.1,6.1,1.7,3.1C1.2,3.9,1,4.7,1,5.6c0,1.7,0.9,3.2,2.2,4.1 C2.4,9.7,1.6,9.5,1,9.1c0,0,0,0,0,0.1c0,2.4,1.7,4.4,3.9,4.8c-0.4,0.1-0.8,0.2-1.3,0.2c-0.3,0-0.6,0-0.9-0.1c0.6,2,2.4,3.4,4.6,3.4 c-1.7,1.3-3.8,2.1-6.1,2.1c-0.4,0-0.8,0-1.2-0.1c2.2,1.4,4.8,2.2,7.5,2.2c9.1,0,14-7.5,14-14c0-0.2,0-0.4,0-0.6 C22.5,6.4,23.3,5.5,24,4.6z"></path>
            </g>
        </symbol>
        <symbol id="logo-linkedin" viewBox="0 0 24 24">
            <title>Linkedin</title>
            <g class="nc-icon-wrapper">
                <path fill="currentColor" d="M23,0H1C0.4,0,0,0.4,0,1v22c0,0.6,0.4,1,1,1h22c0.6,0,1-0.4,1-1V1C24,0.4,23.6,0,23,0z M7.1,20.5H3.6V9h3.6 V20.5z M5.3,7.4c-1.1,0-2.1-0.9-2.1-2.1c0-1.1,0.9-2.1,2.1-2.1c1.1,0,2.1,0.9,2.1,2.1C7.4,6.5,6.5,7.4,5.3,7.4z M20.5,20.5h-3.6 v-5.6c0-1.3,0-3-1.8-3c-1.9,0-2.1,1.4-2.1,2.9v5.7H9.4V9h3.4v1.6h0c0.5-0.9,1.6-1.8,3.4-1.8c3.6,0,4.3,2.4,4.3,5.5V20.5z" stroke="none"></path>
            </g>
        </symbol>
        <svg focusable="false" id="remove" viewBox="0 0 24 24">
            <title>remove</title>
            <g fill="currentColor">
                <path d="M22.7,4.3l-3-3c-0.4-0.4-1-0.4-1.4,0L12,7.6L5.7,1.3c-0.4-0.4-1-0.4-1.4,0l-3,3c-0.4,0.4-0.4,1,0,1.4L7.6,12 l-6.3,6.3c-0.4,0.4-0.4,1,0,1.4l3,3c0.4,0.4,1,0.4,1.4,0l6.3-6.3l6.3,6.3c0.2,0.2,0.5,0.3,0.7,0.3s0.5-0.1,0.7-0.3l3-3 c0.4-0.4,0.4-1,0-1.4L16.4,12l6.3-6.3C23.1,5.3,23.1,4.7,22.7,4.3z"></path>
            </g>
        </svg>
        <svg focusable="false" id="branding" viewBox="0 0 24 24">
            <title>branding</title>
            <g fill="currentColor">
                <path d="M20.4,6.1c-1.1-0.5-2.2-0.8-3.4-0.8c-1.6,0-3,0.5-4.3,0.9c-0.8,0.3-1.6,0.5-2.2,0.5c-0.4,0-0.6-0.1-0.7-0.3 c0-0.1,0.1-0.6,0.2-0.9c0.3-0.9,0.6-2-0.2-3.1c-0.5-0.6-1.3-1-2.2-1c-0.9,0-1.7,0.3-2.5,0.8C1.9,4.4,0,8.1,0,12c0,6.6,5.4,12,12,12 c5.3,0,10.1-3.6,11.6-8.8C23.7,14.6,25.1,8.4,20.4,6.1z M3,12c0-1.1,0.9-2,2-2s2,0.9,2,2s-0.9,2-2,2S3,13.1,3,12z M7.5,19 c-1.1,0-2-0.9-2-2s0.9-2,2-2s2,0.9,2,2S8.6,19,7.5,19z M13,21c-1.1,0-2-0.9-2-2s0.9-2,2-2s2,0.9,2,2S14.1,21,13,21z M17,15 c-1.7,0-3-1.3-3-3s1.3-3,3-3s3,1.3,3,3S18.7,15,17,15z"></path>
            </g>
        </svg>
        <symbol id="portfolio" viewBox="0 0 24 24">
            <title>portfolio</title>
            <g fill="currentColor">
                <path d="M10,14H2c-0.552,0-1-0.448-1-1V1c0-0.552,0.448-1,1-1h8c0.552,0,1,0.448,1,1v12C11,13.552,10.552,14,10,14z"></path>
                <path d="M10,24H2c-0.552,0-1-0.448-1-1v-6c0-0.552,0.448-1,1-1h8c0.552,0,1,0.448,1,1v6 C11,23.552,10.552,24,10,24z"></path>
                <path d="M22,8h-8c-0.552,0-1-0.448-1-1V1c0-0.552,0.448-1,1-1h8c0.552,0,1,0.448,1,1v6 C23,7.552,22.552,8,22,8z"></path>
                <path d="M22,24h-8c-0.552,0-1-0.448-1-1V11c0-0.552,0.448-1,1-1h8c0.552,0,1,0.448,1,1v12C23,23.552,22.552,24,22,24 z"></path>
            </g>
        </symbol>
        <symbol id="contact" viewBox="0 0 24 24">
            <title>Contact</title>
            <g fill="currentColor">
                <path d="M24,14c0-1.694-.773-3.246-2.06-4.457-.6,5.302-5.725,9.457-11.94,9.457-.473,0-.937-.03-1.395-.077,1.631,1.282,3.893,2.077,6.395,2.077,.422,0,.834-.03,1.24-.074,.001,0,.002,.002,.003,.003l5,3c.079,.047,.168,.071,.257,.071,.085,0,.17-.021,.246-.065,.157-.089,.254-.255,.254-.435v-5.105c1.249-1.202,2-2.73,2-4.395Z"></path>
                <path d="M10,17c5.523,0,10-3.806,10-8.5S15.523,0,10,0,0,3.806,0,8.5c0,1.909,.75,3.666,2,5.085v4.915c0,.173,.09,.334,.237,.425,.08,.05,.171,.075,.263,.075,.076,0,.153-.018,.224-.053l4.55-2.275c.868,.209,1.78,.328,2.726,.328Z"></path>
            </g>
        </symbol>
        <svg focusable="false" id="web-design" viewBox="0 0 24 24">
            <title>web-design</title>
            <g fill="currentColor">
                <path d="M4,4V1H1C0.448,1,0,1.447,0,2v2H4z"></path>
                <path d="M0,6v16c0,0.553,0.448,1,1,1h22c0.552,0,1-0.447,1-1V6H0z M11,18H3v-8h8V18z M18,16h-5v-2h5V16z M21,12h-8 v-2h8V12z"></path>
                <path d="M24,4V2c0-0.553-0.448-1-1-1H6v3H24z"></path>
            </g>
        </svg>
        <svg focusable="false" id="performance" viewBox="0 0 24 24">
            <title>performance</title>
            <g fill="currentColor">
                <path d="M19.882,7.528C19.708,7.203,19.369,7,19,7h-4.674l1.636-5.725c0.086-0.302,0.026-0.626-0.163-0.877 S15.314,0,15,0H8C7.549,0,7.154,0.302,7.035,0.737l-3,11c-0.082,0.301-0.019,0.623,0.17,0.87C4.395,12.854,4.688,13,5,13h4.802 l-1.786,9.821c-0.085,0.466,0.169,0.928,0.609,1.106C8.748,23.977,8.875,24,9,24c0.327,0,0.643-0.16,0.833-0.445l10-15 C20.037,8.248,20.056,7.854,19.882,7.528z"></path>
            </g>
        </svg>
    </defs>
</svg>