<svg width="512" height="512" viewBox="0 0 512 512" fill="none" xmlns="http://www.w3.org/2000/svg">
<rect width="512" height="512" fill="#F8FDFF"/>
<path d="M230.535 92.7084C191.859 97.5837 158.642 114.224 131.406 142.566C123.735 150.561 118.34 157.322 112.1 166.877C82.1332 212.574 76.8029 267.957 97.4089 319.765C99.684 325.485 101.179 328.41 101.829 328.41C102.349 328.41 105.404 327.5 108.524 326.46C111.71 325.355 116.065 324.315 118.275 324.12C120.485 323.99 123.8 323.535 125.555 323.21C127.375 322.885 130.041 322.625 131.471 322.625L134.136 322.56L134.526 318.139C134.721 315.734 134.786 313.654 134.656 313.524C134.526 313.394 134.071 315.084 133.616 317.294C132.706 321.65 131.666 322.755 132.186 318.789L132.511 316.319L127.765 316.514C120.03 316.774 116.39 317.099 115.48 317.684C114.895 318.009 114.765 317.944 115.09 317.489C115.35 317.034 115.22 316.709 114.895 316.709C114.505 316.709 114.18 317.034 114.18 317.359C114.18 317.749 113.465 317.554 112.555 316.969C111.71 316.449 110.67 316.124 110.28 316.384C109.955 316.579 109.435 316.319 109.24 315.799C108.524 313.849 107.549 314.694 108.004 316.839C108.394 318.985 108.394 318.985 107.549 317.359C107.029 316.449 105.599 312.809 104.234 309.234C96.9539 289.343 94.1588 271.857 94.9388 249.756C95.6538 227.07 100.659 207.894 111.06 187.353C124.97 160.117 145.836 137.821 172.163 122.22C208.109 100.964 252.767 95.4386 293.588 107.139C319.525 114.614 342.731 128.005 362.427 146.791L367.302 151.406L350.076 151.796C331.745 152.251 318.875 153.291 306.199 155.437C301.844 156.217 296.124 156.997 293.458 157.192C286.373 157.842 283.383 156.282 273.698 147.116C267.782 141.461 265.052 139.381 261.282 137.561C254.782 134.44 246.136 132.75 233.136 132.1C225.985 131.775 221.435 131.255 219.55 130.54C216.17 129.305 211.945 129.175 211.554 130.28C210.839 132.165 212.595 135.611 216.105 139.316C219.16 142.566 221.24 143.931 227.935 147.246C237.036 151.796 238.401 153.161 239.701 159.272C240.676 164.017 240.156 169.672 238.336 173.312C236.321 177.538 232.291 181.308 223.385 187.418C200.504 203.019 181.133 221.935 168.262 241.176C154.287 261.977 146.811 278.423 142.521 297.858C140.506 306.894 139.011 315.864 138.751 320.22L138.556 323.405L142.781 324.835C145.121 325.615 148.501 326.98 150.257 327.89C152.077 328.8 155.782 330.165 158.577 330.945C168.067 333.545 172.748 336.21 180.093 343.231C185.358 348.236 187.243 349.471 191.664 350.901C193.744 351.486 195.304 352.201 195.109 352.331C194.914 352.526 195.694 353.176 196.734 353.826C197.839 354.541 198.684 355.321 198.684 355.711C198.684 356.101 198.164 356.036 197.384 355.581C196.669 355.126 196.084 354.476 196.084 354.216C196.084 353.891 195.629 354.086 195.109 354.671C194.394 355.386 193.614 355.451 192.249 355.061C190.753 354.671 190.363 354.736 190.623 355.386C190.883 356.036 189.908 356.166 186.203 355.971C183.603 355.841 180.808 355.581 180.028 355.321C179.118 355.061 178.533 355.191 178.533 355.646C178.533 356.036 178.208 356.361 177.818 356.361C177.493 356.361 177.298 356.101 177.493 355.776C177.688 355.451 177.103 354.996 176.063 354.736C175.088 354.541 173.788 353.826 173.138 353.241C172.293 352.461 171.838 352.396 171.253 352.981C170.212 354.021 169.432 353.956 169.432 352.786C169.432 352.266 168.977 351.811 168.392 351.811C167.872 351.811 167.612 352.071 167.807 352.461C168.587 353.696 167.677 353.111 159.942 347.261C148.566 338.55 139.726 334.715 126.725 332.635C119.445 331.4 113.465 332.115 107.029 334.91C101.309 337.38 98.969 337.965 89.6085 339.07C81.5481 340.111 77.713 340.891 74.3978 342.191C73.4228 342.516 72.0577 342.646 71.4727 342.386C70.8226 342.061 69.7826 341.931 69.1975 341.996C68.1575 342.126 68.1575 341.931 69.1325 339.005C69.7176 337.315 70.4976 335.69 70.8876 335.365C71.2776 335.105 71.0176 334.975 70.3026 335.04C69.5876 335.17 68.8725 334.91 68.6775 334.585C68.2875 333.805 72.2527 332.44 77.1279 331.66C80.4431 331.14 80.3131 331.075 75.1778 331.27C70.4326 331.4 68.8725 331.725 65.1023 333.545C60.9421 335.43 56.4569 338.485 52.5567 341.931C44.7564 348.821 34.2908 352.461 19.9251 353.306L17 353.436L19.6001 354.606C24.4104 356.816 37.086 360.977 44.6263 362.862C56.1969 365.722 61.0722 366.372 71.2776 366.307C82.3932 366.242 86.3584 365.397 99.814 359.937C105.014 357.856 110.41 356.166 112.88 355.776L117.105 355.191L121.005 359.546C123.15 361.887 127.96 367.022 131.731 370.922C158.187 398.223 191.078 414.734 229.885 420.129C239.181 421.43 262.777 421.235 272.462 419.804C293.719 416.619 314.455 409.794 330.9 400.433C347.411 391.073 359.567 381.453 374.452 365.982L384.593 355.451L389.208 355.191C395.643 354.801 400.584 355.971 410.009 360.002C422.815 365.527 426.52 366.307 439.196 366.307C450.636 366.307 457.006 365.462 468.447 362.472C475.532 360.652 493.148 354.606 494.123 353.696C494.448 353.371 492.888 353.111 490.223 353.111C477.287 353.046 468.577 349.601 457.201 340.046C454.796 338.03 451.026 335.43 448.881 334.26C444.591 331.985 438.611 330.685 437.571 331.79C437.115 332.31 437.181 332.375 437.766 332.05C438.936 331.335 440.236 332.31 439.131 333.09C438.481 333.48 438.676 333.545 439.781 333.285C440.691 333.025 441.146 333.09 440.951 333.415C440.691 333.805 441.146 334.65 441.796 335.43C442.511 336.21 443.096 337.705 443.096 338.745C443.096 340.371 442.771 340.826 441.341 341.151C440.301 341.411 439.196 341.866 438.806 342.126C438.416 342.451 436.14 342.126 433.605 341.411C431.135 340.696 425.415 339.591 420.865 338.875C415.859 338.095 409.359 336.535 404.289 334.845C396.684 332.31 395.448 332.05 389.793 332.115C376.403 332.245 361.257 338.81 344.941 351.421C341.106 354.476 336.101 357.661 333.5 358.766C328.365 361.042 325.05 361.692 325.245 360.392C325.505 359.416 324.66 359.351 323.62 360.392C322.32 361.692 321.93 360.327 323.165 358.961C323.815 358.246 324.205 357.466 323.945 357.271C323.295 356.556 327.325 350.771 330.575 347.716C334.67 343.881 339.806 340.631 346.111 337.77C352.871 334.715 357.227 332.505 363.662 328.735C370.162 324.965 376.728 323.21 384.723 323.21C390.183 323.21 391.158 322.885 391.483 320.935C391.548 320.545 391.808 319.765 392.068 319.115C392.328 318.464 392.263 318.009 391.808 318.009C391.418 318.009 391.158 318.204 391.158 318.464C391.353 319.765 391.028 320.025 390.183 319.375C389.533 318.789 389.208 318.854 388.948 319.57C388.688 320.22 388.883 320.415 389.533 320.155C390.118 319.96 390.443 320.22 390.443 321C390.443 321.91 390.313 322.04 389.858 321.39C389.598 320.87 389.078 320.48 388.753 320.415C388.428 320.35 388.233 319.96 388.233 319.505C388.298 319.05 387.713 318.529 386.933 318.269C386.218 318.009 385.373 317.489 385.113 317.099C384.788 316.644 384.593 316.774 384.593 317.424C384.593 318.334 384.138 318.399 381.213 317.879C379.328 317.619 375.557 317.359 372.892 317.359C361.712 317.359 360.152 317.294 359.112 316.969C358.462 316.774 357.617 316.839 357.162 317.164C356.707 317.424 349.296 317.684 340.716 317.684C313.934 317.684 295.539 318.139 295.929 318.724C296.124 319.05 295.929 319.31 295.604 319.31C295.214 319.31 294.889 319.05 294.889 318.789C294.889 318.464 294.304 317.489 293.523 316.644L292.223 315.149L290.273 317.229C288.453 319.18 287.088 319.895 287.088 318.919C287.088 318.659 287.738 317.944 288.518 317.294C289.233 316.579 289.753 315.929 289.623 315.799C289.428 315.604 287.608 317.164 285.463 319.18C276.883 327.37 271.487 331.27 261.802 336.08C253.547 340.241 249.451 339.526 248.346 333.87C247.631 330.035 248.411 327.955 253.222 320.74C255.367 317.489 255.432 317.164 254.392 316.384C253.807 315.929 253.287 315.279 253.287 314.824C253.287 314.434 252.962 314.109 252.571 314.109C252.181 314.109 252.051 314.694 252.311 315.409C252.571 316.124 252.441 316.709 252.051 316.709C251.661 316.709 251.336 317.164 251.336 317.749C251.336 318.594 251.141 318.659 250.426 318.074C249.841 317.619 249.321 317.554 249.126 317.944C248.931 318.269 249.126 318.659 249.516 318.854C249.971 318.985 250.166 319.31 249.971 319.57C249.711 319.83 249.061 319.505 248.476 318.919C247.436 317.944 247.241 317.944 245.941 319.375C245.161 320.22 244.576 321.13 244.706 321.455C244.771 321.78 244.576 321.845 244.251 321.585C243.861 321.39 242.496 322.43 241.131 323.99C239.766 325.485 238.206 327.175 237.686 327.76C237.166 328.345 235.281 330.555 233.526 332.635C231.705 334.78 229.69 337.12 229.04 337.77C227.61 339.2 224.685 345.116 224.685 346.611C224.685 347.196 224.36 347.976 223.905 348.431C222.735 349.601 224.88 349.406 233.591 347.586C248.151 344.596 248.281 344.596 264.337 350.251C273.047 353.371 273.177 353.371 281.563 353.436C286.243 353.501 291.508 353.566 293.263 353.696L296.514 353.891L293.914 354.736L291.313 355.581L293.588 355.646C296.319 355.711 306.199 353.631 310.489 352.136C315.365 350.381 320.175 347.391 326.61 341.931C333.565 336.08 339.091 333.155 344.161 332.7C347.866 332.375 348.581 333.09 345.786 334.195C339.936 336.47 328.495 345.571 324.725 350.836C322.71 353.631 316.665 358.311 315.04 358.311C314.585 358.311 313.349 358.766 312.244 359.286C307.564 361.367 301.389 363.382 301.064 362.862C300.739 362.342 303.534 359.481 307.239 356.426C309.709 354.411 307.954 354.801 301.909 357.661C290.533 362.992 281.498 364.487 256.212 365.202C235.866 365.787 224.62 364.617 214.74 360.912C210.449 359.286 197.449 352.916 197.384 352.396C197.384 352.201 199.789 352.006 202.779 352.071C209.994 352.071 217.145 351.356 217.405 350.576C217.535 350.251 218.055 350.121 218.575 350.316C219.095 350.511 219.68 350.121 219.94 349.471C220.2 348.821 220.07 348.236 219.615 348.041C219.16 347.911 218.835 347.521 218.835 347.196C218.835 346.806 219.16 346.741 219.485 346.936C220.07 347.326 221.24 345.116 221.76 342.646C222.215 340.501 227.545 329.905 230.015 326.265C231.445 324.185 232.421 322.3 232.16 322.04C231.965 321.78 231.445 322.04 231.12 322.56C230.535 323.34 230.47 323.34 230.795 322.365C230.99 321.715 231.185 320.87 231.185 320.48C231.185 320.09 231.575 320.155 232.16 320.61C233.526 321.78 234.046 321 233.136 319.18C232.486 317.814 232.486 317.814 233.331 318.854C233.916 319.505 234.436 319.83 234.631 319.505C236.321 316.709 238.336 312.809 238.076 312.809C237.881 312.809 236.971 313.589 235.996 314.564C234.306 316.384 234.306 316.384 235.151 314.759C235.996 313.069 240.936 306.309 241.326 306.309C241.456 306.309 241.326 306.829 241.131 307.414C240.871 308.129 241.716 307.609 243.016 306.374C244.446 305.009 245.226 303.774 244.966 303.124C244.706 302.474 244.901 302.279 245.681 302.604C246.461 302.864 246.591 302.734 246.331 301.954C246.006 301.174 246.136 301.044 246.786 301.434C247.436 301.824 247.566 301.629 247.306 300.589C247.046 299.614 247.176 299.159 247.826 299.159C248.346 299.159 248.736 299.419 248.736 299.809C248.736 300.134 248.996 300.459 249.321 300.459C249.646 300.459 249.906 299.744 249.906 298.834C249.906 297.273 251.791 294.998 253.482 294.413C254.067 294.218 254.002 293.828 253.287 292.918C252.311 291.748 252.376 291.748 254.262 292.918C255.627 293.828 255.952 293.893 255.367 293.178C254.327 291.878 255.822 290.448 257.512 291.098C258.487 291.488 258.552 291.293 258.162 289.993C257.902 289.148 257.382 288.238 257.057 288.043C256.537 287.718 256.927 287.263 265.507 279.723L270.252 275.562L271.552 276.992L272.917 278.423L275.323 276.277C276.688 275.107 277.663 273.937 277.533 273.612C277.013 272.767 276.103 273.157 275.713 274.457C275.518 275.172 274.933 275.757 274.413 275.757C273.958 275.757 273.438 276.082 273.308 276.407C273.177 276.862 272.592 276.732 271.812 276.147C271.097 275.627 270.642 275.107 270.837 274.977C274.998 271.532 282.928 265.357 287.738 261.847C291.118 259.377 294.954 256.581 296.189 255.671C303.404 250.341 318.42 241.371 329.015 235.975C341.886 229.475 350.921 225.575 351.441 226.355C351.766 226.81 353.651 226.29 357.032 224.795C359.827 223.56 363.337 222.13 364.767 221.48C366.847 220.635 367.172 220.31 366.392 219.79C365.677 219.335 365.937 219.27 367.367 219.595C368.862 219.855 369.057 219.79 368.342 219.27C367.562 218.75 367.822 218.555 369.512 218.555C370.682 218.555 371.527 218.295 371.332 217.97C371.072 217.645 371.462 217.515 372.112 217.71C373.477 218.035 381.993 214.784 381.993 213.939C381.993 213.614 382.708 213.354 383.618 213.354C384.528 213.354 385.243 213.159 385.243 212.834C385.243 212.444 387.063 211.664 390.768 210.494C391.158 210.364 392.328 209.974 393.368 209.519C394.473 209.129 396.229 208.479 397.269 208.089C398.374 207.699 399.804 207.114 400.519 206.854C403.054 205.814 406.369 204.579 406.694 204.514C407.084 204.449 406.564 204.644 420.995 198.859C427.235 196.324 434.515 193.138 437.181 191.773C442.771 189.043 443.681 189.238 442.511 193.138C441.471 196.714 436.205 202.304 429.835 206.464C426.975 208.414 408.059 218.295 387.843 228.5C367.627 238.641 348.321 248.391 344.941 250.211C341.561 252.031 328.82 258.532 316.665 264.707C261.672 292.658 249.646 301.304 233.201 324.38C231.315 327.045 229.885 329.32 230.08 329.45C230.21 329.58 233.071 326.59 236.451 322.755C243.406 314.824 250.686 307.674 253.027 306.439C254.587 305.659 254.847 305.724 256.862 307.934C260.957 312.224 260.567 316.384 255.237 324.835C251.856 330.23 251.271 332.765 253.027 334.52C253.547 335.105 254.132 335.56 254.327 335.56C254.522 335.56 257.577 334 261.152 332.05C282.083 320.675 292.613 307.544 292.223 293.438C292.028 287.588 292.743 286.743 297.684 286.288C300.804 286.028 301.844 286.353 307.304 288.953C310.684 290.513 314.39 292.073 315.56 292.333C316.795 292.593 321.15 292.463 325.375 292.008C335.711 290.968 337.271 291.423 342.081 296.883C345.201 300.459 346.046 301.109 347.866 301.109C352.611 301.109 357.877 294.348 357.942 288.238C357.942 281.348 354.691 278.358 337.466 269.322L332.265 266.592L322.515 271.207C299.829 282.063 285.658 287.068 291.898 282.128C294.174 280.243 297.879 278.228 319.2 267.177C336.946 258.012 348.061 252.226 356.317 247.806C371.072 239.941 403.574 223.69 403.899 224.015C404.224 224.34 405.849 223.495 413.324 219.14C415.404 217.905 420.41 215.109 424.44 212.834C433.41 207.829 440.171 202.824 442.771 199.119C444.396 196.779 444.721 195.738 444.721 192.423C444.721 188.848 444.526 188.328 442.901 187.158C441.666 186.183 440.821 185.988 440.236 186.378C433.345 191.578 425.025 195.153 398.894 204.189C337.076 225.64 314.52 236.69 280.588 262.367C247.826 287.133 226.05 314.889 216.43 344.011C215.585 346.676 214.675 349.081 214.415 349.276C214.155 349.536 212.985 349.601 211.88 349.406C209.539 349.016 209.539 349.666 211.359 341.736C214.35 328.8 222.995 308.129 229.56 298.248C232.291 294.153 238.661 287.458 241.456 285.833C243.861 284.403 244.251 283.233 242.106 283.948C237.621 285.378 230.08 292.138 225.53 298.834C218.51 309.234 210.384 329.84 207.069 345.636C206.614 347.781 206.029 349.861 205.704 350.316C204.794 351.486 198.294 350.836 194.654 349.276C192.899 348.561 191.534 347.781 191.534 347.521C191.534 346.546 198.294 322.495 201.024 313.589C208.629 289.083 216.365 274.457 225.465 267.242C229.3 264.252 232.291 263.927 236.516 266.072C240.026 267.892 242.951 267.502 250.621 264.122C263.947 258.402 272.592 251.966 287.738 236.56C309.319 214.589 319.59 208.869 343.836 205.489C360.347 203.214 365.287 202.044 372.502 198.469C380.628 194.503 384.398 193.593 399.544 191.903C418.785 189.823 432.76 187.223 438.286 184.753C441.991 183.128 443.746 180.268 443.746 175.783C443.746 172.597 443.551 172.142 440.951 169.607C435.035 163.757 415.014 157.647 389.533 153.811L381.733 152.706L372.957 143.866C345.656 116.435 314.129 99.9238 277.078 93.6835C266.937 91.9934 240.806 91.4084 230.535 92.7084ZM227.61 134.115C230.86 134.375 236.711 134.96 240.611 135.286C247.826 136.001 253.677 137.236 252.116 137.756C251.661 137.951 247.956 137.756 243.861 137.301C239.766 136.911 234.176 136.781 231.12 137.041C224.945 137.496 221.5 136.586 220.135 133.985C219.42 132.685 219.485 132.62 220.525 133.01C221.24 133.27 224.425 133.79 227.61 134.115ZM371.722 155.502C378.353 155.827 386.998 156.607 390.898 157.127C399.739 158.362 409.424 160.182 409.034 160.507C408.839 160.702 405.264 160.377 401.039 159.792C384.203 157.582 378.028 157.257 358.332 157.647C337.141 158.037 328.69 158.882 309.319 162.652C299.309 164.537 298.594 164.602 297.034 163.627C295.799 162.782 295.604 162.392 296.189 161.677C297.164 160.442 297.814 160.312 306.589 158.817C325.96 155.502 349.231 154.331 371.722 155.502ZM411.699 161.092C411.504 161.287 410.919 161.352 410.464 161.157C409.944 160.962 410.139 160.767 410.854 160.767C411.569 160.702 411.959 160.897 411.699 161.092ZM324.595 171.492C324.4 171.687 323.815 171.752 323.36 171.557C322.84 171.362 323.035 171.167 323.75 171.167C324.465 171.102 324.855 171.297 324.595 171.492ZM312.764 174.352C286.503 180.983 254.067 193.723 229.3 207.114C224.88 209.519 221.175 211.339 220.98 211.209C220.72 210.884 231.055 204.124 239.831 198.859C255.627 189.238 278.768 180.333 299.764 175.587C318.81 171.362 328.105 170.452 312.764 174.352ZM233.071 187.938C234.501 188.848 233.461 190.408 229.755 192.748C227.87 193.983 223.385 196.844 219.81 199.119C214.025 202.759 205.964 208.609 200.309 213.224C197.124 215.824 186.528 226.225 182.173 231.165C179.898 233.7 177.233 236.625 176.258 237.731C175.283 238.771 175.933 237.796 177.623 235.455C179.378 233.115 181.068 230.905 181.458 230.515C181.783 230.06 183.148 228.5 184.383 226.94C187.568 222.91 200.114 210.429 205.509 205.814C212.01 200.289 219.55 194.698 225.985 190.798C232.03 187.028 231.77 187.158 233.071 187.938ZM356.967 223.755C356.772 224.08 356.057 224.405 355.472 224.405C354.496 224.405 354.496 224.275 355.342 223.755C356.642 222.91 357.487 222.91 356.967 223.755ZM354.041 225.055C354.041 225.38 353.521 225.705 352.936 225.705C351.961 225.705 351.896 225.575 352.741 225.055C353.976 224.275 354.041 224.275 354.041 225.055ZM346.436 277.317C352.221 280.958 353.846 282.778 354.431 286.158L354.821 288.433L353.521 286.353C352.026 284.078 348.711 281.673 342.016 278.033C337.141 275.367 333.76 272.637 334.28 271.792C334.736 271.012 340.716 273.742 346.436 277.317ZM255.562 290.058C254.912 290.773 254.262 291.228 254.067 291.098C253.742 290.708 255.432 288.823 256.147 288.758C256.472 288.758 256.212 289.343 255.562 290.058ZM131.406 317.294C131.601 317.619 131.471 318.074 131.081 318.334C130.756 318.529 130.431 318.269 130.431 317.749C130.431 316.579 130.821 316.384 131.406 317.294ZM253.287 318.334C253.287 319.245 253.027 319.96 252.636 319.96C251.921 319.96 251.726 317.814 252.441 317.164C253.157 316.449 253.287 316.644 253.287 318.334ZM292.938 317.684C292.938 318.204 293.263 318.659 293.588 318.659C293.979 318.659 294.239 318.985 294.239 319.375C294.239 319.895 293.914 319.83 293.263 319.31C292.678 318.854 292.028 318.659 291.833 318.919C291.573 319.18 291.768 319.635 292.288 319.96C292.808 320.35 293.003 320.61 292.613 320.61C292.288 320.61 291.573 320.35 291.118 320.025C290.338 319.57 290.338 319.245 291.053 318.074C292.093 316.449 292.938 316.319 292.938 317.684ZM109.63 320.35C109.63 320.87 109.37 321.13 108.979 320.935C108.654 320.74 108.329 320.285 108.329 319.895C108.329 319.57 108.654 319.31 108.979 319.31C109.37 319.31 109.63 319.765 109.63 320.35ZM248.736 320.22C248.736 320.415 248.476 320.74 248.086 320.935C247.761 321.13 247.436 321 247.436 320.675C247.436 320.285 247.761 319.96 248.086 319.96C248.476 319.96 248.736 320.09 248.736 320.22ZM286.048 320.935C285.788 321.455 285.333 321.715 285.008 321.52C284.618 321.26 284.683 320.87 285.203 320.545C286.438 319.765 286.438 319.83 286.048 320.935ZM126.855 321.26C127.05 321.65 126.595 321.91 125.75 321.91C124.58 321.91 124.45 321.78 125.23 321.26C126.465 320.48 126.4 320.48 126.855 321.26ZM380.563 321.715C379.913 321.845 378.873 321.845 378.288 321.715C377.638 321.52 378.158 321.39 379.393 321.39C380.628 321.39 381.148 321.52 380.563 321.715ZM110.93 322.17C110.93 322.365 110.67 322.69 110.28 322.885C109.955 323.08 109.63 322.95 109.63 322.625C109.63 322.235 109.955 321.91 110.28 321.91C110.67 321.91 110.93 322.04 110.93 322.17ZM283.838 323.47C283.838 323.665 283.578 323.99 283.188 324.185C282.863 324.38 282.538 324.25 282.538 323.925C282.538 323.535 282.863 323.21 283.188 323.21C283.578 323.21 283.838 323.34 283.838 323.47ZM442.901 334.39C442.706 334.91 442.511 334.715 442.511 334C442.446 333.285 442.641 332.895 442.836 333.155C443.031 333.35 443.096 333.935 442.901 334.39ZM129.325 335.3C141.546 338.355 157.537 349.536 166.442 361.172C169.952 365.657 170.993 367.607 169.302 366.307C168.847 365.917 167.872 365.462 167.222 365.202C166.182 364.877 166.117 364.942 166.832 365.787C167.352 366.372 167.352 366.762 166.962 366.762C166.572 366.762 166.052 366.437 165.857 366.112C165.662 365.722 164.102 365.462 162.542 365.462C159.162 365.462 158.902 365.202 153.897 357.921C151.037 353.826 143.236 345.961 142.001 345.961C141.026 345.961 141.481 347.131 142.521 347.521C143.106 347.781 143.431 348.106 143.171 348.366C142.976 348.561 142.261 348.301 141.676 347.781C140.246 346.546 136.931 345.701 136.931 346.546C136.931 346.871 137.321 347.326 137.776 347.456C138.231 347.651 138.231 347.846 137.841 347.846C136.736 347.911 134.526 345.701 134.786 344.791C134.981 344.401 134.786 344.011 134.461 344.011C134.071 344.011 133.356 343.816 132.771 343.621C132.186 343.426 131.731 343.556 131.731 343.946C131.731 344.336 132.056 344.596 132.511 344.466C132.901 344.401 133.421 344.856 133.551 345.506C133.746 346.481 133.551 346.546 132.056 345.961C131.081 345.571 130.041 345.441 129.715 345.636C129.455 345.831 128.48 345.571 127.57 344.986C126.53 344.271 125.88 344.141 125.555 344.596C125.035 345.506 121.33 345.506 121.33 344.661C121.33 344.271 121.005 344.011 120.615 344.011C120.29 344.011 120.16 344.401 120.42 344.791C120.81 345.441 120.68 345.441 119.965 344.791C118.925 343.881 116.39 343.751 115.805 344.661C115.22 345.571 112.75 345.441 113.01 344.531C113.205 344.076 113.985 343.556 114.895 343.361C116.325 342.971 116.26 342.906 114.31 342.581C113.14 342.451 112.035 342.516 111.84 342.841C111.255 343.816 109.435 343.426 109.825 342.386C110.15 341.671 109.89 341.606 108.589 342.061C106.509 342.906 104.884 342.906 105.404 342.126C105.794 341.476 102.609 342.191 101.049 343.101C97.994 344.791 103.649 340.566 107.354 338.355C115.22 333.61 120.03 332.96 129.325 335.3ZM395.968 334.65C400.389 335.755 410.139 341.216 409.554 342.191C409.294 342.581 408.904 342.581 408.449 342.126C407.669 341.346 405.784 341.151 406.304 341.931C406.434 342.191 405.849 342.776 404.939 343.166C403.639 343.816 403.379 343.751 403.639 343.101C404.029 342.126 398.699 342.191 397.464 343.166C396.489 343.946 388.428 344.661 388.818 343.946C389.013 343.751 387.323 343.621 385.048 343.816C382.838 343.946 380.303 344.076 379.393 344.076C378.483 344.076 377.053 344.011 376.143 344.011C374.842 344.011 375.167 343.686 377.768 342.386C382.123 340.176 378.808 341.086 373.542 343.491C367.887 346.091 362.037 350.316 358.527 354.411C352.351 361.692 349.751 364.357 347.151 366.177C345.266 367.477 344.291 367.802 344.096 367.217C343.901 366.632 343.511 366.632 342.471 367.217C341.691 367.672 341.041 367.737 340.911 367.412C340.781 367.022 339.871 367.542 338.896 368.452C335.906 371.247 336.361 369.947 340.196 364.812C353.001 347.781 373.737 335.105 391.093 333.675C391.678 333.675 393.888 334.065 395.968 334.65ZM374.192 344.271C374.192 344.401 373.737 344.856 373.217 345.311C372.372 346.026 372.307 345.961 372.632 345.051C372.957 344.141 374.192 343.556 374.192 344.271ZM127.83 345.961C127.83 346.286 127.7 346.611 127.57 346.611C127.375 346.611 127.05 346.286 126.855 345.961C126.66 345.571 126.79 345.311 127.115 345.311C127.505 345.311 127.83 345.571 127.83 345.961ZM197.384 357.141C197.384 357.986 195.889 357.466 195.564 356.491C195.434 356.036 195.694 355.841 196.344 356.101C196.929 356.296 197.384 356.816 197.384 357.141ZM199.334 358.961C199.334 359.286 199.204 359.611 199.074 359.611C198.879 359.611 198.554 359.286 198.359 358.961C198.164 358.571 198.294 358.311 198.619 358.311C199.009 358.311 199.334 358.571 199.334 358.961ZM162.737 366.502C162.542 366.697 161.957 366.762 161.502 366.567C160.982 366.372 161.177 366.177 161.892 366.177C162.607 366.112 162.997 366.307 162.737 366.502Z" fill="#016397"/>
<path d="M129 341.216C129.455 341.411 130.041 341.346 130.236 341.151C130.496 340.955 130.106 340.76 129.39 340.825C128.675 340.825 128.48 341.02 129 341.216Z" fill="#016397"/>
<path d="M136.346 343.621C136.996 344.206 140.831 345.961 140.831 345.701C140.831 345.311 137.256 343.361 136.541 343.361C136.281 343.361 136.216 343.491 136.346 343.621Z" fill="#016397"/>
<path d="M388.363 339.915C388.818 340.11 389.403 340.045 389.598 339.85C389.858 339.655 389.468 339.46 388.753 339.525C388.038 339.525 387.843 339.72 388.363 339.915Z" fill="#016397"/>
<path d="M382.513 340.565C382.968 340.76 383.553 340.695 383.748 340.5C384.008 340.305 383.618 340.11 382.903 340.175C382.188 340.175 381.993 340.37 382.513 340.565Z" fill="#016397"/>
<path d="M388.363 342.516C389.143 342.646 390.313 342.646 390.963 342.516C391.548 342.321 390.898 342.191 389.468 342.256C388.038 342.256 387.518 342.386 388.363 342.516Z" fill="#016397"/>
<path d="M381.213 343.166C381.668 343.361 382.253 343.296 382.448 343.101C382.708 342.906 382.318 342.711 381.603 342.776C380.888 342.776 380.693 342.971 381.213 343.166Z" fill="#016397"/>
<path d="M408.384 225.9L404.614 227.915L405.004 231.23C408.774 263.537 405.589 288.563 394.083 316.969C392.783 320.154 391.873 322.949 392.068 323.144C392.783 323.794 401.169 325.745 401.559 325.29C402.339 324.38 407.279 310.404 409.164 303.709C411.374 295.908 412.674 290.058 414.299 280.307C415.925 270.492 415.925 242.02 414.299 231.88C413.649 227.98 412.934 224.535 412.674 224.275C412.414 224.015 410.529 224.73 408.384 225.9Z" fill="#016397"/>
<path d="M348.841 227.59C348.841 227.915 348.321 228.37 347.736 228.5C346.826 228.76 346.761 228.825 347.606 228.89C348.126 228.89 349.166 228.5 349.881 227.98C350.986 227.135 350.986 227.07 350.011 227.005C349.361 227.005 348.841 227.265 348.841 227.59Z" fill="#016397"/>
<path d="M344.811 230.06C345.266 230.255 345.851 230.19 346.046 229.995C346.306 229.8 345.916 229.605 345.201 229.67C344.486 229.67 344.291 229.865 344.811 230.06Z" fill="#016397"/>
<path d="M337.141 233.31C334.475 234.61 331.81 235.845 331.29 236.17C329.86 236.95 323.555 240.201 320.435 241.826C317.055 243.581 315.95 244.296 314.649 245.661C313.869 246.441 313.024 246.896 312.829 246.636C312.569 246.441 312.179 246.506 311.919 246.896C311.659 247.221 310.424 248.066 309.124 248.651C307.824 249.236 306.394 250.146 305.939 250.731C305.484 251.251 304.769 251.706 304.379 251.706C303.339 251.706 300.024 254.696 300.544 255.216C301.194 255.801 302.169 255.671 301.779 255.021C301.584 254.696 301.844 254.241 302.429 254.046C302.949 253.851 303.209 253.916 303.014 254.306C302.819 254.696 302.949 254.956 303.339 254.956C303.729 254.956 304.184 254.501 304.379 253.981C304.639 253.461 305.159 253.006 305.679 253.006C306.134 253.006 306.849 252.421 307.239 251.706C307.629 250.991 308.344 250.406 308.864 250.406C309.384 250.406 309.839 250.081 309.839 249.691C309.839 249.366 310.099 249.171 310.424 249.366C310.749 249.626 311.919 249.041 312.959 248.131C313.999 247.221 315.235 246.506 315.625 246.506C316.015 246.506 316.34 246.181 316.34 245.856C316.34 245.466 316.6 245.206 316.925 245.206C317.315 245.206 319.265 244.231 321.345 242.996C327.39 239.485 331.225 237.405 337.726 234.025C344.746 230.385 344.356 229.8 337.141 233.31Z" fill="#016397"/>
<path d="M299.244 256.321C299.699 256.776 300.219 256.971 300.414 256.776C300.609 256.581 300.284 256.191 299.634 255.996C298.724 255.606 298.659 255.671 299.244 256.321Z" fill="#016397"/>
<path d="M295.214 258.857C295.409 259.182 295.929 259.507 296.254 259.507C296.644 259.507 296.709 259.182 296.514 258.857C296.319 258.467 295.799 258.207 295.474 258.207C295.084 258.207 295.019 258.467 295.214 258.857Z" fill="#016397"/>
<path d="M292.288 259.767C292.288 259.897 292.743 260.352 293.263 260.807C294.109 261.522 294.174 261.457 293.849 260.547C293.524 259.637 292.288 259.052 292.288 259.767Z" fill="#016397"/>
<path d="M290.338 261.522C290.338 261.847 290.663 261.977 290.988 261.782C291.378 261.587 291.638 261.262 291.638 261.067C291.638 260.937 291.378 260.807 290.988 260.807C290.663 260.807 290.338 261.132 290.338 261.522Z" fill="#016397"/>
<path d="M289.688 263.732C289.233 264.252 289.168 264.707 289.558 264.707C289.883 264.707 290.533 264.252 290.988 263.732C291.443 263.212 291.508 262.757 291.118 262.757C290.793 262.757 290.143 263.212 289.688 263.732Z" fill="#016397"/>
<path d="M287.088 266.072C287.088 266.397 287.413 266.527 287.738 266.332C288.128 266.137 288.388 265.812 288.388 265.617C288.388 265.487 288.128 265.357 287.738 265.357C287.413 265.357 287.088 265.682 287.088 266.072Z" fill="#016397"/>
<path d="M284.293 266.397C284.098 266.592 284.098 267.177 284.293 267.697C284.553 268.412 284.878 268.477 285.528 267.892C286.048 267.502 286.243 266.917 286.048 266.592C285.658 265.942 284.878 265.812 284.293 266.397Z" fill="#016397"/>
<path d="M282.538 268.607C283.188 268.997 283.253 269.257 282.733 269.257C282.278 269.257 281.888 269.582 281.888 269.972C281.888 270.492 282.213 270.492 282.863 269.907C283.903 269.062 283.578 267.957 282.343 267.957C281.888 267.957 281.953 268.217 282.538 268.607Z" fill="#016397"/>
<path d="M269.797 278.488C269.992 279.333 269.992 279.593 269.797 279.138C269.277 277.968 267.977 278.163 266.937 279.658C266.417 280.373 265.637 280.958 265.182 280.958C264.792 280.958 264.272 281.478 264.077 282.128C263.817 282.843 262.907 283.753 262.062 284.208C260.437 285.118 259.917 286.158 261.087 286.158C261.477 286.158 261.737 285.833 261.737 285.508C261.737 284.598 263.492 284.728 263.947 285.638C264.142 286.093 264.142 285.833 264.012 285.118C263.622 283.623 265.182 282.518 266.482 283.363C266.937 283.623 267.002 283.363 266.742 282.648C266.417 281.803 266.547 281.608 267.457 281.868C268.172 282.128 269.277 281.608 270.382 280.633C272.137 278.943 272.722 277.903 271.487 278.683C271.162 278.878 270.837 278.618 270.837 278.098C270.837 277.513 270.512 277.058 270.122 277.058C269.732 277.058 269.602 277.708 269.797 278.488Z" fill="#016397"/>
<path d="M258.682 287.068C258.097 287.783 258.162 288.238 258.877 289.148C259.787 290.318 259.852 290.318 259.462 288.953C259.137 287.718 259.267 287.523 260.177 287.913C260.892 288.173 261.152 288.043 260.957 287.458C260.567 286.223 259.592 286.028 258.682 287.068Z" fill="#016397"/>
<path d="M290.013 314.109C289.818 314.434 289.948 314.759 290.273 314.759C290.663 314.759 290.988 314.434 290.988 314.109C290.988 313.719 290.858 313.459 290.728 313.459C290.533 313.459 290.208 313.719 290.013 314.109Z" fill="#016397"/>
<path d="M392.523 316.059C392.523 316.97 392.653 317.295 392.848 316.84C392.978 316.449 392.978 315.669 392.848 315.214C392.653 314.824 392.523 315.149 392.523 316.059Z" fill="#016397"/>
<path d="M248.736 316.059C248.216 316.384 247.956 316.839 248.151 317.034C248.411 317.229 248.931 316.969 249.386 316.384C250.296 315.279 250.101 315.149 248.736 316.059Z" fill="#016397"/>
<path d="M103.454 334.26C102.219 334.78 102.219 334.845 103.584 334.845C104.364 334.91 105.209 334.585 105.404 334.26C105.859 333.48 105.274 333.48 103.454 334.26Z" fill="#016397"/>
<path d="M193.159 353.111C193.354 353.436 193.679 353.761 193.874 353.761C194.004 353.761 194.134 353.436 194.134 353.111C194.134 352.721 193.809 352.461 193.419 352.461C193.094 352.461 192.964 352.721 193.159 353.111Z" fill="#016397"/>
<path d="M326.415 358.312C326.22 358.637 326.35 358.962 326.675 358.962C327.065 358.962 327.39 358.637 327.39 358.312C327.39 357.922 327.26 357.662 327.13 357.662C326.935 357.662 326.61 357.922 326.415 358.312Z" fill="#016397"/>
</svg>
