<svg width="395" height="26" viewBox="0 0 395 26" fill="none" xmlns="http://www.w3.org/2000/svg">
<path d="M8.18 25.272C6.63867 25.272 5.27867 24.966 4.1 24.354C2.92133 23.742 2.00333 22.8693 1.346 21.736C0.711333 20.6027 0.394 19.288 0.394 17.792V8.34C0.394 6.86667 0.711333 5.57467 1.346 4.464C2.00333 3.33067 2.92133 2.458 4.1 1.846C5.27867 1.234 6.63867 0.928 8.18 0.928C9.72133 0.928 11.0813 1.234 12.26 1.846C13.4387 2.43533 14.3453 3.274 14.98 4.362C15.6373 5.45 15.966 6.71933 15.966 8.17V8.34C15.966 8.45333 15.9207 8.55533 15.83 8.646C15.762 8.73667 15.6713 8.782 15.558 8.782L11.58 8.952C11.308 8.952 11.172 8.82733 11.172 8.578V8.136C11.172 7.20667 10.9 6.45867 10.356 5.892C9.812 5.32533 9.08667 5.042 8.18 5.042C7.27333 5.042 6.548 5.32533 6.004 5.892C5.46 6.45867 5.188 7.20667 5.188 8.136V18.098C5.188 19.0273 5.46 19.7753 6.004 20.342C6.548 20.886 7.27333 21.158 8.18 21.158C9.08667 21.158 9.812 20.886 10.356 20.342C10.9 19.7753 11.172 19.0273 11.172 18.098V17.656C11.172 17.4067 11.308 17.282 11.58 17.282L15.558 17.452C15.6713 17.452 15.762 17.4973 15.83 17.588C15.9207 17.656 15.966 17.7467 15.966 17.86V17.962C15.966 19.4127 15.6373 20.6933 14.98 21.804C14.3453 22.9147 13.4387 23.776 12.26 24.388C11.0813 24.9773 9.72133 25.272 8.18 25.272ZM21.3882 25C21.2748 25 21.1728 24.966 21.0822 24.898C21.0142 24.8073 20.9802 24.7053 20.9802 24.592V1.608C20.9802 1.49467 21.0142 1.404 21.0822 1.336C21.1728 1.24533 21.2748 1.2 21.3882 1.2H25.3662C25.4795 1.2 25.5702 1.24533 25.6382 1.336C25.7288 1.404 25.7742 1.49467 25.7742 1.608V20.716C25.7742 20.8293 25.8308 20.886 25.9442 20.886H35.0562C35.1695 20.886 35.2602 20.9313 35.3282 21.022C35.4188 21.09 35.4642 21.1807 35.4642 21.294V24.592C35.4642 24.7053 35.4188 24.8073 35.3282 24.898C35.2602 24.966 35.1695 25 35.0562 25H21.3882ZM40.3046 25C40.1913 25 40.0893 24.966 39.9986 24.898C39.9306 24.8073 39.8966 24.7053 39.8966 24.592V1.608C39.8966 1.49467 39.9306 1.404 39.9986 1.336C40.0893 1.24533 40.1913 1.2 40.3046 1.2H44.2826C44.3959 1.2 44.4866 1.24533 44.5546 1.336C44.6453 1.404 44.6906 1.49467 44.6906 1.608V24.592C44.6906 24.7053 44.6453 24.8073 44.5546 24.898C44.4866 24.966 44.3959 25 44.2826 25H40.3046ZM63.3034 1.472C63.3941 1.29067 63.5528 1.2 63.7794 1.2H67.7234C67.8368 1.2 67.9274 1.24533 67.9954 1.336C68.0861 1.404 68.1314 1.49467 68.1314 1.608V24.592C68.1314 24.7053 68.0861 24.8073 67.9954 24.898C67.9274 24.966 67.8368 25 67.7234 25H63.7454C63.6321 25 63.5301 24.966 63.4394 24.898C63.3714 24.8073 63.3374 24.7053 63.3374 24.592V9.496C63.3374 9.40533 63.3148 9.36 63.2694 9.36C63.2241 9.33733 63.1788 9.36 63.1334 9.428L60.0054 14.596C59.9148 14.7773 59.7561 14.868 59.5294 14.868H58.7474C58.5208 14.868 58.3621 14.7773 58.2714 14.596L55.1434 9.428C55.0981 9.36 55.0528 9.33733 55.0074 9.36C54.9621 9.36 54.9394 9.40533 54.9394 9.496V24.592C54.9394 24.7053 54.8941 24.8073 54.8034 24.898C54.7354 24.966 54.6448 25 54.5314 25H50.5534C50.4401 25 50.3381 24.966 50.2474 24.898C50.1794 24.8073 50.1454 24.7053 50.1454 24.592V1.608C50.1454 1.49467 50.1794 1.404 50.2474 1.336C50.3381 1.24533 50.4401 1.2 50.5534 1.2H54.4974C54.7241 1.2 54.8828 1.29067 54.9734 1.472L59.0534 8.17C59.1214 8.306 59.1894 8.306 59.2574 8.17L63.3034 1.472ZM86.1923 25C85.943 25 85.7843 24.8867 85.7163 24.66L84.9343 21.328C84.9116 21.2373 84.855 21.192 84.7643 21.192H78.4063C78.3156 21.192 78.259 21.2373 78.2363 21.328L77.4543 24.66C77.3863 24.8867 77.239 25 77.0123 25H72.8983C72.6036 25 72.4903 24.8527 72.5583 24.558L78.6783 1.54C78.7463 1.31333 78.905 1.2 79.1543 1.2H84.0843C84.3336 1.2 84.4923 1.31333 84.5603 1.54L90.6803 24.558L90.7143 24.694C90.7143 24.898 90.5896 25 90.3403 25H86.1923ZM79.1543 17.282C79.1316 17.35 79.143 17.4067 79.1883 17.452C79.2336 17.4747 79.279 17.486 79.3243 17.486H83.8123C83.8576 17.486 83.903 17.4747 83.9483 17.452C83.9936 17.4067 84.005 17.35 83.9823 17.282L81.6363 7.422C81.6136 7.33133 81.5796 7.286 81.5343 7.286C81.489 7.286 81.455 7.33133 81.4323 7.422L79.1543 17.282ZM107.485 1.2C107.598 1.2 107.689 1.24533 107.757 1.336C107.847 1.404 107.893 1.49467 107.893 1.608V4.94C107.893 5.05333 107.847 5.15533 107.757 5.246C107.689 5.314 107.598 5.348 107.485 5.348H102.317C102.203 5.348 102.147 5.40467 102.147 5.518V24.592C102.147 24.7053 102.101 24.8073 102.011 24.898C101.943 24.966 101.852 25 101.739 25H97.7608C97.6474 25 97.5454 24.966 97.4548 24.898C97.3868 24.8073 97.3528 24.7053 97.3528 24.592V5.518C97.3528 5.40467 97.2961 5.348 97.1828 5.348H92.1848C92.0714 5.348 91.9694 5.314 91.8788 5.246C91.8108 5.15533 91.7768 5.05333 91.7768 4.94V1.608C91.7768 1.49467 91.8108 1.404 91.8788 1.336C91.9694 1.24533 92.0714 1.2 92.1848 1.2H107.485ZM127.025 4.906C127.025 5.01933 126.98 5.12133 126.889 5.212C126.821 5.28 126.73 5.314 126.617 5.314H117.505C117.392 5.314 117.335 5.37067 117.335 5.484V10.788C117.335 10.9013 117.392 10.958 117.505 10.958H123.183C123.296 10.958 123.387 11.0033 123.455 11.094C123.546 11.162 123.591 11.2527 123.591 11.366V14.664C123.591 14.7773 123.546 14.8793 123.455 14.97C123.387 15.038 123.296 15.072 123.183 15.072H117.505C117.392 15.072 117.335 15.1287 117.335 15.242V20.716C117.335 20.8293 117.392 20.886 117.505 20.886H126.617C126.73 20.886 126.821 20.9313 126.889 21.022C126.98 21.09 127.025 21.1807 127.025 21.294V24.592C127.025 24.7053 126.98 24.8073 126.889 24.898C126.821 24.966 126.73 25 126.617 25H112.949C112.836 25 112.734 24.966 112.643 24.898C112.575 24.8073 112.541 24.7053 112.541 24.592V1.608C112.541 1.49467 112.575 1.404 112.643 1.336C112.734 1.24533 112.836 1.2 112.949 1.2H126.617C126.73 1.2 126.821 1.24533 126.889 1.336C126.98 1.404 127.025 1.49467 127.025 1.608V4.906ZM147.752 25.272C146.188 25.272 144.817 25 143.638 24.456C142.459 23.8893 141.541 23.1073 140.884 22.11C140.249 21.09 139.932 19.9227 139.932 18.608V17.724C139.932 17.6107 139.966 17.52 140.034 17.452C140.125 17.3613 140.227 17.316 140.34 17.316H144.25C144.363 17.316 144.454 17.3613 144.522 17.452C144.613 17.52 144.658 17.6107 144.658 17.724V18.37C144.658 19.1633 144.953 19.832 145.542 20.376C146.131 20.8973 146.925 21.158 147.922 21.158C148.806 21.158 149.475 20.9313 149.928 20.478C150.404 20.0247 150.642 19.4467 150.642 18.744C150.642 18.2227 150.495 17.7807 150.2 17.418C149.905 17.0327 149.486 16.6813 148.942 16.364C148.421 16.024 147.605 15.5707 146.494 15.004C145.134 14.324 144.023 13.6893 143.162 13.1C142.301 12.5107 141.564 11.7513 140.952 10.822C140.34 9.89267 140.034 8.77067 140.034 7.456C140.034 6.14133 140.34 4.99667 140.952 4.022C141.587 3.02467 142.471 2.26533 143.604 1.744C144.737 1.2 146.029 0.928 147.48 0.928C148.999 0.928 150.347 1.22267 151.526 1.812C152.705 2.37867 153.623 3.18333 154.28 4.226C154.937 5.26867 155.266 6.47 155.266 7.83V8.51C155.266 8.62333 155.221 8.72533 155.13 8.816C155.062 8.884 154.971 8.918 154.858 8.918H150.948C150.835 8.918 150.733 8.884 150.642 8.816C150.574 8.72533 150.54 8.62333 150.54 8.51V7.898C150.54 7.082 150.257 6.402 149.69 5.858C149.123 5.314 148.353 5.042 147.378 5.042C146.562 5.042 145.916 5.25733 145.44 5.688C144.987 6.096 144.76 6.674 144.76 7.422C144.76 7.94333 144.896 8.39667 145.168 8.782C145.44 9.16733 145.859 9.54133 146.426 9.904C146.993 10.244 147.854 10.6973 149.01 11.264L149.724 11.672C151.039 12.3973 152.059 13.032 152.784 13.576C153.532 14.0973 154.155 14.766 154.654 15.582C155.153 16.398 155.402 17.384 155.402 18.54C155.402 20.6027 154.699 22.246 153.294 23.47C151.911 24.6713 150.064 25.272 147.752 25.272ZM174.783 1.2C174.897 1.2 174.987 1.24533 175.055 1.336C175.146 1.404 175.191 1.49467 175.191 1.608V4.94C175.191 5.05333 175.146 5.15533 175.055 5.246C174.987 5.314 174.897 5.348 174.783 5.348H169.615C169.502 5.348 169.445 5.40467 169.445 5.518V24.592C169.445 24.7053 169.4 24.8073 169.309 24.898C169.241 24.966 169.151 25 169.037 25H165.059C164.946 25 164.844 24.966 164.753 24.898C164.685 24.8073 164.651 24.7053 164.651 24.592V5.518C164.651 5.40467 164.595 5.348 164.481 5.348H159.483C159.37 5.348 159.268 5.314 159.177 5.246C159.109 5.15533 159.075 5.05333 159.075 4.94V1.608C159.075 1.49467 159.109 1.404 159.177 1.336C159.268 1.24533 159.37 1.2 159.483 1.2H174.783ZM191.025 25C190.776 25 190.617 24.8867 190.549 24.66L187.115 15.276C187.07 15.1853 187.013 15.14 186.945 15.14H184.803C184.69 15.14 184.633 15.1967 184.633 15.31V24.592C184.633 24.7053 184.588 24.8073 184.497 24.898C184.429 24.966 184.339 25 184.225 25H180.247C180.134 25 180.032 24.966 179.941 24.898C179.873 24.8073 179.839 24.7053 179.839 24.592V1.608C179.839 1.49467 179.873 1.404 179.941 1.336C180.032 1.24533 180.134 1.2 180.247 1.2H188.543C189.881 1.2 191.071 1.506 192.113 2.118C193.156 2.70733 193.961 3.546 194.527 4.634C195.094 5.722 195.377 6.96867 195.377 8.374C195.377 9.82467 195.06 11.0827 194.425 12.148C193.791 13.2133 192.895 14.0067 191.739 14.528C191.626 14.5733 191.592 14.6527 191.637 14.766L195.513 24.524C195.536 24.5693 195.547 24.626 195.547 24.694C195.547 24.898 195.423 25 195.173 25H191.025ZM184.803 5.314C184.69 5.314 184.633 5.37067 184.633 5.484V11.298C184.633 11.4113 184.69 11.468 184.803 11.468H187.761C188.6 11.468 189.28 11.196 189.801 10.652C190.323 10.0853 190.583 9.33733 190.583 8.408C190.583 7.456 190.323 6.708 189.801 6.164C189.28 5.59733 188.6 5.314 187.761 5.314H184.803ZM200.658 25C200.545 25 200.443 24.966 200.352 24.898C200.284 24.8073 200.25 24.7053 200.25 24.592V1.608C200.25 1.49467 200.284 1.404 200.352 1.336C200.443 1.24533 200.545 1.2 200.658 1.2H204.636C204.749 1.2 204.84 1.24533 204.908 1.336C204.999 1.404 205.044 1.49467 205.044 1.608V24.592C205.044 24.7053 204.999 24.8073 204.908 24.898C204.84 24.966 204.749 25 204.636 25H200.658ZM210.975 25C210.862 25 210.76 24.966 210.669 24.898C210.601 24.8073 210.567 24.7053 210.567 24.592V1.608C210.567 1.49467 210.601 1.404 210.669 1.336C210.76 1.24533 210.862 1.2 210.975 1.2H214.953C215.066 1.2 215.157 1.24533 215.225 1.336C215.316 1.404 215.361 1.49467 215.361 1.608V10.652C215.361 10.72 215.384 10.7653 215.429 10.788C215.497 10.8107 215.542 10.788 215.565 10.72L221.651 1.472C221.764 1.29067 221.923 1.2 222.127 1.2H226.513C226.672 1.2 226.774 1.24533 226.819 1.336C226.887 1.42667 226.876 1.54 226.785 1.676L220.495 11.434C220.472 11.502 220.472 11.5813 220.495 11.672L227.159 24.524C227.204 24.6147 227.227 24.6827 227.227 24.728C227.227 24.9093 227.102 25 226.853 25H222.501C222.297 25 222.138 24.898 222.025 24.694L217.197 15.378C217.174 15.31 217.14 15.276 217.095 15.276C217.05 15.276 217.004 15.31 216.959 15.378L215.429 17.588C215.384 17.6787 215.361 17.7467 215.361 17.792V24.592C215.361 24.7053 215.316 24.8073 215.225 24.898C215.157 24.966 215.066 25 214.953 25H210.975ZM245.96 4.906C245.96 5.01933 245.914 5.12133 245.824 5.212C245.756 5.28 245.665 5.314 245.552 5.314H236.44C236.326 5.314 236.27 5.37067 236.27 5.484V10.788C236.27 10.9013 236.326 10.958 236.44 10.958H242.118C242.231 10.958 242.322 11.0033 242.39 11.094C242.48 11.162 242.526 11.2527 242.526 11.366V14.664C242.526 14.7773 242.48 14.8793 242.39 14.97C242.322 15.038 242.231 15.072 242.118 15.072H236.44C236.326 15.072 236.27 15.1287 236.27 15.242V20.716C236.27 20.8293 236.326 20.886 236.44 20.886H245.552C245.665 20.886 245.756 20.9313 245.824 21.022C245.914 21.09 245.96 21.1807 245.96 21.294V24.592C245.96 24.7053 245.914 24.8073 245.824 24.898C245.756 24.966 245.665 25 245.552 25H231.884C231.77 25 231.668 24.966 231.578 24.898C231.51 24.8073 231.476 24.7053 231.476 24.592V1.608C231.476 1.49467 231.51 1.404 231.578 1.336C231.668 1.24533 231.77 1.2 231.884 1.2H245.552C245.665 1.2 245.756 1.24533 245.824 1.336C245.914 1.404 245.96 1.49467 245.96 1.608V4.906ZM298.538 25C298.288 25 298.13 24.8867 298.062 24.66L297.28 21.328C297.257 21.2373 297.2 21.192 297.11 21.192H290.752C290.661 21.192 290.604 21.2373 290.582 21.328L289.8 24.66C289.732 24.8867 289.584 25 289.358 25H285.244C284.949 25 284.836 24.8527 284.904 24.558L291.024 1.54C291.092 1.31333 291.25 1.2 291.5 1.2H296.43C296.679 1.2 296.838 1.31333 296.906 1.54L303.026 24.558L303.06 24.694C303.06 24.898 302.935 25 302.686 25H298.538ZM291.5 17.282C291.477 17.35 291.488 17.4067 291.534 17.452C291.579 17.4747 291.624 17.486 291.67 17.486H296.158C296.203 17.486 296.248 17.4747 296.294 17.452C296.339 17.4067 296.35 17.35 296.328 17.282L293.982 7.422C293.959 7.33133 293.925 7.286 293.88 7.286C293.834 7.286 293.8 7.33133 293.778 7.422L291.5 17.282ZM314.244 25.272C312.703 25.272 311.343 24.966 310.164 24.354C308.986 23.742 308.068 22.8693 307.41 21.736C306.776 20.6027 306.458 19.288 306.458 17.792V8.34C306.458 6.86667 306.776 5.57467 307.41 4.464C308.068 3.33067 308.986 2.458 310.164 1.846C311.343 1.234 312.703 0.928 314.244 0.928C315.786 0.928 317.146 1.234 318.324 1.846C319.503 2.43533 320.41 3.274 321.044 4.362C321.702 5.45 322.03 6.71933 322.03 8.17V8.34C322.03 8.45333 321.985 8.55533 321.894 8.646C321.826 8.73667 321.736 8.782 321.622 8.782L317.644 8.952C317.372 8.952 317.236 8.82733 317.236 8.578V8.136C317.236 7.20667 316.964 6.45867 316.42 5.892C315.876 5.32533 315.151 5.042 314.244 5.042C313.338 5.042 312.612 5.32533 312.068 5.892C311.524 6.45867 311.252 7.20667 311.252 8.136V18.098C311.252 19.0273 311.524 19.7753 312.068 20.342C312.612 20.886 313.338 21.158 314.244 21.158C315.151 21.158 315.876 20.886 316.42 20.342C316.964 19.7753 317.236 19.0273 317.236 18.098V17.656C317.236 17.4067 317.372 17.282 317.644 17.282L321.622 17.452C321.736 17.452 321.826 17.4973 321.894 17.588C321.985 17.656 322.03 17.7467 322.03 17.86V17.962C322.03 19.4127 321.702 20.6933 321.044 21.804C320.41 22.9147 319.503 23.776 318.324 24.388C317.146 24.9773 315.786 25.272 314.244 25.272ZM341.702 1.2C341.815 1.2 341.906 1.24533 341.974 1.336C342.064 1.404 342.11 1.49467 342.11 1.608V4.94C342.11 5.05333 342.064 5.15533 341.974 5.246C341.906 5.314 341.815 5.348 341.702 5.348H336.534C336.42 5.348 336.364 5.40467 336.364 5.518V24.592C336.364 24.7053 336.318 24.8073 336.228 24.898C336.16 24.966 336.069 25 335.956 25H331.978C331.864 25 331.762 24.966 331.672 24.898C331.604 24.8073 331.57 24.7053 331.57 24.592V5.518C331.57 5.40467 331.513 5.348 331.4 5.348H326.402C326.288 5.348 326.186 5.314 326.096 5.246C326.028 5.15533 325.994 5.05333 325.994 4.94V1.608C325.994 1.49467 326.028 1.404 326.096 1.336C326.186 1.24533 326.288 1.2 326.402 1.2H341.702ZM347.166 25C347.052 25 346.95 24.966 346.86 24.898C346.792 24.8073 346.758 24.7053 346.758 24.592V1.608C346.758 1.49467 346.792 1.404 346.86 1.336C346.95 1.24533 347.052 1.2 347.166 1.2H351.144C351.257 1.2 351.348 1.24533 351.416 1.336C351.506 1.404 351.552 1.49467 351.552 1.608V24.592C351.552 24.7053 351.506 24.8073 351.416 24.898C351.348 24.966 351.257 25 351.144 25H347.166ZM364.555 25.306C362.991 25.306 361.608 24.9887 360.407 24.354C359.228 23.7193 358.31 22.824 357.653 21.668C356.995 20.512 356.667 19.1633 356.667 17.622V8.578C356.667 7.05933 356.995 5.722 357.653 4.566C358.31 3.41 359.228 2.51467 360.407 1.88C361.608 1.24533 362.991 0.928 364.555 0.928C366.119 0.928 367.501 1.24533 368.703 1.88C369.904 2.51467 370.833 3.41 371.491 4.566C372.148 5.722 372.477 7.05933 372.477 8.578V17.622C372.477 19.1633 372.148 20.512 371.491 21.668C370.833 22.824 369.904 23.7193 368.703 24.354C367.501 24.9887 366.119 25.306 364.555 25.306ZM364.555 21.192C365.507 21.192 366.266 20.886 366.833 20.274C367.399 19.6393 367.683 18.8233 367.683 17.826V8.442C367.683 7.422 367.399 6.606 366.833 5.994C366.266 5.35933 365.507 5.042 364.555 5.042C363.625 5.042 362.877 5.35933 362.311 5.994C361.744 6.606 361.461 7.422 361.461 8.442V17.826C361.461 18.8233 361.744 19.6393 362.311 20.274C362.877 20.886 363.625 21.192 364.555 21.192ZM389.314 1.608C389.314 1.49467 389.348 1.404 389.416 1.336C389.507 1.24533 389.609 1.2 389.722 1.2H393.666C393.779 1.2 393.87 1.24533 393.938 1.336C394.029 1.404 394.074 1.49467 394.074 1.608V24.592C394.074 24.7053 394.029 24.8073 393.938 24.898C393.87 24.966 393.779 25 393.666 25H389.518C389.291 25 389.133 24.898 389.042 24.694L382.548 10.856C382.503 10.788 382.457 10.754 382.412 10.754C382.367 10.754 382.344 10.7993 382.344 10.89L382.378 24.592C382.378 24.7053 382.333 24.8073 382.242 24.898C382.174 24.966 382.083 25 381.97 25H378.026C377.913 25 377.811 24.966 377.72 24.898C377.652 24.8073 377.618 24.7053 377.618 24.592V1.608C377.618 1.49467 377.652 1.404 377.72 1.336C377.811 1.24533 377.913 1.2 378.026 1.2H382.14C382.367 1.2 382.525 1.302 382.616 1.506L389.11 15.344C389.155 15.412 389.201 15.446 389.246 15.446C389.291 15.446 389.314 15.4007 389.314 15.31V1.608Z" fill="black"/>
<path d="M272.161 12.692C272.274 12.692 272.365 12.7373 272.433 12.828C272.523 12.896 272.569 12.9867 272.569 13.1V16.126C272.569 16.2393 272.523 16.3413 272.433 16.432C272.365 16.5 272.274 16.534 272.161 16.534H267.707C267.593 16.534 267.537 16.5907 267.537 16.704V21.124C267.537 21.2373 267.491 21.3393 267.401 21.43C267.333 21.498 267.242 21.532 267.129 21.532H264.069C263.955 21.532 263.853 21.498 263.763 21.43C263.695 21.3393 263.661 21.2373 263.661 21.124V16.704C263.661 16.5907 263.604 16.534 263.491 16.534H259.037C258.923 16.534 258.821 16.5 258.731 16.432C258.663 16.3413 258.629 16.2393 258.629 16.126V13.1C258.629 12.9867 258.663 12.896 258.731 12.828C258.821 12.7373 258.923 12.692 259.037 12.692H263.491C263.604 12.692 263.661 12.6353 263.661 12.522V8.034C263.661 7.92067 263.695 7.83 263.763 7.762C263.853 7.67133 263.955 7.626 264.069 7.626H267.129C267.242 7.626 267.333 7.67133 267.401 7.762C267.491 7.83 267.537 7.92067 267.537 8.034V12.522C267.537 12.6353 267.593 12.692 267.707 12.692H272.161Z" fill="#E9A41E"/>
</svg>
