<svg width="105" height="102" viewBox="0 0 105 102" fill="none" xmlns="http://www.w3.org/2000/svg">
<path d="M101.238 0.543091H4.30845C3.39033 0.543091 2.50982 0.969086 1.86061 1.72736C1.2114 2.48564 0.84668 3.51408 0.84668 4.58645V97.5837C0.84668 98.656 1.2114 99.6845 1.86061 100.443C2.50982 101.201 3.39033 101.627 4.30845 101.627H101.238C102.156 101.627 103.037 101.201 103.686 100.443C104.335 99.6845 104.7 98.656 104.7 97.5837V4.58645C104.7 3.51408 104.335 2.48564 103.686 1.72736C103.037 0.969086 102.156 0.543091 101.238 0.543091ZM94.3146 34.9116C94.3146 35.4478 94.1322 35.962 93.8076 36.3412C93.483 36.7203 93.0427 36.9333 92.5837 36.9333H12.9629C12.5038 36.9333 12.0636 36.7203 11.739 36.3412C11.4144 35.962 11.232 35.4478 11.232 34.9116V14.6948C11.232 14.1587 11.4144 13.6444 11.739 13.2653C12.0636 12.8862 12.5038 12.6732 12.9629 12.6732H92.5837C93.0427 12.6732 93.483 12.8862 93.8076 13.2653C94.1322 13.6444 94.3146 14.1587 94.3146 14.6948V34.9116Z" fill="black"/>
</svg>
